<svg width="574" height="574" viewBox="0 0 574 574" fill="none" xmlns="http://www.w3.org/2000/svg">
<mask id="mask0_446_347" style="mask-type:luminance" maskUnits="userSpaceOnUse" x="0" y="0" width="574" height="574">
<path d="M574 0H0V574H574V0Z" fill="white"/>
</mask>
<g mask="url(#mask0_446_347)">
<path d="M36.0013 130.424L33.1428 138.385" stroke="#CCDDE2" stroke-width="3.69" stroke-miterlimit="10"/>
<path d="M27.7127 153.493L9.39062 204.487" stroke="#CCDDE2" stroke-width="3.69" stroke-miterlimit="10" stroke-dasharray="25.64 27.97 27.97 25.64"/>
<path d="M6.8995 211.409L-117.285 557.003" stroke="#CCDDE2" stroke-width="3.69" stroke-miterlimit="10" stroke-dasharray="27.97 27.97 25.64 27.97 27.97 25.64"/>
<path d="M30.5253 80.8754L27.6094 88.8253" stroke="#CCDDE2" stroke-width="3.69" stroke-miterlimit="10"/>
<path d="M21.7661 104.782L2.02625 158.64" stroke="#CCDDE2" stroke-width="3.69" stroke-miterlimit="10" stroke-dasharray="27.14 29.61 29.61 27.14"/>
<path d="M-0.654347 165.953L-134.431 530.983" stroke="#CCDDE2" stroke-width="3.69" stroke-miterlimit="10" stroke-dasharray="29.61 29.61 27.14 29.61 29.61 27.14"/>
<path d="M25.0436 31.3345L22.1219 39.2787" stroke="#CCDDE2" stroke-width="3.69" stroke-miterlimit="10"/>
<path d="M15.8654 56.2968L-5.26355 113.743" stroke="#CCDDE2" stroke-width="3.69" stroke-miterlimit="10" stroke-dasharray="28.96 31.6 31.6 28.96"/>
<path d="M10.82 5.87677L-8.96008 60.332" stroke="#CCDDE2" stroke-width="3.69" stroke-miterlimit="10" stroke-dasharray="27.41 29.9 29.9 27.41"/>
<path d="M277.896 323.345C277.747 323.678 277.621 324.011 277.477 324.361C266.571 350.863 258.989 382.611 257.221 420.586C226.983 346.517 176.792 310.66 132.118 293.44C132.915 268.689 136.359 225.645 150.422 199.2C150.422 199.2 174.215 204.762 204.16 228.228C227.786 246.733 255.269 276.421 277.896 323.345Z" fill="#3FBDF1"/>
<path d="M282.356 322.945L281.34 322.715C281.484 322.36 281.61 322.021 281.754 321.682C281.954 322.096 282.155 322.532 282.356 322.945Z" fill="#3FBDF1"/>
<path d="M282.356 322.945L281.34 322.715C281.484 322.36 281.61 322.021 281.754 321.682C281.954 322.096 282.155 322.532 282.356 322.945Z" fill="#3FBDF1"/>
<path d="M262.8 492.968C262.513 492.968 262.226 492.968 261.933 492.968C149.102 492.968 55.6379 407.442 38.8885 295.759C37.7405 286.224 37.5913 280.536 37.5913 280.536C37.5913 280.536 78.2937 276.409 125.511 294.984C167.373 311.463 214.355 345.771 242.67 416.672V416.723C242.842 417.142 243.014 417.567 243.164 418.009C251.63 439.454 258.363 464.233 262.766 492.83C262.783 492.859 262.8 492.916 262.8 492.968Z" fill="#3FBDF1"/>
<path d="M525.445 283.953C514.66 410.485 412.029 509.822 286.868 510.327C286.943 504.587 288.739 439.633 327.938 380.752C345.469 354.184 369.014 332.121 396.663 316.349C397.449 315.901 398.212 315.471 399.01 315.035C399.975 314.461 400.956 313.967 401.938 313.439C402.19 313.29 402.466 313.158 402.741 313.008C403.7 312.503 404.664 311.993 405.646 311.505C406.157 311.241 406.667 310.982 407.19 310.735C408.246 310.161 409.319 309.662 410.393 309.157C411.466 308.652 412.413 308.198 413.429 307.728C413.555 307.676 413.665 307.619 413.791 307.561C414.554 307.205 415.318 306.867 416.087 306.528C417.045 306.08 418.01 305.661 418.991 305.254C421.861 304.014 424.794 302.826 427.796 301.701L428.83 301.305C430.104 300.817 431.372 300.352 432.664 299.898C458.683 290.674 489.335 284.854 525.445 283.953Z" fill="#3FBDF1"/>
<path d="M355.117 225.261C329.556 244.622 300.753 275.142 281.754 321.693C259.172 273.839 231.741 243.566 208.155 224.687C222.086 198.714 253.645 145.957 282.356 121.275C282.356 121.264 325.791 164.199 355.117 225.261Z" fill="#3FBDF1"/>
<path d="M430.144 294.967C428.876 295.409 427.63 295.868 426.379 296.345L425.363 296.735C422.418 297.837 419.531 299.002 416.753 300.213C415.788 300.621 414.847 301.029 413.883 301.471C413.119 301.803 412.367 302.131 411.621 302.481L411.26 302.647C410.261 303.106 409.262 303.571 408.286 304.048C407.31 304.524 406.18 305.064 405.147 305.598C404.63 305.833 404.131 306.091 403.631 306.35C402.667 306.832 401.72 307.325 400.761 307.825C400.491 307.974 400.222 308.1 399.975 308.249C399.01 308.766 398.046 309.283 397.105 309.816C396.318 310.235 395.566 310.66 394.809 311.102C367.687 326.57 344.592 348.214 327.398 374.277C288.94 432.033 287.184 495.735 287.115 501.377L287.023 501.211C282.431 471.311 275.377 445.407 266.531 422.986L267.226 420.69L266.015 421.632C266.015 421.632 266.015 421.632 266.015 421.591C267.737 383.604 275.199 351.845 285.846 325.332L286.845 325.556C286.65 325.148 286.455 324.723 286.271 324.321C304.874 278.677 333.127 248.743 358.176 229.749C387.726 207.363 412.93 200.142 412.93 200.142C426.43 216.76 429.501 267.587 430.144 294.967Z" fill="#3FBDF1"/>
<path d="M259.942 427.2V427.137C259.942 427.137 259.942 427.183 259.942 427.2Z" stroke="#CCDDE2" stroke-width="4.82" stroke-miterlimit="10"/>
<path d="M281.748 322.262C281.593 322.618 281.461 322.974 281.306 323.353C269.826 351.943 261.79 386.194 259.919 427.16C227.993 347.271 175.024 308.572 127.83 289.997C128.674 263.295 132.313 216.864 147.156 188.331C147.156 188.331 172.275 194.329 203.896 219.642C228.837 239.612 257.864 271.635 281.748 322.262Z" stroke="#CCDDE2" stroke-width="4.82" stroke-miterlimit="10"/>
<path d="M282.408 323.592L281.329 323.351C281.484 322.973 281.616 322.617 281.771 322.261C281.96 322.697 282.173 323.162 282.408 323.592Z" stroke="#CCDDE2" stroke-width="4.82" stroke-miterlimit="10"/>
<path d="M259.942 427.2V427.137C259.942 427.137 259.942 427.183 259.942 427.2Z" stroke="#CCDDE2" stroke-width="4.82" stroke-miterlimit="10"/>
<path d="M282.408 323.592L281.329 323.351C281.484 322.973 281.616 322.617 281.771 322.261C281.96 322.697 282.173 323.162 282.408 323.592Z" stroke="#CCDDE2" stroke-width="4.82" stroke-miterlimit="10"/>
<path opacity="0.9" d="M87.1619 418.819C85.0783 416.276 83.0291 413.653 81.0603 411.03C54.5315 375.736 37.0563 334.48 30.1637 290.869C28.4704 280.181 28.7 273.706 28.7 273.706C28.7 273.706 74.5741 269.057 127.818 289.996C175.007 308.571 227.976 347.259 259.901 427.182V427.24C260.102 427.716 260.303 428.193 260.475 428.686C270.033 452.869 277.621 480.8 282.592 513.064C282.592 513.122 282.592 513.185 282.592 513.242C282.253 513.242 281.937 513.242 281.599 513.242C215.738 513.139 155.698 486.913 110.461 444.023C105.731 439.552 101.139 434.88 96.7477 430.052" stroke="#CCDDE2" stroke-width="4.82" stroke-miterlimit="10"/>
<path d="M259.942 427.2V427.137C259.942 427.137 259.942 427.183 259.942 427.2Z" stroke="#CCDDE2" stroke-width="4.82" stroke-miterlimit="10"/>
<path opacity="0.9" d="M535.06 273.724C523.654 407.569 415.094 512.651 282.689 513.191C282.77 507.107 284.67 438.405 326.135 376.12C344.68 348.013 369.588 324.673 398.838 307.992C399.665 307.515 400.474 307.062 401.318 306.603C402.339 306.029 403.378 305.455 404.412 304.915C404.681 304.754 404.986 304.617 405.261 304.456C406.283 303.922 407.299 303.383 408.338 302.866C408.877 302.59 409.417 302.292 409.974 302.057C411.087 301.483 412.224 300.909 413.36 300.386C414.497 299.864 415.496 299.37 416.569 298.877L416.954 298.699C417.763 298.32 418.572 297.964 419.399 297.602C420.415 297.126 421.437 296.69 422.475 296.253C425.495 294.939 428.611 293.688 431.786 292.499L432.882 292.08C434.225 291.564 435.576 291.066 436.935 290.588C464.441 280.836 496.866 274.677 535.06 273.724Z" stroke="#CCDDE2" stroke-width="4.82" stroke-miterlimit="10"/>
<path d="M359.353 220.255C332.312 240.741 301.849 273.029 281.748 322.261C257.864 271.634 228.837 239.605 203.896 219.641C218.625 192.164 252.015 136.354 282.385 110.248C282.408 110.248 328.328 155.669 359.353 220.255Z" stroke="#CCDDE2" stroke-width="4.82" stroke-miterlimit="10"/>
<path d="M104.715 366.481C104.722 366.441 104.722 366.4 104.715 366.36C104.715 366.32 104.715 366.285 104.715 366.205C104.706 366.141 104.706 366.075 104.715 366.01C104.729 366.15 104.753 366.288 104.789 366.423C104.782 366.438 104.771 366.45 104.758 366.46C104.745 366.47 104.731 366.477 104.715 366.481Z" fill="white"/>
<path d="M104.933 404.63C104.021 407.566 102.857 410.419 101.454 413.154C101.058 413.929 100.662 414.681 100.226 415.45C98.7383 418.249 96.9084 420.852 94.7788 423.199C94.4 423.079 94.0269 422.924 93.6882 422.78C93.6079 422.78 93.5505 422.723 93.4873 422.706C86.5993 419.704 81.4333 414.096 79.9008 407.782C78.5289 402.22 79.7573 396.198 77.1169 390.969C73.8795 384.535 65.0973 380.499 64.0067 373.233C63.0137 366.436 69.1325 360.197 68.1395 353.539C66.9915 346.014 57.7444 341.542 56.0396 334.189C54.9432 329.597 55.919 324.356 55.523 319.644C55.0668 314.381 54.176 309.164 52.8596 304.048C53.4968 304.008 54.1282 303.991 54.7653 303.974C67.7779 303.75 80.5953 311.063 84.8085 321.337C88.2008 329.643 86.4731 339.235 90.9847 347.024C91.2545 347.529 91.5593 348.014 91.8974 348.476C92.4892 349.293 93.1274 350.075 93.8088 350.818L95.238 352.31C95.4734 352.546 95.7317 352.764 95.9728 353.022C96.2138 353.28 96.4664 353.504 96.7075 353.763C98.9518 355.904 101.236 358.073 102.729 360.651C102.862 360.874 102.981 361.106 103.085 361.345C103.223 361.58 103.342 361.826 103.441 362.08C103.569 362.339 103.682 362.606 103.779 362.878C103.9 363.176 103.997 363.492 104.095 363.79C104.238 364.267 104.376 364.726 104.474 365.202C104.474 365.323 104.474 365.42 104.514 365.518C104.554 365.616 104.514 365.598 104.514 365.639C104.522 365.678 104.522 365.72 104.514 365.759C104.514 365.839 104.514 365.897 104.554 365.954V365.994C104.557 366.069 104.571 366.143 104.594 366.213C104.594 366.293 104.594 366.327 104.594 366.368C104.602 366.408 104.602 366.449 104.594 366.488V366.528L103.062 388.702C104.037 394.057 106.483 399.407 104.933 404.63Z" fill="white"/>
<path d="M116.476 350.805C117.469 345.995 117.549 340.95 119.811 336.358C124.024 327.897 136.342 321.755 149.24 321.359H149.475C150.623 321.359 151.84 321.359 153.034 321.422C151.7 325.822 150.788 330.339 150.308 334.911C149.871 338.981 150.882 343.521 149.774 347.447C147.966 353.802 138.328 357.659 137.146 364.157C136.113 369.897 142.49 375.304 141.439 381.164C140.291 387.438 131.165 390.922 127.79 396.478C125.069 400.99 126.337 406.173 124.92 410.966C123.272 416.425 117.871 421.298 110.696 423.858C110.242 424.019 109.823 424.174 109.364 424.312C109.123 424.375 108.848 424.472 108.607 424.536C108.526 424.472 108.452 424.392 108.348 424.312C106.052 422.343 103.458 419.025 101.311 415.472L101.472 413.211C102.875 410.475 104.038 407.623 104.95 404.687C106.5 399.463 104.055 394.114 103.159 388.752L104.692 366.579L105.168 366.183C105.342 366.054 105.506 365.914 105.662 365.764C108.027 363.858 110.57 362.033 112.401 359.863C114.662 357.2 115.718 354.284 116.419 351.253" fill="white"/>
<path d="M116.419 351.127C116.419 351.024 116.453 350.926 116.476 350.806L116.419 351.127Z" fill="white"/>
<path d="M116.476 350.787C116.476 350.908 116.436 351.006 116.419 351.109C115.741 354.168 114.697 357.084 112.401 359.719C110.57 361.889 108.027 363.737 105.662 365.62C105.508 365.772 105.343 365.912 105.168 366.039L104.692 366.458C104.702 366.432 104.702 366.403 104.692 366.377C104.692 366.297 104.652 366.24 104.634 366.182C104.625 366.118 104.625 366.052 104.634 365.987V365.947C104.634 365.889 104.634 365.832 104.594 365.752C104.603 365.712 104.603 365.671 104.594 365.631C104.603 365.612 104.607 365.592 104.607 365.571C104.607 365.55 104.603 365.53 104.594 365.511C104.579 365.404 104.558 365.299 104.531 365.195C104.434 364.718 104.296 364.259 104.152 363.783C104.055 363.484 103.957 363.169 103.837 362.87C103.739 362.598 103.626 362.332 103.498 362.072C103.411 361.813 103.292 361.567 103.142 361.338C103.038 361.099 102.919 360.867 102.786 360.643C101.294 358.083 99.0093 355.913 96.765 353.755C96.5239 353.497 96.2656 353.238 96.0302 353.015C95.7949 352.791 95.5309 352.538 95.2955 352.303L93.8663 350.81C93.1849 350.067 92.5466 349.285 91.9548 348.469C91.9548 348.469 93.3497 325.508 105.088 318.569C116.12 311.962 116.476 346.913 116.476 350.787Z" fill="white"/>
<path d="M116.419 351.127C116.419 351.024 116.453 350.926 116.476 350.806L116.419 351.127Z" fill="white"/>
<path d="M104.692 366.402V366.505C104.699 366.466 104.699 366.425 104.692 366.385C104.692 366.345 104.692 366.31 104.692 366.23C104.683 366.165 104.683 366.099 104.692 366.035C104.683 366.157 104.683 366.28 104.692 366.402Z" fill="white"/>
<path d="M144.436 328.714C123.272 351.49 113.319 399.505 109.45 424.296C109.135 426.386 108.848 428.314 108.601 430.036" fill="white"/>
<path d="M146.37 443.983L136.612 501.429C136.38 503 135.599 504.439 134.408 505.49C133.216 506.541 131.691 507.135 130.103 507.169H79.2694C77.6639 507.134 76.1233 506.526 74.9271 505.454C73.7308 504.382 72.9582 502.918 72.7487 501.325L63.7656 443.971L146.37 443.983Z" fill="white"/>
<path d="M155.64 437.572C155.551 439.274 154.823 440.88 153.601 442.068C152.38 443.257 150.755 443.941 149.051 443.983H61.2745C59.5869 443.942 57.9757 443.272 56.7575 442.103C55.5392 440.935 54.802 439.353 54.6907 437.669C54.3176 433.571 57.3713 430.029 61.2745 430.029H149.051C152.908 430.035 155.95 433.513 155.64 437.572Z" fill="white"/>
<path d="M104.755 366.521C104.754 366.393 104.733 366.265 104.692 366.143L104.755 366.521Z" fill="white"/>
<path d="M61.2573 312.48C81.5712 338.884 91.1053 394.494 94.865 423.211C95.1865 425.702 95.4735 427.981 95.6973 430.024" fill="white"/>
<path d="M106.54 340.514C103.997 348.343 103.877 356.253 104.175 361.258C104.26 362.876 104.432 364.488 104.692 366.086" fill="white"/>
<path d="M104.715 366.481C104.722 366.441 104.722 366.4 104.715 366.36C104.715 366.32 104.715 366.285 104.715 366.205C104.706 366.141 104.706 366.075 104.715 366.01C104.729 366.15 104.753 366.288 104.789 366.423C104.782 366.438 104.771 366.45 104.758 366.46C104.745 366.47 104.731 366.477 104.715 366.481Z" stroke="#CCDDE2" stroke-width="4.82" stroke-miterlimit="10"/>
<path d="M104.933 404.63C104.021 407.566 102.857 410.419 101.454 413.154C101.058 413.929 100.662 414.681 100.226 415.45C98.7383 418.249 96.9084 420.852 94.7788 423.199C94.4 423.079 94.0269 422.924 93.6882 422.78C93.6079 422.78 93.5505 422.723 93.4873 422.706C86.5993 419.704 81.4333 414.096 79.9008 407.782C78.5289 402.22 79.7573 396.198 77.1169 390.969C73.8795 384.535 65.0973 380.499 64.0067 373.233C63.0137 366.436 69.1325 360.197 68.1395 353.539C66.9915 346.014 57.7444 341.542 56.0396 334.189C54.9432 329.597 55.919 324.356 55.523 319.644C55.0668 314.381 54.176 309.164 52.8596 304.048C53.4968 304.008 54.1282 303.991 54.7653 303.974C67.7779 303.75 80.5953 311.063 84.8085 321.337C88.2008 329.643 86.4731 339.235 90.9847 347.024C91.2545 347.529 91.5593 348.014 91.8974 348.476C92.4892 349.293 93.1274 350.075 93.8088 350.818L95.238 352.31C95.4734 352.546 95.7317 352.764 95.9728 353.022C96.2138 353.28 96.4664 353.504 96.7075 353.763C98.9518 355.904 101.236 358.073 102.729 360.651C102.862 360.874 102.981 361.106 103.085 361.345C103.223 361.58 103.342 361.826 103.441 362.08C103.569 362.339 103.682 362.606 103.779 362.878C103.9 363.176 103.997 363.492 104.095 363.79C104.238 364.267 104.376 364.726 104.474 365.202C104.474 365.323 104.474 365.42 104.514 365.518C104.554 365.616 104.514 365.598 104.514 365.639C104.522 365.678 104.522 365.72 104.514 365.759C104.514 365.839 104.514 365.897 104.554 365.954V365.994C104.557 366.069 104.571 366.143 104.594 366.213C104.594 366.293 104.594 366.327 104.594 366.368C104.602 366.408 104.602 366.449 104.594 366.488V366.528L103.062 388.702C104.037 394.057 106.483 399.407 104.933 404.63Z" stroke="#CCDDE2" stroke-width="4.82" stroke-miterlimit="10"/>
<path d="M116.476 350.805C117.469 345.995 117.549 340.95 119.811 336.358C124.024 327.897 136.342 321.755 149.24 321.359H149.475C150.623 321.359 151.84 321.359 153.034 321.422C151.7 325.822 150.788 330.339 150.308 334.911C149.871 338.981 150.882 343.521 149.774 347.447C147.966 353.802 138.328 357.659 137.146 364.157C136.113 369.897 142.49 375.304 141.439 381.164C140.291 387.438 131.165 390.922 127.79 396.478C125.069 400.99 126.337 406.173 124.92 410.966C123.272 416.425 117.871 421.298 110.696 423.858C110.242 424.019 109.823 424.174 109.364 424.312C109.123 424.375 108.848 424.472 108.607 424.536C108.526 424.472 108.452 424.392 108.348 424.312C106.052 422.343 103.458 419.025 101.311 415.472L101.472 413.211C102.875 410.475 104.038 407.623 104.95 404.687C106.5 399.463 104.055 394.114 103.159 388.752L104.692 366.579L105.168 366.183C105.342 366.054 105.506 365.914 105.662 365.764C108.027 363.858 110.57 362.033 112.401 359.863C114.662 357.2 115.718 354.284 116.419 351.253" stroke="#CCDDE2" stroke-width="4.82" stroke-miterlimit="10"/>
<path d="M116.419 351.127C116.419 351.024 116.453 350.926 116.476 350.806" stroke="#CCDDE2" stroke-width="4.82" stroke-miterlimit="10"/>
<path d="M116.476 350.787C116.476 350.908 116.436 351.006 116.419 351.109C115.741 354.168 114.697 357.084 112.401 359.719C110.57 361.889 108.027 363.737 105.662 365.62C105.508 365.772 105.343 365.912 105.168 366.039L104.692 366.458C104.702 366.432 104.702 366.403 104.692 366.377C104.692 366.297 104.652 366.24 104.634 366.182C104.625 366.118 104.625 366.052 104.634 365.987V365.947C104.634 365.889 104.634 365.832 104.594 365.752C104.603 365.712 104.603 365.671 104.594 365.631C104.603 365.612 104.607 365.592 104.607 365.571C104.607 365.55 104.603 365.53 104.594 365.511C104.579 365.404 104.558 365.299 104.531 365.195C104.434 364.718 104.296 364.259 104.152 363.783C104.055 363.484 103.957 363.169 103.837 362.87C103.739 362.598 103.626 362.332 103.498 362.072C103.411 361.813 103.292 361.567 103.142 361.338C103.038 361.099 102.919 360.867 102.786 360.643C101.294 358.083 99.0093 355.913 96.765 353.755C96.5239 353.497 96.2656 353.238 96.0302 353.015C95.7949 352.791 95.5309 352.538 95.2955 352.303L93.8663 350.81C93.1849 350.067 92.5466 349.285 91.9548 348.469C91.9548 348.469 93.3497 325.508 105.088 318.569C116.12 311.962 116.476 346.913 116.476 350.787Z" stroke="#CCDDE2" stroke-width="4.82" stroke-miterlimit="10"/>
<path d="M116.419 351.127C116.419 351.024 116.453 350.926 116.476 350.806" stroke="#CCDDE2" stroke-width="4.82" stroke-miterlimit="10"/>
<path d="M104.692 366.402V366.505C104.699 366.466 104.699 366.425 104.692 366.385C104.692 366.345 104.692 366.31 104.692 366.23C104.683 366.165 104.683 366.099 104.692 366.035C104.683 366.157 104.683 366.28 104.692 366.402Z" stroke="#CCDDE2" stroke-width="4.82" stroke-miterlimit="10"/>
<path d="M144.436 328.714C123.272 351.49 113.319 399.505 109.45 424.296C109.135 426.386 108.848 428.314 108.601 430.036" stroke="#CCDDE2" stroke-width="4.82" stroke-miterlimit="10"/>
<path d="M146.37 443.983L136.612 501.429C136.38 503 135.599 504.439 134.408 505.49C133.216 506.541 131.691 507.135 130.103 507.169H79.2694C77.6639 507.134 76.1233 506.526 74.9271 505.454C73.7308 504.382 72.9582 502.918 72.7487 501.325L63.7656 443.971L146.37 443.983Z" stroke="#CCDDE2" stroke-width="4.82" stroke-miterlimit="10"/>
<path d="M155.64 437.572C155.551 439.274 154.823 440.88 153.601 442.068C152.38 443.257 150.755 443.941 149.051 443.983H61.2745C59.5869 443.942 57.9757 443.272 56.7575 442.103C55.5392 440.935 54.802 439.353 54.6907 437.669C54.3176 433.571 57.3713 430.029 61.2745 430.029H149.051C152.908 430.035 155.95 433.513 155.64 437.572Z" stroke="#CCDDE2" stroke-width="4.82" stroke-miterlimit="10"/>
<path d="M104.755 366.521C104.754 366.393 104.733 366.265 104.692 366.143L104.755 366.521Z" stroke="#CCDDE2" stroke-width="4.82" stroke-miterlimit="10"/>
<path d="M61.2573 312.48C81.5712 338.884 91.1053 394.494 94.865 423.211C95.1865 425.702 95.4735 427.981 95.6973 430.024" stroke="#CCDDE2" stroke-width="4.82" stroke-miterlimit="10"/>
<path d="M106.54 340.514C103.997 348.343 103.877 356.253 104.175 361.258C104.26 362.876 104.432 364.488 104.692 366.086" stroke="#CCDDE2" stroke-width="4.82" stroke-miterlimit="10"/>
<path d="M436.935 290.587C435.572 291.065 434.221 291.563 432.882 292.079L431.786 292.498C428.612 293.687 425.472 294.938 422.476 296.252C421.437 296.689 420.415 297.125 419.399 297.601C418.572 297.963 417.763 298.319 416.954 298.698L416.569 298.875C415.496 299.369 414.417 299.868 413.36 300.385C412.304 300.902 411.064 301.476 409.974 302.055C409.4 302.314 408.877 302.589 408.338 302.865C407.299 303.381 406.283 303.921 405.261 304.455C404.974 304.615 404.687 304.753 404.412 304.914C403.379 305.488 402.34 306.028 401.318 306.602C400.474 307.061 399.665 307.514 398.838 307.991C369.588 324.672 344.68 348.012 326.135 376.119C284.67 438.403 282.77 507.105 282.689 513.19L282.597 513.006C277.632 480.765 270.038 452.828 260.498 428.628L261.245 426.166L259.942 427.176C259.942 427.176 259.942 427.176 259.942 427.136C261.807 386.169 269.826 351.942 281.329 323.328L282.408 323.569C282.196 323.127 281.983 322.673 281.771 322.237C301.861 273.005 332.335 240.729 359.376 220.232C391.244 196.124 418.423 188.306 418.423 188.306C432.934 206.249 436.24 261.066 436.935 290.587Z" stroke="#CCDDE2" stroke-width="4.82" stroke-miterlimit="10"/>
<path d="M438.869 502.515C434.639 501.665 430.483 500.655 426.43 499.467C409.784 494.605 390.423 486.293 383.805 468.827C382.145 464.315 381.622 459.463 382.281 454.701C382.941 449.939 384.764 445.413 387.588 441.521C390.587 437.372 394.798 434.255 399.642 432.596C410.175 429.192 421.827 434.496 429.639 442.354C437.451 450.212 442.479 460.303 448.581 469.527C443.053 457.134 437.434 444.391 436.671 430.839C436.097 420.278 438.967 408.832 446.233 400.894C452.932 393.592 468.619 387.87 477.838 393.236C483.928 396.778 486.35 404.309 487.401 411.272C490.271 430.323 486.586 449.684 482.918 468.597C485.38 458.483 488.026 448.277 493.037 439.156C498.048 430.036 505.746 421.971 515.59 418.596C522.478 416.231 530.675 416.489 536.455 420.938C541.845 425.093 544.25 432.108 544.99 438.869C546.23 450.206 543.561 461.709 538.969 472.161C521.835 511.102 474.336 509.626 438.869 502.515Z" fill="white"/>
<path d="M477.516 483.234C477.516 483.234 503.92 490.57 513.242 453.868L477.516 483.234Z" fill="white"/>
<path d="M465.767 420.587C458.425 437.233 465.767 487.171 465.767 487.171V420.587Z" fill="white"/>
<path d="M441.297 482.103C440.195 481.913 429.605 480.432 420.575 476.282C413.584 473.068 407.523 468.246 407.523 461.209" fill="white"/>
<path d="M422.699 461.209C422.699 461.209 412.367 473.263 420.576 476.282L422.699 461.209Z" fill="white"/>
<path d="M415.846 487.234C417.315 485.19 424.955 489.289 429.943 479.651L415.846 487.234Z" fill="white"/>
<path d="M462.506 442.611C459.895 440.654 453.041 442.611 452.065 426.946L462.506 442.611Z" fill="white"/>
<path d="M463.643 457.294C463.643 457.294 475.065 453.173 475.065 444.224L463.643 457.294Z" fill="white"/>
<path d="M488.198 483.446C488.198 483.446 494.157 468.063 496.602 461.209L488.198 483.446Z" fill="white"/>
<path d="M506.698 468.746C506.698 468.746 513.242 473.912 521.048 465.617L506.698 468.746Z" fill="white"/>
<path d="M506.699 461.21C506.699 461.21 502.474 459.379 504.403 448.794L506.699 461.21Z" fill="white"/>
<path d="M438.869 502.515C434.593 501.941 430.483 500.655 426.43 499.467C409.784 494.605 390.423 486.293 383.805 468.827C382.145 464.315 381.622 459.463 382.281 454.701C382.941 449.939 384.764 445.413 387.588 441.521C390.587 437.372 394.798 434.255 399.642 432.596C410.175 429.192 421.827 434.496 429.639 442.354C437.451 450.212 442.479 460.303 448.581 469.527C443.053 457.134 437.434 444.391 436.671 430.839C436.097 420.278 438.967 408.832 446.233 400.894C452.932 393.592 468.619 387.87 477.838 393.236C483.928 396.778 486.35 404.309 487.401 411.272C490.271 430.323 486.586 449.684 482.918 468.597C485.38 458.483 488.026 448.277 493.037 439.156C498.048 430.036 505.746 421.971 515.59 418.596C522.478 416.231 530.675 416.489 536.455 420.938C541.845 425.093 544.25 432.108 544.99 438.869C546.23 450.206 543.727 461.784 538.969 472.161C521.559 510.074 473.688 507.21 438.869 502.515Z" stroke="#CCDDE2" stroke-width="4.82" stroke-miterlimit="10"/>
<path d="M477.516 483.234C477.516 483.234 503.92 490.57 513.242 453.868" stroke="#CCDDE2" stroke-width="4.82" stroke-miterlimit="10"/>
<path d="M465.767 420.587C458.425 437.233 465.767 487.171 465.767 487.171" stroke="#CCDDE2" stroke-width="4.82" stroke-miterlimit="10"/>
<path d="M441.297 482.103C440.195 481.913 429.605 480.432 420.575 476.282C413.584 473.068 407.523 468.246 407.523 461.209" stroke="#CCDDE2" stroke-width="4.82" stroke-miterlimit="10"/>
<path d="M422.699 461.209C422.699 461.209 412.367 473.263 420.576 476.282" stroke="#CCDDE2" stroke-width="4.82" stroke-miterlimit="10"/>
<path d="M415.846 487.234C417.315 485.19 424.955 489.289 429.943 479.651" stroke="#CCDDE2" stroke-width="4.82" stroke-miterlimit="10"/>
<path d="M462.506 442.611C459.895 440.654 453.041 442.611 452.065 426.946" stroke="#CCDDE2" stroke-width="4.82" stroke-miterlimit="10"/>
<path d="M463.643 457.294C463.643 457.294 475.065 453.173 475.065 444.224" stroke="#CCDDE2" stroke-width="4.82" stroke-miterlimit="10"/>
<path d="M488.198 483.446C488.198 483.446 494.157 468.063 496.602 461.209" stroke="#CCDDE2" stroke-width="4.82" stroke-miterlimit="10"/>
<path d="M506.698 468.746C506.698 468.746 513.242 473.912 521.048 465.617" stroke="#CCDDE2" stroke-width="4.82" stroke-miterlimit="10"/>
<path d="M506.699 461.21C506.699 461.21 502.474 459.379 504.403 448.794" stroke="#CCDDE2" stroke-width="4.82" stroke-miterlimit="10"/>
<path d="M454.172 431.603C455.633 426.755 455.932 421.63 455.044 416.645C454.568 413.775 453.219 405.957 449.046 407.168C447.835 407.507 447.117 408.54 446.664 409.711C447.198 407.128 443.461 405.498 441.636 405.262C437.009 404.608 433.628 407.863 431.424 411.835C426.597 420.559 413.762 424.773 404.819 424.79C392.243 424.79 384.729 415.032 382.571 402.404C376.831 369.009 375.298 288.562 315.138 266.509C311.832 265.286 308.455 264.27 305.024 263.467V263.565C304.983 263.565 304.943 263.565 304.903 263.427C304.877 263.35 304.858 263.271 304.846 263.192C306.748 262.91 308.632 262.517 310.488 262.015C312.893 261.401 315.373 260.683 317.124 259.145C319.23 257.32 319.942 254.639 320.12 252.073C320.12 251.677 320.16 251.258 320.16 250.862C320.18 250.539 320.18 250.215 320.16 249.892C320.16 249.433 320.16 248.974 320.16 248.497C320.16 248.141 320.16 247.763 320.16 247.407L323.087 238.062C324.161 235.973 325.228 233.877 325.699 231.65C325.896 230.753 325.983 229.836 325.957 228.918C325.957 228.723 325.957 228.522 325.957 228.304C325.739 224.429 323.851 220.595 321.21 217.398C320.728 213.158 319.897 208.965 318.725 204.862C315.028 191.43 307.641 176.828 293.216 172.775C282.563 169.796 270.147 169.974 259.678 173.969C259.668 173.973 259.659 173.975 259.649 173.975C259.639 173.975 259.629 173.973 259.62 173.969C258.939 174.171 258.281 174.444 257.657 174.784C254.242 176.632 253.065 180.863 253.249 185.512C253.248 185.772 253.267 186.031 253.306 186.287C253.306 186.626 253.346 186.982 253.404 187.32C253.92 191.872 255.631 196.556 257.778 199.581C257.68 199.816 257.577 200.034 257.496 200.275C256.59 202.359 255.414 204.316 254.001 206.096C250.844 210.114 246.573 213.047 243.491 217.065C240.408 221.083 238.606 226.318 239.421 231.346C240.213 236.214 243.273 240.467 243.967 245.312C244.622 249.743 243.393 254.811 246.097 258.37C247.761 260.534 250.522 261.527 253.168 262.279C254.316 262.6 255.464 262.853 256.612 263.117C256.469 263.53 256.429 263.553 256.348 263.57C253.054 264.345 249.811 265.32 246.636 266.492L246.16 266.67C186.493 288.993 184.926 369.083 179.22 402.375C177.079 415.003 169.548 424.761 156.972 424.761C148.029 424.761 135.194 420.531 130.367 411.806C128.14 407.834 124.788 404.579 120.155 405.234C118.347 405.492 114.812 407.002 115.15 409.464C115.142 409.556 115.142 409.648 115.15 409.74V409.837C115.15 409.837 115.15 409.9 115.15 409.918V409.981C114.714 408.706 114.002 407.576 112.705 407.197C108.532 405.986 107.183 413.792 106.707 416.673C105.819 421.659 106.118 426.783 107.579 431.632C109.508 438.049 113.537 444.053 119.518 446.654C124.456 448.68 129.616 450.117 134.89 450.936C126.946 458.667 121.797 468.701 122.038 481.535C122.216 489.571 127.066 495.185 134.632 498.939C144.327 503.784 158.476 505.592 172.86 505.73H172.941C171.303 506.04 169.703 506.527 168.171 507.182C166.405 507.918 164.743 508.883 163.228 510.052C162.689 510.473 162.172 510.909 161.679 511.361C161.419 511.586 161.172 511.825 160.938 512.078C160.467 512.554 160.008 513.054 159.572 513.57C158.726 514.59 157.959 515.672 157.276 516.808C156.937 517.382 156.622 517.956 156.346 518.53C156.071 519.104 155.807 519.747 155.566 520.338C155.194 521.246 154.897 522.183 154.676 523.139C154.515 523.759 154.377 524.373 154.257 525.01C153.224 531.129 154.636 537.449 158.964 541.995C159.752 542.816 160.611 543.567 161.529 544.239C162.006 544.578 162.505 544.899 163.016 545.215C164.098 545.852 165.235 546.39 166.414 546.822C167.709 547.306 169.039 547.689 170.392 547.97C179.909 549.893 187.474 543.717 196.061 541.082C200.957 539.635 206.055 538.983 211.157 539.154C214.484 539.254 217.8 539.582 221.082 540.135C257.116 546.03 293.681 548.016 330.142 546.059C354.778 544.704 379.908 541.61 403.292 533.362C420.891 527.151 440.258 516.24 448.925 499.381C452 493.446 453.59 486.854 453.558 480.169C453.558 466.124 447.818 455.654 438.875 447.928C440.023 447.509 441.136 447.09 442.233 446.613C448.214 444.025 452.243 438.021 454.172 431.603Z" fill="white"/>
<path d="M211.14 539.174C206.034 539 200.932 539.649 196.032 541.097C187.451 543.732 179.88 549.914 170.357 547.985C145.566 542.986 150.738 509.935 172.958 505.722H172.992C175.122 505.676 177.251 505.658 179.364 505.658H179.501C189.736 505.658 199.706 505.928 207.891 503.104C207.099 503.804 187.17 521.495 211.14 539.174Z" fill="#3FBDF1"/>
<path d="M315.126 266.439C315.126 266.439 315.126 266.485 315.126 266.502C318.086 275.661 321.706 284.593 325.957 293.228L326.009 293.325" stroke="black" stroke-width="4.82" stroke-miterlimit="10"/>
<path d="M344.911 426.143C317.256 430.552 290.432 437.308 262.22 433.714C246.941 431.746 231.959 427.831 216.874 424.771C226.271 409.652 229.91 390.182 228.441 373.238C227.488 362.108 222.379 351.34 222.637 340.256C222.815 332.748 224.204 325.274 226.133 318.042C228.403 309.523 231.486 301.243 235.34 293.314C235.34 293.28 235.38 293.257 235.397 293.216C239.653 284.587 243.278 275.661 246.246 266.508C249.541 265.281 252.912 264.265 256.337 263.466L256.911 267.616C258.323 277.374 261.641 291.46 271.835 296.069C273.947 296.995 276.228 297.474 278.533 297.475C283.08 297.935 289.164 296.069 289.164 296.069C299.352 291.477 302.653 277.391 304.088 267.616L304.662 263.466C308.086 264.259 311.456 265.267 314.753 266.485C317.72 275.642 321.346 284.571 325.601 293.205C325.623 293.233 325.638 293.267 325.642 293.302C329.487 301.228 332.562 309.505 334.826 318.019C336.875 325.257 338.05 332.715 338.327 340.233C338.585 351.317 333.5 362.085 332.524 373.215C330.963 390.699 334.877 410.846 344.911 426.143Z" fill="#2E2E2E"/>
<path d="M438.857 447.915C447.8 455.641 453.54 466.111 453.558 480.18C453.584 486.86 451.993 493.448 448.92 499.38C440.264 516.221 420.897 527.116 403.269 533.344C379.879 541.592 354.761 544.68 330.113 546.04C293.663 548.005 257.107 546.024 221.082 540.134C217.791 539.583 214.465 539.261 211.129 539.17C206.024 538.998 200.925 539.647 196.027 541.093C187.445 543.727 179.874 549.909 170.352 547.981C145.561 542.981 150.732 509.93 172.952 505.717" stroke="black" stroke-width="4.82" stroke-miterlimit="10"/>
<path d="M380.407 489.692C373.06 506.504 354.876 500.747 334.895 488.653C322.502 481.145 311.935 480.072 305.689 480.324C314.489 479.538 322.186 476.823 324.344 466.876C326.095 458.782 321.538 451.378 313.657 448.99C332.599 448.157 352.051 449.564 367.475 461.497C367.475 461.497 387.771 472.868 380.407 489.692Z" fill="#3FBDF1"/>
<path d="M271.255 254.282C271.018 256.069 270.38 257.781 269.39 259.287C267.8 261.474 265.194 262.703 262.536 263.081C260.889 262.851 259.261 262.506 257.663 262.048C255.005 261.291 252.262 260.297 250.591 258.134C247.87 254.557 249.122 249.489 248.467 245.064C247.75 240.23 244.691 235.96 243.916 231.115C243.083 226.087 244.891 220.864 247.968 216.828C250.631 213.384 254.15 210.71 257.072 207.512C257.072 207.926 257.032 208.368 257.009 208.804C255.952 210.025 255.156 211.45 254.668 212.989C254.18 214.528 254.012 216.152 254.174 217.758C254.335 219.366 254.822 220.923 255.606 222.335C256.389 223.747 257.452 224.985 258.731 225.972C259.844 230.719 262.685 241.028 269.78 247.147C270.387 247.986 270.849 248.921 271.146 249.914C271.492 251.345 271.529 252.834 271.255 254.282Z" fill="#3FBDF1"/>
<path d="M325.751 231.403C324.821 235.828 321.48 239.703 320.545 244.134C320.028 246.66 320.269 249.26 320.108 251.826C320.027 253.486 319.615 255.114 318.897 256.613C318.438 257.475 317.834 258.251 317.112 258.909C315.361 260.442 312.876 261.176 310.477 261.779C306.797 262.715 302.963 263.501 299.152 263.151C294.801 262.732 290.41 259.971 288.82 255.781C287.568 252.503 288.561 249.937 290.232 247.572V247.532C292.056 246.159 293.728 244.595 295.22 242.866C302.108 225.686 305.253 230.507 306.085 224.922C309.242 222.776 306.86 218.884 306.86 214.791C306.86 211.87 306.688 210.326 304.96 208.259L308.548 207.421C307.078 205.67 308.054 206.273 305.787 205.602L304.96 205.693C303.726 205.889 306.143 205.16 304.662 205.406C275.847 210.188 270.331 177.435 269.355 172.333C268.483 173.262 265.251 172.706 264.557 173.739C264.258 174.181 267.427 179.548 267.163 180.001C267.088 179.663 267.025 179.37 266.985 179.129C266.127 180.044 265.344 181.027 264.643 182.068C262.32 185.386 260.573 189.073 259.477 192.974C259.437 193.088 259.414 193.226 259.373 193.347C258.964 195.368 258.44 197.365 257.806 199.328C255.223 195.694 253.214 189.616 253.214 184.266C253.214 180.036 254.466 176.23 257.64 174.508C257.731 174.456 257.825 174.41 257.921 174.37C258.465 174.099 259.029 173.873 259.609 173.693C259.609 173.693 259.649 173.693 259.672 173.693C270.142 169.675 282.574 169.503 293.205 172.482C307.647 176.534 315.017 191.16 318.736 204.586C319.9 208.691 320.731 212.883 321.222 217.122C324.66 221.266 326.784 226.415 325.751 231.403Z" fill="#3FBDF1"/>
<path d="M199.333 457.88L228.808 455.532C251.313 453.745 273.821 451.956 296.333 450.165C301.964 449.729 307.813 449.235 313.651 448.983C332.593 448.151 352.046 449.557 367.469 461.49C367.469 461.49 387.766 472.861 380.401 489.685C373.037 506.509 354.87 500.74 334.889 488.646C322.496 481.138 311.929 480.065 305.684 480.317H305.621C304.943 480.352 304.295 480.398 303.732 480.461C302.375 480.563 301.03 480.79 299.714 481.138C276.789 488.359 241.292 498.393 207.937 503.088C198.52 504.475 189.032 505.334 179.519 505.66H179.381C177.217 505.74 175.087 505.757 172.975 505.723H172.9C158.499 505.596 144.355 503.783 134.655 498.944C127.089 495.173 122.245 489.576 122.073 481.534C121.837 468.682 126.975 458.655 134.942 450.911" stroke="black" stroke-width="4.82" stroke-miterlimit="10"/>
<path d="M438.777 418.945C442.617 417.171 447.123 411.42 446.601 409.101" stroke="black" stroke-width="4.82" stroke-miterlimit="10"/>
<path d="M411.593 443.053C417.384 444.333 414.727 431.619 420.886 430.58C420.886 430.58 423.377 430.195 423.876 432.302C424.221 433.743 423.756 435.505 423.474 436.894C423.216 438.174 423.015 439.764 422.47 440.912C422.979 439.627 423.408 438.312 423.756 436.974C424.13 435.571 424.399 434.141 424.559 432.698C424.909 430.402 425.162 427.928 426.023 425.81C426.485 424.495 427.44 423.413 428.686 422.791C431.407 421.643 433.14 424.513 433.376 427.004C433.413 427.282 433.424 427.562 433.41 427.842C433.41 428.221 433.376 428.577 433.347 428.932C433.083 433.289 432.618 438.748 430.179 442.163C432.618 438.719 433.118 433.444 433.341 429.07C433.456 426.728 433.433 424.306 434.294 422.182C434.617 421.329 435.128 420.558 435.787 419.926C436.429 419.316 437.277 418.967 438.163 418.951C438.843 419.012 439.495 419.247 440.058 419.632C440.621 420.019 441.075 420.543 441.377 421.155C442.011 422.427 442.352 423.826 442.376 425.247C442.749 431.481 441.291 437.692 436.682 441.842" stroke="black" stroke-width="4.82" stroke-miterlimit="10"/>
<path d="M325.969 293.222C329.85 301.177 332.947 309.492 335.216 318.048C337.156 325.28 338.539 332.742 338.717 340.25C338.976 351.34 333.879 362.108 332.909 373.244C330.463 401.467 342.184 436.665 371.068 447.215C382.45 451.376 394.717 452.92 406.8 452.633C418.28 452.364 431.608 451.204 442.233 446.618C448.214 444.023 452.243 438.008 454.183 431.602C455.635 426.75 455.936 421.627 455.061 416.638C454.568 413.768 453.23 405.956 449.046 407.167C447.657 407.557 446.928 408.854 446.497 410.238C445.636 413.108 446.084 416.127 445.987 419.077C445.877 423.21 445.275 431.281 441.486 434.042" stroke="black" stroke-width="4.82" stroke-miterlimit="10"/>
<path d="M256.767 263.466L257.341 267.616C258.765 277.374 262.071 291.454 272.265 296.063C274.371 296.997 276.649 297.48 278.953 297.481C283.51 297.94 289.583 296.063 289.583 296.063C299.772 291.471 303.078 277.391 304.507 267.616L305.081 263.466" stroke="black" stroke-width="4.82" stroke-miterlimit="10"/>
<path d="M246.671 266.439C246.671 266.439 246.671 266.485 246.671 266.502C243.711 275.662 240.089 284.594 235.834 293.228L235.788 293.325" stroke="black" stroke-width="4.82" stroke-miterlimit="10"/>
<path d="M115.299 410.238L115.208 409.94C115.188 409.9 115.177 409.857 115.173 409.814C115.173 409.814 115.173 409.785 115.173 409.768C114.559 407.15 118.296 405.509 120.155 405.256C124.747 404.596 128.151 407.856 130.361 411.834C135.183 420.553 148.023 424.766 156.966 424.778C169.548 424.778 177.085 415.02 179.232 402.392C184.937 368.991 186.498 288.55 246.659 266.492C249.964 265.279 253.339 264.268 256.767 263.467L257.68 263.26" stroke="black" stroke-width="4.82" stroke-miterlimit="10"/>
<path d="M304.14 263.3C304.438 263.346 304.714 263.426 305.024 263.489C308.449 264.288 311.823 265.294 315.126 266.503C375.287 288.562 376.848 369.002 382.554 402.403C384.701 415.031 392.237 424.789 404.825 424.789C413.762 424.789 426.603 420.565 431.424 411.845C433.634 407.868 437.009 404.607 441.63 405.267C443.581 405.537 447.686 407.368 446.486 410.25" stroke="black" stroke-width="4.82" stroke-miterlimit="10"/>
<path d="M123.014 418.945C119.174 417.171 114.668 411.42 115.19 409.101" stroke="black" stroke-width="4.82" stroke-miterlimit="10"/>
<path d="M150.199 443.053C144.401 444.333 147.059 431.619 140.9 430.58C140.9 430.58 138.409 430.195 137.909 432.302C137.571 433.743 138.03 435.505 138.317 436.894C138.575 438.174 138.776 439.764 139.316 440.912C138.808 439.627 138.381 438.312 138.036 436.974C137.658 435.571 137.389 434.142 137.232 432.698C136.882 430.402 136.624 427.928 135.763 425.81C135.304 424.495 134.351 423.412 133.105 422.791C130.384 421.643 128.651 424.513 128.41 427.004C128.377 427.282 128.368 427.562 128.381 427.842C128.381 428.221 128.41 428.577 128.444 428.932C128.702 433.289 129.173 438.748 131.607 442.163C129.173 438.719 128.668 433.444 128.45 429.07C128.329 426.728 128.358 424.306 127.491 422.182C127.172 421.327 126.664 420.557 126.005 419.926C125.359 419.317 124.51 418.969 123.622 418.951C122.943 419.012 122.292 419.247 121.73 419.633C121.168 420.019 120.715 420.543 120.414 421.155C119.777 422.427 119.436 423.826 119.415 425.247C119.042 431.481 120.494 437.692 125.103 441.842" stroke="black" stroke-width="4.82" stroke-miterlimit="10"/>
<path d="M235.822 293.222C231.941 301.177 228.845 309.491 226.581 318.048C224.635 325.28 223.257 332.742 223.079 340.25C222.821 351.34 227.918 362.108 228.883 373.244C231.333 401.467 219.607 436.665 190.723 447.215C179.341 451.376 167.074 452.92 154.997 452.633C143.517 452.364 130.189 451.204 119.564 446.618C113.577 444.023 109.554 438.008 107.608 431.602C106.171 426.747 105.881 421.624 106.764 416.638C107.258 413.768 108.595 405.956 112.78 407.167C114.163 407.557 114.898 408.854 115.328 410.238C116.183 413.108 115.741 416.127 115.833 419.077C115.948 423.21 116.551 431.281 120.339 434.042" stroke="black" stroke-width="4.82" stroke-miterlimit="10"/>
<path d="M267.18 179.162C266.259 180.148 265.414 181.204 264.654 182.319C262.24 185.741 260.452 189.563 259.373 193.61C258.964 195.63 258.437 197.625 257.795 199.585C257.703 199.82 257.606 200.044 257.514 200.279C256.611 202.367 255.439 204.327 254.03 206.111C250.873 210.089 246.602 213.051 243.508 217.075C240.414 221.098 238.618 226.328 239.438 231.362C240.231 236.218 243.29 240.477 243.996 245.316C244.645 249.747 243.422 254.809 246.126 258.374C247.784 260.549 250.54 261.542 253.191 262.283C256.016 263.075 258.931 263.689 261.836 263.431C264.74 263.173 267.668 261.904 269.384 259.533C270.385 258.036 271.023 256.327 271.25 254.54C271.519 253.096 271.48 251.611 271.135 250.183C270.561 248.117 269.057 246.446 267.691 244.759C263.483 239.313 260.478 233.037 258.874 226.345" stroke="black" stroke-width="4.82" stroke-miterlimit="10"/>
<path d="M305.167 211.095C305.167 209.625 305.104 208.173 304.978 206.709" stroke="black" stroke-width="4.82" stroke-miterlimit="10"/>
<path d="M258.111 198.873C257.472 202.235 257.104 205.641 257.009 209.062" stroke="black" stroke-width="4.82" stroke-miterlimit="10"/>
<path d="M309.461 205.952C308.846 206.061 305.58 206.6 304.978 206.698C272.541 211.864 271.112 188.514 267.18 179.18C267.18 179.18 265.016 170.857 257.674 174.801C250.333 178.744 253.283 193.743 258.111 200.057" stroke="black" stroke-width="4.82" stroke-miterlimit="10"/>
<path d="M261.394 188.061V188.044" stroke="black" stroke-width="4.82" stroke-miterlimit="10"/>
<path d="M314.219 210.187L321.233 217.391" stroke="black" stroke-width="4.82" stroke-miterlimit="10"/>
<path d="M267.714 244.748C267.794 244.846 267.857 244.938 267.949 245.047C268.029 245.166 268.119 245.277 268.219 245.38C268.378 245.602 268.553 245.813 268.741 246.011C268.758 246.04 268.78 246.068 268.804 246.092C270.205 247.683 271.907 248.982 273.813 249.913C275.718 250.844 277.788 251.388 279.905 251.516C285.071 251.923 288.326 249.874 290.237 247.825" stroke="black" stroke-width="4.82" stroke-miterlimit="10"/>
<path d="M296.052 230.615C302.624 230.615 307.951 225.288 307.951 218.716C307.951 212.145 302.624 206.817 296.052 206.817C289.48 206.817 284.153 212.145 284.153 218.716C284.153 225.288 289.48 230.615 296.052 230.615Z" stroke="black" stroke-width="4.82" stroke-miterlimit="10"/>
<path d="M265.997 228.738C272.569 228.738 277.896 223.411 277.896 216.839C277.896 210.268 272.569 204.94 265.997 204.94C259.426 204.94 254.098 210.268 254.098 216.839C254.098 223.411 259.426 228.738 265.997 228.738Z" stroke="black" stroke-width="4.82" stroke-miterlimit="10"/>
<path d="M263.414 213.93C263.414 213.93 268.265 212.115 272.024 213.987" stroke="black" stroke-width="4.82" stroke-miterlimit="10"/>
<path d="M290.174 215.578C290.174 215.578 295.025 213.764 298.784 215.635" stroke="black" stroke-width="4.82" stroke-miterlimit="10"/>
<path d="M281.553 236.959C283.293 236.959 284.704 235.548 284.704 233.807C284.704 232.067 283.293 230.656 281.553 230.656C279.812 230.656 278.401 232.067 278.401 233.807C278.401 235.548 279.812 236.959 281.553 236.959Z" stroke="black" stroke-width="4.82" stroke-miterlimit="10"/>
<path d="M257.674 174.8C268.54 169.995 281.903 169.582 293.262 172.762C307.698 176.78 315.074 191.423 318.777 204.854C319.945 208.958 320.776 213.151 321.262 217.39C324.706 221.517 326.813 226.678 325.768 231.66C324.838 236.091 321.515 239.972 320.567 244.403C320.045 246.923 320.298 249.529 320.126 252.083C319.953 254.637 319.224 257.318 317.129 259.143C315.379 260.693 312.905 261.439 310.488 262.013C306.814 262.96 302.98 263.735 299.18 263.385C294.812 262.978 290.432 260.217 288.848 256.021C286.753 250.487 291.041 246.969 294.146 243.077C296.112 240.63 297.854 238.011 299.352 235.253C300.437 233.216 301.381 231.106 302.177 228.939" stroke="black" stroke-width="4.82" stroke-miterlimit="10"/>
<path d="M217.322 424.76C232.395 427.814 247.377 431.734 262.668 433.686C290.892 437.302 317.698 430.54 345.364 426.126" stroke="black" stroke-width="4.82" stroke-miterlimit="10"/>
<path d="M64.8965 507.181H168.176" stroke="black" stroke-width="4.82" stroke-miterlimit="10"/>
<path d="M446.153 505.189H535.06" stroke="black" stroke-width="4.82" stroke-miterlimit="10"/>
<path d="M508.495 369.428C513.769 373.974 518.479 379.137 522.524 384.805C529.949 394.962 534.149 407.118 534.578 419.693" stroke="#CCDDE2" stroke-width="4.82" stroke-miterlimit="10"/>
<path d="M324.482 161.415C335.113 155.014 346.179 149.361 357.958 145.343C387.324 135.292 420.065 137.536 443.329 159.549C463.499 178.623 473.033 206.933 474.979 234.071C474.979 234.468 475.042 234.887 475.06 235.306C475.955 249.294 475.22 264.729 475.117 280.187" stroke="#CCDDE2" stroke-width="4.82" stroke-miterlimit="10"/>
<path d="M92.988 279.309C95.6513 262.324 92.3738 246.35 90.6231 228.866C86.077 183.29 100.559 128.812 153.028 121.999C181.539 118.279 204.688 128.932 223.958 149.355C228.291 153.947 232.619 159.326 237.211 164.532" stroke="#CCDDE2" stroke-width="4.82" stroke-miterlimit="10"/>
<path d="M72.5191 429.748C72.5191 429.748 32.7869 412.241 36.736 379.362C37.884 370.086 42.2406 361.781 47.7625 354.158" stroke="#CCDDE2" stroke-width="4.82" stroke-miterlimit="10"/>
</g>
</svg>
