<svg width="509" height="455" viewBox="0 0 509 455" fill="none" xmlns="http://www.w3.org/2000/svg">
<path d="M502.714 286.665C492.614 228.178 456.853 175.839 398.752 157.107C383.89 152.342 368.691 148.693 353.285 146.191V146.27C352.482 151.125 350.579 155.734 347.723 159.741C341.668 168.037 333.322 174.852 323.659 178.402C313.795 182.052 301.576 182.525 292.421 176.784C286.91 173.334 281.563 167.257 280.597 160.7C279.494 153.313 283.259 146.32 288.556 141.438C243.662 141.804 201.43 149.19 167.587 157.601C168.761 162.512 170.385 167.304 172.441 171.917C175.317 178.347 179.382 184.175 184.423 189.096C190.71 182.868 196.214 175.897 200.814 168.338C205.215 169.778 209.096 172.481 211.974 176.109C214.85 179.738 216.598 184.131 216.999 188.745V188.981C218.774 205.738 202.64 218.329 189.083 226.074C173.421 235.078 155.963 241.821 138.813 247.426C131.741 249.745 122.55 251.72 115.084 249.301C114.28 249.045 113.496 248.731 112.736 248.363C105.292 244.713 100.31 237.061 96.4235 230.068C85.3502 210.204 78.1493 188.552 73.2676 166.327C39.3893 170.657 35.5097 147.716 33.4983 142.09L4.51591 223.11C2.99557 228.934 2.83166 235.029 4.0349 240.926C5.23886 246.824 7.7792 252.367 11.4605 257.129C15.1411 261.891 19.8653 265.746 25.2688 268.397C30.6731 271.048 36.6127 272.425 42.6318 272.421H162.613L217.113 412.215L232.56 451.891H320.788C313.63 451.891 309.715 450.145 306.873 447.296C303.938 444.36 302.286 440.381 302.278 436.23C302.278 427.64 309.328 420.597 320.788 420.597H321.597C320.731 420.597 319.901 420.518 319.035 420.439C319.571 420.382 320.104 420.293 320.631 420.175C320.063 420.161 319.497 420.118 318.934 420.046C324.103 419.435 328.893 417.028 332.466 413.244C336.04 409.46 338.169 404.54 338.483 399.345C338.497 399.075 338.497 398.805 338.483 398.536V398.121C338.359 392.795 336.323 387.691 332.748 383.742C329.172 379.792 324.293 377.262 319.006 376.612C319.607 376.562 320.18 376.511 320.76 376.511C320.237 376.383 319.657 376.304 319.113 376.225C319.972 376.146 320.838 376.089 321.669 376.089L386.219 376.433L398.094 376.483H412.188C412.839 376.483 413.498 376.483 414.12 376.562L435.057 376.669L449.044 376.748C454.89 376.796 460.477 379.158 464.586 383.317C468.694 387.475 470.989 393.091 470.968 398.937C470.961 402.243 470.195 405.502 468.728 408.464C474.729 407.696 480.294 404.921 484.518 400.591C494.589 390.305 498.927 374.908 501.926 361.222C507.23 336.842 506.915 311.152 502.714 286.665ZM339.628 288.312C327.467 307.03 306.759 305.347 306.759 305.347C306.759 305.347 305.041 307.022 301.032 299.893C297.024 292.764 285.607 287.889 285.607 287.889C284.698 295.047 282.816 305.927 264.133 291.826C245.451 277.725 251.084 257.168 252.681 246.309C254.277 235.45 260.64 231.85 260.64 231.85L268.156 227.885C268.156 227.885 246.418 222.294 245.372 222.087C244.327 221.879 224.965 205.666 244.614 201.386C264.262 197.106 294.891 214.127 300.81 217.491C306.73 220.855 341.324 250.117 341.324 250.117C341.324 250.117 351.854 269.622 339.628 288.312Z" fill="#116368"/>
<path d="M73.239 166.339C73.239 166.339 89.6235 164.349 95.7578 152.653L90.4108 182.652C90.4108 182.652 155.591 160.463 167.544 157.599C167.544 157.599 171.395 182.43 186.728 189.094L202.547 168.981C202.547 168.981 222.381 173.991 216.956 201.019C211.53 228.048 136.486 250.638 123.76 250.115C111.033 249.593 97.3325 241.762 83.303 199.681L73.239 166.339Z" fill="#353642"/>
<path d="M99.9308 99.5142C104.082 106.271 108.256 113.014 112.565 119.671C115.22 123.772 120.059 129.62 114.912 133.908C113.237 135.192 111.215 135.941 109.107 136.055C105.8 136.349 102.329 135.554 100.317 132.713L90.2963 116.106C88.2992 112.794 85.1276 110.356 81.4141 109.276C77.6998 108.197 73.7157 108.555 70.2542 110.28" stroke="black" stroke-width="5.47" stroke-miterlimit="10"/>
<path d="M137.832 121.386C140.452 127.614 138.677 131.629 135.613 133.648C130.602 136.933 123.895 135.358 120.345 130.563L99.9666 99.5474" stroke="black" stroke-width="5.47" stroke-miterlimit="10"/>
<path d="M117.181 90.495C124.597 99.514 133.952 116.263 139.128 123.257C144.303 130.25 152.305 126.034 152.305 126.034C158.805 122.534 157.702 116.729 154.861 109.678C147.86 92.3704 137.868 80.8605 126.723 73.316C92.186 49.9526 56.7543 67.1888 46.2107 107.517L4.51591 223.11C2.99557 228.934 2.83166 235.029 4.0349 240.926C5.23886 246.824 7.7792 252.367 11.4605 257.129C15.1411 261.891 19.8653 265.746 25.2688 268.397C30.6731 271.048 36.6127 272.424 42.6318 272.42H162.613L232.581 451.898" stroke="black" stroke-width="5.47" stroke-miterlimit="10"/>
<path d="M160.022 101.739C168.611 98.7617 168.217 85.0614 156.027 80.4374C142.563 75.3267 118.656 68.0972 112.65 66.2934C112.613 66.2648 112.568 66.2476 112.522 66.2433C112.099 66.1144 111.806 66.0071 111.577 65.957L111.24 65.8496" stroke="black" stroke-width="5.47" stroke-miterlimit="10"/>
<path d="M286.931 238.72C279.415 229.686 258.844 224.568 245.415 222.092C243.159 221.668 241.101 220.522 239.551 218.827C238.002 217.132 237.046 214.98 236.826 212.693C236.67 211.152 236.848 209.594 237.348 208.127C238.149 205.874 239.683 203.956 241.703 202.679C243.724 201.402 246.115 200.84 248.493 201.083C271.399 203.402 295.02 210.61 312.492 226.136C312.492 226.136 397.192 290.772 407.306 297.064C411.479 299.598 415.373 296.606 412.545 292.626L411.658 291.108C406.68 282.565 400.787 274.587 394.085 267.315" stroke="black" stroke-width="5.47" stroke-miterlimit="10"/>
<path d="M288.499 141.43C181.975 142.317 90.4108 182.645 90.4108 182.645L99.5514 131.409" stroke="black" stroke-width="5.47" stroke-miterlimit="10"/>
<path d="M453.947 420.28C453.947 420.28 442.344 417.653 439.259 426.944C436.174 436.235 432.953 451.016 455.135 451.889C477.317 452.762 464.29 448.403 463.009 441.224C461.728 434.044 453.947 420.28 453.947 420.28Z" fill="#353642"/>
<path d="M276.695 250.51C276.695 250.51 264.176 241.019 252.903 250.639C252.428 251.057 252.014 251.539 251.671 252.07" stroke="black" stroke-width="5.47" stroke-miterlimit="10"/>
<g opacity="0.77">
<path opacity="0.77" d="M120.302 130.529C123.881 135.332 130.581 136.9 135.57 133.607C138.598 131.603 140.373 127.609 137.818 121.439C138.283 122.119 138.705 122.72 139.12 123.271C144.288 130.293 152.298 126.063 152.298 126.063C158.797 122.562 157.702 116.757 154.861 109.7C152.08 102.709 148.431 96.0961 144.002 90.0154C146.901 87.3026 150.344 84.5611 153.973 85.7636C157.888 87.0664 158.984 91.9767 159.427 96.0711C159.635 97.9751 159.843 99.8576 160.05 101.762L163.185 129.792C164.23 139.097 165.275 148.539 167.544 157.622C168.718 162.533 170.342 167.325 172.398 171.938C175.274 178.368 179.339 184.196 184.38 189.117C190.667 182.889 196.171 175.918 200.771 168.359C205.172 169.799 209.053 172.502 211.931 176.13C214.807 179.758 216.555 184.152 216.956 188.766V189.002C218.731 205.759 202.597 218.35 189.04 226.094C173.378 235.099 155.92 241.842 138.77 247.447C131.698 249.766 122.507 251.741 115.041 249.322C114.237 249.066 113.453 248.752 112.693 248.384C105.249 244.734 100.267 237.082 96.3805 230.089C77.7699 196.625 70.0394 158.202 65.9666 120.15C74.1123 119.026 82.2293 117.774 90.2462 116.049C90.2462 116.049 90.2462 116.106 90.2963 116.128L99.5371 131.453L100.296 132.727C102.3 135.59 105.772 136.356 109.086 136.069C111.193 135.965 113.217 135.216 114.884 133.922C120.023 129.627 115.199 123.801 112.536 119.699" fill="white"/>
<path opacity="0.77" d="M120.302 130.529C123.881 135.332 130.581 136.9 135.57 133.607C138.598 131.603 140.373 127.609 137.818 121.439C138.283 122.119 138.705 122.72 139.12 123.271C144.288 130.293 152.298 126.063 152.298 126.063C158.797 122.562 157.702 116.757 154.861 109.7C152.08 102.709 148.431 96.0961 144.002 90.0154C146.901 87.3026 150.344 84.5611 153.973 85.7636C157.888 87.0664 158.984 91.9767 159.427 96.0711C159.635 97.9751 159.843 99.8576 160.05 101.762L163.185 129.792C164.23 139.097 165.275 148.539 167.544 157.622C168.718 162.533 170.342 167.325 172.398 171.938C175.274 178.368 179.339 184.196 184.38 189.117C190.667 182.889 196.171 175.918 200.771 168.359C205.172 169.799 209.053 172.502 211.931 176.13C214.807 179.758 216.555 184.152 216.956 188.766V189.002C218.731 205.759 202.597 218.35 189.04 226.094C173.378 235.099 155.92 241.842 138.77 247.447C131.698 249.766 122.507 251.741 115.041 249.322C114.237 249.066 113.453 248.752 112.693 248.384C105.249 244.734 100.267 237.082 96.3805 230.089C77.7699 196.625 70.0394 158.202 65.9666 120.15C74.1123 119.026 82.2293 117.774 90.2462 116.049C90.2462 116.049 90.2462 116.106 90.2963 116.128L99.5371 131.453L100.296 132.727C102.3 135.59 105.772 136.356 109.086 136.069C111.193 135.965 113.217 135.216 114.884 133.922C120.023 129.627 115.199 123.801 112.536 119.699" fill="#2EEAD4"/>
<path opacity="0.77" d="M122.5 132.798C125.671 137.093 131.089 136.549 135.57 133.607C138.276 131.818 140.495 132.34 138.211 126.821C138.634 127.423 138.691 125.39 139.063 125.841C143.68 132.111 139.12 123.25 139.12 123.25C145.562 131.388 159.585 123.722 157.015 117.43C154.295 110.652 151.432 100.631 147.803 95.6201C150.666 92.9145 150.115 93.3153 153.758 95.4698C154.737 96.0983 155.556 96.9465 156.151 97.9465C156.747 98.9464 157.101 100.071 157.187 101.232C157.48 103.959 157.774 106.572 158.067 109.234L160.859 134.287C161.797 142.612 162.727 151.022 164.753 159.125C165.8 163.506 167.252 167.781 169.091 171.895C171.653 177.557 179.885 186.984 184.38 191.3C189.97 185.753 196.67 175.553 200.771 168.774C208.645 171.193 208.302 178.723 208.86 186.948V187.163C210.449 202.116 196.047 213.346 183.979 220.268C169.992 228.306 154.41 234.319 139.099 239.33C132.786 241.405 124.583 243.195 117.919 241.004C117.2 240.778 116.498 240.497 115.821 240.167C109.179 236.903 104.727 230.081 101.255 223.833C86.0588 196.54 79.0082 165.553 75.1286 134.488C74.8437 132.163 75.4729 129.819 76.883 127.95C78.2931 126.08 80.374 124.831 82.6874 124.467C87.0466 123.751 91.3914 123.035 95.7076 122.076L95.8293 122.133L104.075 135.812C105.872 138.353 106.165 136.363 109.122 136.105C110.99 135.941 114.612 135.576 116.058 134.366C120.646 130.544 118.055 128.962 115.678 125.304" fill="#2EEAD4"/>
</g>
<path d="M275.185 264.326C275.185 264.326 251.414 256.509 251.056 269.651" stroke="black" stroke-width="5.47" stroke-miterlimit="10"/>
<path opacity="0.54" d="M62.402 398.197L15.7825 278.76C15.2049 276.449 15.1619 274.036 15.6558 271.706C16.1504 269.376 17.1697 267.188 18.6357 265.311C20.1023 263.433 21.977 261.914 24.1186 260.87C26.2595 259.826 28.6109 259.283 30.9931 259.283H216.168C220.326 259.282 224.363 260.682 227.629 263.256C230.895 265.829 233.199 269.427 234.17 273.47L285.206 392.878C285.758 395.182 285.78 397.58 285.272 399.894C284.763 402.207 283.737 404.375 282.271 406.235C280.804 408.095 278.935 409.599 276.804 410.633C274.673 411.667 272.336 412.204 269.967 412.205H80.3612C76.2339 412.208 72.2248 410.83 68.9708 408.292C65.7168 405.753 63.4048 402.2 62.402 398.197Z" fill="white"/>
<path d="M282.923 284.472C282.923 284.472 286.781 288.008 285.314 293.061C284.226 296.805 280.503 299.167 276.817 297.886C265.078 293.827 254.506 286.934 251.929 275.217C250.711 269.284 250.448 263.195 251.149 257.179C251.714 251.603 252.537 245.583 254.413 240.279C257.276 232.133 266.044 226.457 274.555 230.38" stroke="black" stroke-width="5.47" stroke-miterlimit="10"/>
<path d="M62.402 398.197L15.7825 278.76C15.2049 276.449 15.1619 274.036 15.6558 271.706C16.1504 269.376 17.1697 267.188 18.6357 265.311C20.1023 263.433 21.977 261.914 24.1186 260.87C26.2595 259.826 28.6109 259.283 30.9931 259.283H216.168C220.326 259.282 224.363 260.682 227.629 263.256C230.895 265.829 233.199 269.427 234.17 273.47L285.206 392.878C285.758 395.182 285.78 397.58 285.272 399.894C284.763 402.207 283.737 404.375 282.271 406.235C280.804 408.095 278.935 409.599 276.804 410.633C274.673 411.667 272.336 412.204 269.967 412.205H80.3612C76.2339 412.208 72.2248 410.83 68.9708 408.292C65.7168 405.753 63.4048 402.2 62.402 398.197Z" fill="#3FBDF1"/>
<path d="M62.402 398.197L15.7825 278.76C15.2049 276.449 15.1619 274.036 15.6558 271.706C16.1504 269.376 17.1697 267.188 18.6357 265.311C20.1023 263.433 21.977 261.914 24.1186 260.87C26.2595 259.826 28.6109 259.283 30.9931 259.283H216.168C220.326 259.282 224.363 260.682 227.629 263.256C230.895 265.829 233.199 269.427 234.17 273.47L285.206 392.878C285.758 395.182 285.78 397.58 285.272 399.894C284.763 402.207 283.737 404.375 282.271 406.235C280.804 408.095 278.935 409.599 276.804 410.633C274.673 411.667 272.336 412.204 269.967 412.205H80.3612C76.2339 412.208 72.2248 410.83 68.9708 408.292C65.7168 405.753 63.4048 402.2 62.402 398.197Z" stroke="black" stroke-width="5.47" stroke-linecap="square" stroke-linejoin="round"/>
<path d="M69.2233 393.387L26.2114 283.155C25.6796 281.023 25.6409 278.798 26.0976 276.648C26.5543 274.499 27.4948 272.481 28.8484 270.749C30.2012 269.018 31.9313 267.617 33.9062 266.653C35.8818 265.69 38.0506 265.189 40.2481 265.189H211.079C214.914 265.188 218.638 266.478 221.651 268.852C224.664 271.225 226.79 274.544 227.685 278.274L274.777 388.441C275.285 390.567 275.305 392.78 274.836 394.915C274.366 397.049 273.418 399.049 272.065 400.765C270.712 402.481 268.987 403.868 267.021 404.821C265.054 405.775 262.897 406.271 260.712 406.271H85.7867C81.9851 406.275 78.2917 405.009 75.2918 402.675C72.2912 400.341 70.156 397.073 69.2233 393.387Z" fill="#2EEAD4"/>
<path d="M434.828 376.095L467.583 451.89" stroke="black" stroke-width="5.47" stroke-miterlimit="10"/>
<path d="M285.55 109.798C280.239 115.045 272.308 115.038 267.791 110.185" stroke="black" stroke-width="5.47" stroke-miterlimit="10"/>
<path d="M144.002 89.9925C146.901 87.2796 150.344 84.5382 153.973 85.7407C157.888 87.0434 158.984 91.9538 159.427 96.0481C160.682 107.3 161.935 118.541 163.185 129.77C164.774 144.086 166.449 158.744 172.398 171.9C175.274 178.33 179.339 184.159 184.38 189.079" stroke="black" stroke-width="5.47" stroke-miterlimit="10"/>
<path d="M216.956 188.993V188.757C216.555 184.144 214.807 179.75 211.931 176.121C209.053 172.494 205.172 169.791 200.771 168.35C196.171 175.91 190.667 182.881 184.38 189.108C167.897 205.498 146.724 216.352 123.795 220.166C124.898 224.554 127.167 228.548 128.734 232.771C130.302 236.994 131.082 241.883 129.178 245.956C126.773 251.153 119.873 250.473 115.077 249.32C115.027 249.32 114.998 249.32 114.948 249.32" stroke="black" stroke-width="5.47" stroke-miterlimit="10"/>
<path d="M90.2605 116.042C82.2436 117.767 74.1265 119.019 65.9808 120.143C70.0537 158.194 77.7556 196.618 96.3948 230.081C100.282 237.075 105.263 244.726 112.708 248.377C113.467 248.746 114.252 249.059 115.055 249.315C122.521 251.77 131.712 249.758 138.784 247.439C155.963 241.827 173.392 235.092 189.054 226.087C202.575 218.335 218.709 205.752 216.97 188.995C216.802 187.15 216.424 185.329 215.846 183.569" stroke="black" stroke-width="5.47" stroke-miterlimit="10"/>
<path d="M224.314 40.1368C225.515 45.1459 228.257 49.6511 232.155 53.0182C236.052 56.386 240.908 58.4446 246.038 58.9049C246.464 56.8391 247.388 54.9072 248.729 53.2795C254.456 46.5295 256.897 59.1919 275.214 50.1013C300.596 37.4748 310.23 44.7186 310.23 44.7186C311.075 45.3485 310.946 51.16 311.089 52.2194C311.805 58.2535 312.449 64.259 313.158 70.2859C313.587 73.9651 314.01 77.6163 314.41 81.2669C314.756 80.6456 315.138 80.045 315.556 79.4695C317.868 71.288 321.998 61.6256 330.902 65.7843C332.705 66.6633 334.275 67.9553 335.483 69.5559C341.389 77.315 336.915 84.8093 330.738 90.3567C329.189 92.0782 327.459 93.6257 325.577 94.9743C326.593 97.0787 330.745 105.432 330.745 105.461C331.174 106.305 345.683 89.8843 346.764 88.0948C348.379 83.7113 349.918 78.6705 350 74C355.673 49.6846 339 5.4997 323.5 10.9997C321.5 7.4997 323 12.9997 323.329 12.7793C323.313 12.5789 323.236 12.3885 323.109 12.2324C322.982 12.0764 322.81 11.9626 322.618 11.906C322.424 11.8495 322.5 12.4997 324 11.4997C325.5 10.4997 322.618 3.24226 322.618 7.49993C315.481 7.15779 311.089 9.99982 311.089 9.99982C269.201 -0.493676 248.047 16.5776 239.5 23.5C232.155 21.8412 232.937 30.1329 229.446 28.9426C229.241 30.0978 228.723 31.1751 227.95 32.0584C227.176 32.9417 226.177 33.5966 225.058 33.9531L225.273 35.8922C225.456 37.376 225.116 38.8763 224.314 40.1368Z" fill="#2EEAD4"/>
<path d="M246.067 58.9364C240.937 58.4755 236.081 56.4168 232.183 53.0498C228.286 49.6827 225.543 45.1768 224.342 40.1684C223.872 38.2472 223.575 36.2874 223.455 34.3132L223.784 34.2774C224.234 34.2438 224.677 34.1472 225.101 33.9911C226.22 33.6346 227.219 32.9797 227.993 32.0964C228.766 31.2138 229.284 30.1359 229.489 28.9806C229.62 28.3399 229.646 27.6821 229.568 27.0336L228.494 17.5565C228.494 17.5565 236.067 23.1898 244.47 19.8972C252.874 16.6045 266.982 -2.02034 308.892 8.44453C308.892 8.44453 318.354 9.00284 323.207 3.39104C323.33 3.23071 323.497 3.11187 323.688 3.0496C323.88 2.98661 324.085 2.98374 324.278 3.04029C324.471 3.09684 324.643 3.21066 324.769 3.36599C324.897 3.52203 324.973 3.71313 324.99 3.91356C325.24 7.62851 326.615 10.2555 330.48 12.9755C346.034 23.9987 353.851 46.3457 353.607 65.5503C353.536 73.5171 350.887 81.3836 346.8 88.1335C345.719 89.923 331.21 106.343 330.781 105.499C330.781 105.499 326.629 97.1167 325.613 95.0123L325.369 94.547L325.834 94.2392C327.562 93.066 329.212 91.7819 330.773 90.3954C336.944 84.8481 341.424 77.3537 335.519 69.5946C334.31 67.994 332.741 66.7013 330.938 65.8223C322.005 61.6636 317.903 71.3268 315.591 79.5083C315.143 81.0715 314.866 82.6799 314.768 84.304C314.661 83.3019 314.554 82.3356 314.446 81.3335C314.045 77.683 313.623 74.0325 313.194 70.3533C312.478 64.3263 311.805 58.3208 311.125 52.2867C311.018 51.256 311.125 45.4151 310.266 44.7852C310.266 44.7852 300.624 37.5414 275.249 50.168C256.932 59.2585 254.492 46.589 248.765 53.3461C247.424 54.9745 246.5 56.9057 246.074 58.9722C245.943 59.6358 245.859 60.3079 245.823 60.9836C245.81 61.0709 245.81 61.1604 245.823 61.2484C245.737 62.7301 245.709 64.2046 245.673 65.6505C245.537 79.6013 247.069 94.1748 252.545 107.131C259.201 122.835 276.817 138.325 295.134 131.002C300.86 128.705 305.993 125.004 310.688 121.074" stroke="black" stroke-width="5.47" stroke-miterlimit="10"/>
<path d="M258.602 92.9606C260.423 92.3508 261.302 90.0695 260.565 87.8656C259.828 85.661 257.753 84.3683 255.93 84.9781C254.109 85.5873 253.23 87.8685 253.967 90.0731C254.705 92.2778 256.78 93.5705 258.602 92.9606Z" fill="black"/>
<path d="M285.856 92.0885C287.678 91.4794 288.557 89.1982 287.819 86.9935C287.081 84.7889 285.007 83.4962 283.185 84.106C281.363 84.7159 280.484 86.9971 281.221 89.201C281.959 91.4057 284.034 92.6984 285.856 92.0885Z" fill="black"/>
<path d="M275.436 96.8089C275.436 96.8089 266.367 101.955 265.815 96.6156C265.644 94.9693 263.425 78.8425 263.425 78.8425C263.425 78.8425 256.095 71.0762 244.864 76.8168" stroke="black" stroke-width="5.47" stroke-miterlimit="10"/>
<path d="M273.396 74.3239C273.396 74.3239 288.041 67.0085 297.733 77.5521" stroke="black" stroke-width="5.47" stroke-miterlimit="10"/>
<path d="M286.824 132.798L288.506 141.43C283.202 146.319 279.451 153.327 280.546 160.707C281.52 167.249 286.874 173.34 292.364 176.769C301.541 182.495 313.745 182.044 323.623 178.401C333.279 174.822 341.632 168.029 347.688 159.74C350.539 155.733 352.439 151.129 353.242 146.276V146.19" stroke="black" stroke-width="5.47" stroke-miterlimit="10"/>
<path d="M288.506 141.43L291.784 157.02" stroke="black" stroke-width="5.47" stroke-miterlimit="10"/>
<path d="M334.868 101.74L339.821 134.63C340.309 137.85 341.937 140.788 344.408 142.908C346.879 145.03 350.028 146.195 353.285 146.19C368.701 148.688 383.908 152.335 398.781 157.099C456.881 175.838 492.642 228.177 502.742 286.657C506.944 311.144 507.259 336.827 501.983 361.178C498.984 374.886 494.647 390.282 484.575 400.547C471.498 413.932 451.427 408.42 435.973 402.372C387.994 383.711 348.088 350.513 313.63 312.504C295.206 292.176 271.399 275.885 271.399 275.885" stroke="black" stroke-width="5.47" stroke-miterlimit="10"/>
<path d="M85.0782 368.717C79.6954 368.667 75.007 364.322 73.7973 358.273C71.4065 346.377 70.7766 327.981 88.2205 323.965C110.016 318.955 126.78 342.691 134.997 357.693C137.76 362.704 134.632 369.146 129.486 369.146L85.0782 368.717Z" fill="#D7E8F0"/>
<path d="M92.274 313.864C96.9009 310.785 96.9725 302.758 92.4322 295.936C87.8926 289.113 80.4613 286.078 75.8337 289.157C71.2061 292.237 71.1353 300.264 75.6748 307.086C80.2151 313.909 87.6464 316.944 92.274 313.864Z" fill="#D7E8F0"/>
<path d="M450.468 420.673C450.132 420.723 449.752 420.773 449.423 420.852H449.294L398.38 420.587L321.983 420.193C321.69 420.193 321.404 420.193 321.117 420.193C320.55 420.18 319.984 420.137 319.421 420.065C324.597 419.463 329.395 417.055 332.971 413.265C336.546 409.475 338.671 404.545 338.969 399.342C338.983 399.073 338.983 398.803 338.969 398.534V398.118C338.948 393.028 337.175 388.101 333.946 384.165C330.719 380.229 326.234 377.525 321.246 376.509C320.724 376.38 320.151 376.301 319.6 376.222C320.466 376.144 321.325 376.086 322.162 376.086L386.705 376.43L398.587 376.48L414.614 376.559C420.101 377.06 425.205 379.59 428.926 383.654C432.647 387.717 434.718 393.023 434.735 398.534C434.736 399.574 434.657 400.612 434.499 401.64C433.736 406.886 431.115 411.684 427.114 415.161C423.113 418.638 417.997 420.564 412.696 420.587H451.477C449.244 420.587 449.867 420.587 450.468 420.673Z" fill="white"/>
<path d="M347.194 447.296C348.648 448.759 350.378 449.918 352.284 450.707C354.19 451.496 356.233 451.898 358.296 451.892H320.802C313.645 451.892 309.736 450.145 306.888 447.296C303.96 444.356 302.311 440.379 302.299 436.23C302.299 427.641 309.343 420.597 320.802 420.597H358.296C355.201 420.592 352.173 421.506 349.598 423.224C347.023 424.941 345.015 427.384 343.83 430.244C342.645 433.103 342.335 436.251 342.94 439.286C343.545 442.322 345.038 445.109 347.229 447.296H347.194Z" fill="#D7E8F0"/>
<path d="M471.018 398.927C471.009 402.233 470.24 405.493 468.771 408.454C467.722 410.693 466.282 412.727 464.519 414.46C461.612 417.34 457.962 419.355 453.975 420.279C452.332 420.658 450.651 420.851 448.965 420.852C449.308 420.773 449.681 420.723 450.01 420.673C449.409 420.616 448.786 420.594 451.026 420.594H412.238C417.542 420.574 422.663 418.649 426.667 415.17C430.671 411.691 433.293 406.89 434.055 401.64C434.213 400.612 434.292 399.573 434.291 398.533C434.275 393.023 432.203 387.716 428.48 383.651C424.757 379.587 419.652 377.058 414.163 376.559L435.1 376.666L449.087 376.745C454.932 376.794 460.519 379.155 464.629 383.311C468.739 387.468 471.036 393.082 471.018 398.927Z" fill="#3FBDF1"/>
<path d="M471.018 398.921C470.975 404.77 468.616 410.363 464.456 414.475C460.297 418.587 454.678 420.883 448.829 420.86L321.475 420.202C320.624 420.202 319.772 420.138 318.913 420.052C324.281 419.443 329.24 416.887 332.849 412.867C336.458 408.847 338.468 403.642 338.496 398.239C338.524 392.837 336.569 387.612 333.002 383.554C329.435 379.496 324.504 376.888 319.142 376.224C319.993 376.134 320.848 376.091 321.704 376.095L449.058 376.753C454.906 376.794 460.5 379.148 464.616 383.303C468.731 387.457 471.033 393.073 471.018 398.921Z" stroke="black" stroke-width="5.47" stroke-linecap="square" stroke-linejoin="round"/>
<path d="M434.277 398.527C434.265 404.374 431.938 409.979 427.802 414.113C423.668 418.248 418.063 420.576 412.216 420.588H321.604C320.748 420.582 319.893 420.535 319.042 420.444C324.406 419.807 329.35 417.225 332.939 413.186C336.526 409.147 338.507 403.932 338.507 398.53C338.507 393.128 336.526 387.914 332.939 383.875C329.35 379.836 324.406 377.253 319.042 376.616C319.893 376.538 320.752 376.48 321.604 376.48H412.216C418.06 376.493 423.662 378.82 427.796 382.951C431.93 387.083 434.26 392.682 434.277 398.527Z" stroke="black" stroke-width="5.47" stroke-linecap="square" stroke-linejoin="round"/>
<path d="M302.299 436.234C302.299 438.287 302.703 440.32 303.489 442.217C304.276 444.113 305.427 445.836 306.88 447.286C309.744 450.149 313.63 451.888 320.795 451.888H451.019C448.779 451.888 449.387 451.845 449.996 451.788C446.185 451.34 442.672 449.508 440.123 446.641C437.573 443.774 436.165 440.071 436.165 436.234C436.165 432.397 437.573 428.695 440.123 425.827C442.672 422.96 446.185 421.129 449.996 420.68C449.387 420.623 448.779 420.58 451.019 420.58H320.795C309.328 420.587 302.299 427.63 302.299 436.234Z" stroke="black" stroke-width="5.47" stroke-linecap="square" stroke-linejoin="round"/>
<path d="M342.598 436.234C342.608 440.383 344.26 444.36 347.194 447.293C350.128 450.227 354.104 451.879 358.253 451.888H448.178C448.779 451.888 449.387 451.845 449.996 451.788C446.186 451.34 442.672 449.508 440.123 446.641C437.573 443.774 436.165 440.071 436.165 436.234C436.165 432.397 437.573 428.695 440.123 425.827C442.672 422.96 446.186 421.129 449.996 420.68C449.387 420.623 448.779 420.58 448.178 420.58H358.253C354.105 420.591 350.129 422.244 347.196 425.177C344.263 428.11 342.61 432.086 342.598 436.234Z" stroke="black" stroke-width="5.47" stroke-linecap="square" stroke-linejoin="round"/>
<path d="M196.828 316.799H156.657C154.819 316.796 153.022 316.258 151.484 315.251C149.947 314.245 148.735 312.813 147.996 311.13C147.711 310.503 147.589 309.815 147.642 309.128C147.694 308.442 147.92 307.78 148.297 307.204C148.674 306.629 149.191 306.158 149.799 305.835C150.408 305.513 151.087 305.35 151.776 305.36H194.48C192.468 308.746 193.492 313.449 196.828 316.799Z" fill="#D7E8F0"/>
<path d="M222.803 312.66C222.801 313.755 222.366 314.804 221.592 315.578C220.818 316.353 219.769 316.789 218.673 316.79H196.827C193.492 313.447 192.468 308.745 194.48 305.337H213.77C215.606 305.338 217.402 305.871 218.941 306.872C220.479 307.873 221.695 309.3 222.438 310.978C222.67 311.51 222.793 312.081 222.803 312.66Z" fill="#3FBDF1"/>
<path d="M212.754 316.798C212.641 317.017 212.509 317.225 212.36 317.421C209.497 321.336 203.277 321.716 198.445 318.18C197.874 317.758 197.334 317.296 196.827 316.798C193.492 313.455 192.468 308.753 194.48 305.346C194.593 305.127 194.724 304.919 194.873 304.723C197.736 300.779 203.928 300.428 208.76 303.935C209.342 304.371 209.889 304.849 210.399 305.367C213.706 308.695 214.737 313.37 212.754 316.798Z" fill="white"/>
<path d="M232.903 337.879C232.895 338.975 232.455 340.024 231.677 340.796C230.9 341.569 229.848 342.002 228.752 342.002H186.599C188.632 338.581 187.615 333.914 184.272 330.55H223.87C225.709 330.551 227.507 331.086 229.047 332.091C230.586 333.097 231.799 334.528 232.538 336.212C232.774 336.736 232.898 337.304 232.903 337.879Z" fill="#3FBDF1"/>
<path d="M186.599 342H166.764C164.928 342.001 163.131 341.469 161.592 340.468C160.053 339.466 158.838 338.039 158.096 336.36C157.862 335.834 157.738 335.267 157.731 334.692C157.73 334.151 157.836 333.614 158.043 333.113C158.25 332.612 158.553 332.158 158.936 331.774C159.319 331.391 159.775 331.088 160.275 330.881C160.776 330.674 161.312 330.568 161.854 330.569H184.273C187.615 333.912 188.653 338.579 186.599 342Z" fill="#D7E8F0"/>
<path d="M186.599 342.001C186.506 342.226 186.383 342.437 186.234 342.631C183.371 346.568 177.172 346.925 172.348 343.411C171.763 342.976 171.214 342.497 170.701 341.979C167.387 338.637 166.371 333.97 168.353 330.527C168.468 330.306 168.6 330.096 168.747 329.897C171.61 325.981 177.83 325.602 182.655 329.145C183.23 329.563 183.77 330.024 184.273 330.527C187.615 333.912 188.653 338.579 186.599 342.001Z" fill="white"/>
<path d="M200.643 367.034H175.404C173.569 367.031 171.773 366.497 170.235 365.497C168.696 364.495 167.481 363.07 166.736 361.393C166.451 360.765 166.331 360.075 166.383 359.387C166.437 358.7 166.663 358.037 167.04 357.459C167.418 356.882 167.935 356.409 168.543 356.085C169.152 355.76 169.832 355.594 170.522 355.602H198.295C196.305 359.031 197.329 363.691 200.643 367.034Z" fill="#3FBDF1"/>
<path d="M241.543 362.939C241.537 364.028 241.1 365.071 240.327 365.838C239.554 366.605 238.509 367.035 237.42 367.033H200.643C197.328 363.69 196.305 359.024 198.295 355.581H232.51C234.348 355.581 236.147 356.117 237.686 357.122C239.225 358.127 240.438 359.559 241.178 361.242C241.413 361.777 241.538 362.354 241.543 362.939Z" fill="#D7E8F0"/>
<path d="M216.569 367.034C216.454 367.254 216.323 367.464 216.175 367.664C213.312 371.601 207.121 371.959 202.289 368.444C201.708 368.007 201.161 367.529 200.65 367.012C197.336 363.67 196.312 359.003 198.302 355.56C198.412 355.339 198.54 355.127 198.689 354.93C201.552 351.015 207.772 350.678 212.604 354.178C213.178 354.596 213.719 355.057 214.221 355.56C217.557 358.945 218.573 363.641 216.569 367.034Z" fill="white"/>
<path d="M25.8894 138.832L26.5193 139.011L26.2831 139.927C26.1335 139.569 26.0018 139.204 25.8894 138.832Z" fill="#353642"/>
<path d="M137.908 196.098C147.33 193.332 152.281 181.935 148.966 170.643C145.651 159.352 135.326 152.439 125.904 155.205C116.481 157.971 111.531 169.368 114.846 180.66C118.16 191.952 128.486 198.864 137.908 196.098Z" fill="#D7E8F0"/>
</svg>
