<svg width="776" height="748" viewBox="0 0 776 748" fill="none" xmlns="http://www.w3.org/2000/svg">
<path d="M155.101 234.992C155.101 234.992 108.717 83.3101 270.505 101.823C432.294 120.335 354.993 53.1984 416.128 11.5354C477.264 -30.1277 657.397 99.4897 582.035 224.507C506.673 349.525 702.472 235.164 743.315 423.166C768.519 539.185 705.987 624.578 654.399 672.983" stroke="#CCDDE2" stroke-width="5.47" stroke-miterlimit="10"/>
<path d="M670.176 528.036C658.018 450.224 614.969 380.592 545.026 355.67C527.135 349.331 508.839 344.476 490.293 341.148V341.253C489.326 347.712 487.036 353.843 483.598 359.175C476.308 370.212 466.261 379.278 454.628 384.001C442.754 388.858 428.045 389.487 417.025 381.849C410.39 377.259 403.953 369.174 402.79 360.451C401.463 350.623 405.995 341.319 412.372 334.825C358.327 335.31 307.489 345.138 266.749 356.327C268.161 362.861 270.116 369.237 272.591 375.373C276.054 383.928 280.947 391.682 287.015 398.229C294.583 389.943 301.21 380.669 306.748 370.612C312.045 372.528 316.717 376.124 320.181 380.951C323.644 385.778 325.748 391.623 326.23 397.762V398.076C328.367 420.37 308.945 437.12 292.625 447.424C273.771 459.404 252.755 468.375 232.109 475.831C223.596 478.917 212.532 481.545 203.545 478.326C202.577 477.986 201.633 477.568 200.718 477.079C191.757 472.222 185.76 462.042 181.081 452.738C167.751 426.312 159.082 397.505 153.206 367.936C112.423 373.697 107.752 343.176 105.331 335.691L70.4419 443.482C68.6117 451.23 68.4144 459.339 69.8629 467.185C71.3122 475.031 74.3703 482.405 78.8019 488.741C83.2326 495.076 88.9196 500.205 95.4244 503.732C101.93 507.259 109.08 509.09 116.326 509.086H260.76L326.368 695.07L344.963 747.856H451.173C442.556 747.856 437.843 745.532 434.422 741.742C430.889 737.835 428.9 732.542 428.89 727.019C428.89 715.592 437.377 706.221 451.173 706.221H452.147C451.104 706.221 450.104 706.116 449.062 706.012C449.708 705.934 450.349 705.816 450.983 705.659C450.3 705.641 449.618 705.584 448.941 705.488C455.163 704.675 460.93 701.473 465.231 696.438C469.533 691.404 472.096 684.859 472.473 677.947C472.491 677.588 472.491 677.229 472.473 676.871V676.319C472.325 669.233 469.874 662.442 465.57 657.188C461.265 651.933 455.392 648.567 449.027 647.702C449.751 647.636 450.44 647.569 451.138 647.569C450.509 647.398 449.811 647.293 449.157 647.188C450.191 647.083 451.233 647.007 452.233 647.007L529.939 647.464L544.234 647.531H561.2C561.984 647.531 562.777 647.531 563.527 647.636L588.731 647.778L605.568 647.883C612.605 647.948 619.331 651.091 624.277 656.623C629.223 662.155 631.986 669.627 631.961 677.404C631.952 681.802 631.029 686.138 629.264 690.08C636.488 689.058 643.187 685.366 648.272 679.604C660.396 665.92 665.618 645.436 669.228 627.228C675.613 594.793 675.234 560.615 670.176 528.036ZM473.852 530.227C459.212 555.129 434.284 552.891 434.284 552.891C434.284 552.891 432.216 555.12 427.391 545.635C422.565 536.15 408.822 529.665 408.822 529.665C407.727 539.188 405.461 553.663 382.971 534.903C360.482 516.142 367.263 488.792 369.185 474.346C371.106 459.899 378.766 455.109 378.766 455.109L387.814 449.834C387.814 449.834 361.645 442.396 360.387 442.12C359.129 441.844 335.82 420.274 359.473 414.58C383.126 408.885 419.997 431.531 427.124 436.006C434.25 440.482 475.894 479.412 475.894 479.412C475.894 479.412 488.57 505.362 473.852 530.227Z" fill="#353642"/>
<path d="M153.171 367.953C153.171 367.953 172.895 365.306 180.28 349.745L173.843 389.656C173.843 389.656 252.307 360.135 266.697 356.326C266.697 356.326 271.333 389.361 289.79 398.227L308.833 371.467C308.833 371.467 332.71 378.133 326.178 414.092C319.647 450.051 229.309 480.105 213.988 479.41C198.668 478.715 182.175 468.297 165.286 412.311L153.171 367.953Z" fill="#353642"/>
<path d="M185.303 279.047C190.301 288.037 195.325 297.008 200.512 305.864C203.709 311.321 209.534 319.101 203.338 324.805C201.322 326.514 198.887 327.51 196.35 327.662C192.369 328.053 188.19 326.996 185.769 323.215L173.705 301.122C171.301 296.715 167.483 293.472 163.013 292.035C158.541 290.599 153.745 291.076 149.578 293.37" stroke="black" stroke-width="5.47" stroke-miterlimit="10"/>
<path d="M230.929 308.147C234.083 316.432 231.946 321.774 228.258 324.46C222.226 328.831 214.152 326.736 209.878 320.355L185.346 279.092" stroke="black" stroke-width="5.47" stroke-miterlimit="10"/>
<path d="M206.069 267.048C214.996 279.047 226.259 301.331 232.488 310.635C238.718 319.939 248.352 314.33 248.352 314.33C256.176 309.673 254.849 301.95 251.428 292.57C243.001 269.543 230.972 254.23 217.556 244.193C175.98 213.11 133.327 236.042 120.634 289.694L70.4419 443.481C68.6117 451.23 68.4144 459.338 69.8629 467.184C71.3122 475.03 74.3703 482.405 78.8019 488.741C83.2326 495.076 88.9196 500.204 95.4244 503.732C101.93 507.258 109.08 509.089 116.326 509.085H260.76L344.989 747.864" stroke="black" stroke-width="5.47" stroke-miterlimit="10"/>
<path d="M257.641 282.008C267.981 278.046 267.507 259.819 252.833 253.668C236.625 246.868 207.845 237.25 200.615 234.85C200.57 234.812 200.516 234.789 200.46 234.784C199.952 234.612 199.598 234.469 199.323 234.403L198.918 234.26" stroke="black" stroke-width="5.47" stroke-miterlimit="10"/>
<path d="M410.416 464.249C401.368 452.231 376.603 445.422 360.438 442.127C357.722 441.563 355.244 440.038 353.379 437.783C351.514 435.528 350.363 432.665 350.098 429.623C349.91 427.572 350.125 425.5 350.727 423.547C351.691 420.551 353.537 417.998 355.97 416.3C358.402 414.601 361.281 413.853 364.144 414.177C391.717 417.262 420.152 426.852 441.186 447.507C441.186 447.507 543.148 533.5 555.323 541.871C560.347 545.242 565.034 541.261 561.631 535.966L560.562 533.947C554.569 522.581 547.476 511.967 539.408 502.293" stroke="black" stroke-width="5.47" stroke-miterlimit="10"/>
<path d="M412.303 334.813C284.068 335.994 173.843 389.646 173.843 389.646L184.846 321.481" stroke="black" stroke-width="5.47" stroke-miterlimit="10"/>
<path d="M611.47 705.799C611.47 705.799 597.502 702.304 593.789 714.665C590.075 727.026 586.197 746.691 612.901 747.853C639.604 749.015 623.921 743.215 622.379 733.664C620.837 724.112 611.47 705.799 611.47 705.799Z" fill="#353642"/>
<path d="M398.094 479.935C398.094 479.935 383.023 467.307 369.452 480.106C368.88 480.662 368.381 481.303 367.969 482.011" stroke="black" stroke-width="5.47" stroke-miterlimit="10"/>
<g opacity="0.77">
<path opacity="0.77" d="M209.826 320.311C214.135 326.701 222.2 328.786 228.206 324.406C231.851 321.739 233.988 316.425 230.912 308.217C231.472 309.121 231.98 309.921 232.48 310.654C238.701 319.996 248.343 314.368 248.343 314.368C256.167 309.712 254.849 301.988 251.428 292.599C248.081 283.299 243.689 274.5 238.357 266.411C241.846 262.801 245.991 259.154 250.36 260.754C255.073 262.487 256.391 269.02 256.926 274.467C257.175 277 257.425 279.505 257.675 282.038L261.449 319.33C262.707 331.71 263.965 344.271 266.697 356.355C268.109 362.889 270.064 369.265 272.539 375.401C276.002 383.956 280.896 391.71 286.964 398.256C294.532 389.97 301.158 380.697 306.696 370.64C311.993 372.556 316.665 376.152 320.129 380.979C323.592 385.806 325.697 391.651 326.178 397.79V398.104C328.315 420.397 308.893 437.148 292.573 447.452C273.72 459.432 252.703 468.403 232.058 475.859C223.544 478.945 212.48 481.573 203.493 478.354C202.525 478.013 201.581 477.596 200.667 477.107C191.705 472.25 185.708 462.07 181.029 452.766C158.626 408.246 149.32 357.127 144.417 306.502C154.223 305.007 163.994 303.341 173.645 301.046C173.645 301.046 173.645 301.122 173.705 301.15L184.829 321.539L185.743 323.234C188.155 327.043 192.334 328.062 196.324 327.682C198.861 327.542 201.298 326.545 203.304 324.825C209.49 319.111 203.683 311.359 200.477 305.902" fill="white"/>
<path opacity="0.77" d="M209.826 320.311C214.135 326.701 222.2 328.786 228.206 324.406C231.851 321.739 233.988 316.425 230.912 308.217C231.472 309.121 231.98 309.921 232.48 310.654C238.701 319.996 248.343 314.368 248.343 314.368C256.167 309.712 254.849 301.988 251.428 292.599C248.081 283.299 243.689 274.5 238.357 266.411C241.846 262.801 245.991 259.154 250.36 260.754C255.073 262.487 256.391 269.02 256.926 274.467C257.175 277 257.425 279.505 257.675 282.038L261.449 319.33C262.707 331.71 263.965 344.271 266.697 356.355C268.109 362.889 270.064 369.265 272.539 375.401C276.002 383.956 280.896 391.71 286.964 398.256C294.532 389.97 301.158 380.697 306.696 370.64C311.993 372.556 316.665 376.152 320.129 380.979C323.592 385.806 325.697 391.651 326.178 397.79V398.104C328.315 420.397 308.893 437.148 292.573 447.452C273.72 459.432 252.703 468.403 232.058 475.859C223.544 478.945 212.48 481.573 203.493 478.354C202.525 478.013 201.581 477.596 200.667 477.107C191.705 472.25 185.708 462.07 181.029 452.766C158.626 408.246 149.32 357.127 144.417 306.502C154.223 305.007 163.994 303.341 173.645 301.046C173.645 301.046 173.645 301.122 173.705 301.15L184.829 321.539L185.743 323.234C188.155 327.043 192.334 328.062 196.324 327.682C198.861 327.542 201.298 326.545 203.304 324.825C209.49 319.111 203.683 311.359 200.477 305.902" fill="#3FBDF1"/>
<path opacity="0.77" d="M212.472 323.329C216.289 329.043 222.812 328.32 228.206 324.406C231.463 322.025 234.134 322.72 231.385 315.378C231.894 316.178 231.963 313.473 232.411 314.073C237.969 322.415 232.48 310.626 232.48 310.626C240.235 321.453 257.115 311.254 254.022 302.884C250.747 293.865 247.301 280.533 242.932 273.867C246.379 270.267 245.715 270.801 250.101 273.667C251.279 274.503 252.265 275.632 252.982 276.962C253.698 278.292 254.125 279.788 254.228 281.333C254.582 284.961 254.935 288.437 255.288 291.98L258.649 325.31C259.778 336.385 260.898 347.575 263.336 358.355C264.597 364.184 266.345 369.871 268.558 375.344C271.643 382.877 281.552 395.419 286.963 401.161C293.693 393.781 301.758 380.21 306.696 371.192C316.174 374.411 315.761 384.429 316.433 395.371V395.657C318.346 415.55 301.009 430.492 286.481 439.7C269.644 450.395 250.885 458.394 232.454 465.06C224.854 467.822 214.979 470.203 206.957 467.288C206.092 466.987 205.247 466.613 204.432 466.174C196.436 461.832 191.076 452.756 186.897 444.443C168.604 408.132 160.116 366.907 155.446 325.577C155.103 322.484 155.86 319.366 157.558 316.879C159.255 314.391 161.76 312.729 164.545 312.245C169.793 311.292 175.023 310.34 180.219 309.064L180.366 309.14L190.292 327.339C192.455 330.719 192.808 328.072 196.367 327.729C198.616 327.51 202.976 327.024 204.717 325.415C210.24 320.33 207.121 318.225 204.26 313.359" fill="#3FBDF1"/>
</g>
<path d="M396.276 498.315C396.276 498.315 367.659 487.916 367.229 505.4" stroke="black" stroke-width="5.47" stroke-miterlimit="10"/>
<path opacity="0.54" d="M140.125 676.42L84.0045 517.519C83.3092 514.444 83.2575 511.235 83.852 508.134C84.4474 505.034 85.6745 502.124 87.4392 499.626C89.2047 497.128 91.4615 495.108 94.0396 493.718C96.6169 492.329 99.4475 491.607 102.315 491.607H325.23C330.236 491.606 335.096 493.468 339.027 496.892C342.958 500.316 345.732 505.103 346.901 510.481L408.339 669.344C409.003 672.408 409.03 675.6 408.418 678.677C407.806 681.755 406.571 684.64 404.805 687.114C403.04 689.589 400.79 691.589 398.225 692.965C395.659 694.34 392.845 695.055 389.994 695.056H161.745C156.776 695.06 151.95 693.227 148.033 689.85C144.116 686.473 141.333 681.746 140.125 676.42Z" fill="white"/>
<path d="M405.59 525.118C405.59 525.118 410.235 529.823 408.468 536.546C407.159 541.526 402.678 544.669 398.24 542.964C384.109 537.565 371.382 528.394 368.28 512.805C366.814 504.913 366.497 496.811 367.341 488.807C368.021 481.389 369.012 473.38 371.27 466.323C374.716 455.486 385.272 447.935 395.517 453.153" stroke="black" stroke-width="5.47" stroke-miterlimit="10"/>
<path d="M140.125 676.42L84.0045 517.519C83.3092 514.444 83.2575 511.235 83.852 508.134C84.4474 505.034 85.6745 502.124 87.4392 499.626C89.2047 497.128 91.4615 495.108 94.0396 493.718C96.6169 492.329 99.4475 491.607 102.315 491.607H325.23C330.236 491.606 335.096 493.468 339.027 496.892C342.958 500.316 345.732 505.103 346.901 510.481L408.339 669.344C409.003 672.408 409.03 675.6 408.418 678.677C407.806 681.755 406.571 684.64 404.805 687.114C403.04 689.589 400.79 691.589 398.225 692.965C395.659 694.34 392.845 695.055 389.994 695.056H161.745C156.776 695.06 151.95 693.227 148.033 689.85C144.116 686.473 141.333 681.746 140.125 676.42Z" fill="#3FBDF1"/>
<path d="M140.125 676.42L84.0045 517.519C83.3092 514.444 83.2575 511.235 83.852 508.134C84.4474 505.034 85.6745 502.124 87.4392 499.626C89.2047 497.128 91.4615 495.108 94.0396 493.718C96.6169 492.329 99.4475 491.607 102.315 491.607H325.23C330.236 491.606 335.096 493.468 339.027 496.892C342.958 500.316 345.732 505.103 346.901 510.481L408.339 669.344C409.003 672.408 409.03 675.6 408.418 678.677C407.806 681.755 406.571 684.64 404.805 687.114C403.04 689.589 400.79 691.589 398.225 692.965C395.659 694.34 392.845 695.055 389.994 695.056H161.745C156.776 695.06 151.95 693.227 148.033 689.85C144.116 686.473 141.333 681.746 140.125 676.42Z" stroke="black" stroke-width="5.47" stroke-linecap="square" stroke-linejoin="round"/>
<path d="M148.337 670.02L96.5593 523.366C95.919 520.53 95.8725 517.569 96.4223 514.709C96.972 511.849 98.1043 509.165 99.7337 506.861C101.362 504.558 103.445 502.694 105.822 501.412C108.2 500.13 110.811 499.464 113.457 499.464H319.104C323.721 499.462 328.204 501.179 331.831 504.337C335.458 507.494 338.017 511.91 339.095 516.872L395.784 663.44C396.396 666.268 396.42 669.213 395.855 672.053C395.29 674.892 394.149 677.553 392.52 679.836C390.891 682.118 388.814 683.964 386.447 685.232C384.08 686.502 381.483 687.162 378.853 687.162H168.276C163.7 687.167 159.254 685.482 155.643 682.377C152.03 679.272 149.46 674.924 148.337 670.02Z" fill="#3FBDF1"/>
<path d="M588.455 647.015L627.885 747.854" stroke="black" stroke-width="5.47" stroke-miterlimit="10"/>
<path d="M775.507 747.854H0" stroke="black" stroke-width="5.47" stroke-miterlimit="10"/>
<path d="M408.753 292.73C402.359 299.71 392.812 299.701 387.375 293.244" stroke="black" stroke-width="5.47" stroke-miterlimit="10"/>
<path d="M238.356 266.38C241.846 262.771 245.991 259.123 250.359 260.723C255.073 262.457 256.391 268.989 256.925 274.436C258.436 289.407 259.944 304.361 261.449 319.3C263.362 338.346 265.378 357.848 272.539 375.351C276.002 383.906 280.895 391.661 286.963 398.207" stroke="black" stroke-width="5.47" stroke-miterlimit="10"/>
<path d="M326.178 398.092V397.778C325.697 391.641 323.592 385.794 320.129 380.967C316.665 376.141 311.993 372.545 306.696 370.628C301.158 380.685 294.532 389.96 286.964 398.245C267.122 420.05 241.633 434.49 214.031 439.565C215.358 445.403 218.09 450.716 219.977 456.335C221.864 461.954 222.803 468.458 220.511 473.876C217.616 480.79 209.309 479.885 203.536 478.352C203.476 478.352 203.441 478.352 203.381 478.352" stroke="black" stroke-width="5.47" stroke-miterlimit="10"/>
<path d="M173.662 301.036C164.011 303.331 154.24 304.998 144.434 306.493C149.337 357.117 158.609 408.236 181.047 452.756C185.725 462.06 191.723 472.24 200.684 477.097C201.598 477.588 202.543 478.005 203.51 478.345C212.498 481.611 223.562 478.935 232.075 475.85C252.755 468.384 273.737 459.422 292.59 447.443C308.867 437.129 328.289 420.388 326.196 398.094C325.993 395.639 325.539 393.218 324.843 390.876" stroke="black" stroke-width="5.47" stroke-miterlimit="10"/>
<path d="M335.036 200.051C336.482 206.716 339.783 212.709 344.475 217.189C349.167 221.67 355.012 224.408 361.188 225.021C361.701 222.272 362.813 219.702 364.428 217.537C371.321 208.556 374.26 225.403 396.31 213.308C426.865 196.51 438.463 206.147 438.463 206.147C439.48 206.985 439.325 214.717 439.497 216.126C440.359 224.154 441.134 232.144 441.987 240.162C442.504 245.057 443.013 249.915 443.495 254.771C443.911 253.945 444.372 253.146 444.874 252.38C447.657 241.495 452.629 228.64 463.348 234.173C465.519 235.343 467.408 237.062 468.863 239.191C475.972 249.514 470.586 259.484 463.15 266.865C461.286 269.155 459.203 271.214 456.937 273.008C458.161 275.808 463.159 286.921 463.159 286.959C463.676 288.083 481.142 266.236 482.443 263.855C484.387 258.024 485.429 251.872 485.528 245.658C485.812 220.108 476.403 190.367 457.678 175.711C453.034 172.082 454.516 168.587 454.232 163.655C454.212 163.388 454.12 163.135 453.966 162.927C453.814 162.719 453.607 162.568 453.375 162.493C453.143 162.417 452.895 162.422 452.665 162.505C452.435 162.589 452.233 162.747 452.086 162.96C446.218 170.426 431.69 169.684 431.69 169.684C381.265 155.723 364.316 180.502 354.14 184.92C349.987 186.658 345.417 186.742 341.214 185.158C340.967 186.695 340.344 188.129 339.414 189.304C338.482 190.479 337.279 191.35 335.932 191.824L336.191 194.404C336.411 196.378 336.002 198.374 335.036 200.051Z" fill="#3FBDF1"/>
<path d="M361.223 225.063C355.047 224.45 349.202 221.711 344.51 217.231C339.818 212.751 336.516 206.757 335.071 200.094C334.505 197.538 334.147 194.93 334.002 192.304L334.399 192.256C334.941 192.211 335.474 192.083 335.984 191.875C337.331 191.401 338.534 190.53 339.465 189.354C340.396 188.18 341.019 186.746 341.266 185.209C341.424 184.357 341.456 183.482 341.361 182.619L340.069 170.01C340.069 170.01 349.185 177.505 359.301 173.124C369.417 168.744 386.401 143.965 436.852 157.888C436.852 157.888 448.243 158.63 454.085 151.164C454.233 150.951 454.434 150.793 454.664 150.71C454.895 150.626 455.142 150.623 455.374 150.698C455.606 150.773 455.813 150.924 455.966 151.131C456.119 151.339 456.211 151.593 456.231 151.86C456.533 156.802 458.187 160.297 462.84 163.916C481.564 178.581 490.974 208.312 490.681 233.862C490.595 244.461 487.406 254.927 482.486 263.907C481.185 266.288 463.719 288.134 463.202 287.01C463.202 287.01 458.204 275.858 456.981 273.059L456.688 272.44L457.248 272.03C459.328 270.469 461.314 268.761 463.193 266.916C470.621 259.536 476.015 249.565 468.906 239.243C467.451 237.113 465.562 235.393 463.392 234.224C452.638 228.691 447.7 241.547 444.917 252.432C444.377 254.512 444.044 256.651 443.926 258.812C443.797 257.479 443.668 256.193 443.539 254.86C443.056 250.003 442.548 245.147 442.031 240.252C441.169 232.234 440.359 224.244 439.54 216.216C439.411 214.845 439.54 207.074 438.506 206.236C438.506 206.236 426.9 196.599 396.353 213.397C374.303 225.491 371.365 208.636 364.471 217.625C362.856 219.792 361.744 222.361 361.231 225.11C361.074 225.993 360.973 226.887 360.93 227.786C360.913 227.903 360.913 228.022 360.93 228.139C360.826 230.11 360.792 232.072 360.749 233.995C360.585 252.556 362.429 271.944 369.021 289.181C377.034 310.074 398.24 330.682 420.291 320.94C427.184 317.883 433.362 312.96 439.015 307.732" stroke="black" stroke-width="5.47" stroke-miterlimit="10"/>
<path d="M376.312 270.329C378.505 269.518 379.563 266.483 378.676 263.551C377.788 260.618 375.29 258.898 373.097 259.709C370.904 260.52 369.845 263.555 370.733 266.488C371.621 269.421 374.119 271.141 376.312 270.329Z" fill="black"/>
<path d="M409.121 269.168C411.314 268.358 412.373 265.323 411.485 262.39C410.597 259.457 408.099 257.737 405.906 258.548C403.713 259.36 402.655 262.395 403.542 265.327C404.43 268.26 406.928 269.98 409.121 269.168Z" fill="black"/>
<path d="M396.577 275.449C396.577 275.449 385.66 282.296 384.996 275.192C384.789 273.002 382.118 251.546 382.118 251.546C382.118 251.546 373.295 241.214 359.775 248.851" stroke="black" stroke-width="5.47" stroke-miterlimit="10"/>
<path d="M394.121 245.534C394.121 245.534 411.751 235.802 423.418 249.829" stroke="black" stroke-width="5.47" stroke-miterlimit="10"/>
<path d="M410.286 323.329L412.311 334.814C405.926 341.318 401.411 350.641 402.73 360.46C403.901 369.164 410.347 377.268 416.956 381.829C428.002 389.447 442.694 388.848 454.585 384C466.209 379.239 476.265 370.202 483.555 359.174C486.988 353.843 489.274 347.717 490.241 341.261V341.147" stroke="black" stroke-width="5.47" stroke-miterlimit="10"/>
<path d="M412.311 334.813L416.258 355.554" stroke="black" stroke-width="5.47" stroke-miterlimit="10"/>
<path d="M468.122 282.009L474.085 325.767C474.672 330.051 476.632 333.959 479.606 336.781C482.581 339.603 486.372 341.153 490.293 341.147C508.851 344.471 527.157 349.322 545.061 355.66C615.003 380.591 658.052 450.223 670.211 528.026C675.269 560.604 675.648 594.773 669.297 627.17C665.687 645.406 660.465 665.89 648.341 679.546C632.598 697.354 608.437 690.022 589.834 681.975C532.075 657.148 484.037 612.981 442.556 562.414C420.377 535.368 391.717 513.694 391.717 513.694" stroke="black" stroke-width="5.47" stroke-miterlimit="10"/>
<path d="M167.423 637.198C160.944 637.132 155.3 631.351 153.843 623.304C150.965 607.477 150.207 583.003 171.206 577.661C197.444 570.994 217.625 602.573 227.517 622.533C230.843 629.199 227.077 637.77 220.882 637.77L167.423 637.198Z" fill="#D7E8F0"/>
<path d="M176.086 564.222C181.656 560.125 181.742 549.446 176.276 540.37C170.812 531.293 161.866 527.255 156.295 531.352C150.724 535.448 150.639 546.127 156.104 555.204C161.569 564.281 170.515 568.319 176.086 564.222Z" fill="#D7E8F0"/>
<path d="M607.283 706.322C606.878 706.388 606.421 706.455 606.024 706.56H605.869L544.578 706.208L452.612 705.684C452.259 705.684 451.914 705.684 451.569 705.684C450.886 705.666 450.204 705.609 449.527 705.512C455.758 704.712 461.534 701.509 465.839 696.466C470.143 691.424 472.7 684.865 473.059 677.943C473.077 677.585 473.077 677.226 473.059 676.867V676.315C473.034 669.543 470.899 662.988 467.013 657.751C463.128 652.515 457.729 648.917 451.724 647.565C451.095 647.394 450.406 647.289 449.743 647.184C450.785 647.079 451.819 647.003 452.827 647.003L530.525 647.46L544.828 647.527L564.121 647.632C570.727 648.298 576.871 651.664 581.35 657.071C585.829 662.477 588.323 669.536 588.343 676.867C588.344 678.251 588.249 679.633 588.059 681C587.14 687.98 583.985 694.363 579.169 698.988C574.352 703.614 568.193 706.176 561.812 706.208H608.497C605.809 706.208 606.559 706.208 607.283 706.322Z" fill="white"/>
<path d="M482.96 741.742C484.711 743.687 486.794 745.23 489.087 746.28C491.382 747.329 493.842 747.864 496.325 747.856H451.19C442.573 747.856 437.869 745.532 434.439 741.742C430.915 737.83 428.931 732.539 428.916 727.019C428.916 715.592 437.395 706.221 451.19 706.221H496.325C492.599 706.215 488.955 707.431 485.854 709.716C482.754 712.001 480.337 715.251 478.911 719.055C477.484 722.86 477.111 727.047 477.84 731.086C478.568 735.124 480.366 738.833 483.003 741.742H482.96Z" fill="#D7E8F0"/>
<path d="M632.021 677.391C632.01 681.79 631.084 686.127 629.316 690.066C628.052 693.045 626.32 695.751 624.197 698.056C620.698 701.888 616.303 704.569 611.505 705.798C609.526 706.303 607.503 706.559 605.473 706.56C605.887 706.455 606.335 706.389 606.731 706.322C606.007 706.246 605.258 706.217 607.955 706.217H561.26C567.646 706.191 573.811 703.629 578.631 699.001C583.451 694.373 586.608 687.985 587.524 681C587.715 679.633 587.81 678.251 587.809 676.867C587.789 669.536 585.294 662.475 580.813 657.068C576.331 651.661 570.186 648.297 563.578 647.632L588.782 647.775L605.62 647.879C612.656 647.945 619.382 651.086 624.329 656.616C629.277 662.146 632.042 669.615 632.021 677.391Z" fill="#3FBDF1"/>
<path d="M632.021 677.384C631.969 685.165 629.129 692.605 624.121 698.076C619.115 703.547 612.35 706.602 605.309 706.572L452 705.696C450.975 705.696 449.949 705.61 448.915 705.496C455.378 704.686 461.347 701.285 465.692 695.936C470.037 690.588 472.455 683.664 472.49 676.476C472.523 669.289 470.17 662.337 465.877 656.939C461.582 651.54 455.646 648.07 449.191 647.186C450.216 647.067 451.245 647.01 452.276 647.015L605.585 647.891C612.625 647.944 619.359 651.077 624.313 656.605C629.268 662.132 632.039 669.603 632.021 677.384Z" stroke="black" stroke-width="5.47" stroke-linecap="square" stroke-linejoin="round"/>
<path d="M587.791 676.859C587.778 684.638 584.975 692.095 579.997 697.595C575.02 703.097 568.274 706.193 561.235 706.209H452.155C451.125 706.202 450.095 706.138 449.07 706.018C455.528 705.171 461.48 701.735 465.8 696.362C470.118 690.988 472.504 684.051 472.504 676.864C472.504 669.677 470.118 662.739 465.8 657.365C461.48 651.992 455.528 648.557 449.07 647.709C450.096 647.604 451.13 647.528 452.155 647.528H561.235C568.27 647.545 575.013 650.641 579.99 656.137C584.966 661.634 587.771 669.083 587.791 676.859Z" stroke="black" stroke-width="5.47" stroke-linecap="square" stroke-linejoin="round"/>
<path d="M428.916 727.025C428.915 729.756 429.402 732.461 430.348 734.984C431.295 737.507 432.681 739.799 434.431 741.729C437.877 745.538 442.556 747.852 451.182 747.852H607.946C605.249 747.852 605.981 747.795 606.714 747.718C602.127 747.122 597.898 744.685 594.829 740.87C591.759 737.057 590.065 732.129 590.065 727.025C590.065 721.921 591.759 716.994 594.829 713.18C597.898 709.366 602.127 706.929 606.714 706.332C605.981 706.255 605.249 706.198 607.946 706.198H451.182C437.378 706.208 428.916 715.578 428.916 727.025Z" stroke="black" stroke-width="5.47" stroke-linecap="square" stroke-linejoin="round"/>
<path d="M477.428 727.025C477.439 732.545 479.429 737.836 482.96 741.738C486.492 745.642 491.279 747.839 496.273 747.852H604.525C605.249 747.852 605.981 747.795 606.714 747.718C602.127 747.122 597.898 744.685 594.829 740.87C591.759 737.057 590.065 732.129 590.065 727.025C590.065 721.921 591.759 716.994 594.829 713.18C597.898 709.366 602.127 706.929 606.714 706.332C605.981 706.255 605.249 706.198 604.525 706.198H496.273C491.28 706.213 486.494 708.412 482.963 712.315C479.431 716.217 477.442 721.506 477.428 727.025Z" stroke="black" stroke-width="5.47" stroke-linecap="square" stroke-linejoin="round"/>
<path d="M301.948 568.127H253.591C251.378 568.123 249.214 567.407 247.364 566.068C245.513 564.729 244.054 562.824 243.165 560.584C242.822 559.751 242.674 558.835 242.738 557.922C242.801 557.008 243.072 556.129 243.527 555.362C243.981 554.596 244.603 553.97 245.335 553.54C246.068 553.112 246.885 552.895 247.714 552.909H299.122C296.701 557.413 297.933 563.67 301.948 568.127Z" fill="#D7E8F0"/>
<path d="M333.218 562.62C333.215 564.077 332.692 565.473 331.759 566.502C330.828 567.533 329.565 568.113 328.246 568.115H301.948C297.933 563.667 296.7 557.411 299.122 552.878H322.344C324.554 552.879 326.716 553.588 328.568 554.92C330.42 556.252 331.883 558.15 332.779 560.382C333.057 561.09 333.206 561.85 333.218 562.62Z" fill="#3FBDF1"/>
<path d="M321.12 568.125C320.984 568.416 320.825 568.693 320.646 568.954C317.2 574.163 309.712 574.668 303.895 569.963C303.208 569.402 302.557 568.788 301.948 568.125C297.933 563.678 296.7 557.422 299.122 552.889C299.258 552.598 299.416 552.321 299.596 552.06C303.042 546.813 310.496 546.346 316.312 551.013C317.013 551.592 317.672 552.229 318.285 552.917C322.266 557.345 323.507 563.564 321.12 568.125Z" fill="white"/>
<path d="M345.376 596.172C345.367 597.63 344.837 599.026 343.9 600.053C342.965 601.081 341.698 601.658 340.379 601.658H289.635C292.082 597.106 290.858 590.897 286.834 586.421H334.502C336.716 586.422 338.88 587.134 340.734 588.471C342.586 589.809 344.047 591.714 344.937 593.954C345.221 594.652 345.37 595.407 345.376 596.172Z" fill="#3FBDF1"/>
<path d="M289.635 601.655H265.758C263.547 601.656 261.384 600.948 259.531 599.616C257.679 598.283 256.216 596.385 255.323 594.15C255.041 593.451 254.892 592.697 254.883 591.932C254.882 591.212 255.01 590.497 255.259 589.831C255.508 589.165 255.873 588.56 256.334 588.05C256.795 587.541 257.343 587.137 257.946 586.862C258.549 586.586 259.194 586.445 259.847 586.446H286.834C290.858 590.894 292.108 597.103 289.635 601.655Z" fill="#D7E8F0"/>
<path d="M289.635 601.656C289.523 601.955 289.375 602.236 289.195 602.494C285.749 607.731 278.287 608.207 272.479 603.532C271.776 602.953 271.114 602.316 270.497 601.627C266.507 597.18 265.284 590.971 267.671 586.39C267.809 586.097 267.967 585.817 268.145 585.552C271.591 580.343 279.079 579.838 284.887 584.552C285.579 585.108 286.229 585.722 286.834 586.39C290.858 590.895 292.108 597.104 289.635 601.656Z" fill="white"/>
<path d="M306.541 634.96H276.158C273.949 634.957 271.787 634.246 269.936 632.915C268.083 631.583 266.62 629.687 265.723 627.455C265.381 626.619 265.235 625.701 265.299 624.787C265.364 623.872 265.635 622.99 266.089 622.222C266.544 621.454 267.166 620.825 267.899 620.393C268.632 619.961 269.451 619.741 270.281 619.751H303.714C301.319 624.313 302.551 630.512 306.541 634.96Z" fill="#3FBDF1"/>
<path d="M355.777 629.512C355.77 630.96 355.243 632.348 354.314 633.368C353.383 634.389 352.124 634.961 350.814 634.959H306.541C302.551 630.511 301.319 624.302 303.714 619.722H344.902C347.115 619.722 349.281 620.435 351.134 621.772C352.987 623.11 354.447 625.015 355.337 627.255C355.621 627.966 355.771 628.734 355.777 629.512Z" fill="#D7E8F0"/>
<path d="M325.713 634.96C325.575 635.252 325.417 635.532 325.239 635.798C321.792 641.035 314.339 641.511 308.523 636.836C307.824 636.254 307.165 635.618 306.549 634.931C302.56 630.484 301.328 624.275 303.723 619.694C303.855 619.4 304.01 619.119 304.188 618.856C307.635 613.647 315.123 613.2 320.939 617.856C321.63 618.412 322.282 619.026 322.887 619.694C326.902 624.199 328.126 630.446 325.713 634.96Z" fill="white"/>
<path d="M96.1716 331.357L96.9299 331.595L96.6456 332.814C96.4655 332.338 96.3069 331.852 96.1716 331.357Z" fill="#353642"/>
<path d="M231.02 407.545C242.363 403.865 248.322 388.703 244.332 373.679C240.342 358.657 227.912 349.46 216.57 353.14C205.227 356.821 199.267 371.982 203.258 387.006C207.248 402.029 219.678 411.225 231.02 407.545Z" fill="#D7E8F0"/>
</svg>
