<svg width="490" height="441" viewBox="0 0 490 441" fill="none" xmlns="http://www.w3.org/2000/svg">
<path d="M505.414 288.335C495.255 229.503 459.283 176.857 400.841 158.014C385.89 153.221 370.602 149.551 355.106 147.034V147.113C354.298 151.997 352.384 156.633 349.511 160.664C343.42 169.009 335.025 175.863 325.305 179.434C315.383 183.106 303.093 183.582 293.884 177.807C288.34 174.337 282.961 168.224 281.989 161.629C280.881 154.198 284.668 147.164 289.996 142.253C244.837 142.621 202.357 150.051 168.315 158.511C169.495 163.451 171.129 168.271 173.197 172.911C176.09 179.379 180.179 185.242 185.25 190.191C191.573 183.926 197.11 176.915 201.738 169.311C206.164 170.76 210.068 173.478 212.963 177.128C215.856 180.778 217.615 185.197 218.017 189.838V190.076C219.803 206.931 203.574 219.596 189.937 227.387C174.183 236.444 156.622 243.227 139.371 248.864C132.257 251.197 123.012 253.184 115.503 250.751C114.694 250.493 113.905 250.178 113.141 249.808C105.653 246.136 100.642 238.439 96.7322 231.404C85.5938 211.424 78.3505 189.644 73.4401 167.288C39.3623 171.644 35.4599 148.568 33.4367 142.909L4.28368 224.406C2.75439 230.264 2.58951 236.395 3.79983 242.327C5.01088 248.259 7.56617 253.835 11.2692 258.625C14.9714 263.415 19.7234 267.292 25.1588 269.959C30.5948 272.626 36.5694 274.011 42.6239 274.007H163.311L218.132 414.624L233.67 454.534H322.418C315.218 454.534 311.279 452.777 308.421 449.911C305.469 446.958 303.807 442.955 303.798 438.78C303.798 430.14 310.89 423.055 322.418 423.055H323.231C322.36 423.055 321.525 422.976 320.654 422.897C321.194 422.838 321.729 422.749 322.259 422.63C321.688 422.617 321.119 422.573 320.553 422.501C325.752 421.886 330.57 419.465 334.164 415.658C337.759 411.852 339.901 406.904 340.216 401.678C340.231 401.407 340.231 401.135 340.216 400.864V400.447C340.092 395.089 338.044 389.955 334.447 385.983C330.85 382.01 325.943 379.464 320.625 378.811C321.23 378.76 321.806 378.71 322.389 378.71C321.863 378.58 321.28 378.501 320.733 378.422C321.597 378.343 322.468 378.285 323.303 378.285L388.233 378.631L400.178 378.681H414.355C415.01 378.681 415.673 378.681 416.299 378.76L437.359 378.868L451.428 378.948C457.308 378.997 462.929 381.372 467.061 385.556C471.194 389.738 473.503 395.387 473.482 401.268C473.475 404.593 472.703 407.871 471.228 410.851C477.265 410.078 482.862 407.287 487.111 402.931C497.242 392.584 501.605 377.097 504.622 363.331C509.957 338.807 509.64 312.966 505.414 288.335ZM341.368 289.991C329.135 308.819 308.306 307.127 308.306 307.127C308.306 307.127 306.578 308.812 302.546 301.641C298.513 294.469 287.029 289.566 287.029 289.566C286.115 296.766 284.221 307.71 265.429 293.526C246.637 279.342 252.304 258.664 253.909 247.741C255.515 236.819 261.916 233.197 261.916 233.197L269.476 229.208C269.476 229.208 247.609 223.585 246.558 223.376C245.507 223.167 226.031 206.859 245.795 202.554C265.559 198.248 296.368 215.37 302.322 218.754C308.277 222.138 343.075 251.572 343.075 251.572C343.075 251.572 353.666 271.192 341.368 289.991Z" fill="#116368"/>
<path d="M73.4113 167.301C73.4113 167.301 89.8922 165.299 96.0626 153.534L90.6842 183.71C90.6842 183.71 156.248 161.389 168.272 158.509C168.272 158.509 172.145 183.486 187.568 190.19L203.48 169.957C203.48 169.957 223.431 174.998 217.974 202.185C212.516 229.372 137.031 252.096 124.229 251.57C111.427 251.044 97.6466 243.168 83.5345 200.838L73.4113 167.301Z" fill="#353642"/>
<path d="M100.26 100.082C104.436 106.879 108.634 113.662 112.968 120.358C115.64 124.483 120.507 130.366 115.33 134.678C113.645 135.97 111.61 136.723 109.491 136.838C106.164 137.134 102.672 136.334 100.649 133.476L90.569 116.772C88.5602 113.44 85.3698 110.988 81.6345 109.902C77.8984 108.816 73.8908 109.177 70.4089 110.911" stroke="black" stroke-width="5.47" stroke-miterlimit="10"/>
<path d="M138.384 122.083C141.02 128.347 139.234 132.386 136.152 134.417C131.112 137.722 124.366 136.138 120.795 131.314L100.296 100.116" stroke="black" stroke-width="5.47" stroke-miterlimit="10"/>
<path d="M117.612 91.0103C125.072 100.082 134.482 116.93 139.688 123.965C144.893 130.999 152.943 126.758 152.943 126.758C159.481 123.238 158.372 117.398 155.513 110.306C148.472 92.8967 138.42 81.319 127.21 73.7302C92.4698 50.2292 56.8296 67.5669 46.2239 108.132L4.28368 224.405C2.75439 230.264 2.58951 236.395 3.79983 242.327C5.01088 248.259 7.56617 253.835 11.2692 258.625C14.9714 263.415 19.7234 267.293 25.1588 269.959C30.5948 272.626 36.5694 274.01 42.6239 274.007H163.311L233.691 454.54" stroke="black" stroke-width="5.47" stroke-miterlimit="10"/>
<path d="M160.705 102.321C169.345 99.3253 168.949 85.5445 156.687 80.8932C143.144 75.7524 119.096 68.4804 113.055 66.6659C113.017 66.6371 112.972 66.6199 112.925 66.6155C112.5 66.4859 112.205 66.3779 111.975 66.3275L111.636 66.2195" stroke="black" stroke-width="5.47" stroke-miterlimit="10"/>
<path d="M288.361 240.107C280.801 231.021 260.108 225.873 246.601 223.381C244.331 222.955 242.261 221.802 240.702 220.097C239.144 218.392 238.182 216.227 237.961 213.928C237.804 212.377 237.983 210.81 238.487 209.334C239.292 207.068 240.835 205.139 242.867 203.854C244.9 202.57 247.305 202.004 249.697 202.249C272.737 204.582 296.497 211.832 314.073 227.449C314.073 227.449 399.271 292.466 409.444 298.795C413.642 301.343 417.559 298.334 414.715 294.331L413.822 292.804C408.814 284.21 402.887 276.186 396.146 268.871" stroke="black" stroke-width="5.47" stroke-miterlimit="10"/>
<path d="M289.938 142.245C182.787 143.138 90.6841 183.703 90.6841 183.703L99.8785 132.165" stroke="black" stroke-width="5.47" stroke-miterlimit="10"/>
<path d="M456.36 422.736C456.36 422.736 444.689 420.094 441.586 429.439C438.482 438.785 435.242 453.653 457.555 454.531C479.868 455.41 466.764 451.025 465.475 443.803C464.187 436.582 456.36 422.736 456.36 422.736Z" fill="#353642"/>
<path d="M278.065 251.967C278.065 251.967 265.473 242.42 254.132 252.097C253.655 252.517 253.238 253.002 252.894 253.537" stroke="black" stroke-width="5.47" stroke-miterlimit="10"/>
<g opacity="0.77">
<path opacity="0.77" d="M120.752 131.28C124.352 136.111 131.091 137.688 136.109 134.376C139.155 132.36 140.941 128.342 138.37 122.136C138.838 122.82 139.263 123.425 139.68 123.979C144.879 131.042 152.936 126.787 152.936 126.787C159.473 123.266 158.372 117.427 155.513 110.328C152.716 103.296 149.046 96.6441 144.591 90.5276C147.507 87.7988 150.97 85.0412 154.621 86.2508C158.559 87.5612 159.661 92.5005 160.107 96.6189C160.316 98.5341 160.525 100.428 160.733 102.343L163.887 130.538C164.938 139.898 165.989 149.395 168.272 158.532C169.452 163.472 171.086 168.292 173.154 172.932C176.047 179.4 180.136 185.263 185.206 190.212C191.53 183.947 197.067 176.936 201.694 169.332C206.121 170.781 210.025 173.5 212.919 177.149C215.813 180.799 217.571 185.218 217.974 189.859V190.097C219.759 206.952 203.531 219.617 189.894 227.408C174.14 236.465 156.579 243.248 139.328 248.885C132.214 251.218 122.969 253.205 115.46 250.772C114.651 250.514 113.862 250.199 113.098 249.829C105.61 246.157 100.599 238.46 96.689 231.425C77.9689 197.765 70.1929 159.115 66.0961 120.84C74.2897 119.709 82.4546 118.449 90.5186 116.714C90.5186 116.714 90.5186 116.772 90.569 116.793L99.8643 132.209L100.627 133.49C102.643 136.37 106.136 137.141 109.469 136.853C111.589 136.748 113.625 135.994 115.301 134.693C120.471 130.373 115.618 124.512 112.94 120.386" fill="white"/>
<path opacity="0.77" d="M120.752 131.28C124.352 136.111 131.091 137.688 136.109 134.376C139.155 132.36 140.941 128.342 138.37 122.136C138.838 122.82 139.263 123.425 139.68 123.979C144.879 131.042 152.936 126.787 152.936 126.787C159.473 123.266 158.372 117.427 155.513 110.328C152.716 103.296 149.046 96.6441 144.591 90.5276C147.507 87.7988 150.97 85.0412 154.621 86.2508C158.559 87.5612 159.661 92.5005 160.107 96.6189C160.316 98.5341 160.525 100.428 160.733 102.343L163.887 130.538C164.938 139.898 165.989 149.395 168.272 158.532C169.452 163.472 171.086 168.292 173.154 172.932C176.047 179.4 180.136 185.263 185.206 190.212C191.53 183.947 197.067 176.936 201.694 169.332C206.121 170.781 210.025 173.5 212.919 177.149C215.813 180.799 217.571 185.218 217.974 189.859V190.097C219.759 206.952 203.531 219.617 189.894 227.408C174.14 236.465 156.579 243.248 139.328 248.885C132.214 251.218 122.969 253.205 115.46 250.772C114.651 250.514 113.862 250.199 113.098 249.829C105.61 246.157 100.599 238.46 96.689 231.425C77.9689 197.765 70.1929 159.115 66.0961 120.84C74.2897 119.709 82.4546 118.449 90.5186 116.714C90.5186 116.714 90.5186 116.772 90.569 116.793L99.8643 132.209L100.627 133.49C102.643 136.37 106.136 137.141 109.469 136.853C111.589 136.748 113.625 135.994 115.301 134.693C120.471 130.373 115.618 124.512 112.94 120.386" fill="#2EEAD4"/>
<path opacity="0.77" d="M122.962 133.562C126.152 137.882 131.602 137.335 136.109 134.376C138.831 132.576 141.063 133.101 138.766 127.55C139.191 128.155 139.248 126.11 139.623 126.564C144.267 132.871 139.68 123.957 139.68 123.957C146.16 132.144 160.265 124.433 157.681 118.104C154.945 111.285 152.065 101.205 148.414 96.1652C151.294 93.4436 150.74 93.8468 154.405 96.014C155.389 96.6461 156.213 97.4994 156.812 98.5052C157.411 99.511 157.767 100.642 157.853 101.81C158.149 104.553 158.444 107.181 158.739 109.86L161.547 135.06C162.49 143.433 163.426 151.894 165.464 160.044C166.517 164.451 167.978 168.751 169.827 172.889C172.405 178.584 180.685 188.067 185.206 192.408C190.83 186.828 197.569 176.568 201.694 169.75C209.614 172.183 209.269 179.758 209.83 188.031V188.247C211.429 203.287 196.942 214.584 184.803 221.547C170.734 229.632 155.06 235.68 139.659 240.72C133.308 242.808 125.057 244.609 118.354 242.405C117.631 242.177 116.925 241.895 116.244 241.563C109.563 238.28 105.084 231.418 101.592 225.132C86.3065 197.679 79.2145 166.51 75.3121 135.261C75.0255 132.923 75.6584 130.566 77.0768 128.685C78.4952 126.804 80.5883 125.548 82.9153 125.181C87.3001 124.461 91.6706 123.741 96.0122 122.777L96.1346 122.834L104.429 136.593C106.236 139.149 106.531 137.148 109.505 136.889C111.384 136.723 115.028 136.356 116.482 135.139C121.097 131.294 118.491 129.703 116.1 126.024" fill="#2EEAD4"/>
</g>
<path d="M276.546 265.864C276.546 265.864 252.635 258.001 252.275 271.22" stroke="black" stroke-width="5.47" stroke-miterlimit="10"/>
<path opacity="0.54" d="M62.5104 400.523L15.6166 280.383C15.0355 278.058 14.9923 275.632 15.4891 273.288C15.9866 270.944 17.0119 268.744 18.4865 266.855C19.9618 264.967 21.8475 263.439 24.0017 262.388C26.1553 261.338 28.5205 260.792 30.9167 260.792H217.182C221.364 260.791 225.425 262.199 228.71 264.788C231.995 267.376 234.313 270.996 235.29 275.062L286.626 395.174C287.181 397.491 287.204 399.903 286.692 402.23C286.181 404.557 285.149 406.738 283.673 408.609C282.198 410.48 280.318 411.992 278.175 413.033C276.031 414.072 273.68 414.613 271.297 414.614H80.5754C76.4238 414.617 72.3911 413.231 69.1179 410.677C65.8448 408.124 63.5192 404.55 62.5104 400.523Z" fill="white"/>
<path d="M284.329 286.129C284.329 286.129 288.21 289.686 286.734 294.769C285.64 298.535 281.896 300.911 278.188 299.622C266.38 295.539 255.745 288.606 253.153 276.819C251.928 270.852 251.663 264.727 252.368 258.675C252.937 253.066 253.765 247.011 255.652 241.676C258.532 233.482 267.352 227.773 275.913 231.718" stroke="black" stroke-width="5.47" stroke-miterlimit="10"/>
<path d="M62.5104 400.523L15.6166 280.383C15.0355 278.058 14.9923 275.632 15.4891 273.288C15.9866 270.944 17.0119 268.744 18.4865 266.855C19.9618 264.967 21.8475 263.439 24.0017 262.388C26.1553 261.338 28.5205 260.792 30.9167 260.792H217.182C221.364 260.791 225.425 262.199 228.71 264.788C231.995 267.376 234.313 270.996 235.29 275.062L286.626 395.174C287.181 397.491 287.204 399.903 286.692 402.23C286.181 404.557 285.149 406.738 283.673 408.609C282.198 410.48 280.318 411.992 278.175 413.033C276.031 414.072 273.68 414.613 271.297 414.614H80.5754C76.4238 414.617 72.3911 413.231 69.1179 410.677C65.8448 408.124 63.5192 404.55 62.5104 400.523Z" fill="#3FBDF1"/>
<path d="M62.5104 400.523L15.6166 280.383C15.0355 278.058 14.9923 275.632 15.4891 273.288C15.9866 270.944 17.0119 268.744 18.4865 266.855C19.9618 264.967 21.8475 263.439 24.0017 262.388C26.1553 261.338 28.5205 260.792 30.9167 260.792H217.182C221.364 260.791 225.425 262.199 228.71 264.788C231.995 267.376 234.313 270.996 235.29 275.062L286.626 395.174C287.181 397.491 287.204 399.903 286.692 402.23C286.181 404.557 285.149 406.738 283.673 408.609C282.198 410.48 280.318 411.992 278.175 413.033C276.031 414.072 273.68 414.613 271.297 414.614H80.5754C76.4238 414.617 72.3911 413.231 69.1179 410.677C65.8448 408.124 63.5192 404.55 62.5104 400.523Z" stroke="black" stroke-width="5.47" stroke-linecap="square" stroke-linejoin="round"/>
<path d="M69.3719 395.685L26.1069 284.804C25.5719 282.659 25.533 280.421 25.9924 278.259C26.4518 276.097 27.3979 274.067 28.7594 272.325C30.1202 270.584 31.8604 269.174 33.8469 268.205C35.8341 267.236 38.0158 266.732 40.2262 266.732H212.062C215.92 266.731 219.666 268.029 222.697 270.417C225.727 272.804 227.866 276.143 228.767 279.894L276.136 390.71C276.647 392.848 276.667 395.074 276.195 397.222C275.722 399.369 274.769 401.38 273.408 403.106C272.047 404.832 270.311 406.227 268.334 407.186C266.356 408.146 264.186 408.645 261.988 408.645H86.0329C82.2089 408.649 78.4937 407.375 75.4762 405.028C72.4579 402.68 70.3101 399.392 69.3719 395.685Z" fill="#2EEAD4"/>
<path d="M437.129 378.291L470.076 454.532" stroke="black" stroke-width="5.47" stroke-miterlimit="10"/>
<path d="M286.972 110.427C281.629 115.705 273.652 115.697 269.109 110.816" stroke="black" stroke-width="5.47" stroke-miterlimit="10"/>
<path d="M144.591 90.5045C147.507 87.7757 150.97 85.0181 154.62 86.2277C158.559 87.5381 159.661 92.4773 160.107 96.5958C161.369 107.914 162.629 119.221 163.887 130.516C165.485 144.916 167.17 159.661 173.153 172.895C176.047 179.362 180.136 185.225 185.206 190.175" stroke="black" stroke-width="5.47" stroke-miterlimit="10"/>
<path d="M217.974 190.088V189.851C217.571 185.21 215.813 180.79 212.919 177.141C210.025 173.492 206.121 170.773 201.694 169.324C197.067 176.928 191.53 183.94 185.206 190.204C168.627 206.69 147.328 217.608 124.265 221.445C125.374 225.858 127.656 229.876 129.233 234.124C130.81 238.372 131.595 243.29 129.68 247.386C127.26 252.614 120.319 251.93 115.495 250.77C115.445 250.77 115.416 250.77 115.366 250.77" stroke="black" stroke-width="5.47" stroke-miterlimit="10"/>
<path d="M90.533 116.707C82.4689 118.442 74.3041 119.702 66.1104 120.833C70.2072 159.108 77.9545 197.758 96.7034 231.418C100.613 238.452 105.624 246.149 113.112 249.821C113.876 250.192 114.665 250.507 115.474 250.765C122.984 253.234 132.228 251.211 139.342 248.878C156.622 243.233 174.154 236.458 189.908 227.4C203.509 219.603 219.738 206.945 217.988 190.09C217.819 188.234 217.439 186.403 216.858 184.632" stroke="black" stroke-width="5.47" stroke-miterlimit="10"/>
<path d="M225.375 40.3554C226.584 45.394 229.342 49.9257 233.262 53.3126C237.183 56.7002 242.067 58.771 247.228 59.2339C247.656 57.156 248.585 55.2127 249.935 53.5754C255.695 46.7858 258.15 59.5226 276.575 50.3786C302.106 37.6777 311.797 44.9642 311.797 44.9642C312.647 45.5978 312.517 51.4435 312.661 52.5091C313.381 58.5787 314.03 64.6196 314.742 70.682C315.174 74.3828 315.599 78.0556 316.002 81.7276C316.35 81.1026 316.735 80.4985 317.154 79.9196C319.48 71.69 323.634 61.9707 332.591 66.1539C334.405 67.0381 335.984 68.3377 337.199 69.9476C343.139 77.7525 338.639 85.2909 332.426 90.8709C330.868 92.6025 329.127 94.1592 327.234 95.5157C328.257 97.6325 332.433 106.035 332.433 106.064C332.865 106.913 347.459 90.3957 348.547 88.5957C350.171 84.1864 351.719 79.116 351.801 74.4179C357.508 49.9594 340.737 5.51442 325.145 11.0468C323.134 7.52619 324.642 13.0586 324.974 12.8369C324.957 12.6352 324.88 12.4437 324.752 12.2868C324.624 12.1298 324.452 12.0153 324.258 11.9584C324.063 11.9016 324.139 12.5556 325.648 11.5497C327.157 10.5438 324.258 3.24369 324.258 7.52642C317.079 7.18226 312.661 10.041 312.661 10.041C270.527 -0.514237 249.248 16.6575 240.651 23.6207C233.262 21.9521 234.049 30.2926 230.538 29.0953C230.331 30.2573 229.811 31.341 229.033 32.2294C228.255 33.1179 227.25 33.7767 226.124 34.1353L226.34 36.0858C226.524 37.5784 226.182 39.0875 225.375 40.3554Z" fill="#2EEAD4"/>
<path d="M247.256 59.2657C242.096 58.802 237.212 56.7313 233.291 53.3444C229.371 49.9575 226.612 45.425 225.404 40.3872C224.931 38.4547 224.632 36.4833 224.511 34.4975L224.843 34.4615C225.295 34.4277 225.741 34.3305 226.167 34.1735C227.293 33.815 228.298 33.1562 229.076 32.2677C229.854 31.3799 230.374 30.2956 230.581 29.1335C230.713 28.4891 230.739 27.8274 230.66 27.1751L229.58 17.6422C229.58 17.6422 237.198 23.3087 245.651 19.9966C254.104 16.6846 268.295 -2.04989 310.451 8.47657C310.451 8.47657 319.97 9.03818 324.851 3.39334C324.974 3.23206 325.143 3.11253 325.335 3.04989C325.527 2.98653 325.734 2.98365 325.928 3.04053C326.122 3.09741 326.295 3.2119 326.422 3.36814C326.55 3.5251 326.627 3.71733 326.644 3.91893C326.896 7.65576 328.278 10.2982 332.166 13.0342C347.812 24.1223 355.675 46.6008 355.43 65.9185C355.358 73.9322 352.694 81.845 348.583 88.6346C347.495 90.4347 332.901 106.952 332.469 106.102C332.469 106.102 328.293 97.6707 327.27 95.5539L327.026 95.0859L327.494 94.7763C329.232 93.5962 330.891 92.3045 332.462 90.9099C338.668 85.3298 343.175 77.7914 337.235 69.9865C336.019 68.3766 334.441 67.0763 332.627 66.1921C323.642 62.0089 319.516 71.729 317.19 79.9586C316.739 81.5311 316.461 83.1489 316.362 84.7826C316.254 83.7746 316.146 82.8026 316.038 81.7946C315.635 78.1226 315.21 74.4506 314.778 70.7497C314.058 64.6873 313.381 58.6465 312.697 52.5768C312.589 51.54 312.698 45.6648 311.833 45.0312C311.833 45.0312 302.135 37.7448 276.611 50.4456C258.186 59.5897 255.731 46.8456 249.971 53.6424C248.621 55.2804 247.692 57.223 247.263 59.3017C247.132 59.9691 247.047 60.6452 247.011 61.3249C246.998 61.4127 246.998 61.5027 247.011 61.5913C246.925 63.0817 246.896 64.5649 246.86 66.0193C246.723 80.0522 248.264 94.7115 253.772 107.744C260.468 123.54 278.188 139.121 296.613 131.756C302.373 129.445 307.535 125.722 312.258 121.769" stroke="black" stroke-width="5.47" stroke-miterlimit="10"/>
<path d="M259.865 93.4904C261.697 92.877 262.582 90.5823 261.84 88.3654C261.098 86.1478 259.011 84.8475 257.178 85.4609C255.345 86.0736 254.461 88.3683 255.203 90.5859C255.945 92.8035 258.033 94.1038 259.865 93.4904Z" fill="black"/>
<path d="M287.28 92.6127C289.112 91.9999 289.996 89.7053 289.255 87.4877C288.512 85.2701 286.426 83.9698 284.593 84.5832C282.76 85.1966 281.876 87.4913 282.618 89.7082C283.359 91.9258 285.447 93.2261 287.28 92.6127Z" fill="black"/>
<path d="M276.798 97.361C276.798 97.361 267.676 102.538 267.121 97.1666C266.948 95.5106 264.716 79.2889 264.716 79.2889C264.716 79.2889 257.343 71.4769 246.047 77.2513" stroke="black" stroke-width="5.47" stroke-miterlimit="10"/>
<path d="M274.746 74.7437C274.746 74.7437 289.477 67.3853 299.226 77.9909" stroke="black" stroke-width="5.47" stroke-miterlimit="10"/>
<path d="M288.253 133.562L289.945 142.245C284.61 147.163 280.837 154.212 281.939 161.635C282.918 168.216 288.304 174.343 293.826 177.792C303.057 183.552 315.333 183.098 325.269 179.434C334.982 175.834 343.384 169.001 349.475 160.663C352.344 156.632 354.255 152.001 355.063 147.12V147.033" stroke="black" stroke-width="5.47" stroke-miterlimit="10"/>
<path d="M289.945 142.245L293.243 157.927" stroke="black" stroke-width="5.47" stroke-miterlimit="10"/>
<path d="M336.58 102.321L341.563 135.405C342.054 138.644 343.691 141.599 346.176 143.732C348.662 145.866 351.83 147.038 355.106 147.033C370.613 149.546 385.909 153.214 400.869 158.006C459.312 176.856 495.283 229.503 505.443 288.327C509.669 312.958 509.986 338.792 504.679 363.287C501.663 377.075 497.299 392.562 487.169 402.887C474.014 416.351 453.826 410.807 438.281 404.723C390.019 385.953 349.879 352.559 315.218 314.326C296.685 293.878 272.737 277.491 272.737 277.491" stroke="black" stroke-width="5.47" stroke-miterlimit="10"/>
<path d="M85.3202 370.869C79.9057 370.819 75.1897 366.448 73.9729 360.364C71.5681 348.398 70.9345 329.894 88.481 325.854C110.405 320.814 127.268 344.69 135.533 359.781C138.312 364.821 135.166 371.301 129.989 371.301L85.3202 370.869Z" fill="#D7E8F0"/>
<path d="M92.5583 315.694C97.2125 312.596 97.2845 304.522 92.7175 297.66C88.1512 290.797 80.6761 287.744 76.0213 290.841C71.3665 293.939 71.2952 302.013 75.8614 308.875C80.4284 315.739 87.9035 318.791 92.5583 315.694Z" fill="#D7E8F0"/>
<path d="M452.861 423.132C452.522 423.182 452.141 423.232 451.809 423.312H451.68L400.466 423.045L323.62 422.649C323.325 422.649 323.037 422.649 322.749 422.649C322.178 422.635 321.608 422.592 321.042 422.52C326.249 421.915 331.075 419.493 334.672 415.68C338.268 411.868 340.405 406.908 340.706 401.675C340.72 401.405 340.72 401.133 340.706 400.862V400.444C340.685 395.324 338.9 390.368 335.653 386.408C332.407 382.45 327.895 379.73 322.878 378.707C322.353 378.578 321.777 378.499 321.222 378.419C322.093 378.34 322.957 378.283 323.8 378.283L388.723 378.628L400.675 378.678L416.796 378.758C422.315 379.262 427.449 381.806 431.192 385.894C434.935 389.982 437.018 395.319 437.035 400.862C437.036 401.908 436.956 402.953 436.797 403.987C436.03 409.264 433.394 414.09 429.369 417.587C425.344 421.085 420.198 423.021 414.866 423.045H453.876C451.629 423.045 452.256 423.045 452.861 423.132Z" fill="white"/>
<path d="M348.978 449.911C350.442 451.382 352.182 452.549 354.098 453.342C356.016 454.135 358.071 454.54 360.146 454.534H322.432C315.232 454.534 311.301 452.777 308.435 449.911C305.49 446.953 303.832 442.953 303.82 438.78C303.82 430.14 310.905 423.055 322.432 423.055H360.146C357.032 423.05 353.988 423.969 351.397 425.697C348.806 427.425 346.787 429.882 345.595 432.758C344.403 435.635 344.091 438.801 344.7 441.854C345.309 444.908 346.811 447.712 349.014 449.911H348.978Z" fill="#D7E8F0"/>
<path d="M473.532 401.258C473.523 404.583 472.749 407.862 471.271 410.841C470.216 413.093 468.768 415.139 466.994 416.882C464.07 419.779 460.398 421.806 456.389 422.735C454.736 423.117 453.045 423.311 451.349 423.311C451.694 423.232 452.069 423.182 452.4 423.131C451.795 423.074 451.169 423.052 453.422 423.052H414.405C419.741 423.032 424.892 421.095 428.92 417.596C432.948 414.097 435.585 409.267 436.351 403.986C436.51 402.952 436.589 401.908 436.589 400.862C436.572 395.318 434.488 389.98 430.743 385.892C426.998 381.804 421.863 379.26 416.342 378.757L437.402 378.865L451.471 378.945C457.351 378.994 462.971 381.369 467.105 385.55C471.239 389.731 473.549 395.378 473.532 401.258Z" fill="#3FBDF1"/>
<path d="M473.532 401.252C473.488 407.135 471.115 412.76 466.931 416.897C462.748 421.033 457.095 423.343 451.212 423.32L323.109 422.657C322.252 422.657 321.395 422.593 320.531 422.506C325.931 421.894 330.919 419.323 334.55 415.279C338.18 411.235 340.201 406 340.23 400.566C340.258 395.132 338.292 389.876 334.704 385.794C331.115 381.712 326.155 379.089 320.762 378.42C321.618 378.33 322.478 378.287 323.339 378.291L451.442 378.953C457.325 378.994 462.952 381.362 467.092 385.541C471.232 389.72 473.547 395.369 473.532 401.252Z" stroke="black" stroke-width="5.47" stroke-linecap="square" stroke-linejoin="round"/>
<path d="M436.574 400.855C436.563 406.737 434.221 412.375 430.062 416.533C425.903 420.693 420.265 423.034 414.384 423.046H323.238C322.377 423.041 321.517 422.992 320.661 422.902C326.056 422.261 331.03 419.663 334.64 415.601C338.248 411.538 340.241 406.293 340.241 400.859C340.241 395.425 338.248 390.18 334.64 386.117C331.03 382.054 326.056 379.457 320.661 378.816C321.517 378.737 322.381 378.679 323.238 378.679H414.384C420.262 378.692 425.897 381.033 430.055 385.188C434.213 389.344 436.557 394.976 436.574 400.855Z" stroke="black" stroke-width="5.47" stroke-linecap="square" stroke-linejoin="round"/>
<path d="M303.82 438.784C303.819 440.849 304.226 442.894 305.016 444.802C305.808 446.709 306.966 448.442 308.428 449.901C311.308 452.781 315.217 454.531 322.425 454.531H453.415C451.161 454.531 451.773 454.488 452.385 454.43C448.553 453.979 445.019 452.137 442.454 449.252C439.89 446.369 438.474 442.643 438.474 438.784C438.474 434.925 439.89 431.2 442.454 428.316C445.019 425.433 448.553 423.59 452.385 423.139C451.773 423.081 451.161 423.038 453.415 423.038H322.425C310.89 423.045 303.82 430.13 303.82 438.784Z" stroke="black" stroke-width="5.47" stroke-linecap="square" stroke-linejoin="round"/>
<path d="M344.356 438.784C344.366 442.958 346.028 446.958 348.979 449.908C351.93 452.86 355.93 454.521 360.103 454.531H450.557C451.162 454.531 451.774 454.488 452.386 454.43C448.553 453.979 445.019 452.137 442.455 449.252C439.89 446.369 438.474 442.643 438.474 438.784C438.474 434.925 439.89 431.2 442.455 428.316C445.019 425.433 448.553 423.59 452.386 423.139C451.774 423.081 451.162 423.038 450.557 423.038H360.103C355.93 423.049 351.931 424.712 348.981 427.662C346.03 430.613 344.368 434.612 344.356 438.784Z" stroke="black" stroke-width="5.47" stroke-linecap="square" stroke-linejoin="round"/>
<path d="M197.727 318.646H157.321C155.472 318.643 153.664 318.102 152.117 317.089C150.571 316.077 149.352 314.637 148.609 312.944C148.322 312.314 148.199 311.621 148.252 310.93C148.305 310.24 148.531 309.575 148.911 308.995C149.29 308.416 149.81 307.942 150.422 307.618C151.034 307.294 151.718 307.13 152.41 307.14H195.366C193.342 310.546 194.372 315.276 197.727 318.646Z" fill="#D7E8F0"/>
<path d="M223.856 314.483C223.854 315.584 223.416 316.64 222.637 317.418C221.859 318.197 220.803 318.636 219.702 318.637H197.727C194.372 315.275 193.342 310.544 195.366 307.117H214.77C216.617 307.118 218.423 307.654 219.971 308.661C221.518 309.668 222.741 311.103 223.489 312.791C223.722 313.326 223.846 313.9 223.856 314.483Z" fill="#3FBDF1"/>
<path d="M213.747 318.645C213.634 318.865 213.501 319.074 213.351 319.271C210.471 323.21 204.214 323.591 199.354 320.035C198.78 319.611 198.236 319.146 197.727 318.645C194.372 315.283 193.342 310.552 195.366 307.125C195.479 306.905 195.612 306.696 195.762 306.499C198.642 302.531 204.87 302.179 209.73 305.707C210.315 306.144 210.866 306.626 211.378 307.147C214.705 310.495 215.742 315.196 213.747 318.645Z" fill="white"/>
<path d="M234.015 339.851C234.007 340.953 233.565 342.008 232.782 342.785C232 343.562 230.942 343.998 229.839 343.998H187.438C189.483 340.557 188.461 335.862 185.098 332.478H224.929C226.779 332.479 228.587 333.017 230.136 334.028C231.684 335.04 232.904 336.48 233.648 338.173C233.886 338.701 234.01 339.272 234.015 339.851Z" fill="#3FBDF1"/>
<path d="M187.438 343.996H167.487C165.64 343.997 163.832 343.461 162.284 342.454C160.736 341.447 159.514 340.011 158.768 338.322C158.532 337.794 158.408 337.223 158.401 336.644C158.4 336.1 158.506 335.56 158.715 335.056C158.923 334.553 159.228 334.096 159.613 333.71C159.998 333.325 160.456 333.019 160.959 332.811C161.463 332.603 162.003 332.497 162.548 332.497H185.098C188.461 335.86 189.505 340.554 187.438 343.996Z" fill="#D7E8F0"/>
<path d="M187.438 343.996C187.345 344.223 187.221 344.436 187.071 344.63C184.191 348.59 177.956 348.95 173.103 345.415C172.516 344.977 171.963 344.495 171.447 343.975C168.114 340.612 167.091 335.918 169.086 332.455C169.201 332.233 169.333 332.021 169.482 331.821C172.362 327.883 178.618 327.501 183.471 331.065C184.049 331.485 184.593 331.949 185.098 332.455C188.461 335.86 189.505 340.555 187.438 343.996Z" fill="white"/>
<path d="M201.565 369.176H176.177C174.331 369.174 172.526 368.637 170.978 367.63C169.43 366.623 168.208 365.19 167.458 363.503C167.172 362.871 167.051 362.176 167.104 361.485C167.158 360.793 167.385 360.127 167.764 359.546C168.144 358.965 168.664 358.489 169.276 358.163C169.889 357.836 170.573 357.67 171.267 357.678H199.203C197.202 361.127 198.231 365.814 201.565 369.176Z" fill="#3FBDF1"/>
<path d="M242.706 365.057C242.7 366.152 242.26 367.201 241.483 367.973C240.706 368.745 239.654 369.177 238.559 369.176H201.565C198.231 365.813 197.202 361.119 199.203 357.656H233.619C235.468 357.656 237.278 358.195 238.826 359.206C240.374 360.217 241.595 361.657 242.339 363.351C242.575 363.889 242.701 364.469 242.706 365.057Z" fill="#D7E8F0"/>
<path d="M217.585 369.176C217.47 369.398 217.337 369.609 217.189 369.81C214.309 373.77 208.081 374.13 203.221 370.595C202.637 370.155 202.086 369.674 201.572 369.155C198.238 365.792 197.209 361.098 199.21 357.635C199.321 357.412 199.45 357.2 199.599 357.001C202.479 353.063 208.736 352.724 213.596 356.245C214.174 356.665 214.718 357.129 215.223 357.635C218.579 361.04 219.601 365.764 217.585 369.176Z" fill="white"/>
<path d="M25.783 139.632L26.4166 139.812L26.179 140.733C26.0285 140.373 25.8961 140.005 25.783 139.632Z" fill="#353642"/>
<path d="M138.461 197.235C147.939 194.453 152.918 182.989 149.584 171.63C146.25 160.272 135.864 153.319 126.386 156.101C116.908 158.884 111.928 170.347 115.263 181.706C118.597 193.065 128.983 200.017 138.461 197.235Z" fill="#D7E8F0"/>
</svg>
