<svg width="308" height="276" viewBox="0 0 308 276" fill="none" xmlns="http://www.w3.org/2000/svg">
<path d="M250.904 74.9767C251.853 76.61 253.84 77.3011 255.548 77.6535C257.732 78.1142 259.989 78.2364 262.2 78.4388L263.484 78.7634C263.727 78.8405 263.954 78.9665 264.149 79.1336C264.345 79.3012 264.507 79.5067 264.625 79.7385C264.744 79.9702 264.816 80.2239 264.839 80.485C264.862 80.7457 264.835 81.0088 264.759 81.2587C263.964 84.0751 262.87 86.7925 261.498 89.3625L263.532 91.4565C264.108 90.6538 264.135 89.2473 264.908 89.3834C265.651 88.6191 266.532 88.2457 267.444 89.2683C269.227 91.275 268.939 95.4456 266.318 96.5973L266.905 99.6021C267.107 100.653 267.657 101.599 268.46 102.279C269.264 102.959 270.271 103.332 271.312 103.333L270.861 99.7766C273.912 101.365 277.373 97.9304 277.132 95.1C276.977 93.1596 277.404 91.8195 278.797 90.413C278.889 90.3188 278.329 89.9697 278.414 89.8755C278.807 88.6505 278.861 87.2196 278.472 86.41C277.794 84.9651 275.797 84.1205 276.716 82.543C277.119 81.8555 277.413 81.1062 277.587 80.3234C277.771 79.2855 277.738 78.2189 277.488 77.1953C277.238 76.172 276.778 75.2154 276.139 74.3904C274.783 72.7152 272.58 73.1654 270.78 72.5721C268.586 71.8741 267.573 69.4555 265.278 68.7087C264.135 68.3352 263.078 68.5063 261.935 68.775C260.969 69.0053 260.013 69.2636 259.064 69.5707C258.115 69.8778 257.281 70.1326 256.352 69.8464C255.125 69.4974 254.179 68.3178 252.84 68.3073C252.172 68.2916 251.518 68.5066 250.982 68.9181C249.992 70.7503 249.985 73.4097 250.904 74.9767Z" fill="#3FBDF1"/>
<path d="M292.859 122.232C292.859 122.232 329.766 80.3237 275.414 59.4117C272.262 58.2219 268.977 57.4458 265.637 57.1013C256.962 56.152 237.785 52.7772 235.574 41.3788" stroke="#CCDDE2" stroke-width="4.11" stroke-miterlimit="10"/>
<path d="M137.929 63.5647V63.5543" stroke="#CCDDE2" stroke-width="4.11" stroke-miterlimit="10"/>
<path d="M234.768 139.022V139.012" stroke="black" stroke-width="4.11" stroke-miterlimit="10"/>
<path d="M263.623 91.1777C263.985 90.5348 264.415 89.9352 264.905 89.3908C265.647 88.6265 266.529 88.253 267.441 89.2756C269.224 91.2823 268.936 95.4529 266.315 96.6046L266.902 99.6095C267.104 100.66 267.653 101.606 268.457 102.286C269.261 102.966 270.268 103.339 271.309 103.34" stroke="black" stroke-width="4.11" stroke-linecap="round" stroke-linejoin="round"/>
<path d="M272.949 116.637C272.8 115.471 272.431 112.41 272.075 109.493C271.736 106.788 271.434 104.184 271.315 103.326L270.861 99.7766" stroke="black" stroke-width="4.11" stroke-linecap="round" stroke-linejoin="round"/>
<path d="M250.446 91.4114C249.267 91.38 247.734 91.202 247.178 89.9701L250.162 86.5813C250.889 85.751 251.32 84.6897 251.382 83.5729C251.501 81.6988 251.287 78.7253 253.03 76.7465" stroke="black" stroke-width="4.11" stroke-miterlimit="10"/>
<path d="M254.383 87.0414C253.894 86.4851 253.87 85.6887 254.329 85.2622C254.787 84.8354 255.554 84.9408 256.043 85.4971C256.531 86.0531 256.555 86.8498 256.097 87.2763C255.639 87.7028 254.871 87.5977 254.383 87.0414Z" fill="black"/>
<path d="M253.291 113.671L255.538 102.454" stroke="black" stroke-width="4.11" stroke-miterlimit="10"/>
<path d="M196.315 164.153L210.8 176.347C193.372 203.709 206.563 208.731 206.563 208.731C209.122 209.235 211.705 209.593 214.302 209.802C226.899 210.738 239.822 207.391 250.206 199.894C271.224 184.713 289.53 154.329 279.767 127.875C278.945 125.637 277.941 123.475 276.766 121.411C275.754 119.617 274.465 118.005 272.949 116.637C270.297 114.247 267.031 112.695 263.543 112.17C260.055 111.644 256.494 112.167 253.287 113.674C252.06 114.251 250.899 114.967 249.826 115.81C244.338 120.134 239.348 126.28 235.046 132.729C231.226 138.562 227.789 144.65 224.757 150.954C223.92 152.675 223.16 154.301 222.489 155.791C216.404 153.257 211.302 148.954 206.556 144.306C212.295 155.334 196.315 164.153 196.315 164.153Z" fill="#353642"/>
<path d="M206.451 173.073C206.729 173.293 207.017 173.524 207.305 173.743" stroke="black" stroke-width="4.11" stroke-miterlimit="10"/>
<path d="M249.277 126.716C245.435 134.29 241.593 141.877 237.751 149.478C234.852 155.216 229.954 158.758 223.055 156.039C215.55 153.08 209.495 147.422 203.895 141.657C198.295 135.892 192.62 130.377 184.535 128.891C174.083 126.968 164.195 132.831 157.076 140.24C156.528 140.805 156.181 141.544 156.092 142.337C156.003 143.13 156.176 143.931 156.584 144.61C156.846 145.044 157.195 145.415 157.609 145.698C158.022 145.98 158.49 146.168 158.98 146.248C159.471 146.328 159.972 146.298 160.45 146.16C160.928 146.023 161.371 145.781 161.75 145.451C165.123 142.488 170.612 138.202 174.429 138.146" stroke="black" stroke-width="4.11" stroke-miterlimit="10"/>
<path d="M184.843 148.312C183.67 149.118 182.043 150.012 180.687 150.012" stroke="black" stroke-width="4.11" stroke-miterlimit="10"/>
<path d="M169.812 139.616C167.31 140.89 166.398 144.617 168.164 146.844C170.404 149.704 173.21 152.041 176.395 153.698C179.88 155.488 182.118 154.396 185.548 152.211" stroke="black" stroke-width="4.11" stroke-miterlimit="10"/>
<path d="M175.602 142.956C175.602 142.956 170.646 144.219 170.778 149.171C170.787 149.382 170.824 149.592 170.887 149.793" stroke="black" stroke-width="4.11" stroke-miterlimit="10"/>
<path d="M179.104 146.075C179.104 146.075 172.456 150.497 175.619 153.278" stroke="black" stroke-width="4.11" stroke-miterlimit="10"/>
<path d="M50.6873 163.406C58.5182 185.564 80.4414 186.189 82.95 186.189C81.8991 183.91 81.6143 179.907 83.9161 172.892C82.374 170.574 81.5624 167.824 81.5909 165.014C81.6194 162.204 82.4865 159.472 84.0754 157.187C84.0449 157.159 84.028 157.121 84.0008 157.093C82.9045 157.024 81.8167 156.855 80.7499 156.587C76.9666 155.659 69.5086 153.62 63.5897 150.752C59.5759 148.801 54.8943 151.928 55.2367 156.489C55.2367 156.548 55.2367 156.604 55.257 156.671C54.4733 156.67 53.701 156.864 53.0061 157.237C52.3111 157.61 51.7138 158.15 51.265 158.811C50.8165 159.473 50.5297 160.236 50.429 161.036C50.3283 161.836 50.4168 162.649 50.6873 163.406Z" fill="#3FBDF1"/>
<path d="M151.177 215.377C153.814 220.036 157.92 224.004 161.886 227.466C175.849 239.632 194.091 245.809 212.397 246.05C230.764 245.809 249.073 239.611 263.101 227.553C307.426 189.449 299.415 144.46 292.245 123.628C291.993 122.908 291.651 122.224 291.228 121.593C290.667 120.749 289.94 120.036 289.092 119.502C288.245 118.968 287.298 118.625 286.313 118.494C282.55 119.028 279.133 122.242 279.736 127.219C279.736 127.411 279.811 127.676 279.827 127.868C289.584 154.323 271.271 184.706 250.267 199.888C240.737 206.774 229.069 210.159 217.475 209.939H217.343C216.349 209.918 215.355 209.871 214.363 209.796C207.851 209.308 201.522 207.702 195.254 205.758C187.897 203.493 180.623 200.747 173.273 198.824C170.69 198.146 168.1 197.494 165.496 196.883C163.994 196.566 162.457 196.457 160.927 196.559C151.899 197.187 145.556 205.451 151.177 215.377Z" fill="#D7E8F0"/>
<path d="M148.946 215.377C151.584 220.036 155.692 224.004 159.659 227.466C174.178 240.128 193.335 246.312 212.407 246.05C230.774 245.809 249.084 239.611 263.111 227.553C307.425 189.449 299.415 144.46 292.245 123.628C291.992 122.908 291.651 122.224 291.228 121.593C290.667 120.749 289.94 120.036 289.092 119.502C288.245 118.968 287.298 118.625 286.313 118.494C282.55 119.028 279.133 122.242 279.736 127.219C279.736 127.411 279.811 127.676 279.827 127.868C289.584 154.323 271.271 184.706 250.267 199.888C240.737 206.774 229.069 210.159 217.475 209.939H217.343C215.596 209.967 213.859 209.92 212.133 209.796C205.62 209.307 199.295 207.702 193.023 205.758C185.667 203.493 178.392 200.747 171.042 198.824C168.463 198.146 165.869 197.494 163.269 196.883C162.496 196.72 161.714 196.612 160.927 196.559C150.777 195.857 142.871 204.648 148.946 215.377Z" fill="#D7E8F0"/>
<path d="M209.346 245.986L204.885 252.485C204.885 252.485 177.89 253.567 163.117 266.333C160.384 268.696 162.018 273.285 165.585 273.285C166.479 273.288 167.345 272.964 168.029 272.371C171.517 269.355 184.843 259.877 214.987 259.59C244.358 259.308 255.623 268.664 258.738 272.074C259.094 272.459 259.522 272.765 259.996 272.974C260.471 273.182 260.982 273.288 261.498 273.285H262.078C265.739 273.285 267.288 268.525 264.396 266.214C252.064 256.341 224.418 253.193 224.418 253.193L219.699 245.864" fill="#353642"/>
<path d="M89.879 209.953C89.879 209.953 81.6108 218.039 84.1906 243.108C84.3787 244.898 84.9832 246.615 85.9534 248.112L86.8517 249.508C88.325 251.78 90.5465 253.426 93.1063 254.143C98.5066 255.661 108.304 259.179 114.355 265.845C116.911 268.669 115.009 273.268 111.26 273.268C110.561 273.27 109.872 273.094 109.255 272.756C108.638 272.417 108.112 271.926 107.724 271.328C105.259 267.51 97.7981 259.403 79.8006 259.574C59.5012 259.766 51.3245 268.075 48.7041 271.656C48.342 272.155 47.8722 272.561 47.3311 272.841C46.7904 273.121 46.1938 273.267 45.5887 273.268C44.83 273.267 44.0883 273.037 43.4543 272.608C42.8207 272.179 42.3221 271.569 42.02 270.852C41.7183 270.136 41.6261 269.344 41.7546 268.574C41.8834 267.804 42.2271 267.09 42.7445 266.519C50.6601 257.665 60.3419 254.363 65.6846 253.138C68.3688 252.542 70.7401 250.936 72.3324 248.632C73.5514 246.856 74.245 244.754 74.3291 242.581C74.6274 234.809 74.7833 215.942 69.6678 209.96" fill="#353642"/>
<path d="M195.186 205.768C180.646 198.502 164.866 193.734 149.35 189.246C133.736 184.73 117.969 180.79 102.154 177.087C95.8353 175.611 89.4587 174.295 83.1703 172.63" stroke="black" stroke-width="4.11" stroke-miterlimit="10"/>
<path d="M181.545 149.911H181.534H181.526" stroke="black" stroke-width="4.11" stroke-miterlimit="10"/>
<path d="M183.175 148.965C184.087 149.894 187.342 154.853 188.159 155.743C192.647 160.695 197.415 165.371 202.437 169.745C203.702 170.827 205.041 171.944 206.451 173.074C206.729 173.294 207.017 173.525 207.305 173.744C216.865 181.213 229.34 188.402 240.866 183.796C241.171 183.68 241.47 183.548 241.765 183.412C259.443 175.263 271.8 154.853 272.878 135.152C272.915 134.51 272.936 133.871 272.942 133.239C273.037 127.854 272.264 122.469 267.247 119.628" stroke="black" stroke-width="4.11" stroke-miterlimit="10"/>
<path d="M279.739 127.798L279.668 127.226C278.543 117.935 291.357 114.801 294.398 123.628C301.564 144.456 309.578 189.435 265.244 227.546C236.629 252.154 190.301 252.325 161.795 227.466C157.828 224.007 153.723 220.032 151.082 215.373C144.4 203.591 154.604 194.143 166.113 197.043" stroke="black" stroke-width="4.11" stroke-miterlimit="10"/>
<path d="M209.346 245.986L204.885 252.485C204.885 252.485 177.89 253.567 163.117 266.333C160.384 268.696 162.018 273.285 165.585 273.285C166.479 273.288 167.345 272.964 168.029 272.371C171.517 269.355 184.843 259.877 214.987 259.59C244.358 259.308 255.623 268.664 258.738 272.074C259.094 272.459 259.522 272.765 259.996 272.974C260.471 273.182 260.982 273.288 261.498 273.285H262.078C265.739 273.285 267.288 268.525 264.396 266.214C252.064 256.341 224.418 253.193 224.418 253.193L219.699 245.864" stroke="black" stroke-width="4.11" stroke-miterlimit="10"/>
<path d="M224.418 150.397C213.102 147.256 208.441 130.821 206.563 119.772" stroke="black" stroke-width="4.11" stroke-miterlimit="10"/>
<path d="M235.056 132.74C231.912 132.316 228.927 131.069 226.385 129.119C223.843 127.169 221.829 124.58 220.537 121.6C220.266 121.007 220.134 120.357 220.152 119.702C220.17 119.048 220.336 118.407 220.638 117.83C221.872 115.478 223.713 112.752 223.276 109.933C222.96 107.943 221.37 106.544 219.547 106.094C218.622 105.844 217.649 105.861 216.733 106.142C216.184 106.303 215.677 106.586 215.247 106.973C214.818 107.36 214.478 107.84 214.251 108.38C213.807 109.451 214.336 110.512 215.153 111.21C215.97 111.908 216.926 112.156 217.923 112.435C218.052 112.473 218.404 112.55 218.794 112.627" stroke="black" stroke-width="4.11" stroke-miterlimit="10"/>
<path d="M83.1838 172.624C83.1838 172.624 60.8776 167.815 56.6876 160.887C55.9021 159.624 55.4126 158.19 55.257 156.699" stroke="black" stroke-width="4.11" stroke-miterlimit="10"/>
<path d="M192.945 160.793C154.038 156.538 110.124 157.167 110.124 157.167H85.4788C83.8862 157.169 82.2986 156.977 80.7497 156.594C76.9665 155.666 69.5085 153.631 63.5895 150.759C59.5758 148.808 54.8942 151.935 55.2366 156.5C55.2366 156.556 55.2366 156.615 55.2569 156.681C54.4748 156.682 53.7046 156.876 53.011 157.248C52.3174 157.62 51.7211 158.158 51.2727 158.818C50.8245 159.478 50.537 160.239 50.435 161.037C50.3333 161.835 50.4197 162.647 50.6872 163.403C58.9995 186.922 83.1837 186.186 83.1837 186.186C86.2754 186.28 89.3603 186.406 92.4554 186.57C119.721 187.934 146.746 191.875 173.202 198.83C180.551 200.753 187.826 203.496 195.183 205.765C201.454 207.716 207.79 209.311 214.302 209.799C226.899 210.738 239.822 207.388 250.206 199.891C272.949 183.46 292.523 149.202 276.766 121.394C271.203 111.58 258.606 108.893 249.826 115.81C237.442 125.565 227.55 144.568 222.475 155.778" stroke="black" stroke-width="4.11" stroke-miterlimit="10"/>
<path d="M51.2026 209.953H105.348" stroke="black" stroke-width="4.11" stroke-miterlimit="10"/>
<path d="M116.277 198.694C116.269 195.71 115.114 192.851 113.065 190.74C111.016 188.63 108.239 187.441 105.341 187.432H51.1891C48.2903 187.44 45.5126 188.629 43.4626 190.739C41.4127 192.849 40.2577 195.709 40.2496 198.694" stroke="black" stroke-width="4.11" stroke-miterlimit="10"/>
<path d="M39.185 202.687C39.1823 203.642 39.363 204.588 39.7172 205.471C40.0711 206.355 40.5912 207.157 41.2475 207.832C41.9038 208.507 42.6832 209.042 43.5412 209.406C44.3992 209.77 45.3185 209.956 46.2464 209.953H110.317C111.921 209.796 113.401 208.999 114.44 207.731C115.478 206.462 115.992 204.826 115.87 203.172C115.748 201.518 115.001 199.979 113.789 198.887C112.577 197.794 110.997 197.235 109.389 197.33H45.3175C44.1802 197.328 43.0591 197.609 42.0509 198.151C41.0424 198.693 40.1766 199.478 39.5274 200.439C39.3006 201.165 39.185 201.924 39.185 202.687Z" fill="#D7E8F0"/>
<path d="M39.1851 202.686C39.1823 203.642 39.3633 204.588 39.7173 205.471C40.0712 206.354 40.5912 207.156 41.2475 207.832C41.9038 208.507 42.6835 209.042 43.5412 209.406C44.3992 209.77 45.3186 209.956 46.2464 209.952H110.317C111.257 209.974 112.192 209.801 113.067 209.446C113.941 209.09 114.738 208.558 115.41 207.881C116.082 207.204 116.617 206.395 116.981 205.503C117.346 204.611 117.534 203.653 117.534 202.685C117.534 201.716 117.346 200.758 116.981 199.866C116.617 198.973 116.082 198.165 115.41 197.488C114.738 196.811 113.941 196.279 113.067 195.923C112.192 195.568 111.257 195.395 110.317 195.417H46.2464C44.7548 195.416 43.3012 195.901 42.0943 196.804C40.8872 197.706 39.9888 198.978 39.5274 200.439C39.3006 201.165 39.1854 201.923 39.1851 202.686Z" stroke="black" stroke-width="4.11" stroke-miterlimit="10"/>
<path d="M206.685 119.513L206.814 120.634C206.873 121.142 207.11 121.61 207.482 121.951C207.854 122.291 208.333 122.479 208.831 122.48H215.872C216.369 122.479 216.849 122.291 217.221 121.951C217.592 121.61 217.83 121.142 217.889 120.634L218.797 112.607C218.407 112.53 218.055 112.453 217.926 112.415C216.929 112.135 215.963 111.898 215.156 111.19C214.35 110.481 213.8 109.445 214.255 108.359C214.482 107.82 214.822 107.34 215.251 106.953C215.68 106.566 216.187 106.282 216.736 106.122C217.652 105.841 218.625 105.824 219.55 106.073L219.763 104.161C219.795 103.869 219.766 103.573 219.679 103.293C219.592 103.013 219.449 102.755 219.259 102.535C219.069 102.316 218.835 102.14 218.575 102.02C218.314 101.9 218.032 101.837 217.746 101.836H206.943C206.657 101.837 206.375 101.901 206.115 102.021C205.855 102.142 205.622 102.317 205.433 102.537C205.243 102.756 205.1 103.014 205.013 103.293C204.926 103.573 204.897 103.869 204.929 104.161L205.18 106.342" stroke="black" stroke-width="4.11" stroke-miterlimit="10"/>
<path d="M205.746 111.329L205.756 111.406" stroke="black" stroke-width="4.11" stroke-miterlimit="10"/>
<path d="M206.275 115.939V115.908" stroke="black" stroke-width="4.11" stroke-miterlimit="10"/>
<path d="M206.173 115.939C206.203 115.933 206.234 115.933 206.265 115.939C206.307 115.934 206.351 115.934 206.393 115.939C206.833 115.94 207.256 116.112 207.578 116.419C207.9 116.726 208.099 117.147 208.135 117.598C208.17 118.048 208.039 118.496 207.769 118.853C207.499 119.21 207.108 119.449 206.675 119.523C206.488 119.561 206.295 119.561 206.109 119.523C205.263 119.384 204.49 118.944 203.926 118.28C203.173 117.006 202.651 115.603 202.383 114.138C202.378 114.123 202.378 114.107 202.383 114.092C202.176 113.013 202.098 111.911 202.149 110.812M202.149 110.812C202.149 110.341 202.207 109.873 202.261 109.416C202.364 108.651 202.704 107.94 203.23 107.389C203.755 106.838 204.439 106.476 205.18 106.355C205.217 106.355 205.261 106.355 205.298 106.334C206.722 106.153 208.719 106.707 209.089 108.362C209.428 109.855 207.855 111.136 206.563 111.251C206.563 111.251 206.224 111.297 205.746 111.328C204.79 111.395 203.2 111.384 202.149 110.812ZM202.149 110.812C201.995 110.729 201.849 110.63 201.715 110.515" stroke="black" stroke-width="4.11" stroke-miterlimit="10"/>
<path d="M204.688 111.41H204.922H206.729H207.526C208.064 111.411 208.582 111.625 208.972 112.008C209.362 112.39 209.596 112.911 209.624 113.465C209.65 114.003 209.482 114.532 209.151 114.95C208.821 115.368 208.351 115.644 207.834 115.727C205.495 116.114 202.824 116.194 202.366 114.038" stroke="black" stroke-width="4.11" stroke-miterlimit="10"/>
<path d="M89.879 209.953C89.879 209.953 81.6108 218.039 84.1906 243.108C84.3787 244.898 84.9832 246.615 85.9534 248.112L86.8518 249.508C88.325 251.78 90.5465 253.426 93.1063 254.143C98.5066 255.661 108.304 259.179 114.355 265.845C116.911 268.669 115.009 273.268 111.26 273.268C110.561 273.27 109.872 273.094 109.255 272.756C108.638 272.417 108.112 271.926 107.724 271.328C105.259 267.51 97.7981 259.403 79.8006 259.574C59.5012 259.766 51.3245 268.075 48.7041 271.656C48.342 272.155 47.8722 272.561 47.3311 272.841C46.7904 273.121 46.1938 273.267 45.5887 273.268C44.83 273.267 44.0883 273.037 43.4543 272.608C42.8207 272.179 42.3221 271.569 42.02 270.852C41.7183 270.136 41.6261 269.344 41.7546 268.574C41.8834 267.804 42.2272 267.09 42.7445 266.519C50.6601 257.665 60.342 254.363 65.6846 253.138C68.3688 252.542 70.7401 250.936 72.3324 248.632C73.5514 246.856 74.245 244.754 74.3291 242.581C74.6274 234.809 74.7833 215.942 69.6678 209.96" stroke="black" stroke-width="4.11" stroke-miterlimit="10"/>
<path d="M107.066 151.358V151.924C107.066 155.794 110.097 156.461 112.714 156.527L163.364 157.742C165.585 157.798 167.453 155.801 167.5 153.302V153.198C167.5 150.755 165.751 148.713 163.561 148.661C163.561 148.661 135.224 147.837 113.284 147.216C112.863 148.584 111.846 149.638 110.572 150.465C109.516 151.115 108.295 151.426 107.066 151.358Z" stroke="black" stroke-width="4.11" stroke-miterlimit="10"/>
<path d="M80.1429 96.1816C80.1402 96.8185 80.2819 97.4467 80.5565 98.0173L103.208 145.823C103.474 146.378 103.855 146.867 104.323 147.255C104.792 147.642 105.337 147.919 105.92 148.067C106.856 148.314 107.846 148.21 108.714 147.774C109.409 147.422 109.995 146.875 110.403 146.196C110.811 145.517 111.026 144.734 111.022 143.935C111.021 143.739 111.007 143.543 110.982 143.349C110.921 142.916 110.796 142.496 110.609 142.103L87.9602 94.29C87.5511 93.4322 86.8717 92.7418 86.033 92.3321C85.1943 91.9227 84.2455 91.8173 83.341 92.0341C82.4366 92.2505 81.6304 92.776 81.0531 93.5247C80.4761 94.2736 80.1626 95.2012 80.1632 96.1572L80.1429 96.1816Z" stroke="black" stroke-width="4.11" stroke-miterlimit="10"/>
<path d="M263.528 91.4635C263.556 91.3658 263.593 91.2715 263.623 91.1773C263.654 91.0831 263.698 90.9749 263.725 90.8702" stroke="black" stroke-width="4.11" stroke-linecap="round" stroke-linejoin="round"/>
<path d="M263.528 91.467L262.833 90.748L261.504 89.3625" stroke="black" stroke-width="4.11" stroke-linecap="round" stroke-linejoin="round"/>
<path d="M255.708 93.3596C255.708 93.3596 254.816 96.0992 251.409 96.2842" stroke="black" stroke-width="4.11" stroke-miterlimit="10"/>
<path d="M270.861 99.7767C273.912 101.365 277.373 97.9305 277.133 95.1001C276.977 93.1596 277.404 91.8198 278.797 90.413C278.889 90.3188 278.973 90.2211 279.055 90.1268C279.585 89.5328 279.93 88.7884 280.045 87.9899C280.16 87.1917 280.039 86.3761 279.699 85.6492C279.065 84.131 277.699 83.2411 278.648 81.6043C279.064 80.8965 279.369 80.1248 279.55 79.3183C279.739 78.249 279.704 77.1503 279.446 76.096C279.188 75.042 278.713 74.0571 278.055 73.2073C276.658 71.4623 274.383 71.9439 272.515 71.3332C270.268 70.5968 269.217 68.1084 266.857 67.3441C265.678 66.9637 264.583 67.1347 263.403 67.4104C262.41 67.6512 261.413 67.92 260.447 68.2341C259.481 68.5482 258.599 68.8169 257.633 68.5202C256.369 68.1398 255.396 66.9428 254.02 66.9323C252.643 66.9218 251.585 67.7559 250.969 68.9216C249.992 70.7503 249.985 73.4097 250.904 74.9872C251.853 76.6205 253.84 77.3115 255.548 77.664C257.732 78.1247 259.989 78.2469 262.2 78.4493L263.484 78.7739C263.973 78.9302 264.382 79.2792 264.621 79.7451C264.86 80.211 264.91 80.7555 264.759 81.2587C263.964 84.0752 262.87 86.7928 261.498 89.3625" stroke="black" stroke-width="4.11" stroke-miterlimit="10"/>
<path d="M261.505 100.178C261.505 100.178 254.779 105.249 250.945 102.453C247.111 99.6577 249.277 91.4631 249.277 91.4631" stroke="black" stroke-width="4.11" stroke-linecap="round" stroke-linejoin="round"/>
<path d="M213.98 98.3356C213.98 98.3356 216.838 96.3463 215.021 94.3151C213.204 92.284 215.624 89.6036 215.624 89.6036" stroke="black" stroke-width="4.11" stroke-miterlimit="10"/>
<path d="M211.343 98.6808C211.343 98.6808 209.451 97.3651 210.665 96.018C211.878 94.6708 210.261 92.877 210.261 92.877" stroke="black" stroke-width="4.11" stroke-miterlimit="10"/>
<path d="M198.308 79.7242C177.728 79.7242 161.045 62.5488 161.045 41.3621C161.045 20.1753 177.728 3 198.308 3C218.888 3 235.571 20.1753 235.571 41.3621C235.571 62.5488 218.888 79.7242 198.308 79.7242Z" stroke="#CCDDE2" stroke-width="4.11" stroke-miterlimit="10"/>
<path d="M198.308 62.4302C187.006 62.4302 177.843 52.9971 177.843 41.3611C177.843 29.7247 187.006 20.2919 198.308 20.2919C209.611 20.2919 218.774 29.7247 218.774 41.3611C218.774 52.9971 209.611 62.4302 198.308 62.4302Z" stroke="#CCDDE2" stroke-width="4.11" stroke-miterlimit="10"/>
<path d="M198.308 44.9728C196.371 44.9728 194.8 43.3556 194.8 41.3607C194.8 39.3658 196.371 37.7485 198.308 37.7485C200.246 37.7485 201.817 39.3658 201.817 41.3607C201.817 43.3556 200.246 44.9728 198.308 44.9728Z" stroke="#CCDDE2" stroke-width="4.11" stroke-miterlimit="10"/>
<path d="M191.043 29.3003L196.461 38.2905" stroke="#CCDDE2" stroke-width="4.11" stroke-miterlimit="10"/>
<path d="M198.308 20.2919V24.0402" stroke="#CCDDE2" stroke-width="4.11" stroke-miterlimit="10"/>
<path d="M177.843 41.3614H181.294" stroke="#CCDDE2" stroke-width="4.11" stroke-miterlimit="10"/>
<path d="M198.308 62.4343V58.7908" stroke="#CCDDE2" stroke-width="4.11" stroke-miterlimit="10"/>
<path d="M218.777 41.3614H215.665" stroke="#CCDDE2" stroke-width="4.11" stroke-miterlimit="10"/>
<path d="M162.595 105.145C154.937 105.145 148.73 98.7541 148.73 90.8708C148.73 82.9873 154.937 76.5967 162.595 76.5967C170.252 76.5967 176.46 82.9873 176.46 90.8708C176.46 98.7541 170.252 105.145 162.595 105.145Z" fill="#3FBDF1"/>
<path d="M158.035 86.1032C158.231 85.639 158.494 85.2083 158.815 84.8258C159.364 84.1568 160.132 83.7167 160.973 83.5883C161.815 83.4599 162.673 83.6518 163.388 84.1278C163.854 84.4405 164.243 84.86 164.525 85.3535C164.807 85.847 164.975 86.4009 165.015 86.9722C165.745 86.6968 166.542 86.6731 167.286 86.9048C168.03 87.1362 168.681 87.6109 169.14 88.2565C169.599 88.9022 169.842 89.6839 169.831 90.4842C169.821 91.2841 169.559 92.0592 169.083 92.6923C168.09 94.0255 166.401 94.9015 164.873 95.411C164.071 95.6752 163.245 95.8553 162.408 95.9485C161.984 95.9973 159.567 96.3324 159.357 95.9485C157.849 93.5194 156.777 89.0697 158.035 86.1032Z" fill="white"/>
<g opacity="0.72">
<path opacity="0.72" d="M128.037 84.9619C123.82 84.9619 120.403 81.4433 120.403 77.1025C120.403 72.7619 123.82 69.243 128.037 69.243C132.253 69.243 135.671 72.7619 135.671 77.1025C135.671 81.4433 132.253 84.9619 128.037 84.9619Z" fill="#3FBDF1"/>
<path opacity="0.72" d="M124.725 78.4946C124.536 78.2964 124.378 78.0692 124.257 77.821C124.039 77.3932 123.981 76.8979 124.093 76.4289C124.204 75.9598 124.478 75.5487 124.864 75.2733C125.116 75.0943 125.404 74.9777 125.707 74.9327C126.01 74.888 126.319 74.9163 126.61 75.0151C126.626 74.5746 126.781 74.1516 127.051 73.81C127.322 73.4683 127.693 73.2264 128.108 73.1207C128.524 73.0153 128.962 73.0516 129.356 73.2247C129.749 73.3975 130.078 73.6976 130.291 74.0797C130.706 74.9439 130.868 75.9144 130.756 76.8717C130.717 77.3443 130.634 77.812 130.505 78.2677C130.44 78.5016 130.101 79.8383 129.871 79.8801C128.355 80.1419 125.928 79.7754 124.725 78.4946Z" fill="white"/>
</g>
<path d="M138.977 114.217L142.606 122.117C143.922 124.982 142.733 128.402 139.95 129.757L132.277 133.493C129.494 134.848 126.172 133.623 124.856 130.759L121.227 122.859C119.911 119.994 121.1 116.574 123.882 115.219L131.556 111.483C134.339 110.128 137.661 111.352 138.977 114.217Z" fill="#3FBDF1"/>
<path d="M123.298 124.242L125.925 129.962C126.476 131.153 127.463 132.072 128.669 132.517C129.876 132.962 131.205 132.898 132.366 132.339L139.031 129.093C140.187 128.525 141.079 127.509 141.51 126.266C141.942 125.024 141.88 123.657 141.336 122.462L141.16 122.078C139.349 120.591 136.22 118.588 135.078 121.314C133.434 125.251 131.295 123.98 128.562 122.333C126.281 120.944 123.542 120.48 123.298 124.242Z" fill="white"/>
<path d="M133.62 118.163C132.488 118.163 131.569 117.217 131.569 116.051C131.569 114.885 132.488 113.94 133.62 113.94C134.753 113.94 135.671 114.885 135.671 116.051C135.671 117.217 134.753 118.163 133.62 118.163Z" fill="white"/>
<path d="M98.6287 88.3054C98.2208 89.0707 97.9249 89.894 97.7506 90.7484C97.4401 92.3112 97.5293 93.9305 98.0093 95.447C98.4897 96.9637 99.3443 98.3259 100.49 99.4001C101.398 100.227 102.554 100.873 103.473 101.738C104.143 102.334 104.637 103.112 104.897 103.982C104.944 104.28 105.061 104.561 105.236 104.803C105.771 105.396 106.297 104.454 106.761 104.293C107.51 104.042 108.322 104.083 109.043 104.408C110.939 105.225 113.05 105.34 115.02 104.737C116.99 104.133 118.695 102.846 119.849 101.095C121.002 99.3442 121.532 97.2363 121.348 95.1294C121.164 93.0221 120.278 91.0454 118.84 89.5338C117.419 88.0436 115.562 87.0908 113.755 86.1206C112.175 85.2586 110.602 84.3407 108.887 83.8242C104.866 82.5853 100.575 84.6478 98.6287 88.3054Z" fill="#3FBDF1"/>
<path d="M114.819 99.086C113.752 99.086 112.887 98.1953 112.887 97.0967C112.887 95.998 113.752 95.1074 114.819 95.1074C115.887 95.1074 116.752 95.998 116.752 97.0967C116.752 98.1953 115.887 99.086 114.819 99.086Z" fill="white"/>
<path d="M109.616 96.2204C108.548 96.2204 107.683 95.3297 107.683 94.2311C107.683 93.1324 108.548 92.2418 109.616 92.2418C110.683 92.2418 111.548 93.1324 111.548 94.2311C111.548 95.3297 110.683 96.2204 109.616 96.2204Z" fill="white"/>
<path d="M104.734 93.5334C103.667 93.5334 102.802 92.6428 102.802 91.5441C102.802 90.4455 103.667 89.5548 104.734 89.5548C105.801 89.5548 106.666 90.4455 106.666 91.5441C106.666 92.6428 105.801 93.5334 104.734 93.5334Z" fill="white"/>
<path d="M163.649 27.2583C163.649 27.2583 150.926 67.7702 101.951 65.582C85.6789 63.488 66.3119 65.582 49.0669 88.965C22.852 124.535 33.378 164.16 45.2905 189.313" stroke="#CCDDE2" stroke-width="4.11" stroke-miterlimit="10"/>
<g opacity="0.54">
<path opacity="0.54" d="M92.8554 43.1688C92.9036 43.7799 92.9951 44.3865 93.13 44.9836L94.6555 51.7961C95.1234 53.8901 95.6488 56.0819 97.0997 57.6105C99.8117 60.4583 104.32 59.8057 108.09 58.9436L117.345 56.8287C119.47 56.3436 121.63 55.8445 123.535 54.7591C125.44 53.6737 127.094 51.8973 127.535 49.7021C127.874 48.0828 127.511 46.4076 127.166 44.7952L125.769 38.2549C125.305 36.1121 124.782 33.8505 123.281 32.2905C120.606 29.516 116.162 30.1477 112.467 30.9748L102.988 33.0967C97.2726 34.3671 92.4012 37.0962 92.8554 43.1688Z" fill="#3FBDF1"/>
<path opacity="0.54" d="M105.619 43.3507C105.222 43.73 104.93 44.2102 104.771 44.7428C104.612 45.2757 104.593 45.8422 104.714 46.3852C104.835 46.9283 105.093 47.4287 105.462 47.8367C105.831 48.2443 106.298 48.5448 106.815 48.7078L109.636 49.5978L112.456 50.4877C112.974 50.6507 113.524 50.6706 114.052 50.5453C114.579 50.42 115.065 50.1544 115.461 49.7744C115.857 49.3947 116.149 48.9144 116.308 48.3815C116.466 47.8489 116.486 47.2825 116.365 46.7395L115.687 43.7799L115.026 40.8239C114.905 40.2805 114.648 39.7797 114.279 39.3714C113.91 38.9634 113.443 38.6622 112.926 38.4989C112.408 38.3352 111.858 38.3153 111.331 38.4402C110.803 38.5655 110.317 38.8315 109.921 39.2115L107.761 41.2811L105.619 43.3507Z" fill="white"/>
</g>
<path d="M292.733 273.269H0.000149081" stroke="black" stroke-width="4.11" stroke-miterlimit="10"/>
</svg>
