<svg width="201" height="276" viewBox="0 0 201 276" fill="none" xmlns="http://www.w3.org/2000/svg">
<path fill-rule="evenodd" clip-rule="evenodd" d="M53.5691 62.0324C53.3326 66.6395 53.0961 71.2458 52.8599 75.8529C54.3806 75.3307 64.0538 71.9369 63.4564 75.3779C63.0276 77.846 60.3081 80.5159 58.9224 82.2342C57.6472 83.8162 56.3339 85.3571 54.9874 86.8528C57.4623 85.723 59.958 84.6532 62.4714 83.6524C64.3734 82.895 66.2895 82.1559 68.2384 81.5882C68.9618 81.3772 70.9151 80.5171 71.5985 81.1036C73.3943 82.6449 63.6504 93.996 62.3156 95.596C64.2029 94.5493 66.1357 93.5985 68.1011 92.7827C69.5203 92.1938 73.9046 89.9426 75.1603 91.865C76.5045 93.9217 73.1746 98.6442 72.2509 100.142C70.9278 102.287 69.4938 104.346 67.9892 106.314C74.2427 113.011 81.5914 118.973 89.4122 122.678C95.1464 125.395 100.779 126.086 106.83 124.595C113.046 123.064 119.008 120.126 124.675 116.767C128.004 114.795 131.288 112.66 134.417 110.262C133.127 108.391 131.875 106.481 130.658 104.542C128.921 101.774 126.787 98.7485 125.797 95.4526C124.827 92.227 128.463 92.8566 130.207 93.032C132.733 93.2857 135.251 93.8238 137.726 94.4678C135.976 93.0164 134.258 91.5071 132.574 89.9486C130.38 87.9175 127.453 85.6212 126.016 82.6992C124.753 80.13 127.525 80.7788 128.807 81.1152C131.864 81.9182 134.837 83.2861 137.752 84.6204C139.887 85.5976 142.008 86.6211 144.109 87.699C142.805 86.3471 141.545 84.9304 140.334 83.4618C138.705 81.4879 136.509 79.0769 135.779 76.3586C134.293 70.8223 144.293 74.9983 146 75.8529C145.685 70.118 145.37 64.3831 145.055 58.6482C131.813 62.8494 118.572 67.0514 105.33 71.253C103.899 71.7072 102.108 72.696 100.616 72.7487C99.2643 72.7971 97.6317 72.0712 96.3136 71.7711L72.3517 66.3119C66.0909 64.8853 59.83 63.459 53.5691 62.0324Z" fill="#56FFFF"/>
<path fill-rule="evenodd" clip-rule="evenodd" d="M195.886 259.286C194.457 260.261 192.782 261.014 191.194 261.519C190.261 261.816 188.72 262.733 187.901 261.893C187.507 261.489 187.417 260.573 187.185 260.042C186.818 259.201 186.296 258.475 185.806 257.732C184.621 255.931 183.387 254.194 182.096 252.5C181.484 251.697 180.367 249.823 179.289 249.946C177.946 250.1 177.978 252.317 178.315 253.45C179.387 257.057 182.632 260.201 184.751 262.918C184.212 263.907 181.253 263.79 180.431 263.558C179.176 263.205 179.049 262.14 178.476 260.921C177.137 258.073 174.419 256.479 172.185 254.805C171.371 254.194 169.64 252.501 168.579 252.927C167.573 253.331 167.616 254.863 167.937 255.863C168.421 257.376 169.797 258.424 170.815 259.38C172.173 260.654 173.414 262.04 174.545 263.599C172.915 263.758 171.29 264.032 169.664 264.192C167.697 264.385 166.058 263.098 164.247 262.369C162.564 261.691 160.888 261.118 159.233 260.337C157.376 259.459 155.43 259.154 153.556 258.384C146.202 255.364 138.997 251.566 131.91 247.737C128.534 245.913 125.227 244.087 121.708 242.659C119.144 241.618 115.115 239.544 114.502 235.903C114.178 233.978 115.357 231.909 115.531 229.986C115.735 227.724 115.574 225.236 114.997 223.066C114.487 221.154 113.643 219.383 112.978 217.548C112.203 215.409 112.897 215.443 114.402 215.2C116.204 214.909 118.307 213.699 120.001 212.912C121.951 212.004 123.886 210.735 125.672 209.431C127.289 208.252 128.695 206.731 129.981 205.08C131.29 203.401 132.138 201.41 133.403 199.689C138.073 206.538 142.512 213.491 147.475 220.044C149.817 223.137 152.364 225.694 155.25 228.045C156.455 229.028 157.651 230.15 158.964 230.926C160.606 231.898 162.441 232.501 164.129 233.388C170.6 236.787 176.776 240.504 182.812 244.891C185.733 247.013 188.184 249.446 190.756 252.108C191.556 252.937 198.113 257.766 195.886 259.286ZM119.978 203.179C118.932 203.744 117.935 204.477 116.82 204.84C117.136 202.545 118.932 199.084 121.234 199.465C122.114 199.61 122.777 200.425 122.391 201.548C122.04 202.568 120.723 202.777 119.978 203.179ZM47.1897 140.939C46.0043 141.719 44.8997 142.174 44.2045 140.499C44.7194 140.375 47.0584 140.004 47.1897 140.939ZM45.216 136.203C44.2996 135.872 45.0324 135.523 45.3477 135.123C45.5932 134.813 46.4064 133.721 46.6908 133.541C47.9475 132.747 48.9188 135.701 49.5199 136.659C48.0973 136.509 46.6007 136.704 45.216 136.203ZM55.0115 146.429C53.275 146.78 53.4676 144.19 53.5196 142.877C53.8858 143.41 56.3654 146.156 55.0115 146.429ZM60.7661 141.955C58.649 142.381 57.2502 138.019 57.6298 136.112C57.9635 134.431 59.6042 133.493 60.9105 133.245C62.1763 133.004 63.9389 133.332 64.3148 135.073C64.6472 136.612 62.1769 141.671 60.7661 141.955ZM110.879 207.795C109.357 208.352 107.867 208.422 106.338 208.97C104.603 209.59 102.997 209.535 101.258 209.958C100.551 210.129 98.6435 211.358 97.9537 211.084C97.2702 210.812 96.2811 208.283 95.8885 207.626C98.9641 206.101 101.588 204.133 103.615 200.92C105.227 198.366 106.956 194.539 105.942 191.242C104.798 187.525 100.855 186.718 98.2267 188.27C96.9831 189.005 95.7504 189.918 94.7249 191.037C93.5526 192.316 93.0916 193.712 92.3321 195.29C91.5641 196.886 91.0251 195.998 90.2575 194.643C89.6018 193.485 89.6873 192.315 88.8678 191.172C88.4496 190.589 87.802 190.027 87.5839 189.274C87.4455 188.796 87.737 187.95 87.4747 187.574C87.1058 187.046 86.6568 187.666 86.3476 187.195C86.1231 186.852 86.1965 186.071 85.9647 185.642C85.7633 185.399 85.5398 185.191 85.2922 185.018C84.992 184.841 84.9374 184.62 85.1277 184.354C84.8892 183.827 85.119 183.65 84.6081 183.009C83.8114 182.01 83.085 181.053 82.5178 179.873C82.2588 179.333 82.2843 178.533 81.9623 178.066C81.5204 177.425 80.7843 177.521 80.4044 176.727C80.066 176.02 80.2925 174.782 79.7343 174.14C79.4401 174.04 79.1456 173.942 78.8511 173.845C78.6293 173.588 78.5003 173.277 78.4635 172.91C78.1536 172.341 78.0919 171.673 77.7006 171.071C76.9515 169.922 75.944 168.859 75.2823 167.647C74.5868 166.373 74.9556 166.158 76.1638 165.702C77.2533 165.29 78.2484 164.909 79.2585 164.208C83.928 160.967 88.3548 152.372 80.9431 149.746C78.1928 148.771 75.9333 146.151 72.8834 147.181C71.5614 147.628 70.3073 148.578 69.321 149.707C68.6395 150.486 68.0083 152.573 67.1717 152.972C65.6674 153.69 66.3033 151.896 65.8764 151.071C65.6724 150.678 64.8519 150.224 64.5477 149.866C64.1909 149.446 63.8458 148.916 63.5978 148.397C63.1378 147.433 62.8564 146.895 62.193 146.11C61.9431 145.814 60.6944 144.283 61.8205 144.483C61.3645 142.825 62.0299 142.576 62.9499 141.365C64.03 139.943 65.1454 137.968 65.1517 135.975C65.1641 132.15 61.3628 130.436 58.9753 132.706C58.4895 133.169 55.6162 137.629 56.2042 134.784C56.5212 133.25 59.4561 129.246 60.8167 130.282C59.2919 127.632 55.7891 134.066 54.9716 135.383C54.2754 133.854 54.2262 132.659 53.0743 131.476C52.1365 133.269 52.6317 131.309 52.425 130.91C51.9784 130.05 52.2236 131.034 51.9814 130.728C51.6799 130.348 51.2051 130.048 50.8842 129.544C50.3344 130.433 50.5541 129.476 50.3856 129.144C49.9919 128.367 50.1441 127.917 49.4693 127.242C48.9781 126.75 48.0105 125.988 47.3495 125.918C46.5873 125.837 46.3762 126.186 45.5996 125.928C44.6116 125.6 43.3682 125.097 43.8463 127.067C44.1938 128.5 45.6056 129.313 45.9149 130.776C46.2261 132.249 45.0049 133.733 44.4126 134.94C43.6517 136.489 43.0295 136.363 41.6512 136.712C40.7704 136.935 39.5947 137.413 40.3502 138.687C40.8896 139.597 42.1541 139.406 42.866 139.945C43.8644 140.701 43.8507 142.565 45.1255 142.889C46.5293 143.247 47.3334 141.383 48.5171 140.933C49.3587 140.613 51.966 140.648 52.6284 141.402C53.531 142.428 52.751 144.39 52.9781 145.666C53.3162 147.557 54.3893 147.673 55.7466 147.733C57.4174 147.807 58.0047 149.721 58.9033 151.238C61.008 154.792 62.8373 158.581 64.9933 162.088C65.9478 163.641 67.3439 165.022 68.1252 166.707C69.0901 168.789 67.7506 169.989 66.5944 171.483C65.0837 173.435 63.956 175.656 62.6457 177.789C61.4814 179.686 60.0344 179.214 58.1739 179.214C58.5884 178.194 59.0872 177.559 60.1074 177.682C59.0407 176.129 58.1877 177.906 57.4958 178.89C56.4947 180.313 55.1897 180.656 53.9039 181.592C53.4489 181.923 50.9713 184.069 51.7241 184.802C51.8095 184.885 55.9111 181.668 56.3781 181.373C56.3781 182.56 56.1603 183.794 56.3 184.975C56.4022 185.841 56.9128 186.745 56.8039 187.645C56.5979 189.345 54.7555 190.684 53.9648 192.008C53.3695 193.005 53.5132 193.792 53.2103 194.861C52.9339 195.837 53.079 195.542 52.3905 195.844C50.9887 196.458 48.629 196.126 47.3596 195.253C46.5715 194.712 45.9675 193.855 45.3272 193.1C44.8451 192.531 43.6323 191.559 43.4982 190.763C43.2684 189.392 45.551 186.845 46.0026 185.43C47.2785 181.439 45.0907 178.337 41.686 178.111C42.7354 177.145 44.036 177.872 45.1419 178.241C43.2513 175.117 40.0219 177.687 38.418 179.81C37.3221 176.507 36.7938 173.023 36.1244 169.578C35.6684 167.232 33.9326 163.046 34.7068 160.631C35.0811 159.463 36.1378 158.812 36.8685 158.003C37.6991 157.083 38.4103 155.983 39.0174 154.844C40.4477 152.162 41.2739 148.776 39.3042 146.132C39.9026 146.015 40.5013 145.898 41.0997 145.78C40.1264 144.69 38.5906 145.221 37.3275 144.898C36.5261 144.692 34.2197 144.825 33.6846 144.284C33.041 143.634 33.4535 140.642 33.4766 139.756C33.5295 137.686 33.6746 135.696 33.8662 133.639C34.0478 131.696 34.0113 129.596 34.348 127.687C34.6214 126.138 35.4952 125.666 36.5033 124.753C38.9129 122.569 40.8766 119.914 40.0537 116.151C40.3452 116.096 40.6367 116.041 40.9282 115.986C39.9854 115.173 38.7655 115.469 37.7168 115.039C38.6797 111.807 40.8096 106.125 44.2678 105.819C44.3868 107.264 44.3054 108.982 45.1228 110.178C46.0536 111.54 47.6872 111.677 48.948 110.957C50.0921 110.303 51.1659 108.916 51.6933 107.547C52.0501 106.62 51.9858 105.052 52.6119 104.317C53.4516 103.331 59.2413 103.926 59.0641 105.59C58.9596 106.568 57.4114 108.212 56.9788 109.078C56.1868 110.665 55.5529 112.381 55.2621 114.203C54.8209 116.97 55.0765 120.623 57.4328 122.077C60.1128 123.732 63.3787 121.628 65.5766 119.81C66.7834 118.812 67.9523 117.711 69.0546 116.554C69.6419 115.939 70.2319 115.304 70.7496 114.604C71.1318 114.087 71.4371 113.255 71.9075 112.867C73.0188 111.953 74.108 113.504 75.0484 114.288C76.5802 115.564 78.1043 116.776 79.7487 117.838C83.085 119.993 86.1355 122.848 89.0855 125.682C92.0526 128.534 95.1122 131.467 97.5158 135.019C96.06 136.087 96.3197 136.364 95.672 138.269C95.2124 139.621 94.5792 140.771 94.5061 142.273C94.3798 144.865 95.7752 147.074 97.8934 147.648C99.078 147.969 100.206 147.712 101.304 147.135C102.157 146.685 103.007 145.581 103.898 145.306C105.554 144.797 106.88 148.528 107.808 149.843C111.932 155.68 116.291 161.287 120.174 167.362C120.604 168.035 121.881 169.349 121.985 170.24C122.134 171.52 120.446 172.739 119.746 173.473C119.378 173.857 115.48 178.23 116.789 178.926C117.162 179.123 118.254 176.441 118.527 176.211C119.55 175.352 118.777 177.036 118.716 177.887C118.563 180.003 119.782 181.156 121.495 180.888C123.323 180.601 124.951 178.88 126.082 177.255C127.5 179.213 129.716 182.173 130.126 184.789C130.388 186.459 129.175 190.549 131.439 190.89C131.784 190.942 133.034 189.836 133.268 190.464C133.462 190.988 132.11 191.884 131.915 192.057C131.083 192.799 130.579 193.593 129.907 194.491C129.118 195.545 128.039 196.433 127.151 197.443C126.215 198.507 124.364 201.397 123.129 200.001C122.509 199.3 122.672 198.382 121.678 197.97C120.772 197.595 119.626 198.071 118.785 198.487C117.838 198.955 114.719 200.663 114.373 202.07C113.895 204.009 116.473 201.677 116.931 201.337C116.409 202.919 116.12 205.209 114.789 206.132C113.683 206.899 112.092 207.35 110.879 207.795ZM93.1991 195.828C94.0843 192.436 99.3042 186.387 102.603 188.279C98.7584 189.24 95.7072 192.377 93.1991 195.828ZM95.1511 205.543C93.8645 204.688 93.9339 202.204 93.4849 200.751C93.2269 199.918 92.7113 199.309 92.8631 198.384C93.0403 197.299 94.2006 196.093 94.818 195.311C96.7613 192.85 100.181 189.485 103.309 190.049C107.291 190.768 104.591 197.142 103.236 199.337C102.08 201.208 97.628 207.189 95.1511 205.543ZM85.8631 201.394C81.5576 201.051 77.2667 200.592 73.0198 199.649C71.5141 199.315 70.2527 199.365 71.1141 197.3C71.3985 196.619 73.1136 192.349 73.5009 192.472C73.7304 192.544 73.6781 195.479 73.7455 195.815C74.0497 197.326 74.9034 198.734 76.3427 198.638C78.6977 198.482 80.2154 194.851 81.4554 192.902C82.4488 194.495 83.1678 196.264 84.1662 197.83C84.6436 198.578 86.3051 200.32 85.8631 201.394ZM60.6207 181.24C59.8984 183.217 58.4456 185.097 57.4352 186.888C56.8639 185.446 56.4622 182.136 57.8171 181.069C58.33 180.666 61.0774 179.991 60.6207 181.24ZM75.5537 187.126C75.7524 186.365 75.9725 185.61 76.2181 184.869C76.6392 186.451 76.8546 186.497 75.5537 187.126ZM79.2391 188.745C79.7618 189.802 80.6329 190.84 80.4962 192.167C80.3926 193.172 79.6308 194.202 79.0867 194.903C78.1861 196.061 76.1913 198.285 74.8866 196.747C73.7967 195.461 74.1763 191.927 74.6833 190.481C75.4069 188.415 77.9934 186.229 79.2391 188.745ZM76.6821 186.581C76.9816 186.439 76.3524 184.134 76.9364 183.904C77.4456 185.289 77.9258 185.664 76.6821 186.581ZM68.4549 155.554C68.2609 154.704 67.816 154.739 67.9761 153.688C68.0813 152.998 68.5403 152.262 68.8884 151.716C69.5823 150.627 70.4976 149.729 71.4873 149.049C73.577 147.615 76.4462 147.019 78.3171 149.265C76.5682 149.594 71.2066 151.653 71.1724 154.505C73.1173 154.058 74.6467 151.729 76.5973 150.995C78.1985 150.392 79.9346 150.434 81.5274 151.071C85.8873 152.812 84.0744 157.306 81.6135 160.224C80.1527 161.957 78.4012 163.251 76.4864 164.143C75.6003 164.556 75.0565 164.602 74.1854 164.394C74.0222 164.355 73.8316 163.994 73.6359 163.917C73.1498 163.725 73.2908 164.376 72.8905 164.084C72.541 163.829 71.7959 162.185 71.5584 161.714C71.1801 160.965 71.0039 160.236 70.5395 159.553C70.0748 158.868 69.8487 157.952 69.4188 157.332C69.2124 157.034 68.6465 157.046 68.4948 156.756C68.2666 156.319 68.5571 156.001 68.4549 155.554ZM61.7592 189.065C62.7502 187.012 64.4455 185.269 65.7572 183.475C65.8376 186.424 64.0642 188.444 61.7592 189.065ZM63.0983 190.013C65.1447 189.155 66.2721 187.101 66.4808 184.61C66.7459 181.455 68.407 179.799 69.4071 176.965C69.7907 175.879 70.2376 172.305 71.7242 173.328C72.2341 173.678 72.5367 174.998 72.8024 175.594C73.4453 177.037 74.1763 178.435 74.8581 179.851C75.4133 181.005 76.2455 182.164 76.0006 183.552C75.7869 184.762 75.0997 186.052 74.697 187.193C73.7465 189.889 72.4978 192.372 71.4545 195.008C71.0337 196.072 70.5355 198.59 69.2503 198.577C68.2331 198.566 68.3467 197.24 67.6769 196.786C66.8316 196.212 65.8704 197.304 65.1759 197.756C65.9756 196.146 67.3737 195.235 68.9451 195.538C67.0635 193.303 65.792 196.318 64.1771 196.99C62.647 197.626 59.9325 194.625 58.6443 193.775C59.1372 192.78 59.5824 191.562 60.4301 190.908C61.2338 190.286 62.2205 190.382 63.0983 190.013ZM46.461 210.433C46.6851 209.146 47.3183 208.386 47.7197 207.218C48.1851 208.634 47.0952 209.47 46.461 210.433ZM78.9737 218.328C78.8639 222.661 78.567 226.982 78.4598 231.316C78.4106 233.315 78.1137 235.221 77.9167 237.197C77.7502 238.867 77.835 240.508 76.9531 241.935C75.5627 244.185 72.8593 244.832 70.7606 245.666C69.2194 246.278 67.6605 246.833 66.1384 247.513C64.7688 248.125 63.6652 249.053 62.3629 249.78C61.198 250.431 59.9406 250.816 58.781 251.51C57.5816 252.228 56.6337 253.101 55.4018 253.74C53.927 254.504 52.7118 255.864 51.4001 256.944C50.2456 257.894 49.024 258.628 48.0306 259.823C47.0992 260.944 45.9202 261.436 44.8649 262.432C43.7488 263.485 42.5806 264.17 41.3476 264.996C38.8218 266.688 35.4141 269.579 32.3743 267.934C33.2437 266.611 35.0231 265.338 35.1585 263.514C35.3344 261.137 33.5999 262.012 32.5954 262.771C31.074 263.92 30.2324 265.308 29.0742 266.84C27.7203 268.63 26.0099 267.426 24.3532 266.922C25.4859 265.706 26.6096 264.479 27.7404 263.261C28.6949 262.233 30.1557 261.121 30.737 259.699C31.1524 258.682 31.132 257.289 30.1295 256.762C29.0078 256.171 27.7394 257.416 26.9085 258.157C24.7033 260.125 23.2509 262.619 21.8028 265.358C21.0326 266.813 20.6778 266.702 19.2606 266.411C17.7589 266.102 16.2573 265.774 14.7433 265.557C16.7488 263.101 18.9902 260.44 20.5743 257.567C21.0875 256.635 21.7569 254.181 20.1933 253.955C19.549 253.862 18.2662 255.433 17.7693 255.857C15.5973 257.708 13.509 260.043 12.0696 262.746C11.5942 263.638 11.4451 264.63 10.5248 264.704C9.32167 264.801 7.08629 263.432 5.92572 263.009C8.14367 259.675 10.3462 256.316 12.9377 253.376C15.3189 250.674 17.6939 248.711 20.4788 246.639C23.4633 244.418 26.2434 241.86 28.9834 239.236C31.6064 236.724 34.3463 234.354 36.7606 231.55C41.5835 225.947 45.879 219.504 49.4361 212.69C50.2684 211.096 51.052 209.46 51.7291 207.764C52.3654 206.171 52.6585 204.265 53.5172 202.816C53.8137 202.316 54.2319 201.944 54.4962 201.422C54.7455 200.929 54.661 200.335 55.0413 199.9C55.9208 198.893 57.5223 199.5 58.3441 200.206C59.6662 201.34 60.7356 202.718 62.1887 203.668C63.6501 204.623 65.2308 205.318 66.8491 205.787C70.631 206.884 74.3804 207.783 78.2333 208.449C77.837 210.203 78.8106 210.479 79.1332 212.056C79.5249 213.971 79.023 216.378 78.9737 218.328ZM42.5571 189.091C41.6997 187.572 40.9345 185.984 40.0916 184.455C39.5783 183.523 38.9421 182.524 39.381 181.385C40.1197 179.464 42.7266 179.123 44.1412 179.959C47.3572 181.863 44.3697 187.304 42.5571 189.091ZM34.0448 154.347C33.7486 151.378 34.7008 149.271 36.9536 147.715C38.5591 146.605 39.852 148.121 39.6326 150.144C39.2992 153.226 36.5375 156.654 34.4298 158.262C34.2921 156.958 34.1751 155.652 34.0448 154.347ZM33.7014 145.852C34.3658 145.223 36.1455 146.025 36.9154 146.08C35.8567 147.183 34.7976 148.286 33.7386 149.389C33.6692 148.632 33.0883 146.432 33.7014 145.852ZM37.2742 117.176C42.6322 116.345 36.4644 123.202 34.9115 124.276C35.1642 122.817 35.785 117.407 37.2742 117.176ZM51.5381 105.172C50.8188 108.686 45.2257 112.52 45.1671 106.764C45.1456 104.619 46.1558 104.792 47.6306 104.586C48.4719 104.469 51.9496 103.163 51.5381 105.172ZM32.2188 110.614C31.591 112.579 31.0874 114.595 30.472 116.563C30.1992 117.434 29.8786 118.033 29.3707 118.723C28.9455 119.3 28.4396 119.446 28.4564 120.358C28.9891 120.235 29.4059 119.857 29.8361 119.492C29.7319 121.301 29.1958 123.247 28.9361 125.05C28.6252 127.211 28.3662 129.374 28.2701 131.566C28.0617 136.333 28.06 141.082 28.1478 145.852C28.1927 148.282 28.2128 150.714 28.3227 153.141C28.3776 154.349 28.4396 155.562 28.5649 156.762C28.6158 157.246 28.9107 158.278 28.7284 158.732C28.0128 160.515 24.8426 155.618 23.466 156.337C23.664 154.98 23.2073 155.277 22.4444 154.61C22.0749 154.286 21.8343 153.736 21.449 153.448C21.3325 153.298 21.2041 153.165 21.0641 153.048C20.9049 152.789 20.7367 152.817 20.5602 153.13C19.009 152.025 18.6083 149.669 17.7757 148.084C17.3475 147.269 16.9337 147.142 16.8607 146.015C16.7974 145.033 16.9213 144.032 16.8878 143.046C16.85 141.934 16.7954 140.708 16.5337 139.631C16.2301 138.38 15.8124 138.482 14.9985 137.816C15.2492 137.685 15.4147 137.466 15.4947 137.157C15.2348 137.212 14.4451 137.596 14.2487 137.32C13.8628 136.778 14.7734 136.706 15.0126 136.489C13.9918 135.949 14.2115 135.505 14.5801 134.514C14.6843 134.234 14.7838 133.815 14.8726 133.579C15.0662 133.062 15.1778 133.39 15.2418 132.748C15.3024 132.136 14.8478 130.934 14.7138 130.282C14.4893 129.189 14.365 128.245 14.5667 127.106C14.7302 126.184 15.1701 125.349 15.2006 124.401C15.2093 124.134 14.8692 124.046 14.8645 123.789C14.8578 123.413 15.152 123.248 15.2284 122.901C15.4237 122.012 15.3356 121.073 15.6696 120.23C15.9702 119.472 16.5773 118.492 17.0068 117.832C17.3046 117.374 18.0353 116.858 18.1154 116.253C18.1683 115.853 17.6454 115.898 17.6685 115.597C17.7003 115.188 17.9878 115.056 18.0665 114.752C18.2839 113.919 18.3386 113.118 18.9004 112.479C19.6083 111.676 19.9156 112.012 19.9451 110.687C19.9591 110.04 19.5253 109.941 19.7578 109.195C19.8841 108.79 20.2566 108.551 20.4948 108.264C21.2024 107.413 21.6795 106.657 22.1834 105.605C22.629 104.676 23.3397 104.135 23.7963 103.333C24.3907 102.287 23.5018 101.769 24.7083 101.474C24.5368 100.824 24.3545 100.299 24.8058 99.7497C25.0906 99.4029 25.8126 99.615 26.0645 99.2139C26.3533 98.7537 25.9265 97.6626 26.3617 97.3638C26.7155 97.1213 27.2452 97.8692 27.8014 97.4988C28.2249 97.2168 28.8648 95.6579 28.7284 95.0846C29.824 95.8197 29.5509 95.3135 30.0753 94.3707C30.1929 94.1594 30.549 94.1126 30.6502 93.8989C30.8526 93.4726 30.8063 93.038 31.0981 92.6912C31.5839 92.1143 32.379 92.2625 32.9137 91.8502C33.3556 91.5099 33.3322 91.1427 33.6846 90.8215C33.9858 90.547 34.4807 90.4943 34.7735 90.2099C35.3471 89.6526 35.3528 89.0645 36.0704 88.5843C36.9204 88.0166 37.6733 87.5332 38.4465 86.7801C38.9504 86.2895 39.4289 85.419 40.0185 85.0954C40.834 84.6476 41.4692 84.616 42.267 83.9768C42.8436 83.515 43.3887 82.7527 43.9546 82.3632C44.3817 82.0699 44.6813 82.1331 45.2193 81.9513C46.1879 81.6237 46.4238 80.5355 47.2138 80.0924C47.7562 79.7884 48.5459 80.0668 49.1416 79.907C50.9951 79.4108 52.826 78.3406 54.6862 77.7477C56.9564 77.0246 59.243 76.391 61.5307 75.7514C59.4283 79.1492 56.7507 82.215 54.0348 84.9136C53.1433 85.7993 48.2585 89.8379 50.8915 91.5626C51.9486 92.2545 54.2446 90.0189 55.0979 89.4724C56.8163 88.3717 58.5961 87.4908 60.3959 86.6007C63.306 85.1613 67.096 82.6013 70.3301 82.8074C68.3614 85.6875 65.9039 87.9994 63.6521 90.5435C61.5829 92.8818 58.4651 95.0746 59.4407 98.9019C56.5342 98.0202 53.9236 96.9779 50.9016 97.2088C49.548 97.3123 48.1935 97.1177 46.8459 97.3442C45.3808 97.5911 44.0011 98.1756 42.593 98.689C41.479 99.0945 40.248 99.1264 39.2232 99.8012C38.728 100.128 38.1155 100.593 37.6706 100.998C37.0772 101.538 36.9425 101.895 36.4765 102.607C34.8147 105.144 33.2065 107.523 32.2188 110.614ZM23.1283 158.642C23.0375 158.203 22.955 157.803 22.8508 157.301C23.7759 157.98 23.7759 157.98 23.1283 158.642ZM16.137 144.654C16.0231 144.842 15.544 144.903 15.405 144.74C15.2317 144.539 15.6871 143.753 15.7601 143.586C15.9407 143.751 16.3561 144.292 16.137 144.654ZM14.1566 139.564C14.2789 139.027 14.4019 138.491 14.5241 137.955C14.6746 138.452 15.3527 139.001 15.3678 139.475C15.3771 139.789 14.2906 139.633 14.1566 139.564ZM14.5496 140.299C15.611 141.132 15.7222 142.116 15.7537 143.554C14.4836 143.052 14.6659 141.586 14.5496 140.299ZM33.0085 83.5453C32.9016 83.8913 32.4467 84.9688 32.1136 84.2153C32.0071 83.974 32.7871 83.6448 33.0085 83.5453ZM32.704 82.3712C32.9663 82.0891 33.495 82.4399 33.7918 82.2122C33.9999 82.052 33.9309 81.8902 34.0287 81.7955C34.0482 81.7763 34.3309 81.094 34.4468 80.939C34.6516 80.6669 35.0978 80.4971 35.3464 80.251C36.0416 79.5639 36.434 78.6606 36.8715 77.7417C37.3932 76.6447 37.5597 76.5176 38.4013 76.015C38.9816 75.6687 39.4312 75.2448 39.9033 74.6563C40.4474 73.9784 40.4075 73.493 40.8541 72.7519C41.0749 72.3859 41.3925 72.3408 41.6495 72.046C41.9577 71.6932 42.1142 71.1994 42.3993 70.8435C42.5223 70.6893 42.9176 70.6897 42.992 70.5578C43.0871 70.3908 43.1612 69.7232 43.2503 69.6002C43.4202 69.8743 43.5907 70.1483 43.7606 70.4224C44.4313 69.0157 44.9208 67.8536 46.0425 66.9175C47.2205 65.9343 48.2374 64.4961 49.4549 63.616C49.7286 63.4183 50.2861 63.3348 50.4952 63.0435C50.8486 62.5501 50.5424 62.1115 50.8004 61.6924C51.0929 61.2174 51.6598 61.6021 52.0317 61.3972C52.5024 61.1383 52.6371 60.3812 53.2428 60.4647C51.2504 63.276 51.2751 67.6498 51.1696 71.1611C51.1237 72.674 51.9228 73.4366 50.7431 74.5465C49.7397 75.4913 48.3248 75.2109 47.1384 75.8325C45.6485 76.6131 44.0551 77.0282 42.5353 77.7086C40.963 78.4121 39.6989 79.6438 38.1859 80.4587C36.8514 81.1771 35.9404 82.1982 34.7199 83.0851C34.2663 83.4147 33.5637 83.8933 33.0226 83.4994C32.6839 83.2525 32.2617 82.8466 32.704 82.3712ZM55.2102 58.8004C55.2966 58.4009 56.9976 57.3514 57.4161 57.009C58.0439 56.494 58.9736 55.2372 59.6745 55.7366C59.9175 54.5764 60.8653 53.2856 61.7025 53.0399C62.6316 52.7667 64.225 51.817 65.139 50.9877C65.406 50.7456 65.4938 50.3916 65.8081 50.1643C66.3552 49.7688 66.8976 49.9845 67.4246 49.4456C67.5051 49.3633 68.2341 47.9278 68.2629 47.9414C68.3001 48.0956 68.3343 48.2514 68.3638 48.4081C68.9169 48.0421 69.4098 47.7509 69.7545 47.2842C69.8326 47.1784 69.3257 46.9031 69.4858 46.6938C69.6818 46.4369 70.119 46.7237 70.317 46.48C69.7012 50.1255 70.1596 54.8173 73.261 56.665C69.5729 57.1404 65.9706 55.8181 62.2369 56.6303C60.4498 57.0194 58.6329 57.6574 57.0073 58.6378C56.0112 59.2386 54.7374 61.39 53.746 60.3453C54.1394 59.7196 54.7398 59.3309 55.2102 58.8004ZM73.1052 48.3138C74.4846 46.3023 76.5765 45.506 78.6833 46.2264C81.1498 47.0701 80.1095 49.1252 79.737 51.4071C79.0253 50.1627 77.4835 48.9286 76.1705 48.8911C74.309 48.8383 75.0126 50.6876 76.1303 51.35C77.1465 51.9521 78.8893 52.1199 79.6167 53.2149C80.3246 54.28 80.0532 56.0222 80.1675 57.2783C79.617 57.1808 79.0666 57.0833 78.5161 56.9858C78.9781 54.0539 76.9448 53.9116 75.0491 53.0851C73.1334 52.2501 71.5359 50.6029 73.1052 48.3138ZM79.283 41.0939V43.8149C78.5164 43.2932 77.7492 42.7722 76.9819 42.2509C77.7492 41.8654 78.5164 41.4794 79.283 41.0939ZM85.448 62.8358C88.0087 63.6632 90.552 64.5389 93.0139 65.6807C93.9077 66.0953 94.8871 66.242 95.7632 66.7102C96.5974 67.1556 96.7227 67.1093 96.4259 67.981C95.5947 70.4236 93.6256 70.0017 91.9005 69.6282C89.2001 69.0433 86.5557 68.2323 83.8891 67.4692C81.2825 66.7242 78.621 66.2352 76.0539 65.3011C73.4195 64.3431 70.8524 63.4354 68.1426 62.8026C67.3519 62.6181 61.0961 61.9337 61.1437 61.1539C65.0834 60.5438 69.1397 61.1451 73.0972 61.2086C77.2098 61.2745 81.4587 61.5466 85.448 62.8358ZM81.9717 53.3879C82.0206 51.7084 82.0404 50.0237 82.2152 48.3541C83.3872 50.0792 84.4453 50.5957 85.9228 48.9785C87.3373 47.4309 87.6529 46.6239 89.4464 48.0789C91.0009 49.3413 92.4721 49.283 94.1232 48.1783C95.1303 47.5044 96.7489 44.751 97.8076 45.3179C98.3118 45.5879 98.6817 46.677 99.191 47.0777C99.8302 47.5795 100.813 47.9278 101.558 48.1228C103.317 48.5822 104.365 47.2331 105.47 45.7897C107.071 43.6971 107.024 44.9124 108.509 46.3634C110.165 47.9822 111.55 47.1916 113.049 45.8101C113.962 49.0017 114.304 52.487 114.563 55.8329C114.649 56.9627 114.975 58.5667 114.124 59.3657C113.524 59.929 112.251 59.951 111.528 60.2622C108.947 61.3752 106.466 62.9544 104.307 64.9755C103.466 65.7634 102.733 66.7278 101.583 66.5484C100.488 66.3774 99.4231 65.2839 98.542 64.5616C97.5858 63.7786 96.6182 62.8893 95.5008 62.4531C94.8465 62.1974 93.7982 62.2901 93.2256 61.821C92.1608 60.9497 93.4139 58.6637 93.1485 57.1292C92.9479 55.9643 92.3857 53.5353 91.0402 54.2181C89.0376 55.234 90.2029 59.2003 91.3042 60.4384C89.0514 59.9613 86.5573 59.2646 84.3846 58.3793C82.7064 57.6957 81.9114 55.4361 81.9717 53.3879ZM119.753 61.5678C124.377 60.0193 128.704 58.9754 133.517 58.6933C135.647 58.5683 137.709 58.6474 139.816 58.6701C141.029 58.6833 141.953 57.5172 140.984 56.1756C139.643 54.3183 135.553 55.0255 133.741 54.942C128.883 54.7182 124.43 55.3766 119.829 57.2859C120.316 56.2172 121.484 56.0786 122.285 55.526C123.268 54.8477 123.936 53.7303 124.356 52.4902C125.448 49.265 124.349 46.226 123.206 43.28C125.45 43.9999 127.772 45.5764 130.028 45.9767C130.501 46.0606 130.804 46.0066 131.223 46.212C131.48 46.3378 131.561 46.7733 131.879 46.8684C132.033 46.9143 132.402 46.5 132.576 46.5587C133.264 46.7905 132.72 46.852 133.155 47.1872C133.5 47.4532 133.471 47.796 134.104 47.6702C134.384 47.615 134.689 47.0977 134.836 47.0833C135.025 47.0653 134.981 46.7921 135.269 46.8716C135.793 47.017 135.747 47.822 135.922 48.2183C136.108 48.6398 135.843 49.2007 136.409 49.4316C136.831 49.6046 136.937 49.072 137.297 49.1104C137.515 49.1336 137.968 49.5083 138.161 49.7368C138.781 50.4727 139.632 51.2849 140.467 51.7635C140.385 51.6652 140.86 51.4283 140.746 51.3728C140.67 51.3356 141.17 51.4795 141.162 51.4771C141.644 51.6081 141.899 52.4906 142.142 52.8126C142.59 53.4023 143.287 54.0251 143.915 54.2856C145 54.7358 144.967 54.1973 145.364 55.7362C146.135 54.2888 146.432 56.7126 147.389 56.9794C147.885 57.1177 147.827 56.8644 148.277 57.174C148.587 57.3861 148.793 58.0357 149.026 58.3493C149.126 57.8971 149.226 57.4445 149.326 56.9926C150.016 58.5507 151.504 61.0208 153.136 60.5742C153.136 60.9993 152.989 61.5074 153.265 61.8702C153.458 62.1239 153.77 61.8358 153.921 61.9832C154.053 62.1119 154.368 62.624 154.469 62.7083C154.667 62.8745 155.028 62.9956 155.2 63.1614C155.352 63.3072 155.428 64.0035 155.596 64.2548C155.913 64.7278 156.461 64.8217 156.72 65.3886C156.78 64.8297 156.839 64.27 156.898 63.7107C157.412 64.1845 157.456 64.5521 157.582 65.2452C157.762 66.232 157.523 66.0007 158.094 66.4173C158.655 66.8268 158.948 66.7809 159.462 67.4916C159.966 68.1883 159.971 68.6174 160.698 67.8919C160.833 68.4289 160.877 69.1232 161.238 69.5347C161.511 69.8455 162.64 69.8591 162.748 70.5934C160.626 68.458 162.022 71.7012 162.749 70.599C162.903 71.7787 163.627 72.1598 164.454 73C165.225 73.783 165.352 73.7263 165.615 75.0419C165.609 75.0131 166.003 75.3039 166.031 75.3623C165.28 75.4901 166.444 76.4913 166.641 76.6742C166.785 76.8081 166.973 76.4889 167.211 76.705C167.484 76.9527 167.707 77.5152 167.929 77.8544C168.531 78.774 168.977 79.5639 169.611 80.3117C170.294 81.1187 170.627 82.1391 171.284 83.0823C172.012 84.1298 172.406 85.3339 173.016 86.4713C173.595 87.5528 174.364 88.4209 175.035 89.4113C176.104 90.9869 176.468 94.4578 178.461 94.5493C178.344 94.6931 178.507 95.769 178.526 95.9675C178.62 96.9443 178.557 97.8844 179.042 98.7689C179.153 97.7597 179.596 98.1488 179.98 98.679C180.62 99.5611 180.058 99.339 180.092 100.233C180.133 101.317 180.236 100.478 180.583 101.424C180.854 102.165 181.002 102.646 181.148 103.469C180.022 103.575 179.506 102.478 179.09 101.415C178.916 100.971 178.856 100.24 178.548 99.8927C178.22 99.5227 177.77 99.4936 177.433 99.0809C176.787 98.2879 176.507 97.0514 175.745 96.2795C174.884 95.4078 174.694 94.9959 173.982 93.9536C173.195 92.8007 172.108 91.9909 171.283 90.8758C170.456 89.7584 170.523 90.3685 169.484 89.9642C168.38 89.5335 166.594 85.3922 165.202 86.9875C165.257 85.944 163.946 84.9624 163.284 84.5844C162.998 84.421 162.664 84.5689 162.378 84.324C162.067 84.0583 162.045 83.5461 161.731 83.2269C161.731 83.2269 161.251 83.3663 161.153 83.3076C160.955 83.1878 160.953 82.7635 160.778 82.6237C160.293 82.2373 159.715 81.8322 159.2 81.5031C157.949 80.7028 156.844 79.7177 155.637 78.7545C154.602 77.9291 153.351 76.4385 152.155 76.0035C151.111 75.6235 150.455 75.8169 149.6 75.0562C149.134 74.6416 149.271 74.5025 148.523 74.2448C147.81 73.9995 147.41 74.1258 147.033 73.2249C146.372 71.6485 146.789 68.5715 146.662 66.8037C146.526 64.9276 146.365 63.0048 145.955 61.1806C145.469 59.0245 144.829 57.8975 142.889 58.4053C139.046 59.4124 135.25 60.3704 131.389 61.2549C123.697 63.0168 116.137 65.8924 108.613 68.4452C108.04 68.6402 104.843 69.5127 105.496 67.5416C105.797 66.6323 107.821 66.2935 108.498 66.0078C112.217 64.4386 115.952 62.8398 119.753 61.5678ZM118.46 57.5555C117.898 57.8108 117.337 58.0661 116.775 58.3218V56.4589C117.337 56.824 117.898 57.1896 118.46 57.5555ZM116.125 47.7053C116.614 48.1811 117.606 47.0362 118.021 46.804C118.73 46.4081 119.633 46.0678 120.425 46.1493C121.886 46.2999 122.955 48.0149 122.687 49.754C122.234 52.6959 118.719 54.087 116.78 55.2372C116.718 54.1945 116.435 52.9412 117.048 52.0396C117.581 51.2565 118.613 51.3132 119.104 50.4803C120.34 48.3873 116.991 48.1975 116.242 49.8619C115.946 48.798 115.651 47.7345 115.356 46.6706C116.069 46.53 115.755 47.345 116.125 47.7053ZM119.583 41.9469C118.886 42.4846 118.188 43.0223 117.491 43.5601C117.145 41.6988 118.323 41.4539 119.583 41.9469ZM183.136 106.727C182.222 107.247 181.994 106.005 181.337 105.952C182.113 105.383 182.113 105.383 183.136 106.727ZM186.85 133.831C186.964 135.615 186.875 137.42 187.074 139.197C187.226 140.549 187.686 141.807 187.734 143.174C187.842 146.168 186.994 149.217 185.281 151.412C183.661 153.488 181.344 155.275 179.157 156.148C178.172 156.541 177.144 157.413 176.187 157.735C175.128 158.091 174.122 157.316 173.249 158.707C172.666 152.738 173.092 146.5 173.046 140.493C173 134.473 173.054 128.451 172.2 122.496C171.44 117.192 169.94 111.226 167.177 106.887C166.054 105.125 164.672 103.682 163.214 102.331C162.458 101.631 161.701 100.881 160.859 100.328C159.562 99.4756 158.458 99.5934 157.048 99.3505C155.03 99.0034 153.154 98.7097 151.128 99.3873C149.243 100.018 147.166 100.737 145.477 101.833C143.795 102.925 141.841 103.376 140.094 104.354C138.906 105.019 136.438 107.242 135.12 106.842C133.844 106.454 131.955 103.872 131.14 102.715C130.099 101.237 129.238 99.5235 128.314 97.9327C127.99 97.3746 127.328 96.5113 127.244 95.7942C127.098 94.5497 127.516 94.9564 128.513 95.0954C131.077 95.4542 133.488 96.0215 135.945 96.9839C137.168 97.4625 139.559 99.3997 140.782 98.2387C142.649 96.4665 139.812 93.4203 138.773 92.3972C137.003 90.6533 134.944 89.3585 133.057 87.8088C131.052 86.1625 128.401 84.4094 127.11 81.8742C130.878 83.2005 134.643 84.7195 138.301 86.4297C139.974 87.212 141.629 88.0386 143.201 89.0789C144.084 89.6629 145.868 91.2434 146.931 90.4863C149.242 88.8412 143.934 84.0627 143.168 83.0863C141.977 81.569 140.811 80.066 139.503 78.6893C138.621 77.7605 137.234 77.1073 136.824 75.7374C138.289 76.3698 139.473 77.6083 140.845 78.4496C141.563 78.8907 142.218 79.1444 143.011 79.2794C143.857 79.4236 143.957 79.5842 144.623 79.9849C145.142 80.2977 145.675 80.7152 146.258 80.9278C146.673 81.0796 147.398 81.1055 147.76 81.3864C147.946 81.7016 148.137 82.012 148.335 82.3164C148.556 82.3944 148.774 82.4834 148.989 82.5853C149.311 82.9273 149.502 83.3991 149.815 83.7519C152.086 86.3135 155.125 88.1468 157.672 90.293C160.081 92.3232 162.638 94.1598 164.953 96.3754C167.616 98.9259 170.38 101.667 172.645 104.725C173.926 106.453 174.978 108.413 176.053 110.324C176.832 111.708 177.964 112.856 178.637 114.283C180.105 117.394 181.323 120.756 182.902 123.817C184.512 126.936 186.609 130.035 186.85 133.831ZM165.202 151.881C165.641 149.722 168.117 147.201 169.699 146.249C168.902 148.602 166.777 150.206 165.202 151.881ZM169.285 159.413C167.935 162.751 162.001 163.133 162.806 158.192C163.2 155.771 164.875 154.286 166.312 152.702C166.977 151.97 168.604 149.351 169.632 149.772C169.584 151.655 169.491 153.547 169.495 155.429C169.497 156.687 169.762 158.231 169.285 159.413ZM167.57 120.93C168.117 122.396 168.662 123.618 167.647 124.929C167.188 125.521 165.695 126.817 165.019 126.529C162.85 125.606 166.985 121.59 167.57 120.93ZM154.45 107.883C154.972 107.849 155.479 107.941 155.996 107.904C156.51 107.866 156.564 107.757 157.041 107.834C157.091 107.922 157.142 108.009 157.192 108.096C157.257 108.681 157.515 108.745 157.965 108.287C158.591 108.453 158.998 108.564 159.596 108.967C157.981 110.356 156.015 111.97 154.035 112.436C150.905 113.173 151.769 108.059 154.45 107.883ZM106.469 139.113C106.144 139.892 105.211 137.946 104.98 137.584C105.411 137.582 106.797 138.327 106.469 139.113ZM131.617 118.621C134.048 116.929 136.936 115.443 139.548 114.183C140.007 116.822 137.768 120.227 136.388 122.033C135.273 123.493 133.928 125.007 132.415 125.847C130.78 126.756 128.993 126.357 129.072 123.807C129.101 122.876 129.279 121.377 129.597 120.526C130.007 119.428 130.783 119.2 131.617 118.621ZM98.7457 70.6281C99.1075 70.603 103.039 69.9969 103.018 70.5802C102.956 72.3332 99.1404 70.9565 98.7457 70.6281ZM70.9436 104.481C73.0201 101.426 76.3725 98.1285 76.4214 93.8585C76.4938 87.5751 70.646 90.71 67.7061 90.9713C69.2607 89.15 77.0727 81.5086 72.4519 78.7948C71.1238 78.0146 69.2359 78.7768 67.9031 79.1855C65.5384 79.9106 63.3399 81.1667 61.0167 82.0404C62.6768 79.9334 65.5448 77.5388 65.4509 74.3479C65.336 70.4635 62.6621 71.4028 60.35 71.9725C59.4615 72.1918 55.4923 74.0747 54.7465 72.7962C54.4734 72.328 54.9153 71.7332 55.0088 71.3161C55.1743 70.5786 55.1231 70.3209 55.1288 69.5674C55.1401 68.0473 55.9871 66.0949 55.2963 64.6811C55.1385 65.0023 55.0031 65.3367 54.8905 65.6838C54.6627 64.8613 54.8158 63.9884 54.588 63.1654C60.3604 64.926 66.2326 65.8896 72.0411 67.3921C74.9818 68.1528 77.7492 69.4624 80.73 70.052C83.7363 70.6461 86.6903 71.5558 89.702 72.1227C92.45 72.6392 95.0827 73.5002 97.8039 74.1602C100.457 74.8038 103.177 73.3935 105.766 72.6792C111.566 71.08 117.363 69.4416 123.17 67.8899C129.87 66.0981 136.841 64.5668 143.255 61.5793C143.379 65.5612 143.646 69.5355 144.054 73.4902C141.222 71.8934 137.018 69.8111 134.155 72.6684C133.008 73.8114 132.655 75.7849 133.108 77.4637C133.601 79.291 135.111 80.1395 136.108 81.515C133.075 80.5878 125.252 74.0519 123.859 80.6585C122.876 85.3247 127.674 88.3386 130.019 90.9649C127.69 90.4212 124.57 88.2004 123.202 91.7695C122.02 94.8553 123.444 98.2127 124.902 100.758C125.693 102.137 126.582 103.434 127.422 104.77C127.866 105.477 128.3 106.194 128.767 106.88C129.235 107.567 130.118 108.288 130.447 109.028C131.107 110.521 129.774 110.612 128.737 111.152C127.443 111.825 126.331 112.956 125.147 113.857C122.437 115.921 120.067 117.838 116.864 118.498C113.566 119.176 110.39 119.885 107.135 120.833C103.891 121.777 101.242 122.684 97.9259 121.464C96.4138 120.907 95.1822 120.413 93.5784 120.518C91.8938 120.627 90.9088 120.523 89.5238 119.279C83.5641 113.926 77.0949 109.534 70.9436 104.481ZM60.1989 99.1076C62.5023 97.7297 64.8211 96.3447 67.2005 95.1609C69.1699 94.1801 72.1604 93.038 74.3164 93.4678C73.7086 95.3295 72.5997 96.8568 71.4099 98.2275C70.3579 99.44 69.0436 101.27 67.7707 102.116C66.6145 102.884 65.2697 101.667 64.1295 101.158C62.8768 100.598 61.1527 100.337 60.1989 99.1076ZM60.7778 106.06C61.9257 105.491 64.3926 107.4 65.4365 107.896C67.4883 108.872 69.5511 109.891 71.3593 111.43C69.1514 114.472 66.6511 117.254 63.6799 119.208C61.7253 120.494 58.4305 121.969 56.5865 119.634C54.27 116.7 57.0549 110.723 58.6949 108.209C58.7492 108.639 58.8038 109.069 58.8584 109.499C59.3817 108.5 59.7811 106.554 60.7778 106.06ZM102.918 132.1C101.485 132.46 100.999 132.135 100.053 130.825C99.4144 129.94 98.7866 129.021 98.0659 128.225C97.3305 127.413 95.5146 125.455 97.8284 126.582C99.9374 127.61 101.744 128.124 104.064 127.721C106.718 127.261 109.191 125.923 111.807 125.246C110.373 126.743 108.949 128.254 107.513 129.746C105.995 131.322 104.846 131.615 102.918 132.1ZM103.245 144.134C100.107 146.95 93.7888 146.646 95.9153 140.449C96.2383 139.508 96.6902 138.623 97.2132 137.821C97.3874 137.553 97.6977 136.998 97.9463 136.819C98.6405 136.317 98.4478 136.256 99.1152 137.093C99.6908 137.815 104.19 143.714 103.245 144.134ZM102.315 133.368C102.602 133.257 103.813 132.419 104.089 132.883C104.369 133.352 101.994 134.974 102.315 133.368ZM125.16 176.316C124.455 178.329 118.808 181.244 119.86 177.185C120.326 175.388 120.765 174.027 122.523 173.89C123.538 173.812 125.782 174.543 125.16 176.316ZM135.29 149.034C136.22 147.42 139.29 145.237 140.601 147.644C141.232 148.804 139.7 149.398 138.773 149.1C138.275 148.939 137.868 148.585 137.327 148.558C136.632 148.524 135.952 149.175 135.29 149.034ZM137.755 150.636C137.123 151.399 133.31 155.225 132.693 154.634C133.938 152.512 135.367 150.142 137.755 150.636ZM131.528 189.347C130.204 189.437 130.865 187.057 130.993 186.106C131.314 186.769 132.999 189.248 131.528 189.347ZM134.892 185.083C134.464 184.175 133.31 182.822 133.571 181.653C133.77 180.759 135.571 179.557 136.326 180.07C137.327 180.751 135.875 185.234 134.892 185.083ZM166.306 175.554C165.74 177.881 165.153 177.28 163.377 177.731C161.595 178.184 160.364 179.987 158.795 180.955C159.34 179.582 159.678 177.908 160.59 176.793C160.801 176.536 162.094 176.028 161.357 175.432C160.713 174.911 159.788 176.602 159.511 177.063C158.153 179.331 157.202 182.1 156.418 184.71C156.032 185.992 155.723 187.298 155.541 188.644C155.378 189.843 155.553 191.098 155.388 192.266C155.121 194.148 152.977 194.157 151.688 194.642C150.521 195.082 149.36 195.558 148.149 195.794C147.099 195.999 146.009 195.626 144.992 195.872C143.89 196.139 143.395 196.919 142.142 196.743C141.121 196.599 140.166 196.039 139.131 195.983C138.162 195.931 137.196 196.331 136.233 196.006C135.262 195.677 135.309 195.55 135.53 194.412C135.668 194.719 135.806 195.026 135.945 195.333C136.332 194.971 136.6 193.867 136.837 193.348C137.205 192.545 137.505 192.268 137.369 191.268C137.168 189.791 136.051 188.74 135.798 187.335C135.533 185.869 136.442 184.67 136.98 183.446C137.714 181.771 137.704 180.529 137.089 178.797C137.553 178.942 138.017 179.089 138.481 179.235C137.845 177.588 135.687 178.256 134.605 178.744C134.062 178.989 133.2 179.952 132.615 179.928C131.811 179.894 131.391 178.634 131.046 177.94C130.046 175.931 128.904 173.948 127.722 172.083C127.396 171.571 126.97 171.241 127.083 170.657C127.178 170.161 128.111 169.457 128.413 169.152C129.548 168.008 130.992 167.374 132.057 166.17C133.668 164.351 135.525 163.047 137.171 161.263C138.887 159.406 140.654 157.699 142.441 155.944C144.252 154.165 145.82 152.07 147.618 150.273C148.083 151.28 148.986 154.883 150.017 155.162C151.22 155.487 151.185 153.79 151.125 152.768C151.039 151.313 150.362 149.899 150.286 148.51C150.205 147.023 151.404 146.36 152.309 145.5C153.707 144.172 156.8 141.148 155.137 138.659C153.705 136.515 149.047 140.626 147.763 141.862C146.672 142.912 145.829 143.862 144.601 144.691C143.737 145.273 142.288 147.512 141.264 147.306C140.046 147.06 139.57 145.474 138.081 145.526C136.624 145.577 135.388 146.827 134.485 148.083C132.444 150.92 131.743 154.718 129.882 157.676C128.965 159.134 127.776 160.338 126.781 161.718C125.689 163.233 125.457 164.978 124.38 166.46C121.297 161.563 117.939 156.927 114.689 152.191C113.065 149.826 111.476 147.433 109.887 145.036C109.292 144.137 108.621 143.293 108.076 142.349C107.329 141.056 107.463 140.018 107.17 138.576C107.04 137.937 106.431 137.172 106.594 136.561C106.814 135.74 108.352 135.096 108.907 134.76C111.173 133.388 113.228 131.674 115.341 129.999C119.254 126.896 123.212 123.986 127.374 121.337C127.302 122.478 126.679 123.662 127.097 124.807C127.292 124.148 127.601 121.212 128.339 121.086C128.197 121.11 128.313 124.851 128.428 125.385C128.768 126.979 129.756 128.069 131.17 128.058C133.863 128.037 136.276 124.545 137.771 122.231C138.782 120.665 139.754 118.843 140.11 116.882C140.431 115.122 140.079 113.897 141.613 113.004C144.762 111.17 147.936 109.676 151.303 108.703C151.153 110.434 150.732 112.564 152.051 113.809C153.507 115.183 155.412 113.958 156.783 113.049C158.141 112.149 160.234 109.677 161.829 110.395C163.398 111.101 164.49 113.447 165.368 115.005C166.141 116.378 166.984 117.368 166.087 118.898C165.083 120.613 164.429 122.287 163.624 124.15C163.315 124.866 163.02 125.334 163.239 126.067C163.31 126.305 164.116 127.723 164.335 127.926C165.732 129.223 167.619 126.757 168.616 125.821C168.968 129.852 169.047 133.865 169.188 137.909C169.293 140.871 170.254 143.787 168.216 145.952C166.178 148.116 164.477 150.338 163.235 153.269C162.572 154.834 161.977 156.441 161.259 157.974C160.78 158.998 159.769 160.5 160.387 161.706C161.04 160.967 161.235 159.844 161.779 159.011C162.105 160.74 162.433 162.658 163.967 163.391C165.732 164.234 167.486 162.775 169.049 161.963C168.489 166.586 167.395 171.078 166.306 175.554ZM164.502 180.868C163.29 183.955 162.197 187.677 159.96 189.95C159.469 190.449 157.382 192.397 156.588 192.071C155.914 191.794 156.284 190.17 156.402 189.474C156.998 185.941 158.029 183.718 160.431 181.465C161.425 180.532 162.702 179.339 163.984 179.109C165.364 178.862 164.967 179.682 164.502 180.868ZM198.667 254.14C195.526 249.047 191.088 245.09 186.893 241.265C184.993 239.532 182.9 238.232 180.98 236.499C178.81 234.539 176.606 232.649 174.174 231.172C169.566 228.372 164.538 226.42 160.188 223.108C158.067 221.494 155.747 219.933 153.753 218.12C152.876 217.323 152.103 216.304 151.311 215.392C150.576 214.545 148.997 213.314 148.704 212.074C149.928 211.835 150.624 210.419 151.717 210.274C152.076 210.226 154.331 210.937 154.023 209.634C154.841 209.609 154.936 209.595 155.621 209.381C155.905 209.293 156.242 209.431 156.529 209.31C156.968 209.125 157.266 208.591 157.71 208.387C158.025 208.241 159.196 208.403 159.374 208.222C159.858 207.729 159.343 207.773 159.054 207.156C159.996 207.127 160.643 207.695 161.587 207.091C161.874 206.908 162.117 206.484 162.396 206.265C162.89 205.875 163.069 206.479 163.407 205.671C163.724 206.786 163.715 206.477 164.478 206.149C165.238 205.823 165.787 205.587 166.653 205.505C168.722 205.31 170.798 205.609 172.856 205.434C173.61 205.37 174.253 205.166 175.002 205.283C175.66 205.387 175.462 205.933 176.01 205.197C176.137 205.026 175.726 204.558 175.923 204.312C176.01 204.203 176.293 204.28 176.401 204.224C177.363 203.723 177.368 204.423 177.539 205.335C178.103 205.177 178.679 205.034 179.17 204.64C178.922 204.376 178.507 204.085 178.746 203.603C179.561 203.971 180.093 203.801 179.686 204.867C180.505 205.19 180.658 204.769 181.394 204.677C181.829 204.623 182.437 204.945 182.799 204.53C183.195 204.078 182.571 203.586 183.298 203.197C183.447 203.288 183.557 203.424 183.63 203.607C184.022 203.748 183.952 203.933 183.418 204.159C184.848 205.044 184.512 204.055 185.112 203.01C185.251 202.769 185.872 202.021 186.155 202.382C186.585 202.93 185.708 203.105 185.896 203.65C186.222 204.595 187.358 203.384 187.707 202.905C187.971 202.543 188.078 201.85 188.363 201.58C188.758 201.204 189.326 201.784 189.821 201.681C192.081 201.208 194.214 197.585 192.512 195.16C192.055 194.509 191.668 194.638 191.122 194.227C190.583 193.82 190.281 193.117 189.849 192.536C188.861 191.21 187.652 190.217 186.272 189.582C183.07 188.109 179.62 187.035 176.257 186.244C174.7 185.878 173.042 185.318 171.448 185.322C170.509 185.324 169.094 186.195 168.216 185.778C166.508 184.967 169.015 180.814 169.429 179.473C170.644 175.533 171.56 171.331 172.161 167.194C172.279 166.385 172.234 165.336 172.478 164.565C172.759 163.678 172.819 163.803 173.42 163.731C174.506 163.6 175.693 164.279 176.823 164.044C178.076 163.785 179.43 163.905 180.694 163.443C181.276 163.231 181.815 163 182.197 162.415C182.318 162.232 182.184 162.072 182.26 161.944C182.283 161.903 182.716 161.347 182.73 161.315C182.726 161.027 182.746 160.742 182.793 160.459C183.231 160.893 183.015 161.803 183.754 161.824C183.886 160.854 183.887 160.658 184.421 160.112C184.38 160.154 184.823 159.705 184.766 159.753C184.793 159.58 184.846 159.419 184.926 159.27C185.175 159.126 185.439 159.049 185.717 159.041C186.294 158.333 186.055 157.956 186.055 157.003C186.52 157.291 186.986 157.58 187.452 157.868C187.565 155.046 189.006 153.5 189.964 151.212C190.372 150.237 190.788 149.476 190.885 148.3C190.941 147.622 190.795 147.023 191.03 146.384C191.244 145.804 191.722 145.491 191.921 144.859C192.314 143.616 192.021 142.029 192.043 140.738C192.073 138.947 192.223 137.162 192.272 135.372C192.368 131.859 192.072 128.248 191.631 124.775C191.42 123.114 191.067 121.502 190.79 119.858C190.563 118.508 190.017 117.24 189.822 115.984C189.741 115.461 189.867 114.993 189.735 114.415C189.56 113.656 189.27 112.909 189.053 112.164C188.548 110.422 188.049 108.683 187.481 106.968C186.379 103.645 185.09 100.422 183.866 97.1629C182.688 94.0287 181.712 90.7971 180.186 87.8708C178.683 84.9883 177.065 82.1542 175.409 79.3949C173.684 76.5216 171.503 74.0527 169.829 71.1527C166.688 65.7078 162.306 61.221 157.722 57.516C148.262 49.8702 138.039 42.2365 126.696 39.6149C124.986 39.2202 123.255 38.9462 121.513 38.895C120.431 38.8631 118.64 39.4863 117.617 39.05C116.47 38.5611 116.575 37.0258 116.288 35.8216C115.919 34.2732 115.087 33.2592 114.141 32.1646C113.146 31.0124 112.243 29.6669 111.002 28.8834C109.745 28.09 108.261 27.7932 106.868 27.5535C105.624 27.3386 103.765 27.5391 102.628 26.8927C101.593 26.3038 102.104 25.6906 103.074 26.1948C103.145 25.685 103.202 25.3558 103.476 24.9619C103.613 24.7637 104.263 24.4861 104.279 24.3011C104.298 24.085 103.753 23.4689 103.674 23.1899C103.507 22.5892 103.602 21.7572 103.801 21.1933C104.778 22.2292 105.061 22.688 106.153 21.6978C106.613 21.2797 106.755 21.0954 107.288 20.8844C107.433 20.8271 107.758 21.004 107.884 20.9048C108.366 20.5262 107.923 20.6154 108.152 20.1678C108.094 20.2808 108.499 19.0913 108.48 19.34C108.529 18.7065 108.686 18.9012 108.366 18.1227C107.737 16.5999 106.137 16.5376 106.953 14.7997C107.273 14.1159 107.556 14.184 107.646 13.1926C107.695 12.6595 107.635 12.0483 107.633 11.5061C107.629 10.3972 107.804 9.62083 106.932 9.05621C106.095 8.51316 105.322 9.10894 104.982 7.76209C104.626 6.34888 104.985 4.53704 103.701 3.56928C102.762 2.86224 101.408 3.46673 100.371 3.12092C99.3323 2.77463 98.3768 1.50712 97.3225 2.48027C96.5733 3.17198 96.176 4.87251 94.7644 3.95289C94.1272 3.53816 93.7767 2.14565 93.3747 1.36473C92.7348 0.120036 92.2215 -0.329607 91.2365 0.882691C90.6294 1.63044 89.3492 3.45055 89.2708 4.48559C89.185 5.62813 90.021 6.10558 88.9713 6.78146C87.9273 7.45403 87.3417 6.96084 86.494 8.32591C85.6534 9.68019 86.304 10.4283 85.3304 11.7241C84.1129 13.3437 83.4653 14.0428 83.4824 16.225C83.4941 17.7217 82.3851 19.0145 83.0321 20.4344C83.7571 22.0257 85.8732 22.6875 87.156 23.3352C86.7279 24.2789 86.1402 24.884 86.6401 25.8552C87.0931 26.7349 88.3732 26.9179 89.167 26.7581C89.7007 26.6506 89.7198 26.7473 90.1399 26.2994C90.4153 26.0066 90.0377 25.6407 90.6046 25.4785C91.2077 25.3047 92.1712 26.7145 92.5629 27.0673C91.6874 28.422 89.2832 28.6753 88.0111 29.3616C87.2361 29.7807 86.5235 30.4004 85.7342 30.7747C85.0182 31.1143 84.1467 31.0356 83.4974 31.5609C82.3764 32.4686 81.9097 34.717 81.2225 36.039C80.4446 37.5355 79.6904 38.2303 78.1978 38.5411C76.336 38.9282 74.8367 39.084 73.1002 40.0508C70.9797 41.2317 68.8894 42.4782 66.8068 43.7514C63.4477 45.8045 60.3272 47.9119 57.208 50.3948C53.9447 52.9932 50.7706 55.705 47.6219 58.4196C44.5074 61.1047 41.8927 64.4078 39.1873 67.6546C37.0005 70.2794 35.0814 73.1126 32.903 75.7366C30.3312 78.8352 28.4396 82.7455 26.0551 86.0322C24.7505 87.8304 23.5022 89.5986 22.6837 91.7168C22.0203 93.4343 20.8664 95.119 20.0962 96.9204C19.1122 99.2235 18.1807 101.49 17.0758 103.717C16.6225 104.631 16.0837 105.415 15.6053 106.288C14.9922 107.405 15.0284 108.484 14.8635 109.772C14.6913 109.457 14.5194 109.143 14.3472 108.829C14.035 109.642 13.6577 110.442 13.3874 111.274C13.2148 111.805 13.2419 112.559 13.0687 113.024C12.8513 113.607 12.5866 113.529 12.3156 114.015C12.0258 114.535 11.9323 115.232 11.6271 115.789C10.3067 118.198 9.79876 121.253 9.12031 124.001C8.21035 127.687 8.35374 131.924 8.40333 135.725C8.45593 139.739 8.63987 143.754 9.14611 147.727C9.60478 151.324 10.5851 154.775 12.1199 157.929C13.4574 160.677 15.3014 162.279 17.6638 163.687C18.7486 164.333 19.7554 164.134 20.8939 164.237C22.1412 164.35 22.9919 164.754 24.3116 164.399C24.9445 164.228 25.2444 163.678 25.7472 163.495C26.0585 163.382 26.2264 163.567 26.5252 163.524C26.9527 163.462 27.8419 163.212 28.3056 163.272C29.7486 163.46 29.5064 166.061 29.6484 167.389C29.8669 169.435 30.0267 171.502 30.3215 173.535C30.941 177.81 32.2788 181.804 33.0692 186.006C29.4052 186.539 26.2622 187.354 22.8281 189.008C19.3829 190.667 15.8995 191.23 12.2737 192.054C8.88176 192.826 5.61916 194.267 2.90401 196.879C1.63154 198.102 0.309478 199.534 1.2439 201.549C1.84161 202.837 2.91876 203.165 3.84849 203.914C4.03644 203.63 3.49301 203.03 3.3935 202.863C4.17515 203.054 4.15136 203.49 4.72227 203.868C5.22114 204.199 5.62955 204.187 6.17566 204.421C7.50911 204.992 8.16445 206.418 9.48249 206.818C9.89726 206.944 10.4397 207.245 10.8635 207.33C11.3731 207.433 11.7544 207.167 12.2707 207.28C12.5491 207.499 12.8506 207.655 13.1743 207.749C13.3867 207.631 13.5964 207.507 13.8031 207.376C14.5449 207.468 15.0029 208.024 15.6056 208.481C15.6458 207.906 15.5879 207.308 16.0449 206.932C16.2235 207.492 15.935 207.846 16.4221 208.232C17.0393 208.72 17.8497 208.11 18.4022 207.801C18.5587 209.663 22.1727 209.553 23.3182 209.526C24.9046 209.49 26.4894 208.739 28.0898 209.158C28.9063 209.372 29.7778 209.595 30.5906 209.872C31.5692 210.205 32.7522 210.503 33.7155 210.924C34.0987 211.091 34.5678 211.627 34.9755 211.591C35.3002 211.562 35.3873 210.991 35.7652 211.007C36.1927 211.026 36.3365 211.594 36.7063 211.765C37.2605 212.021 37.7698 211.535 38.2961 211.78C38.4854 211.868 38.7417 212.246 38.9839 212.37C39.3515 212.556 40.0792 212.559 40.4883 212.649C41.0682 212.777 41.5875 212.691 42.0844 212.733C42.4851 212.768 42.4764 213.089 42.668 213.11C42.8881 213.134 43.2711 212.232 43.5666 212.1C43.9968 211.907 44.7778 212.366 45.2167 212.446C42.0375 217.585 38.2043 222.126 34.0492 226.103C29.5674 230.393 24.9777 234.677 20.1715 238.44C15.8077 241.856 11.5835 244.811 8.2003 249.634C5.34745 253.701 0.806341 258.052 1.50624 263.945C2.2058 269.835 7.56875 272.232 11.8659 273.356C17.2708 274.77 22.8344 274.201 28.2537 274.996C30.5648 275.335 33.1325 275.154 35.459 274.865C38.2066 274.524 40.5616 272.386 42.924 270.84C47.1729 268.058 50.8054 264.337 54.9907 261.469C60.231 257.878 65.4161 254.073 71.161 251.668C73.8336 250.549 76.5849 249.272 78.7409 246.97C79.0619 246.628 79.3008 246.111 79.6633 245.829C80.2794 245.349 80.4446 245.835 80.8024 245.69C81.0775 245.579 81.3441 245.224 81.582 245.118C82.1848 244.848 82.4538 244.959 83.1289 244.959C82.5496 244.561 82.0192 243.534 82.6206 242.698C83.6499 241.265 83.8275 243.555 84.2141 244.086C84.5421 243.583 84.4164 243.136 84.3327 242.565C84.6094 242.783 84.8868 243.001 85.1639 243.219C84.9729 242.114 85.1545 241.097 85.6454 240.134C86.098 239.247 86.2099 239.372 86.3345 238.142C87.7407 239.673 88.0154 235.958 88.1421 234.604C88.2644 233.291 88.1434 232.348 88.8678 231.199C89.6454 229.966 90.8277 229.187 91.8148 228.229C93.374 226.716 95.0898 224.804 97.2461 226.255C98.948 227.402 99.8744 230.211 101.472 231.655C102.44 232.531 103.463 232.619 104.08 233.977C104.579 235.075 104.742 236.389 105.213 237.516C106.355 240.248 107.998 243.375 109.874 245.471C111.619 247.422 113.86 247.412 115.903 248.622C117.925 249.82 120.026 251.118 122.166 251.986C124.504 252.934 127.025 253.337 129.301 254.486C130.471 255.077 131.518 255.967 132.699 256.533C133.973 257.143 135.315 257.573 136.605 258.131C141.719 260.346 146.724 263.063 152.096 264.29C154.479 264.834 156.685 266.314 159.085 266.625C160.115 266.759 160.954 266.928 161.962 267.235C163.542 267.717 163.208 267.973 163.79 269.544C164.748 272.131 167.087 270.599 168.89 270.664C171.777 270.768 174.619 270.211 177.501 270.185C182.54 270.139 187.393 269.461 192.268 267.489C197.162 265.508 202.734 260.735 198.667 254.14Z" fill="black"/>
<path fill-rule="evenodd" clip-rule="evenodd" d="M140.412 52.0156C140.643 52.1465 140.481 52.0971 140.412 52.0156Z" fill="black"/>
<path fill-rule="evenodd" clip-rule="evenodd" d="M51.6413 162.198C52.7359 160.875 57.3929 161.143 57.745 163.509C58.1374 166.15 53.9762 170.139 52.4531 171.257C50.4935 172.696 48.1013 172.966 48.4487 169.352C48.7114 166.623 50.0827 164.081 51.6413 162.198ZM55.4872 159.475C55.6293 160.207 54.5826 159.958 54.2945 159.784C54.1585 159.452 55.3452 158.741 55.4872 159.475ZM47.4564 164.318C48.3851 164.418 49.4495 162.641 50.1504 162.036C50.46 162.606 48.4176 165.745 48.1928 166.46C47.6316 168.249 47.3193 170.51 48.0846 172.294C50.3206 177.509 56.043 170.062 57.4743 167.461C58.4758 165.642 59.169 163.386 57.7544 161.604C57.2509 160.968 56.419 160.792 55.9512 160.189C55.3354 159.395 55.8199 158.37 54.5819 158.543C53.7276 158.663 52.702 159.582 51.8715 159.915C50.8704 160.315 49.9705 160.731 49.0967 161.473C48.8997 161.64 46.3088 164.195 47.4564 164.318Z" fill="black"/>
<path fill-rule="evenodd" clip-rule="evenodd" d="M113.106 166.069C112.522 169.652 109.545 173.327 106.412 173.47C103.292 173.611 102.282 169.714 102.833 166.607C103.303 163.958 105.223 159.355 107.963 159.862C110.117 160.26 113.607 162.998 113.106 166.069ZM111.12 160.081C109.142 158.256 106.409 157.411 104.116 158.859C103.364 159.334 100.364 161.428 101.277 162.846C102.508 161.708 103.571 160.129 105.17 159.751C104.901 161.23 103.365 162.56 102.823 164.001C102.191 165.683 101.844 167.608 101.948 169.457C102.133 172.748 103.981 175.305 106.843 174.852C109.463 174.438 111.753 172.044 113.003 169.352C114.671 165.758 113.731 162.49 111.12 160.081Z" fill="black"/>
<path fill-rule="evenodd" clip-rule="evenodd" d="M92.7502 174.213C91.3417 176.7 89.1941 179.039 86.7111 179.807C83.4964 180.801 84.3997 177.633 85.3602 175.36C86.2096 173.35 87.6666 169.893 89.8856 169.912C90.6388 169.917 92.0412 170.351 92.7013 170.832C94.0022 171.779 93.4916 172.905 92.7502 174.213ZM89.7499 168.748C90.2555 168.077 92.4935 165.199 92.7934 167.442C93.436 166.553 92.9291 165.816 92.1062 165.722C91.1139 165.609 90.0287 166.927 89.3123 167.582C87.8382 168.929 86.7034 170.309 85.7264 172.198C84.6493 174.28 81.903 178.986 84.3065 181.052C86.9044 183.285 90.6857 179.161 92.3126 177.034C93.3529 175.673 94.7309 173.675 94.3352 171.68C93.8494 169.229 91.4589 168.972 89.7499 168.748Z" fill="black"/>
<path fill-rule="evenodd" clip-rule="evenodd" d="M78.6648 128.673C77.2111 130.651 74.2581 133.533 71.8247 133.193C69.6054 132.883 70.4718 129.913 71.2571 128.476C72.4371 126.315 74.0178 124.287 76.3018 124.169C77.2878 124.118 78.5656 124.142 79.3292 125.032C80.3722 126.248 79.4331 127.628 78.6648 128.673ZM78.5104 123.178C76.8074 122.476 76.1383 122.209 74.4832 123.325C73.1541 124.22 71.9755 125.486 71.0635 126.924C69.6985 129.075 68.3219 133.915 71.8267 134.521C75.6712 135.185 84.8161 125.778 78.5104 123.178Z" fill="black"/>
<path fill-rule="evenodd" clip-rule="evenodd" d="M83.7504 135.527C82.6444 136.874 81.2637 137.973 79.6877 138.348C80.3544 136.575 81.843 132.699 83.608 132.159C84.4211 131.91 85.3482 132.236 85.2815 133.341C85.2329 134.14 84.1866 134.995 83.7504 135.527ZM85.1739 130.838C84.2583 130.291 84.5471 129.917 83.4817 130.346C82.6421 130.684 81.583 131.271 80.8838 131.947C80.5025 132.316 79.3148 133.624 79.4602 134.29C79.7235 135.5 80.6094 133.646 80.8422 133.289C81.2413 133.677 79.2006 137.159 79.0793 137.732C78.6266 139.866 80.0315 140.092 81.4081 139.393C83.2646 138.453 88.7622 132.982 85.1739 130.838Z" fill="black"/>
<path fill-rule="evenodd" clip-rule="evenodd" d="M112.394 188.259C112.531 186.844 112.725 185.348 113.814 184.554C114.795 183.838 115.811 183.942 115.957 185.41C116.092 186.774 114.971 189.196 114.065 189.94C112.803 190.976 112.559 189.685 112.394 188.259ZM114.015 191.478C116.607 189.67 118.24 181.377 113.463 183.701C110.749 185.022 111.747 193.06 114.015 191.478Z" fill="black"/>
<path fill-rule="evenodd" clip-rule="evenodd" d="M91.8827 157.091C92.2915 156.092 92.7589 155.761 93.5878 155.323C93.0353 155.945 92.4707 156.52 91.8827 157.091ZM92.4808 154.629C91.8938 155.332 90.5486 156.402 90.7372 157.609C90.9091 158.71 91.6144 158.646 92.254 158.303C93.5951 157.584 94.3416 154.436 95.7447 154.142C94.1885 152.965 93.8253 153.02 92.4808 154.629Z" fill="black"/>
<path fill-rule="evenodd" clip-rule="evenodd" d="M92.6868 92.1141C92.7616 95.4663 92.8272 98.8181 92.8892 102.17C92.911 103.349 92.6751 105.028 92.9716 106.157C93.1026 106.654 94.2867 108.809 94.7068 108.948C96.1766 109.436 95.6516 105.042 95.6617 103.96C95.6975 100.31 95.6526 96.6552 95.6402 93.0049C95.6332 91.1237 96.0788 75.3504 94.0317 75.4275C93.6792 75.4407 92.8105 77.2441 92.6798 77.6056C92.2684 78.741 92.4198 80.4241 92.4292 81.6346C92.457 85.1263 92.6091 88.6228 92.6868 92.1141Z" fill="black"/>
<path fill-rule="evenodd" clip-rule="evenodd" d="M105.081 101.886C105.196 102.813 105.136 104.358 106.011 104.839C106.772 105.257 107.064 104.76 107.348 103.983C108.003 102.196 107.767 99.465 107.755 97.6177C107.731 93.9567 107.385 90.3112 107.146 86.6641C107.041 85.0637 107.259 83.4565 107.091 81.7817C107.018 81.0471 106.944 78.0907 105.802 78.2285C104.769 78.3528 104.862 81.451 104.806 82.2492C104.337 88.8945 104.256 95.2527 105.081 101.886Z" fill="black"/>
<path fill-rule="evenodd" clip-rule="evenodd" d="M153.836 178.196C153.398 180.864 146.255 190.158 144.457 184.961C143.39 181.876 145.703 178.519 147.506 176.734C148.622 175.629 150.017 174.545 151.538 174.88C152.83 175.164 154.113 176.501 153.836 178.196ZM150.147 173.409C149.643 173.551 145.426 177.082 145.387 177.035C145.021 176.597 147.681 171.87 147.954 171.456C150.209 168.05 151.706 170.629 153.116 173.307C152.816 171.707 151.99 169.386 150.609 168.709C148.866 167.855 147.506 169.963 146.668 171.478C145.482 173.62 144.829 175.945 144.17 178.362C143.856 179.515 143.498 180.56 142.966 181.599C142.441 182.625 141.523 183.755 141.658 185.052C142.405 184.558 142.801 183.59 143.271 182.792C143.796 183.045 143.616 185.039 143.722 185.547C143.99 186.823 144.721 187.821 145.851 188.04C147.958 188.449 150.233 186.125 151.642 184.546C153.126 182.882 154.724 180.602 154.711 178.042C154.698 175.366 152.491 172.747 150.147 173.409Z" fill="black"/>
<path fill-rule="evenodd" clip-rule="evenodd" d="M155.86 130.524C154.664 132.706 152.567 135.321 150.347 135.828C148.718 136.2 147.643 134.76 148.297 132.816C148.85 131.174 150.734 130.136 151.968 129.413C152.948 128.84 157.514 127.505 155.86 130.524ZM154.98 126.956C152.531 126.845 150.556 128.956 148.73 130.641C149.142 128.706 150.075 126.6 151.389 125.34C153.176 123.626 154.871 124.69 156.753 125.548C156.288 123.801 154.205 123.172 152.877 123.419C151.198 123.732 149.991 125.44 149.142 127.093C148.13 129.065 147.784 131.389 146.592 133.239C146.046 134.086 142.667 137.254 143.432 138.549C144.694 136.951 145.957 135.354 147.219 133.756C147.546 135.644 147.906 137.795 149.928 137.611C151.543 137.464 153.384 135.827 154.565 134.577C156.089 132.961 159.09 127.141 154.98 126.956Z" fill="black"/>
<path fill-rule="evenodd" clip-rule="evenodd" d="M120.676 145.585C119.639 146.153 117.355 146.926 116.775 145.218C115.97 142.844 118.562 138.682 119.796 137.1C120.555 136.127 121.07 135.624 122.129 136.253C122.974 136.756 124.215 138.185 124.539 139.284C125.235 141.642 122.299 144.695 120.676 145.585ZM123.056 134.186C123.901 134.413 124.005 135.692 122.948 135.201C122.157 134.833 121.973 133.895 123.056 134.186ZM124.117 135.988C123.801 134.84 124.443 133.04 122.89 132.958C122.009 132.911 120.397 133.978 119.628 134.412C118.563 135.013 117.56 135.931 117.004 137.223C116.489 138.42 116.857 138.736 117.642 137.742C117.738 137.82 115.866 143.579 115.849 144.156C115.776 146.792 117.342 148.529 119.54 148.061C121.561 147.632 123.382 145.661 124.494 143.673C125.056 142.666 125.518 141.514 125.56 140.281C125.625 138.39 124.568 137.63 124.117 135.988Z" fill="black"/>
<path fill-rule="evenodd" clip-rule="evenodd" d="M136.7 130.732C134.931 129.768 132.956 133.063 133.809 135.02C134.927 137.587 140.383 132.738 136.7 130.732ZM134.591 134.415C134.223 133.634 136.722 132.484 137.117 132.465C136.919 132.895 135.096 135.485 134.591 134.415Z" fill="black"/>
<path fill-rule="evenodd" clip-rule="evenodd" d="M16.3226 128.847C16.2238 128.012 14.6565 129.223 14.6655 129.76C14.9248 129.142 16.5283 130.584 16.3226 128.847Z" fill="black"/>
<path fill-rule="evenodd" clip-rule="evenodd" d="M102.045 65.8371C104.041 65.6621 101.498 53.6578 100.044 54.7193C98.4676 55.8699 100.214 65.9973 102.045 65.8371Z" fill="black"/>
<path fill-rule="evenodd" clip-rule="evenodd" d="M105.772 60.2318C107.642 60.5511 107.344 55.4322 106.339 54.5161C104.483 52.825 103.502 59.8443 105.772 60.2318Z" fill="black"/>
</svg>
