<svg width="388" height="489" viewBox="0 0 388 489" fill="none" xmlns="http://www.w3.org/2000/svg">
<path d="M367.374 201.314C367.524 202.126 367.499 202.96 367.3 203.76C367.103 204.561 366.736 205.31 366.225 205.958C365.716 206.607 365.073 207.138 364.341 207.519C363.609 207.899 362.805 208.119 361.981 208.164L361.442 208.192" stroke="black" stroke-width="3.47" stroke-miterlimit="10"/>
<path d="M23.9342 76.8679H110.076C115.596 76.8679 120.071 81.3422 120.071 86.8623V230.733C120.071 236.252 115.596 240.727 110.076 240.727H23.9342C18.4146 240.727 13.9399 236.252 13.9399 230.733V86.8623C13.9399 81.3422 18.4146 76.8679 23.9342 76.8679Z" fill="#3FBDF1"/>
<path d="M212.898 131.049L213.408 142.193L214.841 151.332L222.734 201.859L222.943 203.196L223.266 200.522L224.082 193.797L213.595 132.244L212.898 131.049Z" fill="#3FBDF1"/>
<path d="M210.972 87.8364L211.17 92.0857C211.17 89.6608 210.972 87.8364 210.972 87.8364Z" fill="#3FBDF1"/>
<path d="M2.30797 79.0256V311.848C2.30967 315.088 3.59694 318.195 5.88703 320.486C8.17769 322.777 11.2836 324.066 14.5233 324.069H202.059C201.98 322.936 201.912 321.803 201.833 320.67C201.771 319.44 201.703 318.233 201.64 317.038C204.092 318.192 206.607 319.204 209.176 320.069C211.102 320.738 213.074 321.315 215.051 321.825L215.249 321.684C216.791 320.549 218.044 319.068 218.907 317.359C219.769 315.65 220.216 313.762 220.212 311.848V234.987L217.317 213.984L216.28 206.465L216.201 204.765L215.374 186.227V186.08L215.102 179.763L215.074 179.394L215.034 178.425L213.901 152.482L213.442 142.216L211.215 127.961C211.912 129.247 212.513 130.323 212.915 131.071L212.694 125.904L211.799 106.652V106.595L211.159 92.2041C211.159 94.8217 210.909 98.1248 209.924 100.618C209.526 101.798 208.782 102.831 207.788 103.581L207.606 103.711C207.544 103.751 207.48 103.788 207.414 103.819V103.728L204.433 84.782L203.374 83.2352L198.116 75.4902C198.109 75.48 198.106 75.4686 198.106 75.4562C198.106 75.4443 198.109 75.4324 198.116 75.4222L197.504 70.5043L197.176 67.8698H196.779L192.348 67.6998H192.297L175.447 67.0426H175.334L142.02 66.8443H14.5403C11.3029 66.8386 8.19581 68.1185 5.90232 70.4023C3.60826 72.6868 2.31534 75.7888 2.30797 79.0256Z" fill="#3FBDF1"/>
<path d="M5.20322 82.1176V308.747C5.20322 311.903 6.45648 314.929 8.68822 317.16C10.9194 319.392 13.9455 320.645 17.1013 320.645H201.844C201.782 319.416 201.714 318.209 201.652 317.014C204.103 318.168 206.619 319.18 209.187 320.045C209.269 320.01 209.352 319.98 209.436 319.954C211.742 319.12 213.735 317.597 215.145 315.59C216.555 313.585 217.313 311.193 217.317 308.742V206.192L220.213 207.597L220.4 207.688L220.79 206.719L222.734 201.869L223.266 200.532L228.173 188.282C228.173 188.282 218.836 150.605 212.677 125.891C210.411 116.826 208.586 109.489 207.81 106.412C207.578 105.494 207.431 104.956 207.408 104.866C207.406 104.845 207.406 104.824 207.408 104.803C207.398 104.628 207.426 104.452 207.487 104.288C207.567 104.093 207.66 103.904 207.765 103.721C207.775 103.682 207.792 103.646 207.816 103.613C208.454 102.527 209.172 101.489 209.963 100.509L210.989 87.8684L210.819 87.7381L210.043 87.1205L204.762 82.9278L203.527 79.6757L201.102 73.3187L200.026 70.4859H197.47H196.813H192.184L175.085 70.4349H173.617L141.181 70.2366H17.1013C13.9489 70.2366 10.9251 71.4876 8.69389 73.7153C6.46329 75.9431 5.20775 78.9647 5.20322 82.1176Z" fill="#3FBDF1"/>
<path d="M220.213 206.465V311.848C220.216 313.759 219.769 315.644 218.909 317.351C218.049 319.057 216.799 320.538 215.261 321.672L215.062 321.814" stroke="black" stroke-width="3.47" stroke-miterlimit="10"/>
<path d="M202.071 324.045H14.5348C11.2968 324.045 8.19139 322.761 5.89903 320.474C3.60723 318.188 2.31543 315.085 2.30807 311.847V79.0247C2.30637 77.4196 2.62138 75.8304 3.23498 74.3477C3.84801 72.8644 4.74773 71.517 5.88201 70.3816C7.01686 69.2468 8.3642 68.3465 9.84693 67.7323C11.3297 67.1187 12.9189 66.8031 14.5234 66.8037H142.003L175.317 67.002H175.431L192.309 67.0927H192.399L196.79 67.121" stroke="black" stroke-width="3.47" stroke-miterlimit="10"/>
<path d="M23.9398 252.76H196.779C202.299 252.76 206.773 257.235 206.773 262.754V301.53C206.773 307.05 202.299 311.525 196.779 311.525H23.9398C18.4203 311.525 13.9455 307.05 13.9455 301.53V262.754C13.9455 257.235 18.4203 252.76 23.9398 252.76Z" fill="white"/>
<path opacity="0.54" d="M186.739 282.879H115.243" stroke="white" stroke-width="3.47" stroke-miterlimit="10"/>
<path d="M81.0845 265.847H191.317C193.189 265.847 194.705 267.363 194.705 269.235V295.892C194.705 297.763 193.189 299.28 191.317 299.28H81.0845C79.2131 299.28 77.6964 297.763 77.6964 295.892V269.235C77.6964 267.363 79.2131 265.847 81.0845 265.847Z" fill="#3FBDF1"/>
<path d="M101.357 279.927C99.4478 279.927 97.9004 278.38 97.9004 276.471C97.9004 274.562 99.4478 273.015 101.357 273.015C103.265 273.015 104.813 274.562 104.813 276.471C104.813 278.38 103.265 279.927 101.357 279.927Z" fill="white"/>
<path d="M111.017 292.113C110.955 289.592 109.911 287.193 108.105 285.431C106.3 283.669 103.877 282.682 101.354 282.682C98.8308 282.682 96.4075 283.669 94.6024 285.431C92.7968 287.193 91.752 289.592 91.6908 292.113H111.017Z" fill="white"/>
<path d="M48.178 265.847C51.548 265.84 54.8443 266.833 57.6494 268.7C60.4545 270.567 62.6426 273.225 63.9372 276.337C65.2313 279.448 65.5735 282.873 64.9202 286.179C64.267 289.485 62.6477 292.523 60.267 294.909C57.8862 297.294 54.8516 298.919 51.5474 299.579C48.2425 300.239 44.8165 299.904 41.7026 298.616C38.5881 297.328 35.9264 295.145 34.0533 292.343C32.1807 289.542 31.1807 286.248 31.1807 282.878C31.1762 280.643 31.6125 278.429 32.4646 276.363C33.3173 274.297 34.5683 272.419 36.1473 270.837C37.7258 269.255 39.6012 268 41.6658 267.144C43.7298 266.288 45.9428 265.847 48.178 265.847ZM48.178 295.79C48.5151 295.806 48.8516 295.753 49.1677 295.635C49.4839 295.518 49.7729 295.337 50.0171 295.104C50.2613 294.871 50.4556 294.591 50.5882 294.281C50.7213 293.971 50.7899 293.637 50.7899 293.3C50.7899 292.962 50.7213 292.629 50.5882 292.318C50.4556 292.008 50.2613 291.728 50.0171 291.496C49.7729 291.263 49.4839 291.082 49.1677 290.964C48.8516 290.846 48.5151 290.794 48.178 290.81C47.5383 290.841 46.9343 291.116 46.4924 291.579C46.0505 292.043 45.804 292.659 45.804 293.3C45.804 293.94 46.0505 294.557 46.4924 295.02C46.9343 295.484 47.5383 295.76 48.178 295.79ZM45.0448 276.64C45.5717 280.334 46.0137 284.215 47.1185 287.796C47.3678 288.663 48.9938 288.663 49.2544 287.796C50.0329 285.09 50.629 282.337 51.0392 279.552C51.3791 277.535 52.5576 274.255 51.4301 272.3C50.4329 270.544 47.6284 270.334 46.0137 271.252C44.025 272.391 44.8068 274.804 45.0448 276.64Z" fill="#3FBDF1"/>
<path d="M30.0928 195.319C30.9263 202.425 33.8764 209.117 38.5603 214.526C43.2436 219.935 49.4448 223.811 56.3587 225.653C63.2726 227.493 70.5803 227.215 77.3333 224.852C84.0868 222.488 89.9741 218.15 94.2313 212.4C98.4886 206.649 100.92 199.752 101.209 192.603C101.498 185.454 99.6325 178.383 95.8534 172.308C92.0744 166.233 86.5571 161.433 80.0166 158.532C73.4766 155.631 66.2154 154.762 59.1751 156.039C58.8669 156.099 58.5745 156.222 58.315 156.399C58.0561 156.576 57.8352 156.804 57.6669 157.069C57.4986 157.334 57.3853 157.63 57.3349 157.94C57.2845 158.25 57.2975 158.567 57.3734 158.872L58.0816 161.614L64.3876 186.249C64.4879 186.642 64.4834 187.054 64.374 187.445C64.2647 187.835 64.0544 188.19 63.7643 188.473C63.4743 188.757 63.1151 188.96 62.7224 189.06C62.3292 189.161 61.9168 189.157 61.5264 189.047L37.0447 182.198L33.6963 181.263C33.3966 181.18 33.0827 181.158 32.7744 181.199C32.4657 181.241 32.1688 181.344 31.9008 181.502C31.6334 181.661 31.4005 181.872 31.2164 182.123C31.0322 182.374 30.9008 182.659 30.8294 182.962C29.8628 187.007 29.6135 191.189 30.0928 195.319Z" fill="white"/>
<path d="M29.226 169.936C29.1099 170.237 29.0583 170.558 29.0742 170.88C29.0906 171.201 29.1739 171.516 29.3189 171.803C29.464 172.09 29.668 172.344 29.9178 172.548C30.1671 172.751 30.4566 172.9 30.7671 172.984L33.0731 173.63L53.0165 179.2C53.4051 179.304 53.8136 179.305 54.2029 179.202C54.5916 179.1 54.9468 178.897 55.2329 178.615C55.519 178.332 55.727 177.98 55.8352 177.593C55.9428 177.205 55.9479 176.796 55.8494 176.407L50.7162 156.35L50.2176 154.424C50.1417 154.117 50.0029 153.83 49.8102 153.579C49.6182 153.328 49.3762 153.12 49.0992 152.967C48.8227 152.815 48.5179 152.721 48.2034 152.692C47.8884 152.663 47.5711 152.699 47.2714 152.797C43.2147 154.201 39.5054 156.456 36.3926 159.413C33.2799 162.369 30.8362 165.957 29.226 169.936Z" fill="white"/>
<path d="M66.0873 108.912C60.6613 108.912 56.2629 104.514 56.2629 99.0881C56.2629 93.662 60.6613 89.2637 66.0873 89.2637C71.5134 89.2637 75.9117 93.662 75.9117 99.0881C75.9117 104.514 71.5134 108.912 66.0873 108.912Z" fill="#D7E8F0"/>
<path d="M29.8606 120.792H101.357V122.758H29.8606V120.792Z" fill="#D7E8F0"/>
<path d="M29.8606 128.067H101.357V130.033H29.8606V128.067Z" fill="#D7E8F0"/>
<path d="M29.8606 134.703H101.357V136.669H29.8606V134.703Z" fill="#D7E8F0"/>
<path d="M217.567 110.402C217.907 111.945 218.363 113.46 218.932 114.934C221.476 121.733 225.017 123.365 228.711 122.538C231.453 121.92 234.286 119.982 236.881 117.79C237.088 117.584 237.354 117.446 237.642 117.398C237.93 117.349 238.227 117.391 238.49 117.518C242.558 120.164 248.813 121.671 252.955 120.64C256.037 119.875 257.946 117.699 256.921 113.529C256.414 111.748 255.665 110.046 254.694 108.47C251.006 102.237 245.884 103.937 242.014 106.77C240.472 107.937 239.061 109.266 237.805 110.736C237.593 111.014 237.287 111.205 236.944 111.27C236.601 111.336 236.245 111.273 235.946 111.093C229.589 106.747 214.949 97.8634 217.567 110.402Z" fill="#3FBDF1"/>
<path d="M269.907 220.664C269.907 220.664 270.105 236.777 278.507 238.681H278.536C299.131 235.587 302.423 226.46 302.423 226.46C301.635 209.667 296.944 186.698 293.193 172.981C295.431 173.859 297.624 174.856 299.76 175.814C307.391 179.264 314.785 183.287 322.06 187.457C326.78 190.159 331.459 192.964 336.1 195.808C336.536 178.488 346.972 178.528 353.239 175.355C313.578 140.34 279.216 122.459 256.921 113.513C257.969 117.683 256.054 119.859 252.955 120.624C254.819 125.853 254.371 131.151 246.111 132.408C245.98 132.408 245.861 132.448 245.731 132.459C255.108 143.576 275.046 173.23 269.907 220.664Z" fill="#353642"/>
<path d="M195.748 313.871C195.748 313.871 211.992 324.607 240.745 324.879C269.499 325.151 300.236 313.893 300.236 313.893C308.168 288.398 301.89 226.267 301.89 226.267C302.02 228.692 293.159 234.023 293.159 234.023C293.159 234.023 274.462 242.93 270.762 229.819C267.063 216.709 269.782 224.952 265.793 230.737C261.805 236.522 260.694 234.981 261.182 243.519C261.669 252.057 255.284 251.87 253.182 248.001C252.371 246.522 252.162 244.035 251.414 241.683C250.757 241.774 245.436 242.375 247.244 236.318C245.459 235.468 242.955 235.128 239.391 235.638C225.793 237.593 209.969 232.754 209.969 232.754C192.065 258.375 195.748 313.871 195.748 313.871Z" fill="#3FBDF1"/>
<path d="M217.255 187.673C217.255 187.673 213.244 181.922 195.844 182.33C195.844 182.33 199.017 161.599 205.612 163.157C205.612 163.157 218.128 181.871 217.255 187.673Z" fill="#3FBDF1"/>
<path d="M209.844 87.3131C210.292 87.5 210.677 87.653 210.977 87.772L211.516 87.959H211.55L211.725 88.0213H211.759C215.283 86.1743 214.949 81.6926 214.949 81.6926C205.272 81.7663 204.462 73.8116 204.462 73.8116C205.136 70.1572 206.094 68.5368 207.861 67.7832C209.629 67.0297 212.433 67.109 216.677 66.8371L217.38 66.7861C223.697 66.3102 227.487 60.4688 229.136 57.1543C229.514 56.4206 229.845 55.6637 230.128 54.888C236.66 58.5254 240.439 62.8597 242.519 65.9929C246.439 46.565 226.377 46.4177 226.377 46.4177C223.065 45.973 219.709 45.9616 216.394 46.3837C215.623 46.582 214.887 46.7917 214.179 47.0296C213.827 47.143 213.482 47.2619 213.136 47.3979C212.79 47.5339 212.467 47.6642 212.133 47.8002C211.9 47.8886 211.671 47.9888 211.448 48.1005C206.713 50.1957 202.67 53.5906 199.788 57.8909C199.748 57.9532 199.708 58.0098 199.68 58.0665C199.547 58.2676 199.427 58.4756 199.317 58.6897C191.94 77.4943 204.819 85.1261 209.844 87.3131Z" fill="#3FBDF1"/>
<path d="M209.844 87.3154C211.572 85.2191 211.346 82.3862 211.346 82.3862C201.674 82.4599 200.858 74.4995 200.858 74.4995C201.907 68.9017 203.584 68.0745 207.861 67.7913C209.442 67.6779 211.38 67.644 213.771 67.474C214.764 67.4037 215.743 67.1924 216.677 66.8451C223.476 64.3352 226.53 55.5816 226.53 55.5816C227.448 56.0915 228.326 56.6297 229.136 57.168C229.514 56.4343 229.845 55.6773 230.128 54.9017C236.66 58.5391 240.439 62.8734 242.519 66.0065C246.439 46.5787 226.377 46.4314 226.377 46.4314C223.065 45.9866 219.709 45.9753 216.394 46.3974C215.623 46.5957 214.887 46.8053 214.179 47.0433C213.827 47.1566 213.482 47.2756 213.136 47.4116C212.79 47.5476 212.467 47.6779 212.133 47.8138C211.9 47.9022 211.671 48.0025 211.448 48.1141C206.713 50.2093 202.67 53.6037 199.788 57.9045C199.748 57.9669 199.708 58.0235 199.68 58.0802C199.547 58.2807 199.427 58.4892 199.317 58.7034C191.94 77.4967 204.819 85.1284 209.844 87.3154Z" fill="#3FBDF1"/>
<path d="M139.697 134.714C139.51 139.955 145.158 146.89 148.49 150.958C151.413 154.522 154.535 158.102 154.756 157.366C154.756 157.366 154.756 157.303 154.796 157.275C156.28 152.176 158.195 147.156 160.173 142.25C164.773 130.822 171.357 118.703 181.816 111.326C181.816 111.326 181.816 111.326 181.844 111.298C187.917 106.701 195.248 104.066 202.858 103.745C202.858 103.745 199.187 95.7508 197.119 90.8839C195.051 86.017 194.286 83.9377 194.286 83.9377C190.773 73.2238 192.241 60.9291 194.524 58.8044C194.545 58.7806 194.573 58.7631 194.603 58.7534C196.722 54.0169 199.873 57.7393 199.873 57.7393L199.833 57.8186C200.773 56.6781 201.784 55.5976 202.858 54.5835C202.859 54.3931 202.839 54.2027 202.796 54.0169C202.535 52.5325 201.402 51.3653 200.144 50.4985C197.968 49.0571 195.386 48.3506 192.779 48.4815C185.538 48.7194 181.068 51.8242 178.263 56.1642C175.13 62.5778 175.283 70.0623 174.524 76.9971C174.195 80.0113 173.957 84.6686 171.289 86.7536C171.289 86.7536 170.932 97.1105 163.867 108.476C156.802 119.841 143.94 128.442 143.94 128.442L139.697 134.714Z" fill="#3FBDF1"/>
<path d="M222.445 85.4344C224.468 88.1483 227.584 89.0832 230.609 90.2446C237.476 92.8905 243.703 91.9897 245.244 83.8707C246.235 78.6469 246.468 73.2984 243.941 68.4598C240.915 62.6581 235.584 58.2955 230.133 54.8621C230.133 54.8621 225.402 68.1482 213.136 66.9131C200.87 65.678 201.408 82.2106 216.094 81.644" stroke="black" stroke-width="3.47" stroke-miterlimit="10"/>
<path d="M204.178 52.7018C206.523 50.6264 209.206 48.9669 212.11 47.7952C212.437 47.6428 212.772 47.5085 213.113 47.393C213.459 47.257 213.805 47.138 214.156 47.0247C214.883 46.7709 215.622 46.5556 216.371 46.3788C220.815 45.2581 225.439 45.0383 229.969 45.7329C254.332 49.393 244.417 69.478 244.417 69.478" stroke="black" stroke-width="3.47" stroke-miterlimit="10"/>
<path d="M202.071 103.767C200.275 96.0334 195.714 89.4101 193.663 81.8974C191.64 74.4922 191.397 65.8406 194.609 58.7471C196.728 54.0106 199.873 57.7386 199.873 57.7386" stroke="black" stroke-width="3.47" stroke-miterlimit="10"/>
<path d="M199.833 57.8186C199.817 57.8396 199.804 57.8622 199.793 57.8866L199.674 58.0679C199.545 58.2662 199.427 58.4724 199.323 58.6855C196.292 64.0736 195.691 70.6402 198.694 77.6034C199.814 80.1394 201.506 82.3819 203.637 84.1564C205.768 85.9303 208.28 87.1875 210.977 87.83L209.873 101.428C209.83 102.014 209.577 102.566 209.16 102.982C208.745 103.398 208.193 103.65 207.606 103.694L204.094 103.96C196.671 104.691 188.938 106.595 182.79 110.646C182.462 110.856 182.15 111.077 181.833 111.286C181.833 111.286 181.833 111.315 181.805 111.315C171.346 118.68 164.762 130.81 160.161 142.238C158.184 147.145 156.269 152.165 154.785 157.264C154.785 157.292 154.785 157.332 154.745 157.354C151.861 167.252 150.592 177.456 153.674 187.734C157.725 201.253 168.524 211.802 180.416 219.383C183.622 221.432 186.94 223.301 190.354 224.981C193.119 226.386 195.969 227.627 198.853 228.782C207.096 232.074 214.977 234.448 223.89 235.479C228.171 235.934 232.482 236.027 236.779 235.757C240.36 235.547 245.159 234.998 248.315 237.162C248.799 237.472 249.232 237.854 249.601 238.295C250.819 239.7 251.301 241.57 251.686 243.366C252.071 245.162 252.456 247.066 253.522 248.562C254.587 250.057 256.547 251.145 258.309 250.528C261.142 249.519 261.046 245.91 261.142 243.474C261.204 242.137 261.204 240.839 261.142 239.621C260.575 225.695 250.167 214.278 236.547 211.394C228.713 209.773 221.111 207.183 213.918 203.683C212.094 202.803 210.315 201.845 208.581 200.811C204.371 198.295 200.337 195.19 198.003 190.873C194.96 185.275 195.238 178.301 197.606 172.403C201.255 163.235 209.799 157.745 215.703 150.221" stroke="black" stroke-width="3.47" stroke-miterlimit="10"/>
<path d="M228.543 72.2006C228.13 71.4493 228.311 70.5564 228.946 70.2063C229.583 69.8567 230.433 70.1813 230.847 70.9326C231.26 71.6839 231.079 72.5762 230.444 72.9264C229.808 73.2765 228.957 72.9513 228.543 72.2006Z" fill="#353642"/>
<path d="M240.276 70.7382C239.862 69.9869 240.043 69.094 240.678 68.7439C241.315 68.3943 242.165 68.7189 242.579 69.4702C242.992 70.2215 242.812 71.1138 242.176 71.464C241.54 71.8141 240.689 71.4889 240.276 70.7382Z" fill="#353642"/>
<path d="M195.754 444.991V484.023C195.754 484.653 195.961 485.266 196.344 485.767C196.726 486.268 197.263 486.628 197.871 486.794C198.479 486.96 199.125 486.921 199.709 486.683C200.293 486.445 200.782 486.022 201.102 485.479C202.802 482.504 205.941 476.72 210.02 469.048C200.513 465.116 206.479 437.059 206.688 436.062C206.205 437.008 205.468 437.801 204.561 438.354C203.654 438.907 202.612 439.198 201.55 439.195C200.013 439.197 198.539 439.808 197.453 440.895C196.366 441.981 195.755 443.455 195.754 444.991Z" fill="#353642"/>
<path d="M223.425 471.923C223.884 474.348 224.36 476.795 224.83 479.288C225.245 481.435 226.393 483.371 228.08 484.764C229.766 486.157 231.884 486.919 234.071 486.92H267.436C268.025 486.92 268.596 486.722 269.059 486.357C269.521 485.993 269.847 485.484 269.985 484.912C270.123 484.34 270.065 483.737 269.819 483.203C269.574 482.668 269.155 482.231 268.632 481.962L250.96 472.942L249.646 472.274C249.646 472.274 236.654 481.254 223.425 471.923Z" fill="#353642"/>
<path d="M218.972 189.967C215.997 184.222 207.017 182.602 195.844 182.834" stroke="black" stroke-width="3.47" stroke-miterlimit="10"/>
<path d="M151.793 210.895L167.091 239.337L162.507 342.165L170.218 336.867L177.634 252.448C177.634 252.448 182.275 218.362 168.683 210.895C155.09 203.428 151.793 210.895 151.793 210.895Z" fill="white"/>
<path d="M152.422 167.939C152.43 167.916 152.43 167.892 152.422 167.869" stroke="black" stroke-width="3.47" stroke-miterlimit="10"/>
<path d="M194.603 58.7429C196.722 54.012 199.873 57.7457 199.873 57.7457C200.711 56.4069 201.691 55.1627 202.796 54.0347C203.238 53.5757 203.697 53.1451 204.173 52.6975C203.527 49.655 200.892 47.5077 197.941 46.8278C190.201 45.0545 181.708 49.0658 178.235 56.1876C174.694 63.4228 175.193 72.0517 173.646 79.8138C171.946 88.1878 169.776 96.5391 166.065 104.278C162.921 110.817 158.632 116.902 153.102 121.633C149.362 124.822 144.382 126.902 141.64 131.151C134.603 142.114 148.524 147.015 153.102 154.437C153.89 155.691 154.341 157.127 154.411 158.607" stroke="black" stroke-width="3.47" stroke-miterlimit="10"/>
<path d="M237.963 65.5364C237.963 65.5364 237.13 68.9358 239.476 73.9104C240.105 75.2361 237.21 75.3098 236.524 75.4401" stroke="black" stroke-width="3.47" stroke-miterlimit="10"/>
<path d="M224.618 71.2429C223.287 67.8593 224.436 64.2394 227.185 63.1584C229.934 62.0774 233.242 63.9437 234.572 67.3278C235.903 70.7114 234.754 74.3307 232.005 75.4117C229.256 76.4933 225.949 74.6264 224.618 71.2429Z" stroke="black" stroke-width="3.47" stroke-miterlimit="10"/>
<path d="M238.383 69.7338C237.052 66.3502 238.201 62.7304 240.95 61.6494C243.699 60.5683 247.006 62.4346 248.337 65.8188C249.668 69.2024 248.519 72.8217 245.77 73.9027C243.021 74.9843 239.713 73.1174 238.383 69.7338Z" stroke="black" stroke-width="3.47" stroke-miterlimit="10"/>
<path d="M242.683 63.4158C242.357 63.4158 242.034 63.4775 241.731 63.5971C239.986 64.2826 239.306 66.7075 240.207 69.0022C240.926 70.8322 242.507 72.107 244.048 72.107C244.376 72.1098 244.7 72.0498 245.006 71.9314C246.745 71.2458 247.431 68.8209 246.524 66.5206C245.805 64.6905 244.224 63.4158 242.683 63.4158ZM242.683 62.107C244.723 62.107 246.802 63.6367 247.748 66.039C248.915 69.0135 247.901 72.1977 245.482 73.1495C245.023 73.3285 244.535 73.4209 244.043 73.4215C242.009 73.4215 239.929 71.886 238.983 69.4554C237.816 66.4809 238.824 63.2968 241.249 62.3449C241.706 62.1676 242.193 62.0769 242.683 62.0786V62.107Z" fill="white"/>
<path d="M238.984 69.4969C237.813 66.5207 238.824 63.3377 241.241 62.387C243.657 61.4363 246.566 63.0782 247.736 66.0544C248.907 69.0301 247.897 72.2137 245.48 73.1638C243.063 74.1145 240.154 72.4726 238.984 69.4969Z" fill="#3FBDF1"/>
<path d="M225.219 71.0062C224.048 68.03 225.058 64.847 227.475 63.8963C229.892 62.9455 232.801 64.5875 233.971 67.5637C235.142 70.5393 234.132 73.7229 231.715 74.6731C229.298 75.6238 226.389 73.9819 225.219 71.0062Z" fill="#3FBDF1"/>
<path d="M237.861 66.6908C237.861 66.6908 237.125 65.1383 234.609 67.314" stroke="black" stroke-width="3.47" stroke-miterlimit="10"/>
<path d="M37.5376 398.181C61.7927 403.201 89.2715 395.7 113.039 390.98L146.286 384.402C149.895 383.677 153.651 382.906 156.898 381.32C157.051 381.201 157.209 381.071 157.357 380.94C163.277 375.841 164.365 367.224 165.051 359.41C166.411 343.886 167.774 328.372 169.142 312.866C170.845 293.41 172.545 273.958 174.241 254.509C175.402 241.161 176.19 226.413 168.008 215.79C164.456 211.166 158.49 208.373 152.762 210.441C152.426 210.56 152.097 210.696 151.776 210.849C149.593 212.704 147.817 214.99 146.558 217.563C139.43 231.727 141.079 249.58 140.19 264.946C138.575 293.093 139.351 321.24 140.252 349.405C140.36 352.668 141.736 355.92 141.708 359.037C141.708 358.589 140.229 358 137.855 357.337C128.456 354.765 104.937 351.184 102.575 350.912C82.4749 348.572 62.1105 350.22 42.6481 355.762C37.8413 357.161 33.2872 359.316 29.158 362.147C24.1211 365.609 19.8209 370.079 17.8265 375.258C12.7443 388.595 26.5744 395.898 37.5376 398.181Z" fill="#D7E8F0"/>
<path d="M37.5376 398.181C61.7927 403.201 89.2715 395.7 113.039 390.98L146.286 384.402C149.895 383.677 153.651 382.906 156.898 381.32C157.051 381.201 157.209 381.071 157.357 380.94C163.277 375.841 164.365 367.224 165.051 359.41C166.411 343.886 167.774 328.372 169.142 312.866C170.845 293.41 172.545 273.958 174.241 254.509C175.402 241.161 176.19 226.413 168.008 215.79C164.456 211.166 158.49 208.373 152.762 210.441C152.426 210.56 152.097 210.696 151.776 210.849C149.593 212.704 147.817 214.99 146.558 217.563C139.43 231.727 141.079 249.58 140.19 264.946C138.575 293.093 139.351 321.24 140.252 349.405C140.36 352.668 141.736 355.92 141.708 359.037C141.708 358.589 140.229 358 137.855 357.337C138.139 358.579 138.293 359.847 138.314 361.122C138.314 358.906 102.155 353.359 99.1922 353.02C79.0868 350.682 58.7173 352.33 39.2487 357.869C35.7297 358.897 32.3433 360.332 29.158 362.147C24.1211 365.609 19.8209 370.079 17.8265 375.258C12.7443 388.595 26.5744 395.898 37.5376 398.181Z" fill="#D7E8F0"/>
<path d="M172.524 310.783L177.651 252.426C178.824 239.077 179.612 224.324 171.419 213.7C167.861 209.077 161.906 206.284 156.167 208.352C151.884 209.899 148.597 213.525 146.535 217.593C139.408 231.757 141.056 249.621 140.173 264.975C138.552 293.134 139.334 321.276 140.241 349.44C140.343 352.704 141.725 355.956 141.691 359.072C141.691 356.862 105.521 351.31 102.563 350.964C82.4613 348.627 62.0957 350.275 42.6311 355.814C33.1466 358.5 21.4922 365.724 17.8095 375.31C12.7103 388.602 26.5404 395.916 37.5036 398.188C61.7586 403.22 89.2375 395.712 113.005 390.999L146.252 384.409C151.351 383.389 156.756 382.256 160.711 378.846C166.637 373.746 167.719 365.123 168.405 357.316L172.524 310.783Z" stroke="black" stroke-width="3.47" stroke-miterlimit="10"/>
<path d="M219.544 451.034C216.031 457.736 212.796 463.855 210.014 469.073C205.935 476.745 202.802 482.529 201.102 485.504C200.781 486.046 200.291 486.467 199.707 486.703C199.124 486.94 198.478 486.979 197.871 486.813C197.263 486.648 196.726 486.288 196.343 485.788C195.959 485.289 195.75 484.677 195.748 484.048V444.994C195.75 443.457 196.36 441.984 197.447 440.897C198.534 439.81 200.007 439.199 201.544 439.198C202.606 439.202 203.65 438.912 204.557 438.359C205.464 437.805 206.2 437.011 206.683 436.065C209.619 430.236 211.985 424.138 213.748 417.855" stroke="black" stroke-width="3.47" stroke-miterlimit="10"/>
<path d="M245.555 401.202C246.223 378.694 249.069 356.304 254.054 334.346C254.881 330.784 255.646 327.349 256.349 324.04" stroke="black" stroke-width="3.47" stroke-miterlimit="10"/>
<path d="M252.337 486.919H234.071C231.882 486.917 229.763 486.153 228.077 484.758C226.39 483.363 225.242 481.425 224.83 479.276C224.36 476.794 223.884 474.346 223.425 471.91C222.065 464.733 220.772 457.77 219.544 451.02C217.408 439.315 215.51 428.261 213.765 417.842C207.351 378.856 203.68 348.425 202.071 324.051C201.992 322.918 201.924 321.785 201.844 320.652C201.782 319.422 201.714 318.215 201.652 317.02" stroke="black" stroke-width="3.47" stroke-miterlimit="10"/>
<path d="M287.329 318.04C283.25 328.346 279.748 338.873 275.068 348.93C266.626 367.06 256.031 384.16 245.555 401.202C244.739 424.964 246.109 448.75 249.646 472.262L250.96 472.93L268.632 481.95C269.162 482.215 269.587 482.652 269.836 483.19C270.086 483.727 270.147 484.333 270.008 484.909C269.869 485.486 269.54 485.998 269.073 486.363C268.606 486.728 268.029 486.924 267.436 486.919H244.207" stroke="black" stroke-width="3.47" stroke-miterlimit="10"/>
<path d="M219.89 206.34C222.558 191.36 214.462 175.989 204.745 161.887" stroke="black" stroke-width="3.47" stroke-miterlimit="10"/>
<path d="M209.414 232.528C209.398 232.54 209.388 232.559 209.385 232.578C208.898 233.712 208.416 234.805 207.941 235.921C205.402 241.785 203.219 247.796 201.402 253.921C200.643 256.573 199.986 259.247 199.459 261.961C196.762 275.723 195.805 289.871 195.657 303.888C195.657 306.431 195.657 308.987 195.697 311.531C195.697 312.318 195.725 313.106 195.748 313.876L195.844 313.933C196.683 314.431 197.544 314.902 198.371 315.361L198.898 315.638C199.797 316.118 200.715 316.575 201.652 317.009C204.103 318.164 206.619 319.176 209.187 320.041C211.113 320.709 213.085 321.287 215.062 321.797C224.694 324.273 234.739 325.06 244.417 324.839L245.754 324.8C249.374 324.681 252.927 324.42 256.371 324.063C266.84 322.921 277.195 320.908 287.329 318.046C294.094 316.148 298.66 314.471 299.873 313.995L300.213 313.876C303.612 294.097 304.224 274.052 303.924 258.131C303.924 258.018 303.924 257.899 303.924 257.78C303.607 242.267 302.4 230.743 302.009 227.298C301.958 226.89 301.918 226.601 301.901 226.431C301.884 226.261 301.901 226.273 301.901 226.25C301.225 210.716 298.843 195.302 294.796 180.289C289.499 160.816 281.827 144.822 273.646 133.428" stroke="black" stroke-width="3.47" stroke-miterlimit="10"/>
<path d="M252.417 120.404C254.269 125.633 253.827 130.931 245.561 132.188L245.187 132.239C238.014 133.14 233.193 128.273 228.19 122.313" stroke="black" stroke-width="3.47" stroke-miterlimit="10"/>
<path d="M204.11 103.973C208.888 104.844 213.346 106.976 217.023 110.149" stroke="black" stroke-width="3.47" stroke-miterlimit="10"/>
<path d="M269.357 220.441C274.502 173.002 254.553 143.319 245.187 132.237" stroke="black" stroke-width="3.47" stroke-miterlimit="10"/>
<path d="M218.382 114.679C211.329 95.7666 228.411 106.095 235.38 110.843C235.678 111.022 236.032 111.086 236.374 111.022C236.716 110.958 237.024 110.772 237.238 110.498C240.411 106.809 248.796 99.1944 254.133 108.231C263.046 123.319 246.116 122.571 237.958 117.296C237.697 117.168 237.402 117.125 237.116 117.172C236.829 117.22 236.565 117.357 236.36 117.563C230.224 122.69 222.802 126.537 218.382 114.679Z" stroke="black" stroke-width="3.47" stroke-miterlimit="10"/>
<path d="M301.884 226.239C301.884 226.239 299.414 233.112 285.295 236.942C283.718 237.367 282.071 237.471 280.452 237.245C278.834 237.019 277.278 236.469 275.878 235.628C274.477 234.787 273.26 233.672 272.301 232.35C271.341 231.028 270.658 229.526 270.292 227.933C269.746 225.472 269.439 222.963 269.374 220.443C269.374 220.443 267.397 231.628 260.966 236.942" stroke="black" stroke-width="3.47" stroke-miterlimit="10"/>
<path d="M246.745 236.323C246.745 236.323 245.612 241.988 251.453 242.351" stroke="black" stroke-width="3.47" stroke-miterlimit="10"/>
<path d="M101.969 393.275V455.909C101.968 459.428 103.04 462.863 105.043 465.756C107.045 468.649 109.882 470.863 113.175 472.102L136.19 480.759C136.891 481.019 137.479 481.519 137.848 482.169C138.218 482.819 138.347 483.579 138.211 484.315C138.076 485.051 137.685 485.715 137.108 486.191C136.531 486.667 135.804 486.925 135.056 486.918H55.736C54.9893 486.921 54.2658 486.661 53.6907 486.184C53.1162 485.707 52.7275 485.044 52.5927 484.31C52.4573 483.575 52.5847 482.817 52.9525 482.167C53.3196 481.517 53.9043 481.017 54.6029 480.754L78.9656 471.649C82.2676 470.413 85.1135 468.199 87.1237 465.303C89.1333 462.406 90.211 458.964 90.2121 455.439V395.518" stroke="black" stroke-width="3.47" stroke-miterlimit="10"/>
<path d="M101.969 393.275V455.909C101.968 459.428 103.04 462.863 105.043 465.756C107.045 468.649 109.882 470.863 113.175 472.102L136.19 480.759C136.891 481.019 137.479 481.519 137.848 482.169C138.218 482.819 138.347 483.579 138.211 484.315C138.076 485.051 137.685 485.715 137.108 486.191C136.531 486.667 135.804 486.925 135.056 486.918H55.736C54.9893 486.921 54.2658 486.661 53.6907 486.184C53.1162 485.707 52.7275 485.044 52.5927 484.31C52.4573 483.575 52.5847 482.817 52.9525 482.167C53.3196 481.517 53.9043 481.017 54.6029 480.754L78.9656 471.649C82.2676 470.413 85.1135 468.199 87.1237 465.303C89.1333 462.406 90.211 458.964 90.2121 455.439V395.518L101.969 393.275Z" fill="#353642"/>
<path d="M256.337 113.296C277.935 121.936 310.796 138.962 348.853 171.795C351.463 174.061 354.098 176.39 356.757 178.781C362.105 183.615 367.539 188.767 373.057 194.237L385.171 206.356C385.672 206.865 385.966 207.542 385.997 208.255C386.028 208.969 385.793 209.669 385.337 210.219C384.881 210.769 384.238 211.131 383.531 211.233C382.824 211.336 382.104 211.172 381.511 210.775L365.222 199.767C364.698 199.413 364.106 199.172 363.483 199.062C362.861 198.953 362.222 198.975 361.609 199.129C360.996 199.282 360.422 199.563 359.925 199.953C359.428 200.343 359.018 200.834 358.723 201.393C358.574 201.665 358.489 201.967 358.474 202.277C357.941 206.515 363.006 209.24 365.697 211.517C366.882 212.503 368.44 214.396 367.539 215.988C366.814 217.257 365.222 217.806 363.828 217.88C360.241 218.073 357.273 215.772 354.428 213.914C351.369 211.88 347.335 202.798 344.23 200.838C327.799 190.43 311.136 180.979 293.176 173.489" stroke="black" stroke-width="3.47" stroke-miterlimit="10"/>
<path d="M240.349 82.8952C240.349 82.8952 237.975 78.1416 233.878 81.9093" stroke="black" stroke-width="3.47" stroke-miterlimit="10"/>
<path d="M236.213 91.5522L241.431 106.561" stroke="black" stroke-width="3.47" stroke-miterlimit="10"/>
<path d="M224.752 37.505C210.818 36.9475 199.649 33.3322 199.805 29.4308C199.961 25.5288 211.384 22.8171 225.317 23.3747C239.251 23.9316 250.421 27.5469 250.264 31.4489C250.108 35.3509 238.686 38.062 224.752 37.505Z" stroke="#CCDDE2" stroke-width="3.47277" stroke-miterlimit="10"/>
<path d="M225.103 33.5098C214.172 33.0724 205.367 31.3195 205.436 29.5931C205.505 27.8673 214.422 26.8226 225.353 27.26C236.283 27.6968 245.089 29.4503 245.019 31.1761C244.951 32.9019 236.034 33.9467 225.103 33.5098Z" stroke="#CCDDE2" stroke-width="3.47" stroke-miterlimit="10"/>
<path d="M250.439 31.3928C251.074 28.6619 248.876 25.761 247.266 23.8007C244.247 20.1463 248.802 14.2426 244.026 11.336C243.693 11.1043 243.298 10.9763 242.893 10.9678C242.554 11.0035 242.232 11.1332 241.964 11.3423C241.695 11.5519 241.491 11.8324 241.374 12.1519C240.36 14.5145 241.992 17.5174 239.215 19.0301C237.249 20.1123 234.445 19.1661 232.717 18.0613C230.451 16.5939 229.663 14.0953 229.113 11.5797" stroke="#CCDDE2" stroke-width="3.47" stroke-miterlimit="10"/>
<path d="M225.436 10.4811C225.305 11.3876 225.093 12.2811 224.802 13.1497C224.235 18.8154 215.425 20.1695 213.793 13.2347C213.493 11.9542 213.572 9.71059 212.037 9.17801C210.722 8.73041 209.329 9.89755 208.824 11.0477C207.198 14.6738 210.331 18.8494 205.918 21.1724C203.374 22.5152 200.252 26.3339 200.02 29.3764" stroke="#CCDDE2" stroke-width="3.47" stroke-miterlimit="10"/>
<path d="M227.311 11.905C225.236 11.8223 223.641 9.58599 223.748 6.91063C223.855 4.23532 225.624 2.13378 227.698 2.21673C229.773 2.29973 231.368 4.53583 231.261 7.21148C231.154 9.88684 229.385 11.9883 227.311 11.905Z" stroke="#CCDDE2" stroke-width="3.47277" stroke-miterlimit="10"/>
<path d="M295.703 486.912H126.252" stroke="black" stroke-width="3.47" stroke-miterlimit="10"/>
</svg>
