<svg width="404" height="225" viewBox="0 0 404 225" fill="none" xmlns="http://www.w3.org/2000/svg">
<path fill-rule="evenodd" clip-rule="evenodd" d="M73.6548 137.078L74.7483 151.457L95.5286 156.632L111.387 164.109L123.965 175.611L129.98 170.435L137.636 152.607L146.386 150.881L178.103 154.332L189.04 157.782L185.212 177.337L181.384 191.714L244.819 187.688L242.631 154.332L229.507 123.851L177.556 97.3958L138.73 102.572L111.387 134.203L99.3566 141.104L78.0297 139.954" fill="#56FFFF"/>
<path fill-rule="evenodd" clip-rule="evenodd" d="M43.3956 165.715C43.3956 168.061 44.7812 167.913 46.4594 167.733C47.0314 167.671 47.6378 167.606 48.235 167.635C48.5991 167.653 49.2135 167.766 49.9421 167.9L49.9425 167.9C52.0747 168.292 55.187 168.864 55.8797 167.758C56.5421 166.7 55.6189 166.555 54.6773 166.408C54.0425 166.31 53.3997 166.209 53.2293 165.826C52.7769 164.808 53.6641 164.101 54.5267 163.413C55.2917 162.804 56.0378 162.209 55.8127 161.426C55.5859 160.637 54.5727 161.085 53.4788 161.569C52.2647 162.107 50.951 162.688 50.5024 161.67C50.0747 160.7 51.0586 159.801 51.9517 158.985C52.707 158.294 53.398 157.663 53.1155 157.098C52.592 156.053 47.2855 158.699 46.6079 159.154C44.6908 160.44 43.3085 163.331 43.3956 165.715ZM280.381 109.951C281.195 110.871 281.815 111.956 282.43 113.032C283.046 114.109 283.657 115.177 284.453 116.064C285.138 116.827 285.925 117.124 286.739 117.43V117.431C287.108 117.569 287.483 117.711 287.856 117.898C288.577 118.261 289.325 118.655 290.091 119.057C293.041 120.609 296.268 122.306 299.335 122.974C297.072 120.199 295.637 117.689 294.293 114.317C294.156 113.973 294.01 113.623 293.861 113.27C293.489 112.385 293.108 111.479 292.851 110.584C292.58 109.642 292.528 108.671 292.476 107.704C292.43 106.832 292.383 105.963 292.176 105.123C292.059 104.649 292.011 104.283 291.976 104.012L291.975 104.011V104.01C291.933 103.69 291.909 103.502 291.808 103.426C291.666 103.318 291.371 103.431 290.662 103.702L290.605 103.724L290.519 103.757L290.426 103.792C289.811 104.027 289.24 104.525 288.684 105.011C288.335 105.316 287.992 105.616 287.647 105.843C286.582 106.542 285.472 107.096 284.366 107.647C283 108.327 281.641 109.004 280.381 109.951ZM383.94 60.1342C384.018 61.0055 395.216 56.816 396.322 56.0474C398.389 54.6098 400.811 47.9944 398.612 46.0334C396.632 44.2686 392.281 46.419 389.132 47.9759C388.059 48.5063 387.125 48.9678 386.473 49.1819C382.149 50.5984 377.167 51.396 372.661 50.9134C370.618 50.6941 368.606 50.512 366.543 50.3782C366.196 50.3558 365.795 50.2988 365.367 50.2374C363.89 50.0268 362.089 49.7693 361.059 50.7366C359.802 51.9158 359.954 54.2632 360.594 55.7293C360.815 56.2352 361.082 56.5146 361.339 56.7844C361.564 57.0204 361.782 57.249 361.957 57.6148C362.004 57.7127 361.978 57.8381 361.948 57.9895C361.901 58.2294 361.84 58.5348 362.03 58.8989C362.885 60.5352 365.793 63.2696 367.359 64.1026C368.861 64.9015 369.408 64.4097 370.242 63.6604C370.524 63.4069 370.84 63.1235 371.236 62.8511C373.962 60.9765 378.221 60.6234 381.799 60.3268C382.549 60.2645 383.27 60.2049 383.94 60.1342ZM358.013 60.6409C354.771 64.7896 350.959 67.674 346.96 70.6984L346.959 70.6992C346.169 71.2972 345.372 71.8999 344.57 72.5198C343.486 73.3573 342.415 74.2123 341.345 75.0664L341.345 75.0668L341.344 75.0673L341.344 75.0677L341.343 75.0682V75.0686C338.165 77.6047 334.994 80.1355 331.509 82.2008C331.133 82.4237 330.691 82.6211 330.244 82.8211C329.06 83.3493 327.832 83.8977 327.653 84.9905C327.497 85.9411 328.574 87.9657 329.475 89.6594C329.918 90.4908 330.317 91.2422 330.508 91.7481C332.226 96.2938 333.548 100.944 334.88 105.627C335.066 106.281 335.253 106.934 335.44 107.589L335.764 107.06C340.218 99.7796 344.731 92.4035 350.189 85.8262C355.121 79.8806 360.181 73.6595 364.494 67.2529C361.883 65.5863 359.721 63.288 358.013 60.6409ZM320.193 6.10947C315.624 5.91732 314.231 9.82737 312.897 13.5712C312.373 15.0417 311.858 16.4867 311.164 17.647C309.803 19.9208 307.993 22.3621 305.982 24.0633C304.459 25.3518 302.631 26.1116 300.81 26.8692C299.915 27.2408 299.023 27.6123 298.168 28.0449C295.817 29.2351 293.727 30.4279 292.259 32.7244C292.12 32.9429 291.963 33.1741 291.801 33.4149C290.783 34.9231 289.499 36.824 290.231 38.5897C290.739 39.815 292.121 40.8266 293.478 41.8198C294.439 42.5234 295.388 43.2179 296.004 43.9729C297.764 46.1286 298.012 46.0663 299.997 45.5658C300.32 45.4842 300.689 45.3916 301.117 45.2946C302.648 44.9485 304.101 44.8406 305.666 44.8981C305.856 44.9046 306.181 44.9683 306.558 45.0415C307.439 45.2131 308.603 45.4399 308.996 45.1345C309.471 44.7651 309.323 43.6254 309.195 42.6349C309.129 42.1269 309.068 41.6579 309.099 41.3517C309.238 39.9781 309.703 38.5607 310.145 37.2657C311.639 32.8744 314.286 29.7606 317.042 26.5165L317.044 26.5139L317.047 26.5108L317.05 26.5073L317.052 26.5042C317.52 25.9541 317.991 25.3996 318.46 24.835C320.173 22.7709 322.198 21.0105 324.223 19.2518C326.301 17.4461 328.377 15.6422 330.11 13.5133C331.999 11.193 331.139 9.55275 328.547 8.46655C327.815 8.16035 327.014 8.02479 326.215 7.88967C325.574 7.78132 324.935 7.67296 324.334 7.4773C323.859 7.32288 323.403 7.11801 322.948 6.91358C322.062 6.51569 321.183 6.12131 320.193 6.10947ZM72.7278 169.931C73.6188 169.931 74.5039 169.549 75.3781 169.173C76.3218 168.765 77.253 168.364 78.1666 168.453C78.6077 168.497 79.1036 168.934 79.5727 169.349C79.8749 169.616 80.1661 169.873 80.4243 170.009C81.3609 170.5 82.372 170.745 83.4044 170.879C84.0857 170.967 84.685 170.968 85.2399 170.969C86.5172 170.97 87.5567 170.971 88.8068 172.041C90.1154 173.162 91.4663 174.574 92.7226 175.888C93.0114 176.19 93.2955 176.486 93.5726 176.773C95.8705 179.151 97.873 181.995 99.837 184.783C100.578 185.834 101.314 186.879 102.058 187.887C105.409 192.431 108.89 196.038 113.349 199.442C116.872 202.131 120.441 203.899 124.408 205.866L124.77 206.045C128.805 208.046 133.879 210.367 138.456 210.477C142.107 210.565 146.671 209.337 149.993 207.703C151.587 206.92 152.344 206.783 153.644 206.549C153.922 206.499 154.223 206.444 154.562 206.378C157.457 205.815 160.793 204.223 163.52 202.922L163.816 202.781C172.54 198.62 178.069 189.551 182.003 180.674C184.242 175.622 185.64 170.685 186.574 165.219C186.622 164.935 186.67 164.671 186.715 164.426C187.137 162.103 187.26 161.425 184.758 160.311C182.544 159.326 180.189 158.639 177.859 157.96C177.248 157.781 176.637 157.603 176.032 157.42C167.498 154.844 157.771 154.276 148.959 154.669C148.433 154.693 147.907 154.731 147.38 154.769H147.379H147.378H147.378H147.376C146.514 154.832 145.65 154.894 144.789 154.893C144.507 154.893 144.099 154.839 143.654 154.78C142.766 154.663 141.727 154.526 141.22 154.751C140.019 155.284 138.999 157.696 138.273 159.414L138.273 159.414L138.272 159.416L138.272 159.417C138.079 159.874 137.906 160.282 137.757 160.591C136.539 163.117 135.458 165.708 134.377 168.298V168.299C133.414 170.606 132.452 172.913 131.394 175.172C130.225 177.667 128.48 179.307 125.722 179.347C122.987 179.387 121.534 177.765 119.876 175.915C119.662 175.675 119.443 175.431 119.217 175.187C115.307 170.939 110.045 167.288 105.191 164.333C99.9483 161.143 93.6973 158.051 87.7287 156.925C87.111 156.809 86.3695 156.632 85.5484 156.437C81.0851 155.374 74.2712 153.752 72.229 158.166C72.2704 158.16 72.3164 158.154 72.3658 158.147L72.3763 158.145C73.8004 157.942 78.1887 157.316 78.3817 159.428C78.4511 160.189 77.2471 160.658 75.8619 161.197C74.252 161.824 72.3976 162.546 72.0126 163.932C72.3118 163.907 72.7567 163.828 73.2798 163.734C75.4078 163.354 78.8395 162.742 79.135 164.639C79.2919 165.645 77.9205 166.251 76.9722 166.671C76.7361 166.775 76.5261 166.868 76.3725 166.952C74.8471 167.793 73.9285 168.667 72.7278 169.931ZM238.413 94.8426C237.226 93.9656 235.104 93.8393 233.287 93.7309C232.615 93.691 231.984 93.6533 231.457 93.5813L231.443 93.5796L231.443 93.5791C228.957 93.2383 226.54 92.9066 224.029 93.0505C223.121 93.1027 222.198 93.1339 221.269 93.1655C218.6 93.2563 215.881 93.3488 213.321 93.9393C208.997 94.9356 204.902 96.4657 200.994 98.6127C200.918 98.6544 200.841 98.6965 200.762 98.7395L200.758 98.7412C199.479 99.4361 197.855 100.319 197.866 102.199C197.876 103.722 198.347 103.806 199.456 104.006C199.714 104.053 200.006 104.106 200.335 104.184C203.988 105.056 207.431 107.224 210.749 109.315C211.697 109.912 212.634 110.503 213.563 111.055C218.013 113.698 222.445 116.667 226.574 119.835C234.489 125.907 239.007 134.642 242.522 144.139C244.341 149.05 245.659 154.785 246.206 160.02C246.536 163.178 246.538 166.345 246.54 169.511V169.512C246.541 172.185 246.543 174.855 246.742 177.518C246.755 177.701 246.77 177.957 246.788 178.264C246.905 180.27 247.151 184.493 248.009 185.234C248.533 185.687 250.505 185.259 252.007 184.933C252.657 184.792 253.218 184.67 253.536 184.647C255.916 184.476 258.304 184.406 260.677 184.337H260.678C262.683 184.279 264.678 184.221 266.649 184.102C271.171 183.828 275.749 183.881 280.338 183.932C284.986 183.985 289.645 184.038 294.268 183.753C298.888 183.468 303.361 182.787 307.892 181.81C309.166 181.535 310.534 181.334 311.929 181.128C315.149 180.654 318.514 180.159 321.193 178.695C328.588 174.656 333.097 164.918 333.421 156.673C333.773 147.736 333.191 138.01 331.4 129.106C331.177 127.996 330.961 126.899 330.746 125.808C330.058 122.315 329.385 118.897 328.543 115.38C327.446 110.8 326.23 106.236 325.022 101.704L325.012 101.666C324.861 101.1 324.711 100.535 324.561 99.9713C323.605 96.3811 322.432 92.8917 321.259 89.4055V89.405V89.4046L321.259 89.4041C319.564 84.3636 317.872 79.3292 316.842 74.0092C315.884 69.0585 314.526 63.8824 313.109 59.0502C312.586 57.2696 311.556 53.8864 310.34 52.5335C309.374 51.4582 308.525 51.6631 307.345 51.9478C306.966 52.0395 306.552 52.1391 306.09 52.2071C305.291 52.3251 304.318 52.3102 303.308 52.2953C300.295 52.2505 296.957 52.201 296.959 55.6473C296.959 57.1231 297.233 58.6414 297.505 60.1522V60.1527V60.1531L297.506 60.154V60.1544V60.1553V60.1557V60.1562C297.699 61.2275 297.891 62.2952 297.985 63.3424C298.098 64.6006 298.13 65.8622 298.163 67.1235V67.1239V67.1243V67.1248V67.1257V67.1261V67.1265V67.127C298.207 68.851 298.251 70.5751 298.5 72.2886C298.648 73.2976 298.809 74.2903 298.97 75.2752L298.97 75.2787C299.573 78.9813 300.158 82.568 299.886 86.4662C299.745 88.4719 299.509 90.4478 299.272 92.4206C298.876 95.7261 298.481 99.022 298.543 102.431C298.554 103.054 298.561 103.676 298.566 104.294C298.611 108.81 298.654 113.177 300.719 117.357C301.122 118.173 301.493 119.047 301.866 119.923V119.924C302.41 121.202 302.956 122.485 303.603 123.599C304.881 125.8 305.987 126.444 308.271 127.33C308.604 127.46 309.052 127.598 309.554 127.754C311.202 128.265 313.437 128.957 314.147 130.104C315.485 132.262 313.699 133.136 311.94 133.062C307.492 132.877 302.947 131.14 298.65 129.497L298.648 129.497L298.647 129.497L298.646 129.496L298.643 129.495L298.635 129.492C297.689 129.131 296.756 128.774 295.837 128.439C294.369 127.904 292.935 127.284 291.503 126.664L291.502 126.664C290.597 126.272 289.692 125.881 288.78 125.512C288.254 125.299 287.756 125.125 287.274 124.957C286.028 124.522 284.886 124.124 283.653 123.187C281.498 121.551 279.597 119.591 277.696 117.631C275.917 115.797 274.138 113.962 272.15 112.392C264.369 106.245 255.041 102.576 245.268 101.487C242.754 101.207 240.807 101.333 238.289 101.556C237.917 101.589 237.546 101.616 237.176 101.644C236.159 101.718 235.147 101.791 234.136 101.988C233.858 102.042 233.309 102.26 232.688 102.508C231.533 102.967 230.126 103.527 229.721 103.326C225.678 101.311 237.126 95.1782 238.413 94.8426ZM73.6439 137.382C73.6451 137.361 73.6464 137.341 73.6481 137.321C73.6556 137.349 73.6631 137.376 73.6703 137.404L73.6439 137.382ZM73.8067 137.883C73.7602 137.729 73.715 137.568 73.6703 137.404C74.4947 138.09 75.2413 138.841 75.9849 139.589H75.9854L75.9858 139.59C76.9818 140.592 77.9728 141.589 79.1396 142.42C81.5664 144.148 84.4523 145.062 87.3282 145.709C92.618 146.899 99.8479 146.601 104.892 144.263C109.554 142.101 112.501 138.201 115.095 133.672C115.482 132.996 115.71 132.26 115.929 131.55C116.401 130.021 116.836 128.615 118.746 128.19C120.047 127.9 121.601 128.438 123.178 128.984C124.458 129.426 125.754 129.875 126.94 129.889C129.506 129.92 132.835 128.693 134.932 127.037C135.638 126.478 136.14 125.384 136.618 124.343V124.343C137.11 123.271 137.576 122.255 138.213 121.937C138.714 121.687 139.538 122.057 140.251 122.378C140.588 122.529 140.9 122.669 141.141 122.728C142.462 123.049 143.776 123.149 145.102 122.785C146.818 122.312 149.607 121.014 150.946 119.785C151.664 119.126 152.087 117.801 152.494 116.525C152.911 115.218 153.311 113.964 153.995 113.533C154.568 113.173 155.554 113.449 156.557 113.73C157.323 113.944 158.099 114.162 158.709 114.101C163.245 113.647 166.338 110.925 168.082 106.562C168.212 106.235 168.351 105.526 168.511 104.713C168.828 103.094 169.227 101.059 169.806 100.785C170.148 100.624 171.961 101.315 173.275 101.817C173.859 102.039 174.344 102.224 174.56 102.281C178.974 103.441 184.508 105.913 188.334 108.418C191.267 110.339 194.621 111.609 197.953 112.87L197.954 112.871L197.955 112.871C199.846 113.587 201.731 114.3 203.527 115.128C207.661 117.034 211.693 119.322 215.508 121.758C219.997 124.624 224.067 127.526 227.726 131.524L227.879 131.691L228.081 131.911C231.563 135.71 235.626 140.144 237.136 145.227C237.702 147.131 237.894 149.177 238.084 151.208V151.209V151.209C238.19 152.338 238.296 153.462 238.465 154.555C238.768 156.517 239.242 158.419 239.717 160.326C239.982 161.39 240.248 162.455 240.484 163.533C241.734 169.239 242.233 175.992 242.195 181.86C242.192 182.351 242.217 182.808 242.24 183.23C242.331 184.891 242.391 185.995 240.576 186.427C239.112 186.776 237.112 186.342 235.26 185.94C234.299 185.731 233.378 185.531 232.592 185.454C230.607 185.256 228.673 185.313 226.729 185.37H226.729H226.728H226.727H226.726C225.7 185.4 224.671 185.43 223.63 185.423C222.762 185.417 221.877 185.362 220.986 185.307C219.07 185.188 217.125 185.068 215.258 185.428C211.929 186.071 208.474 186.215 204.997 186.36C203.683 186.414 202.366 186.469 201.052 186.551C199.592 186.642 198.131 186.651 196.67 186.66C194.888 186.671 193.106 186.681 191.327 186.841C191.106 186.861 190.588 186.959 189.926 187.084C187.866 187.474 184.408 188.129 184.114 187.52C183.78 186.826 185.335 183.891 186.526 181.645C187.06 180.637 187.52 179.768 187.704 179.302C188.831 176.444 189.835 173.517 190.383 170.468C191.309 165.309 191.637 160.319 191.678 155.129C191.724 149.127 190.73 143.472 189.185 137.732C189.147 137.593 189.099 137.374 189.039 137.1C188.616 135.178 187.598 130.559 185.524 131.954C184.273 132.795 184.991 136.466 185.394 138.523C185.49 139.012 185.568 139.409 185.597 139.656C185.738 140.838 185.93 142.01 186.123 143.181C186.419 144.987 186.716 146.791 186.822 148.625C186.842 148.966 186.884 149.37 186.929 149.804C187.06 151.065 187.218 152.577 186.929 153.525C186.829 153.856 186.783 154.094 186.751 154.265C186.715 154.452 186.695 154.556 186.635 154.608C186.559 154.673 186.421 154.656 186.108 154.619C185.955 154.601 185.761 154.577 185.512 154.556C184.233 154.448 182.762 153.546 181.36 152.685C180.442 152.122 179.553 151.576 178.767 151.284C176.239 150.343 173.741 149.779 171.119 149.281C165.456 148.204 159.781 147.811 154.02 147.829C152.633 147.834 151.18 148.092 149.73 148.349H149.73C148.04 148.648 146.355 148.947 144.785 148.843C144.671 148.835 144.559 148.827 144.448 148.82C142.487 148.688 141.033 148.591 138.787 149.03C139.147 146.963 140.024 144.992 140.902 143.019C141.9 140.776 142.9 138.53 143.142 136.14C143.759 130.054 138.93 134.171 137.316 136.588C134.991 140.072 133.136 143.745 132.549 148.052C132.438 148.866 132.536 149.686 132.632 150.494C132.738 151.378 132.842 152.248 132.667 153.078C132.452 154.103 131.747 155.234 131.073 156.316C130.658 156.982 130.254 157.629 129.983 158.223C128.317 161.86 127.158 165.671 126.064 169.528C125.979 169.832 125.911 170.115 125.849 170.373V170.373C125.528 171.717 125.37 172.378 123.679 171.57C122.898 171.197 122.284 170.471 121.68 169.756C121.33 169.343 120.984 168.933 120.61 168.597C115.645 164.139 110.407 160.001 104.672 156.583C98.6807 153.011 92.8398 151.344 86.0481 150.594C85.671 150.552 85.2337 150.514 84.757 150.473H84.7562C82.0293 150.236 78.023 149.888 76.7328 148.117C75.5949 146.556 75.0504 143.763 74.5575 141.233C74.316 139.995 74.0871 138.82 73.8067 137.883ZM77.669 136.162C75.8904 135.263 73.8669 134.241 73.6481 137.321C73.4112 136.435 73.1961 135.428 72.9709 134.377C72.3486 131.465 71.6544 128.218 70.2382 126.301C69.8415 125.765 69.3547 125.6 68.9049 125.449C68.5508 125.329 68.2194 125.218 67.9725 124.938C67.387 124.273 67.3129 122.856 67.2539 121.732V121.731V121.731C67.233 121.327 67.2137 120.962 67.1736 120.682C67.0781 120.016 66.9781 119.36 66.8789 118.711L66.8785 118.709V118.709V118.708C66.3864 115.486 65.9193 112.432 66.1893 109.051C66.1976 108.946 66.2039 108.764 66.2123 108.533C66.2516 107.453 66.3295 105.305 66.8086 105.003C67.2736 104.709 68.5893 105.099 69.6766 105.42V105.421C70.2336 105.585 70.7308 105.733 71.0229 105.761C72.7621 105.931 74.5135 106.166 76.2687 106.4C81.2417 107.066 86.2464 107.736 91.0959 106.955C96.985 106.007 102.634 104.004 108.063 101.44C108.18 102.117 108.484 102.66 108.974 103.069C109.145 102.805 109.295 102.556 109.437 102.322C110.182 101.089 110.673 100.277 112.603 99.9595C114.068 99.7186 116.095 100.196 117.31 101.155C122.012 104.863 116.651 108.519 113.559 110.183C117.38 114.588 118.584 123.916 114.186 128.418C113.559 129.06 112.929 129.648 112.306 130.232L112.305 130.232C111.193 131.272 110.098 132.296 109.061 133.579C107.368 135.675 106.014 137.304 103.56 138.056C103.269 138.145 102.969 138.239 102.663 138.334C100.243 139.087 97.3989 139.971 95.0373 140.1C93.3018 140.195 91.4399 139.818 89.6454 139.454C88.8214 139.287 88.0112 139.123 87.2341 139.008C84.1636 138.557 81.1889 137.84 78.3507 136.498C78.1306 136.394 77.9021 136.279 77.669 136.162ZM70.3156 174.108C70.4939 174.337 70.8304 174.725 71.2635 175.226C73.8561 178.22 79.9305 185.236 76.6102 186.256C75.1885 186.693 72.9354 184.246 71.3447 182.519C70.8417 181.973 70.4047 181.498 70.0808 181.21C67.9934 179.348 65.8068 178.125 63.2611 177.098C57.0481 174.593 51.4269 172.34 44.6611 173.381C43.6914 173.53 42.6519 173.78 41.5893 174.035C39.4726 174.543 37.2625 175.074 35.3228 174.877C32.3904 174.579 33.15 171.837 34.9838 170.306C35.6053 169.788 36.3197 169.521 37.006 169.265C38.1296 168.845 39.1784 168.453 39.6253 167.029C39.9426 166.017 39.9723 164.887 40.0024 163.743C40.0413 162.268 40.0811 160.769 40.7369 159.461C41.732 157.478 44.0777 155.42 45.8885 154.271C46.1513 154.104 46.4769 153.954 46.8096 153.801C47.4755 153.494 48.1689 153.175 48.4438 152.683C48.6987 152.227 47.9701 150.144 47.5127 148.836V148.836C47.3629 148.408 47.2424 148.064 47.1946 147.886C46.9486 146.966 46.6962 146.046 46.4443 145.125C45.727 142.508 45.0084 139.885 44.4154 137.242C43.6722 133.931 43.4788 132.215 46.8059 131.014C49.5399 130.026 52.3455 129.321 55.1456 128.617C57.5457 128.015 59.942 127.413 62.2864 126.634C61.6796 124.977 60.2031 125.376 58.6865 125.787C57.9525 125.986 57.2092 126.187 56.5501 126.159C54.0739 126.055 51.2084 125.2 48.8502 124.403C43.4968 122.592 39.8543 118.076 39.0269 112.253C38.9503 111.717 39.0072 110.953 39.0662 110.165C39.147 109.076 39.2315 107.94 38.9746 107.285C38.6816 106.538 38.0137 106.06 37.3425 105.579C37.055 105.373 36.767 105.167 36.5076 104.939C34.2782 102.98 32.3038 100.292 31.101 97.5085C29.8958 94.7193 29.8117 91.5862 30.5122 88.6426C30.5687 88.4044 30.6219 88.1964 30.6691 88.01C30.9454 86.9268 31.0358 86.5724 30.5704 85.2642C30.2766 84.4386 29.8962 83.6551 29.5149 82.8694C29.0772 81.967 28.6378 81.062 28.3264 80.0876C27.3727 77.1015 26.8525 73.8824 26.9044 70.7291C26.9433 68.397 27.5447 66.9129 28.2071 65.2783C28.5495 64.4334 28.9077 63.5486 29.2132 62.4856C29.6367 61.0129 29.461 59.2033 29.2864 57.4021C29.1693 56.1926 29.0521 54.9866 29.1174 53.8895C29.3241 50.394 30.1778 47.5855 31.6514 44.4743C33.9154 39.6939 37.5006 34.5695 42.1677 32.0629C42.5925 31.8343 43.144 31.7049 43.6956 31.5755C44.3409 31.4237 44.9871 31.2723 45.4315 30.9613C46.2472 30.3914 46.4644 29.6062 46.7213 28.6766C46.7874 28.4384 46.8557 28.191 46.9373 27.9352C47.894 24.9438 49.0883 22.5204 51.1569 20.2331C57.8662 12.8162 69.6226 10.1893 79.0508 10.8153C79.6585 10.8557 80.2557 10.9899 80.8458 11.1224C81.9008 11.3593 82.9336 11.5909 83.9631 11.2746C84.5687 11.0882 85.1943 10.6425 85.8237 10.1946C86.3494 9.81991 86.8775 9.44395 87.399 9.21496C88.8499 8.57886 90.3033 8.20641 91.8643 8.04365C94.9469 7.72166 97.4541 8.06208 100.295 9.15311C101.137 9.47686 101.951 9.82342 102.773 10.1739L102.774 10.1744C102.999 10.2704 103.225 10.3665 103.452 10.4626C104.728 11.0026 104.973 10.9337 105.718 10.7249C105.948 10.6604 106.226 10.5824 106.596 10.5052C109.725 9.85194 111.522 10.3354 114.294 11.7348C114.565 11.8712 114.892 11.9949 115.23 12.1222C115.816 12.3433 116.434 12.5758 116.837 12.9065C117.245 13.2426 117.543 13.8896 117.841 14.5354C118.199 15.3119 118.557 16.0866 119.103 16.3156C119.46 16.4656 120.294 16.1656 121.035 15.8993C121.449 15.7506 121.834 15.6124 122.091 15.5685C122.931 15.4251 123.759 15.461 124.589 15.497C125.008 15.515 125.427 15.5334 125.848 15.5286C128.073 15.5032 130.426 15.59 132.457 16.6929C133.731 17.3843 135.221 18.61 136.445 19.6168C136.691 19.8194 136.927 20.0133 137.147 20.1919C137.853 20.7626 138.456 21.5299 139.061 22.3011C140.022 23.5242 140.99 24.7569 142.387 25.2311C142.85 25.3882 143.332 25.3812 143.817 25.3741C144.265 25.368 144.716 25.3614 145.154 25.4856C146.341 25.8216 147.48 26.7227 148.441 27.5185C149.131 28.0901 149.777 28.9771 150.418 29.8576C151.312 31.0859 152.196 32.3006 153.177 32.6248C153.734 32.8086 154.444 32.8064 155.175 32.8042C155.92 32.8016 156.686 32.7994 157.335 32.9933C158.949 33.4759 160.287 34.1756 161.483 35.4557C163.766 37.8979 164.41 41.5083 164.508 44.82C164.516 45.0959 164.472 45.5267 164.422 46.0141C164.309 47.1038 164.167 48.4743 164.52 49.0218C164.759 49.3938 165.35 49.6824 165.956 49.9785C166.496 50.2422 167.047 50.5116 167.374 50.8511C169.547 53.106 170.528 56.8638 170.748 59.9531C170.935 62.5786 170.501 64.6269 170.02 66.8953C169.856 67.6723 169.686 68.4746 169.533 69.3349C169.415 70.0057 169.285 70.325 169.218 70.4895C169.182 70.579 169.164 70.6225 169.176 70.6518C169.189 70.6799 169.228 70.6948 169.307 70.7238C169.468 70.7839 169.793 70.9045 170.372 71.3287C171.534 72.1789 172.337 72.7738 173.09 74.1083C174.666 76.8988 175.062 80.1885 174.802 83.3686C174.609 85.7213 173.856 87.7182 173.095 89.7371C172.572 91.1234 172.046 92.5197 171.694 94.0481C174.901 94.0481 178.308 94.7645 181.545 95.4449C182.322 95.6085 183.09 95.77 183.843 95.9187C184.903 96.1288 185.787 96.6355 186.69 97.1532H186.69H186.69C187.008 97.3357 187.328 97.519 187.659 97.6914C188.35 98.0512 188.931 98.2109 189.524 98.374C189.874 98.4706 190.229 98.5679 190.613 98.7088L190.684 98.7346C191.86 99.1646 192.359 99.3471 192.757 99.2093C193.049 99.108 193.288 98.8338 193.701 98.3569C193.886 98.1446 194.106 97.8919 194.381 97.5962C201.33 90.1236 211.222 85.6121 221.197 85.759C226.761 85.8402 232.143 86.6101 237.345 88.7097L237.631 88.8251C239.711 89.663 241.981 90.5776 243.81 91.8819C245.989 93.4375 246.344 93.4449 249.142 93.5059L249.284 93.509C259.891 93.7397 270.183 99.7116 277.903 106.95C278.479 102.892 283.828 100.192 287.697 98.2394C288.456 97.8559 289.159 97.5015 289.757 97.1712C289.99 97.0422 290.22 96.9246 290.444 96.8105C291.412 96.3161 292.26 95.8836 292.757 94.8369C293.092 94.1337 293.219 92.997 293.344 91.8898V91.8893C293.433 91.0984 293.52 90.3228 293.68 89.731C294.383 87.1229 295.196 83.9319 295.132 81.1813C295.04 77.144 294.543 73.1164 294.045 69.0862C293.561 65.1673 293.077 61.2459 292.965 57.3108C292.951 56.8217 292.927 56.3181 292.903 55.807C292.829 54.2242 292.752 52.5725 292.944 51.0722C292.997 50.659 293.083 50.2861 293.164 49.9351C293.396 48.9257 293.587 48.0935 292.844 46.9955C292.063 45.8404 291.011 45.0415 289.961 44.244C288.456 43.1021 286.956 41.9632 286.262 39.7851C284.364 33.8242 287.625 27.7286 292.078 24.1831C293.026 23.4285 293.966 22.8938 294.878 22.3748C296.433 21.4904 297.907 20.6516 299.202 18.8482C299.888 17.8923 300.535 16.8714 301.185 15.8462C302.288 14.1059 303.399 12.352 304.727 10.8772C305.367 10.1656 305.987 9.36631 306.614 8.55868H306.614C307.718 7.13644 308.841 5.68744 310.134 4.64468C312.213 2.968 315.265 1.83487 317.747 1.0382C323.706 -0.874489 331.023 -0.417811 335.216 4.92413C339.49 10.3705 333.194 18.0717 329.623 21.8721C328.69 22.8657 327.842 23.9427 326.994 25.0206C326.268 25.9436 325.541 26.8674 324.76 27.74C323.968 28.6244 323.08 29.4197 322.206 30.2032C321.233 31.0754 320.275 31.9326 319.483 32.8828C319.255 33.1561 319.022 33.4333 318.787 33.7141C317.39 35.3767 315.894 37.1578 314.765 38.981C314.551 39.3271 314.311 39.6829 314.064 40.0479C313.349 41.1073 312.585 42.2405 312.276 43.4061C311.905 44.8099 311.958 44.834 312.242 44.9608C312.414 45.0371 312.669 45.1516 312.966 45.6316C313.122 45.8834 313.258 46.0896 313.378 46.2707C313.876 47.0266 314.095 47.3587 314.316 48.8213C314.581 50.5839 314.958 51.8741 315.866 53.3801C316.173 53.889 316.485 54.3918 316.797 54.8932L316.797 54.8936L316.798 54.8954L316.799 54.898L316.801 54.9011C318.006 56.8405 319.197 58.759 320.034 60.9362C321.148 63.8315 322.003 66.7624 322.868 69.7249L322.868 69.7253V69.7258V69.7262L322.868 69.7267C323.093 70.4961 323.318 71.2678 323.548 72.0407C323.672 72.4579 323.785 72.8922 323.899 73.3314L323.899 73.3327L323.9 73.3345L323.9 73.3362C324.185 74.4364 324.478 75.5665 324.98 76.5294C325.962 78.4123 326.115 78.2895 327.532 77.1497L327.607 77.0896C328.724 76.1921 329.843 75.2818 330.968 74.368L330.971 74.3658C334.315 71.6486 337.699 68.898 341.16 66.3553C343.811 64.4084 346.564 62.5019 349.361 60.7962C349.667 60.6093 350.03 60.3997 350.426 60.1698C352.516 58.9586 355.559 57.1955 356.367 55.3692C356.888 54.1904 356.864 53.0516 356.841 51.9355C356.807 50.3229 356.774 48.7581 358.388 47.1902C360.165 45.4622 363.063 44.5041 365.379 44.0843C367.797 43.6465 370.401 43.9939 372.914 44.3287C373.805 44.4475 374.684 44.5647 375.54 44.6449C378.846 44.9547 382.079 44.6173 385.321 43.9084C386.458 43.6596 387.835 43.153 389.321 42.6059H389.321C394.321 40.7652 400.556 38.4704 403.035 44.0321C404.135 46.4945 403.796 49.1643 403.47 51.7552C403.378 52.4861 403.286 53.2108 403.227 53.9228C402.997 56.7427 402.206 59.7368 400.532 62.0566C398.936 64.2636 396.736 64.7291 394.37 65.2296H394.369C393.894 65.3301 393.413 65.4319 392.928 65.5499C391.182 65.9732 389.412 66.2592 387.643 66.5457C385.941 66.8212 384.239 67.0963 382.558 67.4937C380.868 67.8929 379.202 68.0873 377.467 68.1711C376.755 68.2057 375.896 68.0846 375.045 67.9644C374.054 67.8245 373.072 67.6859 372.342 67.7973C371.595 67.9114 371.431 68.2469 371.247 68.6233C371.115 68.8945 370.971 69.1862 370.594 69.4327C370.402 69.5582 370.105 69.5709 369.834 69.5819C369.588 69.5924 369.363 69.6016 369.254 69.6933C368.683 70.1746 368.481 70.5996 368.104 71.3954L368.098 71.4073L368.095 71.4147L368.09 71.4266L368.031 71.549L367.988 71.6393C366.835 74.0539 365.213 76.4193 363.658 78.686C363.254 79.2752 362.855 79.8573 362.47 80.432C362.351 80.6088 362.231 80.7887 362.11 80.9712L362.009 81.123C361.914 81.266 361.818 81.4103 361.721 81.556C360.331 83.6511 358.787 85.9779 357.223 87.7476C354.702 90.6022 352.227 93.6432 349.752 96.6842L349.75 96.6855C348.375 98.3754 347 100.065 345.617 101.723C343.647 104.084 341.284 106.596 338.994 108.625C338.751 108.841 338.422 109.049 338.08 109.265V109.266C337.43 109.677 336.735 110.117 336.498 110.692C336.125 111.598 336.758 113.292 337.26 114.635C337.45 115.145 337.622 115.605 337.712 115.951C338.086 117.389 338.305 118.849 338.522 120.304C338.757 121.875 338.992 123.441 339.42 124.969C340.21 127.783 340.496 130.852 340.671 133.786C340.795 135.853 340.964 137.887 341.132 139.909V139.911C341.503 144.374 341.868 148.776 341.729 153.342C341.554 159.063 341.354 164.551 339.458 170.169C337.733 175.282 332.564 180.849 327.757 182.733C324.896 183.855 322.237 184.875 319.358 185.483L318.822 185.596C316.14 186.162 313.341 186.752 310.694 187.545C305.455 189.113 299.934 190.209 294.493 190.746C287.529 191.434 280.264 191.499 273.319 191.247C270.152 191.131 266.896 191.124 263.77 191.134C261.604 191.141 259.523 191.442 257.413 191.748C256.367 191.899 255.314 192.052 254.241 192.17C248.493 192.801 242.581 192.86 236.67 192.918C230.831 192.976 224.993 193.034 219.318 193.645C217.423 193.849 215.53 194.116 213.633 194.383H213.632H213.631C209.877 194.913 206.109 195.444 202.295 195.491C199.415 195.526 196.512 195.429 193.632 195.334C191.371 195.259 189.124 195.184 186.913 195.174C186.567 195.172 186.231 195.177 185.9 195.182C184.706 195.2 183.583 195.217 182.336 194.916C182.093 194.858 181.822 194.751 181.539 194.639L181.539 194.639C180.841 194.363 180.069 194.057 179.466 194.38C178.957 194.652 178.534 195.525 178.17 196.275C178.004 196.618 177.85 196.936 177.706 197.159C176.702 198.716 175.479 199.966 174.188 201.256C169.06 206.379 163.979 208.104 157.25 209.981C154.161 210.843 152.636 211.294 150.042 213.266C147.93 214.873 145.791 216.027 143.36 216.974C138.59 218.832 132.965 217.395 128.482 215.783C127.803 215.539 127.114 215.302 126.419 215.064C124.891 214.538 123.336 214.004 121.812 213.367C120.265 212.721 118.857 211.856 117.451 210.993C116.111 210.171 114.774 209.35 113.32 208.721C113.536 210.822 112.244 212.042 110.999 213.219C110.27 213.908 109.557 214.581 109.171 215.407C108.838 216.12 108.769 217.035 108.698 217.974C108.625 218.939 108.55 219.93 108.185 220.758C107.517 222.274 106.485 223.707 104.874 224.104C102.68 224.644 98.7577 222.085 97.2164 220.592C96.8758 220.263 96.5498 219.714 96.2145 219.15C95.7077 218.298 95.18 217.41 94.5489 217.189C93.6241 216.864 92.1777 217.73 90.9386 218.471C90.3468 218.826 89.8019 219.152 89.3843 219.306C83.1943 221.597 76.9215 222.677 70.2754 221.765C64.1658 220.926 58.5183 218.785 52.8075 216.62C52.2237 216.399 51.6391 216.177 51.0532 215.956C38.6854 211.301 27.9201 203.638 18.2355 194.411C18.0653 194.249 17.871 194.092 17.6729 193.933C17.2438 193.587 16.7975 193.227 16.5433 192.767C16.3656 192.445 16.2937 191.883 16.2302 191.387C16.1778 190.977 16.1311 190.612 16.0352 190.464C15.5183 189.664 14.7906 189.635 13.8939 189.6H13.8934C13.6955 189.592 13.4894 189.584 13.2754 189.567C9.61902 189.277 6.71446 188.352 3.88038 185.783C-0.58027 181.74 -2.23035 172.314 4.60763 169.81C6.35552 169.17 8.27929 169.043 10.0862 169.437C10.3872 169.503 11.0191 169.83 11.712 170.188C12.7344 170.716 13.8898 171.313 14.3119 171.243C15.0767 171.116 15.1908 170.344 15.2962 169.631C15.3388 169.343 15.38 169.064 15.462 168.841C16.1854 166.88 17.2033 165.153 18.4305 163.489C20.4702 160.722 22.9556 157.941 25.5062 155.689C27.9925 153.493 30.7047 152.394 33.6191 151.212C33.9522 151.077 34.2879 150.941 34.6264 150.802C36.8486 149.889 41.1863 148.322 43.5399 149.138C46.6054 150.202 45.1047 153.714 43.1733 154.942C41.7973 155.817 40.2836 156.435 38.7653 157.055C37.2399 157.677 35.7095 158.301 34.3088 159.191C32.0217 160.644 29.882 162.495 27.7774 164.315C27.0433 164.95 26.3135 165.581 25.5832 166.19C24.5277 167.07 23.538 168.046 22.5492 169.022C21.4093 170.146 20.2707 171.269 19.0348 172.242C18.4229 172.723 17.4236 173.566 17.2334 173.832C17.2125 173.861 17.2063 173.957 17.1981 174.083C17.1804 174.357 17.153 174.779 16.946 175.007C16.9022 175.055 16.8603 175.101 16.8199 175.146L16.7153 175.262C16.231 175.799 15.9954 176.061 15.7128 176.142C15.4452 176.219 15.1354 176.134 14.5322 175.969C14.3494 175.919 14.1397 175.862 13.8961 175.799C11.5128 175.188 5.82332 173.806 4.21642 176.904C2.80045 179.633 8.44481 182.097 10.5058 182.997L10.6331 183.053C13.0063 184.091 13.8667 185.133 15.2621 186.822C15.5443 187.163 15.8485 187.531 16.1915 187.931C17.6615 189.647 19.8157 190.976 21.8749 192.246C22.741 192.78 23.5902 193.304 24.365 193.842C28.6344 196.807 33.304 199.121 37.9426 201.42L37.9438 201.421L37.9459 201.422C39.4492 202.167 40.949 202.91 42.4309 203.673C48.289 206.691 54.5836 208.868 60.6902 210.98L60.7986 211.017C64.5057 212.299 68.9484 213.675 72.8391 214.07C76.7596 214.468 80.4361 213.798 84.2824 213.014C85.8204 212.7 86.9817 212.46 88.5904 211.865C88.8536 211.768 89.1788 211.701 89.5123 211.632C90.0857 211.514 90.6846 211.391 91.044 211.098C91.6659 210.591 91.6668 210.156 91.6684 209.514C91.6689 209.245 91.6693 208.94 91.7153 208.579C92.2794 204.137 94.8042 207.456 96.5548 209.757C96.9243 210.243 97.2595 210.684 97.5345 210.996C97.7851 211.281 98.0346 211.579 98.2873 211.881L98.2882 211.882C99.2612 213.044 100.277 214.258 101.548 214.953C103.553 216.05 103.901 215.533 104.559 213.724C104.732 213.247 104.89 212.761 105.047 212.279C106.003 209.338 106.907 206.556 110.902 206.984C110.207 206.361 109.519 205.756 108.838 205.157C105.92 202.591 103.138 200.145 100.59 196.937C98.5246 194.337 96.5489 191.608 94.5811 188.89L94.5807 188.889L94.5786 188.886C93.5935 187.525 92.61 186.166 91.6182 184.828C90.8206 183.752 90.0568 182.542 89.2793 181.31C87.6806 178.778 86.0242 176.154 83.8962 174.409C82.8964 173.589 79.8568 171.7 78.6997 171.74C77.8251 171.77 76.9998 172.541 76.1569 173.329C75.3313 174.101 74.4884 174.889 73.5652 175.011C71.505 175.284 70.5562 174.53 69.9678 172.776C69.6431 171.808 69.9042 170.762 70.1453 169.796C70.3575 168.947 70.5541 168.16 70.3236 167.541C70.2583 167.366 70.026 167.174 69.7711 166.964C69.4899 166.732 69.1806 166.478 69.0384 166.197C68.6307 165.395 68.6015 164.339 68.7232 163.45C68.794 162.935 68.9044 162.539 69.0078 162.168V162.168C69.1706 161.584 69.3154 161.064 69.2572 160.247C69.2204 159.734 69.1246 159.267 69.0317 158.812C68.8438 157.893 68.6667 157.026 69.0086 155.94C69.366 154.804 70.2189 154.01 71.0526 153.235C71.469 152.847 71.8804 152.464 72.2235 152.045C73.5388 150.437 73.1764 149.163 72.6554 147.332C72.5592 146.995 72.4579 146.638 72.3604 146.257C71.6611 143.522 70.9015 140.803 70.1411 138.084C69.4464 135.598 68.7513 133.112 68.1026 130.613C66.8371 131.032 65.5829 131.475 64.3299 131.917L64.3286 131.917L64.3278 131.918L64.3244 131.919C62.4864 132.567 60.6505 133.215 58.7844 133.789C58.0295 134.021 57.2297 134.248 56.4111 134.479C53.9542 135.174 51.326 135.918 49.2239 137.017C48.828 137.224 48.551 137.338 48.3606 137.416C48.1476 137.503 48.0429 137.546 48.0011 137.626C47.9601 137.703 47.9785 137.814 48.0149 138.033C48.0496 138.246 48.1015 138.561 48.1325 139.045C48.1827 139.842 48.4037 140.699 48.62 141.536C48.7468 142.027 48.872 142.512 48.9594 142.974C49.0662 143.535 49.1582 144.313 49.2612 145.184C49.5809 147.89 50.0073 151.498 51.3105 152.331C51.742 152.607 52.2823 152.603 52.8489 152.598C53.6516 152.593 54.5066 152.586 55.1791 153.376C55.7482 154.043 55.8813 154.89 56.014 155.73C56.1061 156.316 56.1981 156.899 56.4367 157.417C56.6338 157.844 56.9309 158.127 57.2314 158.412C57.4816 158.65 57.734 158.891 57.9315 159.218C58.6698 160.44 58.7442 161.505 58.8321 162.766C58.8522 163.057 58.8731 163.357 58.9033 163.673C58.9326 163.984 58.9401 164.477 58.9485 165.04C58.969 166.396 58.9958 168.156 59.3519 168.739C59.8298 169.521 60.6413 169.651 61.4741 169.784C61.8122 169.838 62.1537 169.892 62.478 169.991C65.3071 170.855 67.913 172.357 70.3156 174.108ZM81.6735 126.454C81.1496 128.173 78.7449 130.117 76.8157 129.083C74.4164 127.797 74.193 122.728 74.8508 120.564C75.9653 116.897 76.9023 121.707 77.099 123.155C77.1245 123.343 77.14 123.516 77.1546 123.677C77.2149 124.349 77.2551 124.793 77.9033 125.047C78.1871 125.159 78.588 125.113 79.0111 125.064C79.5036 125.007 80.0272 124.947 80.4331 125.128C81.0814 125.416 81.1898 125.607 81.502 126.156C81.5526 126.245 81.6087 126.344 81.6735 126.454ZM67.8281 115.543C67.7188 117.955 71.3116 125.39 72.3851 120.002C72.2984 118.394 71.5167 115.557 70.4993 114.298C69.0442 112.499 67.9298 113.317 67.8281 115.543ZM77.1898 112.633C77.1898 110.3 78.544 109.838 80.2335 111.349C81.9769 112.908 82.5465 115.511 82.7273 117.662C82.924 119.994 82.4159 120.985 80.2004 119.487C78.2607 118.175 77.2902 114.681 77.1898 112.633ZM88.7101 129.593C85.7179 129.356 82.2402 135.25 85.9171 134.788C87.304 134.695 90.0786 133.647 90.4841 131.975C90.8047 130.65 89.9288 129.69 88.7101 129.593ZM111.443 105.799C111.275 103.367 114.846 102.097 115.309 104.675C115.744 107.108 110.604 109.609 111.443 105.799ZM54.9334 142.76C54.9548 139.706 51.3947 134.78 50.1224 139.76C50.3041 141.273 50.9058 145.27 52.892 145.611C54.4827 145.885 54.9234 144.101 54.9334 142.76Z" fill="black"/>
</svg>
