<svg width="557" height="671" viewBox="0 0 557 671" fill="none" xmlns="http://www.w3.org/2000/svg">
<path fill-rule="evenodd" clip-rule="evenodd" d="M256.622 1.24639C328.449 17.6371 278.948 163.024 342.089 200.984C403.356 237.817 518.63 115.274 551.709 178.648C585.562 243.503 441.251 279.21 419.357 349.016C406.638 389.569 461.483 424.645 461.227 467.144C460.886 523.645 466.137 598.918 417.675 627.968C369.534 656.826 312.403 583.554 256.622 589.793C189.664 597.282 136.228 690.644 73.3337 666.482C14.6246 643.927 17.6388 555.437 6.21112 493.591C-2.7124 445.298 -3.73224 394.548 14.6732 349.016C30.5078 309.844 77.3031 294.15 100.979 259.155C122.297 227.645 125.561 188.63 145.218 156.058C178.636 100.682 193.565 -13.1431 256.622 1.24639Z" fill="url(#paint0_linear_661_4)"/>
<defs>
<linearGradient id="paint0_linear_661_4" x1="278.414" y1="0" x2="278.414" y2="670.464" gradientUnits="userSpaceOnUse">
<stop stop-color="#14B8A6"/>
<stop offset="1" stop-color="#13524E"/>
</linearGradient>
</defs>
</svg>
