<svg width="649" height="649" viewBox="0 0 649 649" fill="none" xmlns="http://www.w3.org/2000/svg">
<path fill-rule="evenodd" clip-rule="evenodd" d="M296.451 78.4367C328.837 97.188 348.412 137.655 385.107 144.998C439.202 155.822 497.614 105.631 547.719 128.714C592.675 149.425 608.334 207.283 622.956 254.571C638.094 303.529 665.491 366.012 633.463 406.015C595.059 453.981 499.609 412.585 459.306 458.967C421.62 502.338 480.456 586.88 440.46 628.131C406.619 663.033 340.639 647.197 296.451 626.931C253.173 607.083 246.285 542.845 204.546 519.936C166.041 498.802 112.84 528.2 75.2289 505.513C37.0322 482.472 -3.53773 441.148 0.245819 396.701C4.4701 347.077 81.7515 331.155 94.1766 282.926C106.074 236.745 57.6079 191.745 65.1782 144.66C73.761 91.2786 87.2627 17.5278 139.241 2.64415C195.879 -13.5737 245.466 48.9171 296.451 78.4367Z" fill="url(#paint0_linear_659_3)"/>
<defs>
<linearGradient id="paint0_linear_659_3" x1="324.17" y1="0" x2="324.17" y2="648.693" gradientUnits="userSpaceOnUse">
<stop stop-color="#13524E"/>
<stop offset="1" stop-color="#14B8A6"/>
</linearGradient>
</defs>
</svg>
