<svg width="600" height="601" viewBox="0 0 600 601" fill="none" xmlns="http://www.w3.org/2000/svg">
<rect width="600" height="600" rx="50" fill="white"/>
<path d="M300 400C300 344.772 344.772 300 400 300H600V550C600 577.614 577.614 600 550 600H300V400Z" fill="#F1F1F1"/>
<path d="M300 0H550C577.614 0 600 22.3858 600 50V300H400C344.772 300 300 255.228 300 200V0Z" fill="#3FBDF1"/>
<path d="M0 300H200C255.228 300 300 344.772 300 400V600H50C22.3858 600 0 577.614 0 550V300Z" fill="#3FBDF1"/>
<path d="M0 50C0 22.3858 22.3858 0 50 0H300V200C300 255.228 255.228 300 200 300H0V50Z" fill="#F1F1F1"/>
<path fill-rule="evenodd" clip-rule="evenodd" d="M139.651 154.723C150.002 153.962 164.193 156.068 167.187 168.189C168.115 172.6 169.945 174.535 173.019 177.42C192.527 203.063 124.461 207.373 120.962 182.368C113.59 185.125 105.566 185.709 98.1899 188.496C94.1894 190.013 90.5619 192.408 87.0859 194.912C72.911 205.251 58.9367 215.886 44.8123 226.299C50.278 228.883 60.6698 238.753 56.4354 245.384C55.4489 246.676 53.9848 247.567 52.6895 248.511L52.0066 249.011C50.5372 250.093 48.0638 251.936 46.696 252.937L46.4438 253.126C46.3448 253.2 46.2333 253.282 46.1325 253.356C55.9961 268.166 67.5397 281.831 80.3444 294.03C81.4347 295.072 80.9882 297.399 79.4101 297.67L77.5301 297.953C71.4599 298.862 65.2743 299.678 59.1571 299.186C53.1995 298.52 49.6094 293.104 45.5366 289.18C37.4037 280.644 29.8329 271.537 22.937 261.917L22.7935 261.715C20.6473 258.702 17.7986 255.625 17.5901 251.734C17.2099 250.566 18.2105 248.89 19.172 248.093L19.5002 247.606C24.657 239.99 30.4933 232.645 37.8053 227.129C37.7781 226.307 38.1481 225.443 38.8808 224.898L69.4395 202.188C77.3241 196.615 84.6527 190.067 93.1991 185.566C101.938 181.245 111.8 181.075 120.756 177.469C120.945 174.87 126.266 174.206 126.098 174.609C131.712 171.128 134.603 166.988 135.494 163.182C136.385 159.376 135.278 155.905 139.651 154.723ZM215.22 236.26C224.67 221.659 233.676 237.814 237.61 247.551C242.258 260.876 232.633 277.267 226.415 288.753C224.125 291.943 221.112 298.672 217.075 299.16C206.905 299.118 196.721 298.382 186.545 298.162C179.974 296.488 189.193 286.348 195.562 290.051C197.491 290.793 198.454 293.042 200.336 293.764C201.022 293.915 201.069 293.601 201.348 292.9L201.387 292.802C201.885 291.589 202.366 290.369 202.856 289.152C206.999 278.674 211.379 268.288 215.734 257.907C216.665 255.654 215.36 253.797 213.664 252.455C212.365 251.358 206.782 248.677 212.042 249.857C210.016 245.028 212.451 240.127 215.22 236.26ZM191.76 216.273C192.67 216.156 193.839 217.098 193.978 218.01C195.139 225.571 193.846 233.046 192.296 240.443L192.01 241.796C191.439 244.494 190.801 247.245 189.374 249.609C187.919 252.023 185.718 253.842 183.191 254.947C175.083 258.265 165.002 254.983 159.037 248.781C155.222 243.414 158.576 236.672 159.216 230.79C158.612 229.205 158.388 227.371 158.038 225.736L157.995 225.542L156.636 219.446C156.336 218.101 157.29 216.261 158.858 216.445C169.791 217.733 180.841 217.675 191.76 216.273Z" fill="white"/>
<path fill-rule="evenodd" clip-rule="evenodd" d="M229.941 234.35C229.908 234.199 230.084 234.085 230.198 234.197C232.121 236.101 233.479 238.534 234.971 240.789C236.391 242.936 237.936 245 238.995 247.37C239.978 249.573 240.613 251.808 240.802 254.229C240.991 256.632 240.746 259.041 240.333 261.408C239.521 266.072 237.785 270.487 235.879 274.777C234.026 278.946 231.932 282.998 229.721 286.975L228.929 288.395C227.962 290.124 226.985 291.849 225.938 293.524C224.636 295.609 223.448 297.76 221.731 299.5C220.512 300.737 218.214 299.5 218.769 297.73C219.01 296.96 219.199 296.234 219.574 295.519C219.858 294.974 220.178 294.446 220.479 293.909C221.08 292.835 221.677 291.757 222.278 290.683C223.542 288.427 224.873 286.212 226.125 283.948C228.298 280.021 230.348 276.021 232.162 271.905L232.375 271.418C234.044 267.606 235.624 263.658 236.358 259.534C237.129 255.19 236.438 251.094 234.936 247.011C234.158 244.899 233.284 242.835 232.376 240.778L232.201 240.386C231.324 238.423 230.393 236.471 229.941 234.35ZM136.543 159.201C136.561 159.124 136.688 159.119 136.7 159.201C137.239 162.891 136.038 166.793 134.08 169.862C133.011 171.538 131.694 173.052 130.141 174.268L130.019 174.362C128.433 175.58 126.29 176.756 124.32 175.966C124.258 175.942 124.201 175.914 124.147 175.882C124.369 176.235 124.573 176.606 124.782 176.976C125.401 178.08 125.956 179.223 126.56 180.336C127.641 182.327 128.927 184.108 130.553 185.668C137.057 191.901 146.188 193.382 154.763 193.311L155.368 193.305C159.135 193.278 164.061 193.476 166.969 190.676C168.532 189.173 169.392 187.034 170.17 185.027C170.933 183.06 171.456 181.03 172.091 179.028C170.766 178.096 169.551 176.957 168.596 175.625C167.6 174.238 166.848 172.678 166.413 171.011L166.349 170.763C166.014 169.433 165.676 167.676 166.217 166.421C166.279 166.276 166.51 166.286 166.576 166.421C166.867 167.022 166.923 167.698 167.103 168.34C167.311 169.087 167.546 169.83 167.857 170.538C168.457 171.909 169.249 173.212 170.201 174.354C170.986 175.299 171.836 176.166 172.809 176.895C173.381 175.879 174.711 175.742 175.824 176.077C177.316 176.525 178.788 177.099 180.226 177.707L180.513 177.828C181.935 178.434 183.542 178.991 184.874 179.818C185.682 180.213 186.457 180.612 187.187 180.964C190.82 182.717 194.399 184.578 197.963 186.473L198.726 186.88C200.219 187.678 201.699 188.484 202.997 189.598C204.318 190.731 205.345 192.281 206.31 193.733C208.515 197.053 210.592 200.469 212.772 203.807C217.174 210.543 221.576 217.279 226.004 223.999C227.075 225.625 228.282 227.212 229.243 228.908C230.163 230.528 230.138 232.192 229.959 234.001L229.925 234.333C229.581 237.651 228.99 240.838 227.177 243.683C224.324 248.157 219.829 250.941 215.074 252.859C215.655 253.304 216.2 253.783 216.893 254.088C217.958 254.556 219.093 254.798 220.246 254.894C221.474 254.996 222.859 254.681 223.855 255.538C224.254 255.88 224.266 256.705 223.855 257.047C222.897 257.85 221.661 257.62 220.495 257.485L220.425 257.478C219.343 257.355 218.276 257.149 217.259 256.741C217.009 256.64 216.76 256.526 216.518 256.402C216.526 256.424 216.53 256.449 216.526 256.478C216.352 257.842 215.976 259.133 215.579 260.437L215.326 261.264C214.813 262.952 214.296 264.635 213.764 266.319C212.75 269.525 211.647 272.701 210.539 275.872L209.583 278.609C208.602 281.416 207.607 284.22 206.508 286.981C205.83 288.685 205.147 290.388 204.465 292.09C203.8 293.752 203.246 295.547 202.421 297.13C201.742 298.433 199.89 297.501 200.187 296.161C200.576 294.404 201.311 292.661 201.873 290.951C202.444 289.215 203.003 287.478 203.584 285.746C204.593 282.738 205.712 279.77 206.837 276.805L207.951 273.866C209.044 270.986 210.149 268.108 211.331 265.265L211.46 264.954C212.688 261.981 213.955 258.637 216.187 256.333C216.215 256.301 216.256 256.285 216.297 256.281C215.749 255.976 215.236 255.606 214.784 255.168L214.763 255.145C214.584 254.951 213.847 253.994 213.609 253.423C213.301 253.535 212.992 253.644 212.683 253.751C212.146 253.937 211.7 253.802 211.385 253.507L210.786 253.889C210.146 254.29 209.457 254.67 208.75 254.69C207.858 254.714 207.158 254.209 206.681 253.464C206.253 252.798 205.999 252.079 205.457 251.482C204.924 250.896 204.307 250.402 203.676 249.93L202.933 249.374C201.571 248.352 200.25 247.32 199.153 245.972C198.6 245.29 197.862 244.481 197.527 243.663C197.461 243.505 197.421 243.356 197.412 243.212C197.339 243.723 197.264 244.236 197.189 244.747C196.135 251.941 195.285 259.184 195.013 266.458C194.88 270.046 194.82 273.638 194.976 277.227C195.053 279.02 195.181 280.812 195.356 282.598C195.443 283.493 195.533 284.388 195.64 285.279L195.664 285.485C195.695 285.758 195.715 286.023 195.692 286.274C196.54 286.703 197.029 287.789 197.368 288.637C197.627 289.283 197.426 289.911 197.01 290.364C197.507 290.83 197.951 291.377 198.323 292.003C198.399 292.129 198.236 292.229 198.14 292.149C197.528 291.65 196.87 291.24 196.183 290.925C195.823 291.066 195.429 291.103 195.067 291.001C194.673 290.889 194.333 290.62 194.089 290.277C192.138 289.948 190.111 290.35 188.355 291.605C187.991 291.866 187.661 292.161 187.346 292.482C187.292 292.538 187.237 292.609 187.18 292.679L187.564 292.83C187.723 292.892 187.852 292.939 187.902 292.95C188.237 293.02 188.576 293.057 188.915 293.087L189.424 293.131C191.379 293.297 193.326 293.352 195.144 294.192C195.526 294.368 195.393 294.973 195.032 295.074C193.705 295.443 192.389 295.415 191.037 295.316L190.748 295.293C189.491 295.195 188.143 295.2 186.918 294.844C187.211 295.668 186.812 296.744 185.587 296.912C181.909 297.415 178.206 297.178 174.523 296.844C170.804 296.508 167.087 296.189 163.358 295.99C151.296 295.337 139.215 295.463 127.143 295.64L120.32 295.741C114.879 295.82 109.438 295.881 103.997 295.839L101.45 295.814C100.374 295.803 99.2969 295.79 98.2219 295.757L97.5771 295.736C96.2962 295.688 94.6004 295.886 93.4873 295.108C92.5691 294.465 92.3646 293.289 92.9183 292.339C93.0784 292.067 93.2983 291.823 93.5279 291.585C93.9986 287.455 94.2628 283.304 94.5329 279.155C95.4704 264.637 94.9226 250.195 92.76 235.824C86.9573 237.645 81.2432 239.929 75.6759 242.38C72.6645 243.705 69.6686 245.08 66.7074 246.522C64.0047 247.84 61.2904 249.486 58.4026 250.342C58.1401 250.581 57.773 250.695 57.4474 250.589L57.4052 250.573H57.4033C57.1061 250.644 56.7763 250.601 56.4522 250.402C56.3866 250.36 56.3211 250.319 56.2555 250.277L56.1571 250.213C55.1404 249.555 54.118 248.745 53.3984 247.754C52.5245 248.587 51.5851 249.349 50.661 250.122C49.6579 250.962 48.6586 251.806 47.667 252.658C47.2735 252.996 46.8395 253.32 46.4922 253.71L46.4418 253.767C46.4337 253.776 46.426 253.785 46.4189 253.795C47.9217 254.793 49.2373 256.309 50.416 257.626C51.6817 259.04 52.9036 260.499 54.1156 261.964L55.2889 263.385C63.5852 273.446 71.9665 283.871 82.7075 291.266C84.4051 292.435 82.7866 295.282 81.1005 294.087C77.9097 291.83 74.8907 289.324 71.9913 286.687C66.91 282.07 62.3379 276.889 58.0572 271.49C55.8909 268.758 53.7881 265.959 51.7278 263.141L51.0286 262.186C50.0967 260.911 49.1698 259.633 48.2825 258.326L48.0967 258.051C47.3184 256.898 46.4906 255.602 45.9887 254.274C45.7958 254.474 45.5778 254.642 45.2595 254.77C44.7155 254.987 44.048 254.53 43.9149 253.985C43.5908 252.663 44.7097 251.877 45.6203 251.176C46.7256 250.327 47.8522 249.509 48.9808 248.696L49.3839 248.403C50.7952 247.375 52.2138 246.32 53.7515 245.508C53.7978 245.445 53.8537 245.385 53.9174 245.333C53.9907 245.274 54.062 245.216 54.1353 245.159C52.2989 242.1 50.2848 239.16 48.0375 236.382C46.3476 234.293 44.5535 232.297 42.6552 230.407L41.8024 229.559C40.5126 228.281 39.1714 226.982 37.7398 225.871L37.2917 226.393C36.6932 227.087 36.0889 227.777 35.4499 228.431C34.1922 229.714 32.9517 231.024 31.7171 232.333C29.6667 234.512 27.6858 236.757 25.7112 239.006L24.7241 240.131C22.6676 242.474 20.4646 244.774 18.5953 247.278L18.5019 247.406C17.6858 248.53 17.1049 249.773 17.4841 251.201C17.85 252.578 18.72 253.799 19.4699 254.987L19.5444 255.106C22.6059 260.004 25.8854 264.776 29.3983 269.343C36.4338 278.49 44.4589 287.159 54.0351 293.519C55.3623 294.4 54.1218 296.591 52.7927 295.7C47.2002 291.946 42.063 287.437 37.3366 282.595C32.998 278.15 29.0665 273.257 25.3819 268.235C23.5859 265.785 21.8651 263.283 20.2157 260.725C18.6165 258.243 16.7665 255.689 15.6071 252.951C14.9995 251.51 14.7756 249.952 15.2734 248.434C15.7298 247.039 16.6325 245.881 17.5715 244.791L17.6597 244.689C19.8183 242.2 22.0156 239.739 24.2321 237.302C26.4564 234.857 28.7829 232.5 31.1576 230.212C33.0231 228.411 34.9677 226.824 37.0472 225.353C36.8601 225.217 36.673 225.086 36.482 224.959C35.9014 224.571 35.7547 223.741 36.264 223.214C37.6549 221.771 39.2581 220.517 40.7666 219.204C42.1845 217.969 43.6024 216.734 45.0203 215.498C47.9062 212.985 50.7922 210.471 53.6781 207.957C58.8617 203.442 64.0163 198.896 69.1824 194.361C71.3367 192.47 73.5109 190.604 75.6796 188.731L79.5327 185.401L81.4172 183.776C82.3827 182.946 83.3689 182.124 84.4668 181.492C87.0503 180.001 90.1564 179.356 93.0028 178.566L93.1922 178.514C96.3848 177.617 99.5949 176.772 102.822 176.019C106.054 175.267 109.298 174.581 112.557 173.961C115.485 173.402 118.483 172.923 121.469 172.852C122.21 172.562 123.14 172.461 123.869 172.77C124.17 172.899 124.484 173.087 124.764 173.325C126.224 172.798 127.665 172.546 129.029 171.655C130.391 170.765 131.597 169.596 132.612 168.309C134.709 165.643 135.807 162.492 136.543 159.201ZM170.112 249.5C168.954 249.416 167.913 249.908 166.879 250.431C167.461 250.69 168.044 250.948 168.627 251.203L172.504 252.903C173.785 253.464 175.141 253.951 176.358 254.642C176.445 254.692 176.515 254.752 176.567 254.821C177.833 253.989 179.171 253.246 180.454 252.455C180.747 252.275 181.042 252.095 181.337 251.914C179.809 252.439 178.243 252.703 176.584 252.21C174.371 251.554 172.45 249.668 170.112 249.5ZM173.283 245.514L173.075 245.369C171.953 244.578 170.613 243.561 169.249 244.271C168.607 244.607 168.081 245.148 167.448 245.508C166.811 245.872 166.111 246.151 165.401 246.32C164.223 246.6 162.872 246.641 161.605 246.371L161.624 248.13C162.583 248.537 163.535 248.953 164.488 249.373C165.107 249.156 165.703 248.895 166.328 248.608L166.751 248.414C167.957 247.858 169.174 247.485 170.508 247.662C173.017 247.992 174.913 249.908 177.313 250.546C180.255 251.33 182.909 249.076 185.689 248.519C186.147 248.426 186.62 248.372 187.09 248.364L187.246 248.363L187.315 248.321C187.913 247.961 188.809 247.616 189.225 247.009C189.678 246.352 189.718 245.25 189.866 244.477C189.881 244.4 189.897 244.321 189.91 244.244C189.648 244.244 189.382 244.257 189.111 244.31C188.263 244.47 187.464 244.778 186.673 245.123C185.179 245.776 183.716 246.518 182.142 246.952C180.6 247.378 178.989 247.58 177.402 247.344C175.853 247.114 174.566 246.397 173.283 245.514ZM173.525 239.328L173.293 239.175C172.679 238.773 171.976 238.356 171.224 238.504C170.553 238.638 169.976 239.186 169.392 239.524C168.109 240.268 166.67 240.673 165.202 240.777C163.981 240.862 162.713 240.709 161.539 240.337L161.579 244.232C162.009 244.372 162.455 244.474 162.924 244.509C164.348 244.618 165.737 244.267 166.931 243.461L167.534 243.05C168.568 242.351 169.538 241.798 170.907 242.052C172.261 242.306 173.397 243.198 174.504 243.974L174.686 244.1C175.957 244.962 177.246 245.518 178.806 245.532C180.491 245.545 182.155 245.064 183.723 244.472C185.28 243.885 186.76 243.182 188.425 242.966C188.934 242.901 189.555 242.881 190.14 242.984C190.217 242.542 190.29 242.102 190.36 241.661C190.51 240.711 190.639 239.764 190.751 238.816C187.797 237.999 185.07 240.64 182.327 241.454C180.735 241.926 179.003 241.92 177.412 241.465C175.939 241.042 174.781 240.166 173.525 239.328ZM173.532 232.769C172.901 232.644 172.278 232.943 171.742 233.25C170.374 234.029 169.194 235.113 167.644 235.523C165.652 236.049 163.472 235.596 161.492 234.734C161.501 235.937 161.51 237.14 161.52 238.342C161.891 238.487 162.274 238.604 162.663 238.697C164.048 239.021 165.516 238.978 166.881 238.567C168.271 238.149 169.338 237.021 170.733 236.668C172.159 236.306 173.504 237.01 174.653 237.81L174.999 238.053C176.312 238.967 177.587 239.763 179.231 239.919C180.969 240.083 182.479 239.524 184.033 238.784L184.393 238.612C186.36 237.684 188.912 236.629 190.875 237.684C191.029 236.186 191.141 234.688 191.216 233.189C190.946 233.085 190.666 233.011 190.344 233.009C189.574 233.005 188.766 233.254 188.049 233.514C186.481 234.083 185.02 234.93 183.467 235.539C181.995 236.117 180.365 236.418 178.795 236.159C177.34 235.919 176.248 235.138 175.243 234.069L175.097 233.91C174.657 233.429 174.185 232.899 173.532 232.769ZM174.684 227.208C173.956 226.814 173.072 226.447 172.23 226.562C171.428 226.671 170.893 227.23 170.399 227.828L170.131 228.155C169.247 229.229 168.376 230.132 167.014 230.574C165.601 231.03 164.105 230.851 162.791 230.183C162.324 229.946 161.89 229.651 161.454 229.359L161.477 232.519C162.349 232.965 163.236 233.368 164.211 233.611C166.009 234.06 167.536 233.728 169.074 232.71L169.236 232.602C170.393 231.821 171.58 230.891 173.011 230.804C174.407 230.718 175.455 231.513 176.374 232.486L176.482 232.601C177.641 233.856 178.812 234.469 180.537 234.324C182.209 234.184 183.773 233.426 185.305 232.772L185.444 232.713C186.845 232.123 188.459 231.514 189.997 231.74C190.366 231.794 190.843 231.911 191.266 232.115C191.328 230.637 191.358 229.157 191.363 227.676C190.489 226.897 189.129 226.769 188.036 227.087C186.323 227.586 184.92 228.874 183.284 229.573C181.833 230.194 180.321 230.332 178.842 229.746C177.313 229.139 176.115 227.984 174.684 227.208ZM191.266 220.983C188.707 221.074 186.202 222.784 183.758 223.436C181.028 224.164 178.8 223.172 176.367 222.07L176.053 221.929C174.806 221.366 173.464 220.86 172.081 221.09C170.733 221.316 169.541 222.083 168.381 222.776L168.159 222.908C166.047 224.142 163.897 224.988 161.43 224.777C161.444 225.572 161.439 226.364 161.44 227.141C161.846 227.379 162.235 227.648 162.605 227.893L162.739 227.98C163.914 228.735 165.126 229.231 166.527 228.765C167.881 228.313 168.518 227.103 169.448 226.107C170.303 225.191 171.418 224.635 172.668 224.688C174.012 224.743 175.283 225.351 176.394 226.095C177.506 226.838 178.58 227.798 179.881 228.171C182.797 229.002 185.295 225.835 188.054 225.342C189.212 225.134 190.489 225.397 191.363 226.114C191.353 224.406 191.317 222.695 191.266 220.983ZM169.232 220.266C168.871 220.28 168.511 220.296 168.15 220.312C166.815 220.371 165.48 220.438 164.145 220.515C163.221 220.567 162.085 220.858 161.178 220.569C161.155 220.664 161.124 220.755 161.083 220.844C161.22 221.546 161.305 222.271 161.357 223.004C162.195 223.097 163.046 223.065 163.871 222.889C165.853 222.467 167.461 221.184 169.232 220.266ZM191.228 219.677C186.353 220.022 181.441 219.904 176.558 220.012L175.973 220.026C175.949 220.026 175.926 220.029 175.903 220.029C176.463 220.251 177.018 220.506 177.572 220.767L178.125 221.027C179.433 221.645 180.765 222.15 182.228 222.041C183.797 221.924 185.274 221.266 186.741 220.736C188.139 220.229 189.75 219.887 191.242 220.109C191.237 219.965 191.233 219.823 191.228 219.677Z" fill="black"/>
<path fill-rule="evenodd" clip-rule="evenodd" d="M150.817 84.5041C161.771 84.5041 177.803 92.0159 179.01 99.2429C180.43 107.76 183.586 139.785 181.868 150.265C180.15 160.746 173.451 168.489 158.635 168.489C143.82 168.489 132.761 160.192 130.223 157.343C127.683 154.495 124.607 145.629 124.607 145.629C124.607 145.629 116.496 144.216 116.458 137.576C116.42 130.936 120.533 128.884 120.533 128.884C120.533 128.884 118.313 101.336 122.978 94.5132C127.643 87.6903 139.863 84.5041 150.817 84.5041Z" fill="white"/>
<path fill-rule="evenodd" clip-rule="evenodd" d="M183.888 119.585C184.488 126.28 184.714 133.032 184.83 139.752C184.941 146.119 184.396 152.759 180.863 158.204C177.775 162.966 173.072 166.423 167.834 168.29C164.854 169.354 161.553 169.747 158.405 169.845C156.779 169.895 155.148 169.823 153.532 169.651C153.328 169.629 153.124 169.611 152.919 169.592C151.55 169.466 150.193 169.342 149.195 168.279C148.88 167.945 148.884 167.258 149.35 167.039C150.235 166.626 150.835 166.582 151.805 166.719C152.61 166.831 153.416 166.92 154.226 166.978C155.963 167.103 157.71 167.107 159.446 166.97C162.637 166.719 165.901 165.794 168.798 164.39C173.342 162.188 177.245 158.578 179.351 153.841C181.766 148.418 181.645 142.147 181.532 136.306L181.527 136.067C181.402 129.589 181.168 123.13 180.62 116.673C180.413 114.231 180.117 111.801 179.821 109.371C179.737 108.687 179.654 108.003 179.573 107.318C179.378 105.662 179.122 104.014 178.807 102.377C178.712 101.883 178.601 101.393 178.49 100.903C178.407 100.535 178.324 100.167 178.248 99.7979C178.118 99.8195 177.987 99.8316 177.852 99.8373C177.045 99.8652 176.164 99.6632 175.566 99.0748C175.336 99.2352 175.045 99.3363 174.694 99.3541C172.549 99.4629 170.383 99.4144 168.222 99.366C167.041 99.3397 165.862 99.3132 164.687 99.3125C161.355 99.3105 158.019 99.3125 154.683 99.3224C154.175 99.3239 153.666 99.3259 153.157 99.3279C150.332 99.339 147.503 99.3502 144.681 99.2729C144.083 99.2564 143.481 99.2457 142.878 99.2351C140.35 99.1902 137.786 99.1447 135.317 98.6746C134.289 102.427 134.325 106.55 136.469 109.902C137.074 110.847 136.583 111.96 135.794 112.55C134.987 113.153 133.537 114.077 132.296 114.172C132.249 114.283 132.2 114.393 132.151 114.504C132.079 114.669 132.006 114.835 131.936 115C131.344 116.385 130.811 117.779 130.437 119.246C130.245 120.002 130.079 120.77 129.94 121.544C129.952 121.679 129.963 121.814 129.977 121.949C129.977 121.963 129.979 121.976 129.981 121.992C129.989 122.048 129.998 122.111 130.005 122.147C130.022 122.242 130.039 122.337 130.057 122.433C130.11 122.726 130.163 123.018 130.22 123.31C130.4 124.251 130.539 125.2 130.637 126.153C130.816 127.897 130.799 130.163 129.144 131.195C128.259 131.747 127.198 131.69 126.262 131.32C125.74 131.113 125.283 130.834 124.812 130.548C124.716 130.489 124.618 130.429 124.52 130.37C124.368 130.279 124.213 130.195 124.057 130.112C123.863 130.007 123.668 129.902 123.482 129.783C123.389 129.723 123.3 129.651 123.217 129.576C122.591 129.713 121.979 129.968 121.636 130.143C120.715 130.612 119.907 131.292 119.221 132.073C117.761 133.735 117.322 136.076 117.527 138.25C117.718 140.273 118.491 142.596 120.048 143.942C120.726 144.527 121.57 144.871 122.463 144.861C122.903 144.856 123.309 144.762 123.732 144.647C123.914 144.598 124.113 144.576 124.312 144.556C124.574 144.527 124.835 144.499 125.055 144.409C125.627 144.173 126.333 144.892 126.1 145.483C126.048 145.614 126.002 145.74 125.959 145.863C125.854 146.155 125.759 146.421 125.603 146.666C127.201 149.344 128.951 151.939 130.813 154.43C131.992 156.006 133.32 157.408 134.653 158.815C135.216 159.408 135.779 160.003 136.333 160.613C137.158 161.52 137.501 163.307 136.009 163.695C134.698 164.04 133.679 162.804 132.87 161.825C132.762 161.694 132.657 161.567 132.557 161.449C129.017 157.314 126.341 152.567 125.088 147.208C124.524 147.621 123.876 147.845 123.193 147.941C121.832 148.134 120.457 147.858 119.265 147.151C114.751 144.474 113.659 137.241 115.773 132.708C116.283 131.617 117.036 130.643 117.954 129.886C117.882 129.744 117.853 129.577 117.899 129.399C117.982 129.085 118.071 128.776 118.165 128.467C118.062 128.421 117.987 128.324 118.002 128.18C118.073 127.425 118.143 126.671 118.214 125.917L118.252 125.505C118.244 125.096 118.231 124.688 118.219 124.279C118.192 123.341 118.164 122.402 118.175 121.458C118.185 120.453 118.219 119.449 118.252 118.446C118.29 117.291 118.329 116.136 118.333 114.981C118.346 111.24 118.425 107.501 118.506 103.762C118.587 99.9728 118.667 96.1835 118.678 92.3924C118.69 88.7093 118.697 85.0206 118.603 81.3396C118.602 81.3136 118.602 81.288 118.601 81.2625C118.601 81.2395 118.6 81.2165 118.6 81.193C118.588 80.7413 118.56 80.2661 118.531 79.7784C118.372 77.0859 118.193 74.0124 120.567 72.3986C121.028 72.0858 121.603 72.0818 122.104 72.2839C123.548 71.2517 125.357 70.7543 127.087 70.467C129.638 70.0441 132.206 69.7906 134.776 69.5369C135.527 69.4627 136.279 69.3884 137.03 69.31C138.762 69.1297 140.586 69.0606 142.329 69.1002C143.237 69.1206 144.15 69.087 145.065 69.0533C145.927 69.0216 146.792 68.9897 147.654 69.0032C149.668 69.0368 151.697 69.1141 153.719 69.2845C153.766 69.2795 153.813 69.2751 153.861 69.2706C153.909 69.2662 153.957 69.2617 154.005 69.2567C157.067 68.9551 160.125 69.1146 163.186 69.2742C163.927 69.3128 164.668 69.3514 165.41 69.3836C169.032 69.54 172.857 69.9243 176.11 71.7052C176.529 71.9339 176.883 72.1938 177.185 72.4834C177.609 72.5447 178.013 72.668 178.376 72.8755C179.423 72.6582 180.592 73.14 180.84 74.3879C181.201 76.2164 181.338 78.0607 181.122 79.9152C181.119 79.9385 181.116 79.9625 181.113 79.9871C181.112 80.0083 181.109 80.0299 181.106 80.052C181.543 81.7723 181.514 83.6513 181.151 85.3481C181.304 87.4921 181.392 89.6422 181.404 91.7888C181.406 92.1136 181.41 92.4397 181.415 92.7665C181.431 93.9336 181.448 95.1093 181.343 96.2659C181.224 97.5676 180.702 98.5975 179.882 99.5861C179.726 99.7724 179.465 99.8033 179.248 99.7581C179.191 99.7464 179.143 99.7305 179.098 99.7117C179.504 100.603 179.839 101.539 180.167 102.455C180.24 102.658 180.313 102.86 180.385 103.061C181.022 104.816 181.639 106.601 182.077 108.42C182.964 112.087 183.549 115.823 183.888 119.585ZM122.414 136.181C122.23 136.051 122.046 135.921 121.846 135.823C121.821 135.811 120.764 135.458 120.968 135.924C121.038 136.078 120.856 136.25 120.727 136.114C120.36 135.732 120.565 135.272 120.915 134.932C121.545 134.315 122.486 134.457 123.26 134.604C124.336 134.809 125.382 135.292 126.289 135.912C127.265 136.579 128.471 137.505 128.663 138.771C128.839 139.933 127.713 141.216 126.553 140.437C125.926 140.015 125.486 139.387 125.045 138.758C124.731 138.309 124.416 137.859 124.032 137.481C123.578 137.037 123.088 136.647 122.569 136.29C122.517 136.254 122.466 136.218 122.414 136.181Z" fill="black"/>
<path fill-rule="evenodd" clip-rule="evenodd" d="M163.076 154.174C161.779 153.63 160.622 152.724 159.776 151.566C159.482 151.164 159.406 150.739 159.467 150.35C159.537 149.914 159.789 149.517 160.132 149.252C160.476 148.985 160.907 148.853 161.323 148.921C161.686 148.979 162.046 149.182 162.332 149.604L162.391 149.689C162.894 150.388 163.549 150.961 164.296 151.33C165.015 151.686 165.821 151.853 166.653 151.756C168.24 151.572 169.333 150.691 170.496 149.495C170.64 149.344 170.784 149.187 170.929 149.03C171.02 148.885 171.147 148.793 171.288 148.745C171.444 148.691 171.622 148.694 171.784 148.752C171.94 148.808 172.08 148.914 172.174 149.056C172.263 149.191 172.314 149.357 172.297 149.547C172.19 150.787 171.559 151.894 170.663 152.763C169.667 153.728 168.346 154.396 167.103 154.63C165.735 154.888 164.339 154.704 163.076 154.174ZM167.75 135.044C169.206 135.953 171.426 138.074 169.859 140.328C168.014 142.316 165.359 140.037 164.05 139.006C162.836 138.208 161.472 140.262 162.598 141.194C172.055 148.385 175.894 135.282 168.487 133.975C167.671 133.831 167.368 134.763 167.75 135.044ZM150.803 126.68C150.963 124.628 154.006 124.162 154.309 126.192C154.579 128.011 154.261 129.681 153.462 131.319C152.701 132.883 150.785 132.153 150.64 130.729C150.446 128.82 150.702 127.956 150.803 126.68ZM173.964 125.771C174.388 125.201 175 124.811 175.734 125.031C178.027 125.719 177.351 129.062 176.546 130.689C176.109 131.573 174.694 131.797 174.055 131.019C173.013 129.75 172.515 127.216 173.839 125.967C173.875 125.902 173.914 125.837 173.964 125.771ZM153.431 117.702L153.793 117.637C154.913 117.438 156.306 117.247 157.098 118.172C157.519 118.662 157.664 119.574 157.098 120.043C156.105 120.87 155.006 120.549 153.815 120.619C152.833 120.677 151.89 120.844 150.945 121.122C148.87 121.73 147.18 122.842 145.409 124.062C145.177 124.222 144.939 123.917 145.05 123.694C146.073 121.637 148.054 119.947 150.039 118.917C151.099 118.367 152.258 117.911 153.431 117.702ZM171.874 116.78L172.151 116.839C175.168 117.486 179.087 118.78 180.515 121.823C180.57 122.253 180.513 122.345 180.466 122.405L180.45 122.426C180.411 122.477 180.381 122.548 180.199 122.607C180.149 122.594 180.098 122.581 180.046 122.567C179.391 122.391 178.874 122.148 178.372 121.896L177.828 121.621C177.197 121.303 176.561 120.997 175.886 120.771C174.447 120.289 172.966 119.949 171.463 119.768C171.137 119.729 170.823 119.616 170.575 119.422C170.34 119.239 170.161 118.984 170.078 118.646C169.972 118.208 170.003 117.877 170.232 117.482C170.403 117.186 170.65 116.98 170.932 116.862C171.22 116.742 171.548 116.713 171.874 116.78Z" fill="black"/>
<path fill-rule="evenodd" clip-rule="evenodd" d="M412.192 597.938C414.721 598.094 417.25 598.217 419.778 598.312C452.848 599.544 485.891 595.773 518.941 594.948C530.45 594.645 541.9 594.796 553.38 595.72C554.505 595.811 555.791 594.6 555.653 593.447C553.532 575.132 550.878 556.867 549.503 538.477C549.502 537.504 549.628 536.533 549.962 535.617C550.025 535.545 550.351 534.739 550.642 534.689C550.547 534.76 550.977 534.636 550.703 534.657C552.363 534.386 553.991 532.593 552.786 530.878C540.378 511.853 523.44 494.489 517.991 471.891C516.703 465.782 512.053 465.404 507.098 462.884C505.553 461.964 501.773 459.417 501.158 457.646C499.688 451.262 502.276 445.009 494.716 442.426C489.726 441.042 480.905 439.871 475.855 441.33C469.696 443.381 470.157 450.325 466.584 455.102C464.736 457.865 461.586 461.648 458.677 462.072C457.268 462.277 456.229 459.424 454.822 459.62C432.881 464.951 402.988 501.317 393.558 521.449C391.432 527.784 398.286 525.873 397.865 532.241C397.346 544.322 396.211 559.788 396.884 571.883C397.515 578.903 397.048 586.259 399.229 593.015C398.642 593.728 399.486 594.449 400.174 594.758C401.041 596.234 409.575 597.733 412.192 597.938Z" fill="white"/>
<path fill-rule="evenodd" clip-rule="evenodd" d="M469.313 447.493C469.884 444.925 473.968 446.027 473.268 448.584C472.184 452.538 469.937 456.275 466.763 458.898C464.313 460.923 460.973 462.729 457.66 463.063C457.97 463.366 458.268 463.689 458.581 463.997C459.287 464.699 460.037 465.35 460.81 465.976C462.399 467.261 464.051 468.417 465.855 469.385C473.061 473.253 481.202 474.145 489.251 473.244C493.07 472.817 496.947 472.092 500.539 470.695C502.204 470.049 503.822 469.199 505.25 468.125L505.624 467.845C506.375 467.277 507.377 466.477 507.846 465.602C506.418 465.923 504.612 464.401 503.621 463.516C502.537 462.544 501.625 461.29 500.951 460.005C499.63 457.484 498.931 454.231 500.038 451.528C500.112 451.348 500.348 451.378 500.37 451.572C500.697 454.724 501.546 457.678 503.807 460.012C504.811 461.045 506.013 461.912 507.325 462.514L507.509 462.599C508.068 462.857 508.657 463.161 508.892 463.714C508.983 463.704 509.074 463.712 509.16 463.736C509.239 463.757 509.31 463.78 509.38 463.805C509.224 463.499 509.142 463.137 509.156 462.71C509.211 461.055 511.483 461.005 511.797 462.478C511.74 462.284 511.664 462.472 511.808 462.531C511.805 462.514 511.801 462.495 511.797 462.478L511.801 462.494L511.81 462.531H511.808C511.813 462.558 511.818 462.585 511.821 462.613L511.824 462.65L511.822 462.619C511.82 462.596 511.818 462.576 511.815 462.557L511.81 462.531C511.831 462.541 511.86 462.548 511.894 462.548L511.908 462.553C511.961 462.576 512.148 462.663 512.203 462.685C512.581 462.825 513.003 462.869 513.39 462.989C514.229 463.247 514.968 463.674 515.48 464.401C515.847 464.923 516.052 465.521 516.137 466.143C519.849 467.929 523.362 470.249 526.305 473.122C532.873 479.53 537.453 487.55 541.212 495.852C543.125 500.079 544.83 504.395 546.497 508.723L546.76 509.406C548.547 514.058 550.128 518.76 550.516 523.761C550.552 524.209 550.404 524.63 550.149 524.979C550.239 525.355 550.286 525.731 550.273 526.099C550.271 526.156 550.267 526.213 550.263 526.27C550.863 526.259 551.45 526.511 552.008 527.217C552.234 527.145 552.479 527.136 552.72 527.214C554.188 527.684 554.425 529.296 554.701 530.647C554.987 532.042 555.111 533.471 555.113 534.893C555.113 535.402 554.822 536.045 554.327 536.263C553.398 536.672 552.397 536.941 551.435 537.313C550.713 537.592 549.988 537.856 549.257 538.103C549.663 538.811 549.794 539.796 550.013 540.542C550.358 541.707 550.634 542.876 550.867 544.068C552.443 552.173 553.535 560.365 555.01 568.487C555.747 572.556 556.605 576.597 557.48 580.638C557.91 582.624 558.369 584.607 558.861 586.581C559.123 587.633 559.396 588.686 559.677 589.732C559.758 590.038 559.841 590.342 559.925 590.647L560.072 591.18C560.393 591.357 560.668 591.626 560.858 591.993C561.553 593.338 561.153 594.853 559.82 595.61C558.371 596.434 556.641 595.656 555.842 594.318C555.28 593.374 555.096 592.122 554.82 591.072C554.507 589.893 554.209 588.707 553.922 587.521C551.97 579.466 550.663 571.27 549.677 563.043L549.608 562.455C549.107 558.22 548.623 553.974 548.31 549.719C548.156 547.629 548.034 545.539 547.958 543.444C547.92 542.366 547.981 541.282 548.042 540.206C548.07 539.735 548.11 539.261 548.125 538.79L548.129 538.723C548.133 538.675 548.139 538.613 548.143 538.547L548.148 538.467C546.69 538.923 545.211 539.304 543.718 539.625C540.54 540.312 537.289 540.695 534.046 540.5C534.498 545.873 535.087 551.232 535.911 556.556C536.706 561.684 537.622 566.8 538.658 571.886C539.175 574.441 539.735 576.99 540.325 579.53C540.641 580.887 541.003 582.235 541.288 583.599C541.457 584.41 541.51 585.088 541.17 585.847C541.544 586.868 541.877 587.893 542.204 588.859L542.302 589.147C542.881 590.837 543.979 592.566 542.832 594.227C542.239 595.085 541.271 595.576 540.297 595.605C540.28 595.616 540.261 595.629 540.242 595.639C539.718 595.92 539.114 595.975 538.539 595.855C537.667 596.026 536.792 596.191 535.915 596.341C533.75 596.715 531.574 597.023 529.394 597.284C525.242 597.778 521.063 598.049 516.887 598.199C501.595 598.75 486.287 597.782 470.989 598.061C463.195 598.203 455.401 598.554 447.62 599.019C443.737 599.251 439.852 599.501 435.967 599.693L434.764 599.752C431.29 599.918 427.813 600.046 424.341 599.792C424.273 599.788 424.22 599.76 424.184 599.723C422.987 599.587 421.783 598.484 421.903 597.21C422.42 591.782 422.938 586.355 423.458 580.925C424.381 571.252 425.313 561.578 426.255 551.906L426.391 550.51C426.708 547.251 427.01 543.985 427.163 540.713C426.39 540.659 425.619 540.589 424.848 540.504C416.491 539.589 408.48 537.06 400.788 533.739L400.476 533.604C399.783 533.301 399.025 532.999 398.247 532.676C398.26 534.153 398.211 535.633 398.205 537.095C398.194 539.524 398.213 541.952 398.22 544.378C398.234 549.379 398.425 554.381 398.674 559.374C399.111 568.191 399.625 576.996 400.402 585.792C400.599 588.005 400.865 590.214 401.053 592.427C401.165 593.731 400.896 594.817 399.703 595.502C399.115 595.84 398.661 595.698 398.078 595.426C396.654 594.758 396.614 593.179 396.479 591.805C396.375 590.77 396.28 589.734 396.187 588.696C395.989 586.484 395.818 584.271 395.678 582.053C395.127 573.244 394.966 564.444 395.346 555.624C395.523 551.499 395.778 547.365 396.116 543.247L396.196 542.297C396.475 539.006 396.654 535.552 397.231 532.241C394.905 531.209 392.6 529.897 391.531 527.715C390.145 524.883 391.668 522.461 393.838 520.794C393.817 520.513 393.838 520.234 393.897 519.98C394.52 517.281 395.564 514.614 396.572 512.04C397.588 509.453 398.71 506.906 399.944 504.414C404.896 494.432 411.66 485.31 419.725 477.625C423.73 473.809 428.114 470.281 432.794 467.322C435.113 465.858 437.492 464.505 439.956 463.3L440.32 463.123C442.035 462.29 443.958 461.405 445.865 460.942C446.063 460.794 446.264 460.654 446.467 460.521C447.217 460.022 448.235 460.383 448.679 461.096C448.895 460.929 449.144 460.781 449.429 460.648L449.711 460.519C451.422 459.748 453.476 459.027 455.334 459.534C456.487 459.849 457.396 460.698 457.804 461.781C458.739 461.286 459.658 460.777 460.556 460.153C461.999 459.156 463.307 457.917 464.482 456.617C466.837 454.003 468.548 450.94 469.313 447.493ZM551.051 529.92C550.89 529.966 550.721 529.983 550.546 529.962C550.862 529.999 550.228 530.187 550.054 530.276L550.041 530.283C549.724 530.465 549.405 530.64 549.082 530.81C548.327 531.207 547.556 531.564 546.772 531.9C545.228 532.558 543.633 533.063 541.996 533.433C540.394 533.794 538.715 534.005 537.073 534.039C535.975 534.06 534.671 534.01 533.534 533.686C533.666 535.679 533.811 537.67 533.974 539.659L536.219 539.144C538.463 538.629 540.706 538.101 542.921 537.459C544.584 536.977 546.223 536.413 547.844 535.804C548.693 535.485 549.536 535.147 550.368 534.783C550.782 534.602 551.171 534.387 551.555 534.169L551.883 533.982C551.807 533.092 551.667 532.219 551.465 531.34C551.359 530.875 551.179 530.398 551.051 529.92ZM397.336 520.534C397.051 521.46 396.614 522.324 395.617 522.533C395.264 522.607 394.968 522.567 394.723 522.447L394.664 522.565C393.844 524.249 393.604 526.026 395.49 527.322C396.342 527.908 397.269 528.415 398.228 528.869C399.943 529.686 401.77 530.342 403.492 531.01L403.835 531.144C406.915 532.353 410.044 533.454 413.222 534.375C416.446 535.307 419.727 536.055 423.048 536.531C424.448 536.73 425.86 536.869 427.273 536.96C427.296 535.058 427.286 533.154 427.279 531.251C426.777 531.188 426.278 531.12 425.797 531.063C424.33 530.892 422.868 530.683 421.415 530.423C418.379 529.88 415.375 529.129 412.444 528.17C407.015 526.388 401.963 523.841 397.336 520.534ZM456.866 462.269C455.632 460.963 453.272 461.434 451.783 462.068C451.332 462.26 450.878 462.455 450.447 462.689L450.364 462.736C449.862 463.025 449.864 463.197 450.109 463.773C450.428 464.532 450.872 465.265 451.294 465.969C453.103 468.99 455.484 471.619 458.203 473.84C467.832 481.702 481.666 484.475 493.708 481.842C499.488 480.579 505.063 478.031 509.317 473.851L509.705 473.466C511.42 471.748 513.775 469.263 513.61 466.718C513.532 465.494 512.532 465.424 511.512 465.187C511.094 465.09 510.694 464.953 510.348 464.758C510.627 465.961 509.142 467.749 508.375 468.499C506.767 470.074 504.832 471.304 502.785 472.223C498.889 473.975 494.651 474.804 490.432 475.328C485.644 475.924 480.754 475.871 476.002 474.99C471.868 474.223 467.792 472.771 464.235 470.509C462.604 469.473 460.996 468.292 459.635 466.916L459.346 466.624C458.364 465.628 457.221 464.425 456.633 463.118C456.409 463.12 456.187 463.114 455.966 463.099C455.809 463.091 455.725 462.869 455.881 462.786C456.056 462.693 456.232 462.601 456.407 462.51C456.378 462.412 456.352 462.317 456.331 462.22C456.314 462.138 456.401 462.062 456.477 462.108C456.582 462.171 456.684 462.239 456.783 462.311C456.811 462.298 456.838 462.284 456.866 462.269Z" fill="black"/>
<path fill-rule="evenodd" clip-rule="evenodd" d="M519.557 402.019C519.055 395.521 519.833 388.711 517.328 382.534C512.962 372.287 500.718 368.87 491.225 364.969C487.422 363.845 474.626 363.688 470.173 362.2C460.096 358.833 457.688 354.821 449.681 361.232C448.329 362.327 447.483 363.518 446.866 365.144L446.892 365.151C446.716 365.829 446.904 366.506 447.301 367.022C443.829 370.573 442.377 375.895 444.158 380.621C449.971 392.92 449.698 399.569 447.825 412.791C445.379 425.133 450.968 429.642 460.225 436.358C459.848 437.089 459.77 438.061 460.262 438.706C470.966 453.754 491.149 460.938 508.442 453.301C515.461 450.175 518.595 442.697 520.383 435.949C522.467 428.394 523.107 420.432 521.411 412.735C520.727 409.176 519.835 405.642 519.557 402.019Z" fill="white"/>
<path fill-rule="evenodd" clip-rule="evenodd" d="M457.812 330.029C459.111 329.834 460.093 330.64 460.559 331.777L460.584 331.838C460.734 332.225 460.901 332.601 461.08 332.971C464.332 331.375 468.971 331.785 471.029 335.017C472.497 337.325 471.601 340.064 471.048 342.511L470.685 344.124C471.387 344.571 471.917 345.372 471.892 346.201L471.889 346.265L471.741 348.514C472.21 348.038 472.639 347.52 473.021 346.969C473.285 346.485 473.57 346.009 473.877 345.549C475.679 342.837 479.725 345.194 478.237 348.097C477.952 348.658 477.631 349.188 477.287 349.699C476.898 350.454 476.579 351.23 476.334 352.026C477.037 352.333 477.578 353.013 477.635 354.041C477.768 356.439 476.509 358.441 474.506 359.698C473.917 360.068 473.309 360.14 472.757 360.003C472.66 360.134 472.563 360.265 472.47 360.398C473.268 361.047 473.989 361.787 474.608 362.607C476.471 362.328 478.345 362.197 480.219 362.192C482.509 361.07 485.251 361.093 487.713 361.514C489.297 361.785 490.818 362.311 492.378 362.689C494.021 363.086 495.69 363.101 497.353 363.372C499.449 363.712 501.287 364.68 502.442 366.225C503.712 366.263 505.047 366.783 506.154 367.489C508.732 369.133 511.294 370.801 513.866 372.456C514.852 373.091 515.221 374.105 515.04 375.236L515.028 375.309L514.941 375.778L515.144 376.067C515.931 377.178 516.787 378.343 517.297 379.57C518.239 380.929 519.09 382.353 519.844 383.822C520.861 385.796 521.699 387.888 522.268 390.036C522.409 390.579 522.551 391.126 522.644 391.68C522.777 392.462 522.572 393.069 522.46 393.819C522.32 394.77 522.27 395.734 522.122 396.687C522.023 397.319 521.486 397.63 520.924 397.646C521.135 399.255 521.287 400.874 521.433 402.48C521.638 404.775 521.778 407.077 521.898 409.378C522.519 410.281 523.789 410.995 524.706 411.243C525.975 411.583 527.306 411.213 528.506 410.78C529.261 410.507 529.88 411.456 529.512 412.09C528.356 414.081 525.885 414.073 524.013 413.191C523.22 412.819 522.525 412.28 522.01 411.579C522.042 412.246 522.075 412.914 522.109 413.584L522.141 414.191C522.521 421.278 523.343 428.609 522.012 435.626C519.707 447.781 509.652 457.036 497.37 457.754C490.924 458.132 485.557 456.227 482.888 455.165C480.219 454.102 481.256 451.936 483.109 452.555C486.301 453.622 492.165 455.211 497.412 454.525C509.78 452.908 520.267 446.724 519.189 420.09C519.037 416.313 518.566 412.534 518.465 408.757C518.368 405.065 518.404 401.37 518.241 397.68L518.187 396.421C518.123 394.95 518.055 393.472 517.945 391.999C517.812 391.428 517.702 390.849 517.539 390.289C517.098 388.765 516.521 387.284 515.805 385.87C515.647 385.99 515.469 386.077 515.277 386.111C513.817 386.373 512.448 386.299 511.081 385.69C510.443 385.409 509.881 385.035 509.357 384.572C509.108 384.355 508.941 384.143 508.81 383.923C508.149 383.934 507.487 383.735 507.073 383.26C506.601 382.718 506.522 382.158 506.707 381.64L506.727 381.588L506.68 381.571C506.123 383.015 505.011 384.285 503.792 385.143C501.866 386.504 499.455 386.897 497.144 386.933C494.592 386.971 491.9 386.578 489.382 386.176C488.716 386.071 488.055 385.95 487.406 385.788C487.381 385.813 487.356 385.843 487.328 385.868C485.167 387.937 482.127 388.47 479.385 387.288C477.8 386.605 476.471 385.506 475.297 384.247C475.28 384.906 475.246 385.566 475.189 386.219L475.165 386.478C475.048 387.694 474.823 388.985 473.904 389.862C472.419 391.285 470.264 390.714 468.551 389.788C468.553 389.833 468.553 389.879 468.553 389.926C469.016 391.498 469.48 393.073 469.945 394.647L470.045 394.983C470.383 396.101 470.754 397.22 470.856 398.39C471.05 400.626 469.563 402.835 467.078 402.085C465.775 401.693 464.731 400.596 463.729 399.718L463.098 399.172C464.731 404.513 465.863 410.044 465.969 415.618C465.975 415.92 465.716 416.148 465.428 416.159C464.756 416.186 464.034 416.053 463.358 415.785C463.32 415.782 463.282 415.78 463.242 415.774C462.088 415.607 461.017 415.191 460.073 414.576C460.29 415.267 460.387 416.009 460.33 416.784C460.316 416.972 460.022 417.038 459.98 416.831C459.435 414.149 456.297 412.122 453.593 412.635C450.69 413.187 448.552 415.685 448.028 418.528C447.466 421.582 448.542 425.114 450.534 427.47C451.451 428.556 452.657 429.463 454.09 429.691C454.744 429.795 455.425 429.759 456.061 429.573C456.331 429.493 456.585 429.381 456.842 429.275C457.218 429.123 457.658 429.1 458.013 428.939C458.818 428.578 459.627 429.319 459.219 430.146C458.864 430.867 458.545 431.353 457.956 431.725C458.433 432.308 458.866 433.12 459.027 433.337C459.847 434.445 460.679 435.491 461.613 436.503C462.563 437.53 463.601 438.469 464.697 439.337L465.158 439.702C466.214 440.54 467.134 441.316 467.879 442.518C468.466 443.467 467.706 444.754 466.605 444.74C463.161 444.691 460.658 441.664 458.875 439.02C458.621 438.642 458.382 438.243 458.161 437.833C458.08 437.962 457.992 438.082 457.892 438.192L458.089 438.72C458.672 440.276 456.16 441.292 455.431 439.84C454.901 438.788 454.286 437.786 453.602 436.839C453.198 436.782 452.803 436.537 452.583 436.22C452.028 435.415 451.404 434.601 450.878 433.743C450.587 433.466 450.287 433.2 449.98 432.94C449.892 433.018 449.801 433.096 449.714 433.179C449.33 434.056 448.854 434.857 448.265 435.611L448.139 435.772C447.009 437.196 445.538 438.653 443.718 439.001C443.163 439.107 442.628 438.416 443.121 437.974C444.394 436.829 445.901 436.049 447.075 434.77C447.654 434.14 448.186 433.446 448.642 432.719L448.747 432.551C448.823 432.426 448.901 432.302 448.981 432.175C448.451 431.813 447.921 431.45 447.39 431.086C445.93 432.334 444.029 432.905 442.415 433.938L442.254 434.043C440.794 435.02 439.256 432.86 440.427 431.674C441.717 430.372 442.794 428.819 443.937 427.372C443.4 426.381 443.145 425.21 443.05 424.027C443.012 423.692 442.983 423.356 442.954 423.021C442.134 423.034 441.31 422.753 440.613 422.269L440.349 422.081C439.502 422.351 438.612 422.482 437.761 422.459C435.758 422.4 434.938 420.111 436.191 418.663C437.469 417.184 439.706 416.86 441.479 417.579C441.536 417.549 441.595 417.518 441.652 417.486C441.568 417.097 441.587 416.744 441.683 416.434L441.655 416.246C441.265 415.647 441.009 414.964 440.912 414.242C440.835 413.671 440.85 413.104 440.983 412.539C441.026 412.352 441.118 412.157 441.188 411.961C441.044 411.597 440.959 411.221 440.933 410.842C440.893 410.795 440.852 410.745 440.814 410.692C439.935 409.457 440.113 407.968 440.95 406.968C440.953 406.905 440.959 406.841 440.968 406.778C440.919 406.668 440.874 406.556 440.833 406.444C440.015 405.618 439.415 404.625 439.527 403.395C439.592 402.67 439.89 402.019 440.34 401.531C440.26 401.295 440.253 401.021 440.349 400.793C439.631 398.881 439.722 396.578 440.239 394.44C440.125 394.115 440.066 393.762 440.078 393.388C440.137 391.8 441.511 390.342 443.137 390.361C443.333 390.363 443.517 390.388 443.693 390.426L443.695 390.388C443.758 389.912 443.888 389.471 444.08 389.076C443.986 389.042 443.899 388.994 443.822 388.929C442.78 389.485 441.677 389.91 440.52 390.2C439.67 390.413 438.799 389.446 439.328 388.648C439.573 388.277 439.844 387.944 440.135 387.64C439.721 387.643 439.3 387.671 438.874 387.726C438.109 387.825 437.256 387.303 436.759 386.597C436.142 387.197 435.523 387.795 434.904 388.394C433.337 389.913 430.968 388.795 430.721 386.791C430.254 386.667 429.819 386.455 429.437 386.153C426.965 387.227 424.305 387.817 421.586 387.929C419.634 388.009 418.493 385.735 419.406 384.128C420.018 383.051 420.779 382.083 421.656 381.241C420.295 381.658 418.89 381.958 417.456 382.15C416.68 382.254 415.584 381.611 415.273 380.899C414.086 378.16 414.187 375.305 415.554 372.639C415.607 372.534 415.666 372.432 415.723 372.331C415.865 371.978 416.019 371.629 416.186 371.287C414.504 369.533 414.359 366.925 415.265 364.741C414.902 364.152 414.762 363.441 415.009 362.799C415.713 360.95 416.727 359.242 418.007 357.775C417.885 357.538 417.777 357.287 417.686 357.016C416.966 354.829 417.8 352.189 419.484 350.665C420.542 349.706 421.759 349.131 423.059 348.763C423.606 347.795 424.309 346.922 425.129 346.187C425.161 346.117 425.192 346.047 425.228 345.978C426.504 343.572 428.828 342.283 431.319 341.985C431.416 341.045 432.05 340.146 432.971 339.855C433.225 339.041 433.603 338.263 434.123 337.557C434.94 336.446 436.299 335.922 437.579 336.651C438.28 337.05 438.952 337.509 439.582 338.016C439.865 337.883 440.185 337.798 440.547 337.77L440.638 337.765L442.721 337.659C443.594 337.272 444.464 336.866 445.337 336.471C445.861 336.038 446.446 335.676 447.084 335.408C447.806 335.106 448.546 334.935 449.287 334.877C449.89 334.681 450.496 334.508 451.113 334.372C452.562 334.055 454.079 333.878 455.583 333.893C455.614 333.503 455.629 333.109 455.626 332.71L455.623 332.51C455.59 331.232 456.61 330.211 457.812 330.029ZM456.352 432.333C456.145 432.378 455.936 432.414 455.727 432.439C455.79 432.595 455.854 432.752 455.915 432.908C456.084 433.003 456.255 433.094 456.426 433.179C456.376 432.891 456.346 432.602 456.352 432.333ZM445.498 429.107L445.357 429.365C445.334 429.408 445.312 429.449 445.29 429.491C445.588 429.467 445.888 429.474 446.184 429.508L446.183 429.476C446.145 429.463 446.107 429.451 446.07 429.434C445.866 429.336 445.677 429.226 445.498 429.107ZM451.364 417.302C453.233 417.411 454.817 417.698 456.517 418.516L456.663 418.587C458.165 419.333 460.65 420.711 460.44 422.687C460.381 423.249 459.973 423.841 459.331 423.797C457.571 423.676 456.566 421.901 455.374 420.794C454.172 419.678 452.695 418.53 451.24 417.763C451.034 417.655 451.115 417.313 451.339 417.302H451.364ZM442.888 391.266C442.44 391.281 442.59 391.716 442.82 391.352C442.839 391.323 442.863 391.293 442.888 391.266ZM467.064 362.2C462.823 362.312 458.553 364.818 455.376 367.35C452.611 369.554 450.224 372.174 448.111 374.999C447.567 376.406 447.1 377.842 446.705 379.289C446.446 380.244 446.283 381.21 446.065 382.173L445.998 382.469C445.827 382.788 445.7 383.132 445.607 383.488C445.992 383.874 446.492 384.151 447.042 384.282C447.219 384.324 447.367 384.416 447.483 384.537C447.926 383.798 448.313 383.017 448.538 382.19L448.546 382.152C449.398 380.757 450.322 379.406 451.313 378.101C454.047 374.497 457.057 371.213 460.676 368.48C463.421 366.409 466.488 364.786 469.75 363.731C468.952 363.087 468.045 362.577 467.064 362.2Z" fill="black"/>
<path fill-rule="evenodd" clip-rule="evenodd" d="M500.138 440.732C498.718 440.152 497.451 439.185 496.524 437.95C496.202 437.521 496.119 437.068 496.186 436.653C496.262 436.187 496.538 435.764 496.914 435.481C497.291 435.196 497.763 435.056 498.219 435.128C498.616 435.19 499.01 435.407 499.323 435.857L499.388 435.947C499.939 436.693 500.656 437.304 501.474 437.698C502.262 438.078 503.144 438.256 504.056 438.153C505.794 437.956 506.991 437.016 508.264 435.74C508.422 435.579 508.58 435.412 508.738 435.244C508.838 435.09 508.978 434.992 509.132 434.94C509.303 434.883 509.497 434.886 509.675 434.948C509.846 435.008 509.999 435.121 510.102 435.272C510.199 435.416 510.255 435.593 510.237 435.796C510.12 437.119 509.429 438.3 508.447 439.227C507.356 440.256 505.91 440.969 504.549 441.218C503.05 441.494 501.522 441.297 500.138 440.732ZM505.257 420.324C506.852 421.294 509.283 423.556 507.567 425.961C505.546 428.082 502.638 425.65 501.205 424.551C499.876 423.699 498.382 425.89 499.615 426.885C509.972 434.556 514.176 420.578 506.064 419.183C505.17 419.03 504.839 420.024 505.257 420.324ZM486.697 411.401C486.873 409.212 490.205 408.715 490.537 410.881C490.833 412.821 490.484 414.603 489.61 416.35C488.776 418.019 486.678 417.24 486.519 415.721C486.306 413.684 486.587 412.762 486.697 411.401ZM512.062 410.432C512.527 409.823 513.198 409.407 514.001 409.642C516.512 410.376 515.772 413.942 514.89 415.678C514.411 416.621 512.862 416.86 512.162 416.03C511.021 414.676 510.475 411.973 511.925 410.64C511.965 410.571 512.009 410.502 512.062 410.432ZM489.575 401.823L489.972 401.754C491.199 401.541 492.724 401.337 493.592 402.324C494.053 402.848 494.211 403.82 493.592 404.321C492.504 405.202 491.3 404.861 489.996 404.935C488.921 404.997 487.888 405.175 486.853 405.471C484.581 406.121 482.73 407.306 480.79 408.608C480.536 408.779 480.276 408.453 480.397 408.215C481.517 406.021 483.687 404.218 485.861 403.119C487.022 402.533 488.291 402.046 489.575 401.823ZM509.773 400.84L510.077 400.902C513.381 401.593 517.673 402.973 519.237 406.219C519.297 406.678 519.234 406.777 519.183 406.841L519.166 406.862C519.123 406.917 519.09 406.993 518.891 407.055C518.836 407.042 518.78 407.028 518.724 407.013C518.006 406.825 517.439 406.566 516.89 406.298L516.294 406.004C515.603 405.665 514.906 405.339 514.167 405.098C512.591 404.583 510.969 404.221 509.323 404.027C508.966 403.985 508.622 403.865 508.351 403.658C508.094 403.462 507.897 403.191 507.807 402.83C507.691 402.363 507.725 402.01 507.975 401.589C508.163 401.272 508.433 401.053 508.742 400.927C509.057 400.799 509.416 400.769 509.773 400.84Z" fill="black"/>
<path fill-rule="evenodd" clip-rule="evenodd" d="M529.789 404.233C529.615 404.204 529.441 404.176 529.267 404.151C529.131 404.074 528.972 404.014 528.786 403.979C528.363 403.871 527.942 403.799 527.522 403.76C521.494 402.402 507.549 404.329 506.974 409.475C505.054 410.116 503.393 409.542 501.168 409.599C499.475 402.518 470.197 403.518 468.789 407.787C468.783 407.785 468.778 407.784 468.772 407.782C467.42 407.363 465.425 407.464 463.876 407.398C460.57 407.329 457.259 407.624 454.024 408.321C447.966 409.284 439.698 410.412 443.912 417.98L443.914 417.984L443.915 417.983C444.641 418.728 445.873 418.128 445.919 417.12C444.503 413.535 447.702 413.105 450.164 412.074C456.289 409.873 462.525 409.568 468.86 410.249C469.337 410.81 470.06 411.299 470.824 411.556C475.06 412.259 472.828 415.402 475.505 415.859C475.013 426.816 488.311 432.797 496.015 425.594C499.092 422.586 499.825 418.128 500.538 414.111C500.915 414.026 501.155 413.82 501.295 413.547C502.202 412.641 502.772 411.804 504.565 411.556C506.359 411.307 507.74 411.806 507.926 411.959C507.973 412.054 508.024 412.149 508.083 412.244C508.165 412.386 508.276 412.499 508.403 412.588C506.632 423.499 515.099 430.399 523.647 424.74C527.361 421.245 528.145 415.894 528.301 411.118C528.804 410.814 529.123 410.225 528.948 409.484C528.708 408.463 529.272 407.579 530.169 407.136C531.334 406.559 531.128 404.454 529.789 404.233ZM493.061 409.409C492 409.176 491.547 410.812 492.611 411.046C493.365 411.212 494.003 411.592 494.435 412.236L494.48 412.306C495.06 413.228 496.524 412.377 495.941 411.449C495.285 410.405 494.265 409.674 493.061 409.409ZM524.135 408.394C523.761 408.131 523.195 408.326 522.978 408.699C522.739 409.109 522.896 409.566 523.246 409.834L523.282 409.86C523.603 410.087 523.916 410.493 523.955 410.909L523.959 410.961C524.001 412.05 525.693 412.055 525.65 410.961C525.609 409.89 524.989 408.996 524.135 408.394Z" fill="black"/>
<path fill-rule="evenodd" clip-rule="evenodd" d="M74.5707 596.516C75.6848 598.209 77.876 597.949 78.8168 596.637C89.5293 599.134 100.512 598.15 111.373 597.538C141.98 596.292 172.76 600.198 203.243 596.112C206.477 595.465 210.241 595.774 212.886 593.531C217.118 588.57 216.207 581.037 215.533 574.995C210.129 540.933 202.447 506.558 198.615 472.277C198.401 469.012 199.746 464.955 200.952 461.885C201.25 461.314 203.132 460.754 204.109 460.096C207.107 457.943 206.621 454.085 204.022 451.821C195.607 445.887 183.893 447.961 174.966 450.15C173.255 443.722 171.332 439.495 168.075 439.076C161.876 438.279 146.837 435.844 142.205 439.076C139.988 440.622 138.566 446.07 136.971 448.724C125.337 448.517 101.725 432.946 96.8705 450.481C92.9265 450.753 89.0202 454.198 89.7746 458.331C84.6596 462.853 88.694 469.633 88.6232 475.261C87.9507 487.202 81.4919 497.881 78.8048 509.416C72.6626 531.788 65.7106 572.484 73.3287 594.322C73.1648 594.236 72.8067 594.365 73.0386 594.546C73.9012 594.79 74.0134 595.877 74.5707 596.516Z" fill="white"/>
<path fill-rule="evenodd" clip-rule="evenodd" d="M208.325 590.827C206.896 579.352 205.903 565.499 205.891 553.928C205.89 552.839 207.58 552.84 207.581 553.928C207.593 565.499 208.586 579.352 210.015 590.827C210.149 591.905 208.458 591.892 208.325 590.827ZM197.741 519.677C195.533 521.027 192.634 520.09 190.449 519.196C189.454 518.789 189.892 517.154 190.898 517.566C192.561 518.246 194.991 519.249 196.746 518.299C198.498 517.352 198.577 514.745 198.59 513.025C198.598 511.935 200.288 511.936 200.28 513.025C200.262 515.365 199.949 518.325 197.741 519.677ZM193.654 572.188C191.427 571.046 189.526 569.485 187.997 567.503C187.332 566.641 188.801 565.8 189.456 566.649C190.802 568.394 192.556 569.728 194.507 570.728C195.476 571.225 194.62 572.684 193.654 572.188ZM182.948 513.179C179.126 528.5 176.561 544.095 175.304 559.837C175.049 563.032 174.869 566.224 174.768 569.417C174.666 570.25 174.569 571.085 174.478 571.919C174.134 575.077 173.87 578.285 173.893 581.464C173.903 582.891 173.948 584.311 174.045 585.733C173.876 585.258 173.72 584.78 173.568 584.305C173.257 583.33 173.052 582.32 172.735 581.352C172.473 580.551 172.135 579.784 171.82 579.008V579.006C171.915 575.829 171.7 572.623 171.59 569.461C171.449 565.365 171.273 561.274 171.182 557.176C171.001 548.979 171.091 540.777 171.387 532.585C171.981 516.079 173.481 499.65 174.994 483.211C175.414 478.64 175.866 474.071 176.179 469.49C176.494 464.862 176.62 460.225 176.656 455.584C176.658 455.25 176.151 455.161 176.058 455.484C175.976 454.383 175.83 453.284 175.587 452.221C179.232 454.546 183.075 456.556 186.841 458.669C188.825 459.783 190.801 460.916 192.846 461.914C193.97 462.463 195.104 462.968 196.262 463.446C197.462 463.941 198.609 464.621 199.929 464.276C200.044 464.247 200.151 464.205 200.255 464.15C200.105 464.435 199.955 464.718 199.811 465.006C199.313 465.997 198.837 466.992 198.377 467.996C198.254 468.087 198.146 468.212 198.062 468.375C197.838 468.812 197.62 469.254 197.409 469.702C197.367 469.662 197.325 469.622 197.282 469.581C197.105 469.415 196.86 469.666 197.016 469.848C197.088 469.93 197.158 470.011 197.227 470.093C195.85 473.058 194.73 476.176 193.577 479.219C192.159 482.96 190.815 486.728 189.55 490.522C187.055 497.985 184.853 505.545 182.948 513.179ZM128.308 568.78C121.264 572.553 114.681 577.063 108.35 581.928C107.487 582.591 106.647 581.121 107.497 580.468C113.828 575.603 120.411 571.093 127.455 567.32C128.414 566.806 129.267 568.266 128.308 568.78ZM104.516 524.583C104.15 524.555 103.795 524.343 103.702 523.962C103.131 521.625 102.684 519.079 103.215 516.695C103.451 515.632 105.081 516.085 104.845 517.145C104.426 519.024 104.759 521.056 105.193 522.931C111.337 523.2 117.398 520.994 123.275 519.513C124.332 519.247 124.779 520.878 123.725 521.144C117.49 522.715 111.041 525.066 104.516 524.583ZM226.82 586.923C226.826 586.908 226.832 586.891 226.837 586.877C227.198 585.782 227.206 584.51 227.246 583.362C227.316 581.32 227.242 579.274 227.058 577.239C226.67 572.955 225.833 568.741 224.834 564.562C222.854 556.286 220.057 548.233 218.538 539.845C215.557 523.379 216.265 506.234 210.415 490.351C207.983 483.748 204.51 477.401 199.79 472.156C200.134 471.107 200.47 470.057 200.798 469.002C201.37 467.168 201.956 465.274 202.308 463.385C202.317 463.334 202.327 463.281 202.334 463.228C204.343 462.362 206.17 460.728 206.483 458.555C206.618 457.617 206.462 456.577 206.056 455.67C206.884 454.905 207.417 453.912 207.29 452.58C207.053 450.074 204.127 449.429 202.091 448.939C199.775 448.383 197.373 448.229 195.005 448.491C193.809 448.622 192.626 448.842 191.47 449.171C190.467 449.457 189.375 449.75 188.57 450.44C188.475 450.52 188.553 450.676 188.667 450.676C190.296 450.67 191.918 450.072 193.564 449.993C195.288 449.913 197.008 450.055 198.698 450.41C200.35 450.757 201.998 451.264 203.5 452.048C203.922 452.27 204.541 452.42 204.045 452.868C203.682 453.196 202.967 453.223 202.501 453.272C201.467 453.379 200.576 453.984 200.445 455.087C200.329 456.061 200.91 457.165 201.945 457.384C202.002 457.397 202.055 457.412 202.101 457.431C202.129 457.484 202.171 457.528 202.167 457.456C202.167 457.456 202.169 457.454 202.169 457.456C202.194 457.611 202.203 457.672 202.203 457.682C202.196 457.67 202.186 457.617 202.177 457.575C202.184 457.613 202.196 457.674 202.213 457.765C202.19 457.666 202.209 457.909 202.19 457.947C201.641 458.961 200.016 459.247 199.07 459.684C198.886 459.768 198.727 459.868 198.592 459.98C198.368 459.902 198.14 459.823 197.91 459.737C196.775 459.312 195.643 458.9 194.494 458.517C192.275 457.775 190.029 457.114 187.811 456.37C183.611 454.962 179.551 453.185 175.429 451.574C175.298 451.088 175.146 450.613 174.966 450.15C174.93 450.053 174.757 450.021 174.738 450.15C174.675 450.56 174.624 450.972 174.582 451.386C174.565 451.424 174.56 451.467 174.569 451.507C174.33 453.916 174.394 456.383 174.271 458.79C174.119 461.791 173.694 464.771 173.574 467.774V467.829C173.13 470.393 172.729 472.965 172.365 475.546C171.958 475.419 171.491 475.444 171.013 475.7C167.637 477.503 163.843 478.507 160.025 478.731C158.103 478.843 156.199 478.78 154.287 478.558C153.03 478.414 151.792 478.152 150.552 477.902C151.205 475.165 151.906 472.441 152.698 469.744C153.351 467.527 154.078 465.321 154.976 463.188C155.882 461.034 157.01 458.978 158.06 456.89C158.544 455.924 157.974 454.447 156.717 454.548C156.345 454.578 155.973 454.601 155.599 454.618C151.961 454.791 148.177 454.386 144.586 454.024C140.498 453.61 136.355 453.181 132.303 452.507C132.003 452.458 131.88 452.866 132.176 452.965C134.098 453.612 135.998 454.343 137.969 454.827C139.997 455.328 142.038 455.785 144.096 456.142C146.067 456.482 148.046 456.767 150.032 457.008C151.327 457.167 152.637 457.247 153.941 457.353C152.185 460.159 150.975 463.325 149.92 466.443C148.566 470.446 147.571 474.565 146.597 478.676C144.514 487.487 142.796 496.387 141.453 505.342C140.489 511.763 139.71 518.209 139.125 524.672C138.951 522.709 138.74 520.752 138.501 518.797C137.703 512.306 136.537 505.858 134.977 499.507C135.117 499.261 135.182 498.968 135.136 498.682C134.855 496.937 134.115 495.417 133.467 493.798C132.822 491.537 132.127 489.29 131.379 487.06C130.53 484.023 129.577 481.032 128.358 478.112C127.427 475.886 126.364 473.717 125.181 471.615C123.767 468.675 122.214 465.799 120.509 463.049C120.421 462.793 120.277 462.554 120.072 462.353C119.762 461.863 119.447 461.379 119.126 460.899C118.916 460.586 118.316 460.777 118.475 461.174C118.549 461.36 118.623 461.546 118.699 461.73C111.754 459.993 104.945 462.649 98.3306 464.611C96.6616 465.107 94.9756 465.555 93.2644 465.879C91.9186 466.132 90.351 466.441 89.0094 466.162C88.1116 465.976 87.7144 465.568 88.1517 464.608C88.6038 463.615 89.8376 462.962 90.9087 462.523C91.3123 462.436 91.7094 462.281 92.0918 462.049C92.9834 461.508 93.3742 460.379 92.9538 459.418C92.5714 458.549 91.4559 457.801 90.4693 458.198C90.3277 458.255 90.1883 458.31 90.0489 458.365C90.0341 458.344 90.0172 458.314 90.0024 458.272C89.8608 457.885 89.7996 458.348 89.8608 457.794C89.9623 456.89 90.9193 456.068 91.5742 455.55C93.2031 454.259 95.5566 453.303 97.6587 453.792C97.8172 453.827 97.9756 453.872 98.132 453.927C100.297 454.677 101.352 451.558 99.6214 450.395C99.5158 450.325 99.3827 450.237 99.2369 450.133C98.5165 449.632 97.4623 448.789 97.7496 448.028C98.1045 447.083 100.198 446.54 100.99 446.219C103.855 445.056 106.95 444.397 110.039 444.262C113.147 444.126 116.295 444.469 119.292 445.308C120.763 445.718 122.273 446.341 123.664 446.971C124.912 447.536 127.629 448.282 127.803 449.863C127.841 450.211 128.337 450.33 128.445 449.949C129.296 446.914 125.992 444.955 123.812 443.702C122.381 442.877 120.759 442.364 119.189 441.859C117.685 441.373 116.149 441.015 114.581 440.8C111.216 440.339 107.81 440.398 104.472 441.045C101.432 441.635 98.0496 442.641 95.5925 444.598C94.0841 445.798 93.4017 447.709 94.008 449.573C94.0292 449.634 94.0503 449.698 94.0714 449.759C91.3566 450.245 88.7876 451.801 87.07 453.969C85.6587 455.751 84.9193 458.23 86.1827 460.303C86.1299 460.341 86.077 460.381 86.0263 460.424C84.8221 461.387 83.9263 462.787 83.6601 464.317C83.1383 467.335 84.9616 469.446 87.5116 470.254C86.8799 470.871 86.2735 471.526 85.6799 472.181C84.351 473.65 83.0813 475.25 81.9616 476.882C79.6925 480.187 77.7531 483.786 76.0566 487.413C72.5686 494.861 70.3693 502.878 69.2031 511.006C68.6158 515.102 68.2228 519.219 68.0728 523.353C67.8996 528.066 68.0749 532.782 67.9841 537.497C67.8954 542.028 67.3946 546.45 66.3827 550.867C65.413 555.092 64.12 559.232 62.9496 563.402C61.6292 568.098 60.1756 572.773 59.4785 577.615C59.1256 580.079 58.8721 582.55 59.0686 585.042C59.2672 587.58 60.1883 589.751 61.0376 592.112C61.2531 592.714 61.9101 592.957 62.4362 592.828C62.5545 593.959 62.9813 595.062 63.6172 596.018C64.9672 598.042 67.0461 599.334 69.427 599.803C72.1101 600.329 74.8756 600.204 77.5925 600.107C80.5397 600.002 83.489 599.906 86.4362 599.784C89.5218 599.656 92.6071 599.525 95.6927 599.394C95.5906 596.23 95.4689 593.067 95.3314 589.905C94.5875 572.81 93.4161 555.705 93.385 538.588C93.3252 538.553 93.2665 538.511 93.2103 538.457C91.8212 537.114 90.1159 536.231 88.5136 535.18C87.6068 534.585 88.4544 533.122 89.3667 533.72C90.7175 534.607 92.1252 535.394 93.3911 536.387C93.3985 534.605 93.4142 532.824 93.4494 531.042C93.471 529.953 95.1611 529.953 95.1396 531.042C95.0335 536.412 95.069 541.784 95.1905 547.154C95.5837 564.556 96.8196 581.926 97.3824 599.321C105.664 598.967 113.946 598.611 122.229 598.308C128.967 598.063 135.704 597.818 142.441 597.573C143.855 597.523 144.649 596.512 144.822 595.191C145.139 592.76 144.544 590.248 143.196 588.204C143.056 587.993 142.891 587.805 142.708 587.644C142.739 586.188 142.798 584.729 142.716 583.273C142.594 581.05 142.41 578.826 142.249 576.605C141.924 572.156 141.672 567.699 141.573 563.239C141.37 554.32 141.518 545.393 142.023 536.487C143.035 518.693 145.391 501.014 149.246 483.609C149.527 482.341 149.81 481.073 150.104 479.807C153.102 481.364 156.748 481.924 160.025 481.945C164.132 481.971 168.148 481.026 171.858 479.308C171.833 479.5 171.808 479.69 171.784 479.883C170.749 488.125 169.877 496.385 169.116 504.655C167.599 521.143 166.67 537.698 166.798 554.259C166.834 558.847 167.01 563.421 167.227 568.003C167.449 572.663 167.789 577.588 169.087 582.083C169.23 582.58 169.549 582.865 169.917 582.969C169.936 583.624 169.978 584.281 170.025 584.928C170.175 587.031 170.603 591.4 171.52 593.306C172.414 595.166 173.903 596.641 175.803 597.453C178.215 598.482 180.825 598.186 183.372 598.021C194.451 597.298 205.522 596.33 216.594 595.481C218.137 595.362 219.679 595.246 221.219 595.126C222.59 595.02 224.008 594.927 225.225 594.215C226.608 593.405 227.688 589.43 227.21 587.785C227.124 587.485 226.993 587.189 226.82 586.923Z" fill="black"/>
<path fill-rule="evenodd" clip-rule="evenodd" d="M192.433 409.049C192.349 404.314 192.256 399.485 191.552 394.796C190.865 390.212 188.972 386.069 185.72 382.74C178.813 375.67 168.802 373.943 159.482 372.36L143.548 369.655C138.687 368.829 133.501 367.51 128.59 368.68C126.17 369.257 124.114 370.597 122.236 372.183C120.426 373.711 118.479 375.352 117.252 377.407C116.023 379.466 115.6 381.873 115.201 384.201C114.75 386.826 114.4 389.472 114.152 392.124C113.653 397.437 113.585 402.791 113.947 408.115C114.122 410.698 114.4 413.273 114.756 415.836C114.933 417.108 115.132 418.376 115.357 419.639C115.424 420.012 115.474 420.425 115.542 420.841C115.039 422.271 114.754 423.752 114.777 425.227C114.845 429.571 118.51 432.305 122.204 433.774C124.346 434.625 126.586 435.203 128.691 436.154C130.906 437.155 132.413 438.776 133.927 440.626C136.814 444.155 140.073 447.326 143.793 449.971C151.681 455.581 161.673 458.234 171.244 456.22C173.54 455.737 175.857 454.987 177.922 453.856C180.101 452.663 181.74 450.933 183.116 448.888C185.671 445.092 187.504 440.818 188.89 436.468C190.304 432.031 191.308 427.586 191.855 422.959C192.401 418.347 192.516 413.689 192.433 409.049Z" fill="white"/>
<path fill-rule="evenodd" clip-rule="evenodd" d="M141.587 353.162C148.181 352.254 157.282 355.203 160.565 361.149C176.243 357.452 196.016 357.331 208.937 369.639C222.42 384.24 205.485 403.491 194.255 407.831C195.073 411.806 193.798 437.27 184.778 448.629C177.619 458.253 160.949 462.695 153.235 451.199L153.175 451.105C152.348 449.777 153.06 449.82 153.908 450.807C161.462 457.452 171.733 457.566 179.647 450.553C194.479 437.735 192.95 406.305 185.892 388.122C165.794 385.914 144.276 392.008 130.394 407.142L131.333 412.795C131.493 413.759 131.675 414.721 131.813 415.687C131.902 416.307 131.912 416.922 131.483 417.424C130.067 419.079 127.68 416.592 125.717 415.603C125.136 415.521 124.556 415.49 123.986 415.53C114.551 416.746 116.41 435.055 126.78 431.846C127.651 431.303 128.4 431.468 128.738 432.256C131.209 434.521 132.839 438.56 136.946 442.451C138.394 443.91 139.713 445.131 141.343 446.302C142.3 447.27 145.188 448.258 144.273 449.915C142.541 453.686 132.33 441.841 130.525 438.565C124.869 440.799 118.6 440.04 112.739 439.494C81.8155 437.886 85.9436 405.277 111.291 384.689C116.062 381.175 121.326 378.308 126.798 376.102C127.545 375.801 127.219 374.574 126.461 374.879C122.84 376.339 119.311 378.077 115.946 380.088L115.941 378.886C115.936 376.861 115.968 374.752 116.319 372.902C116.495 371.62 116.791 370.251 117.246 369.221C117.808 366.062 126.622 355.222 141.587 353.162ZM123.573 419.733C124.051 419.28 124.942 419.821 125.367 419.807C126.454 419.956 127.487 420.415 128.292 420.982C128.824 421.28 129.197 421.56 129.508 421.817L129.517 421.815C129.514 421.815 129.511 421.817 129.509 421.818L129.538 421.838C129.992 422.16 131.652 423.975 130.603 423.487C130.525 423.386 130.445 423.288 130.364 423.192C130.355 423.205 130.343 423.218 130.329 423.231L130.388 423.318C131.279 424.659 129.74 423.246 129.503 422.871C129.492 422.88 129.48 422.886 129.467 422.893L129.775 423.268C129.818 423.321 129.852 423.364 129.88 423.4L129.946 423.463C130.976 424.476 131.008 425.388 129.811 423.89C129.858 423.96 129.896 424.035 129.901 424.102L129.972 424.192C130.912 425.404 130.148 424.974 129.68 424.456L129.641 424.411L129.649 424.424C130.084 425.093 129.222 424.623 129.069 424.265L129.063 424.249C128.897 424.113 128.795 423.961 128.76 423.923L128.753 423.916C127.945 423.088 126.773 422.387 125.778 422.068C125.634 422.041 125.488 422.019 125.34 422.003C124.741 421.87 124.136 421.778 123.525 421.729C123.45 421.72 123.374 421.665 123.318 421.594C122.393 421.563 122.678 421.184 123.062 421.113L123.069 421.112L122.993 421.106C122.399 421.048 121.994 420.835 122.594 420.704L122.67 420.689C122.661 420.674 122.652 420.66 122.644 420.645C122.131 420.589 122.466 420.089 122.751 420.21C122.631 419.818 123.18 420.013 123.248 419.955C123.3 419.897 123.365 419.846 123.402 419.843C123.568 419.727 123.488 419.737 123.573 419.733ZM126.718 413.379L126.597 413.449C126.5 413.506 126.4 413.544 126.299 413.566C126.441 413.627 126.582 413.692 126.72 413.762C126.718 413.677 126.717 413.591 126.717 413.506L126.718 413.379Z" fill="black"/>
<path fill-rule="evenodd" clip-rule="evenodd" d="M168.561 439.427C167.141 438.847 165.874 437.88 164.947 436.645C164.625 436.216 164.542 435.763 164.609 435.348C164.685 434.882 164.961 434.459 165.337 434.176C165.714 433.891 166.186 433.751 166.642 433.823C167.039 433.885 167.433 434.102 167.746 434.552L167.811 434.642C168.362 435.388 169.079 435.999 169.897 436.393C170.685 436.773 171.567 436.951 172.479 436.848C174.217 436.651 175.414 435.711 176.687 434.435C176.845 434.274 177.003 434.107 177.161 433.939C177.261 433.785 177.4 433.687 177.555 433.635C177.726 433.578 177.92 433.581 178.098 433.643C178.269 433.703 178.422 433.816 178.525 433.967C178.622 434.111 178.678 434.288 178.66 434.491C178.543 435.814 177.852 436.995 176.87 437.922C175.779 438.951 174.333 439.664 172.972 439.913C171.473 440.189 169.945 439.992 168.561 439.427ZM173.68 419.019C175.275 419.989 177.706 422.251 175.99 424.656C173.969 426.777 171.061 424.345 169.628 423.246C168.299 422.394 166.805 424.585 168.038 425.58C178.395 433.251 182.599 419.273 174.487 417.878C173.593 417.725 173.262 418.719 173.68 419.019ZM155.12 410.095C155.296 407.907 158.628 407.41 158.96 409.576C159.256 411.516 158.907 413.298 158.033 415.045C157.199 416.714 155.101 415.935 154.942 414.416C154.729 412.379 155.01 411.457 155.12 410.095ZM180.485 409.126C180.95 408.518 181.621 408.102 182.424 408.337C184.935 409.071 184.195 412.637 183.313 414.373C182.834 415.316 181.285 415.555 180.585 414.725C179.444 413.371 178.898 410.668 180.348 409.335C180.388 409.266 180.431 409.197 180.485 409.126ZM157.998 400.518L158.395 400.449C159.622 400.236 161.147 400.032 162.015 401.019C162.476 401.542 162.634 402.515 162.015 403.016C160.927 403.897 159.723 403.556 158.419 403.63C157.344 403.692 156.311 403.87 155.276 404.166C153.004 404.816 151.153 406.001 149.213 407.303C148.959 407.474 148.699 407.148 148.82 406.91C149.94 404.716 152.11 402.913 154.284 401.814C155.445 401.228 156.714 400.741 157.998 400.518ZM178.196 399.535L178.5 399.597C181.804 400.288 186.096 401.668 187.66 404.914C187.72 405.373 187.657 405.472 187.606 405.536L187.589 405.557C187.546 405.612 187.513 405.688 187.314 405.75C187.259 405.737 187.203 405.723 187.147 405.708C186.429 405.52 185.862 405.261 185.313 404.993L184.717 404.699C184.026 404.36 183.329 404.034 182.59 403.792C181.014 403.278 179.392 402.916 177.746 402.722C177.389 402.68 177.045 402.56 176.774 402.353C176.517 402.157 176.32 401.886 176.23 401.525C176.114 401.058 176.148 400.705 176.398 400.283C176.586 399.967 176.856 399.748 177.165 399.622C177.48 399.494 177.839 399.463 178.196 399.535Z" fill="black"/>
<path fill-rule="evenodd" clip-rule="evenodd" d="M194.48 423.381C193.779 422.441 192.521 421.206 191.248 421.273C191.085 421.281 191.024 421.458 191.122 421.577C191.538 422.086 192.107 422.448 192.524 422.967C193.018 423.582 193.374 424.323 193.606 425.073C193.943 426.162 194.036 427.394 193.736 428.502C193.207 430.454 191.534 431.885 189.709 432.615C187.903 433.338 185.729 433.585 184.021 432.526C181.499 430.961 179.361 428.706 176.192 428.662C175.45 428.651 174.928 428.991 174.617 429.476C174.304 429.008 173.788 428.678 173.065 428.669C169.512 428.629 166.861 431.076 163.878 432.601C161.863 433.632 159.256 433.312 157.176 432.631C155.215 431.989 153.086 430.699 152.346 428.662C151.938 427.537 152.03 426.224 152.449 425.115C152.725 424.386 153.15 423.682 153.677 423.109C154.223 422.515 154.941 422.141 155.5 421.577C155.615 421.462 155.525 421.283 155.374 421.273C152.998 421.112 150.853 423.95 150.404 426.009C149.963 428.036 150.621 430.059 151.955 431.606C154.666 434.752 159.686 435.789 163.593 434.865C166.756 434.117 169.759 432.394 173.065 432.641C173.79 432.695 174.31 432.393 174.624 431.935C174.938 432.407 175.462 432.715 176.192 432.644C179.273 432.346 182.023 434.529 185.013 435.062C187.395 435.486 189.967 434.914 192.007 433.63C194.14 432.289 195.641 430.137 195.74 427.572C195.797 426.096 195.364 424.569 194.48 423.381Z" fill="black"/>
<path fill-rule="evenodd" clip-rule="evenodd" d="M529.55 191.259C527.715 190.605 525.947 189.849 524.336 188.737C519.691 185.279 516.663 180.074 513.802 175.143C509.771 167.972 506.9 160.33 504.915 152.358C504.062 148.932 503.772 144.961 501.835 141.924C497.442 135.566 484.561 136.39 477.721 137.506C473.141 138.317 472.194 143.445 471.154 147.239C470.288 150.392 469.721 153.58 469.245 156.811C468.112 157.556 466.834 158.161 465.615 158.688C452.335 162.762 450.001 170.314 444.929 181.98C436.361 198.936 413.115 205.576 409.603 225.643C407.341 238.892 413.774 251.356 420.408 262.369C426.585 274.4 435.209 280.174 448.943 277.332C461.826 274.441 474.206 269.605 486.862 265.868C492.991 264.36 499.111 260.439 505.559 261.806C518.844 264.791 532.494 266.194 546.11 265.807C565.226 266.58 565.223 248.226 563.261 234.012C561.887 211.892 550.734 197.688 529.55 191.259Z" fill="white"/>
<path fill-rule="evenodd" clip-rule="evenodd" d="M530.828 223.267C532.425 224.324 533.769 225.926 534.847 227.612C530.345 227.144 525.85 226.603 521.365 225.988C521.952 225.613 522.545 225.246 523.151 224.899C525.363 223.653 528.359 221.634 530.828 223.267ZM456.021 236.582C455.196 236.259 454.876 235 454.555 234.279C453.547 232.017 452.627 229.716 451.669 227.432C455.304 226.396 458.838 225.246 462.604 224.693C466.653 224.1 470.761 223.956 474.847 224.089C483.123 224.359 491.322 225.713 499.459 227.163C507.586 228.613 515.713 230.005 523.897 231.098C531.916 232.168 539.959 232.952 548.018 233.639C549.583 233.773 552.194 234.336 553.453 233.104C554.45 232.128 554.483 230.327 553.235 229.534C552.458 229.039 551.332 229.032 550.444 228.917C549.326 228.774 548.204 228.678 547.079 228.603C546.621 228.573 546.163 228.545 545.704 228.517C549.384 227.129 553.227 226.372 557.216 226.583C557.442 227.954 558.458 229.365 559.014 230.496C559.986 232.47 560.743 234.468 561.24 236.614C562.279 241.101 562.324 245.757 562.031 250.333C561.761 254.148 561.182 258.368 558.191 261.071C555.926 263.116 552.73 263.874 549.765 264.112C546.32 264.389 542.821 264.093 539.404 263.631C534.611 262.983 529.797 262.126 525.098 260.977C515.999 258.752 507.277 255.211 499.23 250.411C495.306 248.07 491.561 245.437 487.583 243.185C483.529 240.89 479.216 239.11 474.687 238.005C469.618 236.768 464.32 236.24 459.11 236.545C458.206 236.598 456.9 236.926 456.021 236.582ZM450.147 234.285C450.68 236.014 451.087 237.988 452.224 239.441C453.35 240.88 455.049 241.389 456.809 241.517C458.931 241.671 461.078 241.572 463.205 241.651C467.566 241.813 471.868 242.522 476.038 243.822C479.923 245.034 483.53 246.923 487.005 249.02C490.218 250.959 493.337 253.041 496.551 254.974C495.695 255.366 494.849 255.79 493.999 256.16C492.216 256.934 490.421 257.682 488.619 258.411C485.064 259.848 481.494 261.25 477.888 262.553C470.617 265.18 463.226 267.475 455.745 269.43C452.178 270.363 448.56 271.452 444.854 271.607C441.567 271.744 438.523 270.815 435.872 268.86C430.375 264.806 426.001 258.953 422.465 253.181C420.365 249.751 418.531 246.148 417.015 242.422C416.248 240.537 415.553 238.624 414.927 236.689C414.633 235.78 414.355 234.866 414.091 233.948C413.975 233.544 413.864 233.139 413.754 232.734C419.375 231.018 425.064 229.469 430.886 228.609C433.994 228.149 437.144 227.917 440.286 227.951C441.846 227.967 443.405 228.052 444.956 228.213C445.792 228.299 446.623 228.411 447.452 228.549C447.794 228.606 448.146 228.69 448.498 228.752C449.037 230.6 449.581 232.445 450.147 234.285ZM566.353 226.939C566.656 226.326 566.784 225.723 566.893 225.056C566.976 224.546 567.195 223.83 567.003 223.169C566.787 222.428 566.2 221.766 565.779 221.135C565.313 220.437 564.848 219.738 564.384 219.04C563.455 217.643 562.528 216.244 561.603 214.844C557.824 209.129 554.071 203.398 550.312 197.67C546.976 192.587 543.696 187.458 540.259 182.443C537.319 178.154 534.115 173.937 530.092 170.602C525.005 166.385 518.947 164.399 512.62 162.848C511.929 162.131 511.006 161.739 510.019 161.819C508.625 160.237 507.518 159.132 507.015 157.121C506.775 156.158 506.85 153.451 505.912 152.881C504.798 152.204 504.217 153.1 503.909 154.11C502.881 157.49 504.061 162.033 506.776 165.419C505.632 169.373 504.116 174.993 501.41 178.161C498.514 181.554 494.507 182.61 490.185 182.679C481.941 182.812 473.707 179.747 467.419 174.436C465.508 172.821 463.733 171.018 462.128 169.101C460.923 167.662 459.498 165.442 458.556 163.764C458.556 163.11 457.784 162.426 465.642 161.897C473.5 161.369 474.096 150.606 474.27 149.141C474.412 147.951 475.016 146.105 474.178 145.135C473.823 144.723 473.093 144.657 472.642 144.937C471.792 145.465 471.513 146.815 471.245 147.732C470.871 149.017 469.647 156.991 467.328 157.914C466.242 158.346 464.997 158.354 463.849 158.434C462.431 158.533 461.009 158.606 459.597 158.771C459.076 158.832 458.507 159 457.993 159.005C457.659 159.008 457.314 158.846 456.99 158.732C455.899 158.346 454.809 158.635 453.685 158.786C443.748 160.122 433.516 163.171 425.04 168.658C417.569 173.494 412.306 180.448 408.833 188.579C405.289 196.877 403.258 205.85 401.556 214.684C400.986 217.644 400.488 220.617 400.06 223.601C399.647 226.484 399.129 229.431 399.006 232.344C398.957 233.496 399.232 234.566 399.655 235.619C400.133 236.804 401.26 237.271 402.342 237.824C404.716 239.039 407.22 239.981 409.8 240.648C411.376 243.517 412.703 246.497 413.769 249.591C413.374 250.375 413.365 251.545 413.289 252.307C413.101 254.205 413.02 256.112 413.003 258.018C412.969 261.838 413.199 265.654 413.379 269.469C413.561 273.337 414.168 288.601 414.267 290.465C414.344 291.912 414.24 293.938 415.003 295.223C416.174 297.199 419.066 297.133 420.406 295.531C453.685 302.688 516.242 300.532 541.437 296.931C544.715 296.462 543.685 296.982 544.519 296.154C545.145 295.531 545.677 294.466 545.85 293.61C546.081 292.467 545.708 291.432 545.054 290.508C544.366 289.535 544.241 287.961 543.986 286.805C543.382 284.072 543.081 272.069 542.799 270.739C542.711 270.325 542.626 269.887 542.524 269.448C547.145 269.886 551.96 269.886 556.357 268.34C558.85 267.463 561.175 266.086 562.965 264.119C565.133 261.738 566.338 258.74 566.958 255.611C567.758 251.576 567.928 247.397 567.771 243.295C567.553 238.447 566.749 233.532 564.754 229.081C565.411 228.471 565.961 227.735 566.353 226.939Z" fill="black"/>
<path fill-rule="evenodd" clip-rule="evenodd" d="M492.652 70.4085C524.45 71.4156 526.368 86.5255 526.368 111.865C526.368 137.205 509.872 153.173 503.798 155.961C497.724 158.749 481.731 170.725 467.297 165.206C452.864 159.687 457.043 136.37 457.043 126.352C457.043 116.333 460.853 69.4014 492.652 70.4085Z" fill="white"/>
<path fill-rule="evenodd" clip-rule="evenodd" d="M505.552 147.639C499.713 150.9 493.026 151.026 486.745 148.974C482.978 147.747 479.524 145.848 476.291 143.578C473.479 141.602 470.97 139.411 468.483 137.083C466.436 132.567 464.613 128.059 463.759 123.145C462.994 118.734 462.893 114.154 463.78 109.752C470.342 104.352 476.864 98.9077 483.377 93.4466C486.694 90.665 490.02 87.8987 493.385 85.1763C495.094 83.794 496.787 82.3907 498.489 81.0021C498.77 80.7738 499.049 80.5456 499.33 80.3173C502.846 82.8916 506.615 85.0983 510.105 87.7146C511.932 89.0863 513.709 90.5467 515.401 92.083C516.289 92.8884 517.155 93.719 518 94.5708C518.773 95.3488 519.519 96.4645 520.616 96.7585C520.766 96.7984 520.907 96.8069 521.04 96.7879C522.506 109.63 523.548 123.496 517.267 135.158C514.527 140.246 510.642 144.794 505.552 147.639ZM467.564 152.358C466.76 151.621 467.958 150.429 468.759 151.162C473.789 155.771 480.364 158.214 487.005 159.345C488.077 159.528 487.62 161.157 486.556 160.975C479.622 159.795 472.807 157.162 467.564 152.358ZM461.529 159.429C460.569 158.914 461.424 157.455 462.382 157.969C466.301 160.072 470.598 161.164 474.958 161.901C476.03 162.083 475.573 163.712 474.509 163.532C470.001 162.769 465.578 161.602 461.529 159.429ZM477.476 88.1989C480.728 85.2799 484.222 82.5025 487.913 80.1589C491.648 77.7875 495.728 76.3694 500.137 76.3356C499.829 76.5828 499.535 76.8576 499.237 77.1131C498.405 77.8256 497.574 78.5421 496.744 79.2564C495.083 80.6873 493.419 82.1158 491.779 83.5701C488.551 86.436 485.312 89.2871 482.091 92.1594C475.898 97.6798 469.839 103.321 463.911 109.124C463.943 108.983 463.977 108.841 464.01 108.7C465.973 100.499 471.312 93.7339 477.476 88.1989ZM502.964 76.6927C502.985 76.6293 503 76.5678 503.008 76.5088C511.47 77.6121 518.537 83.8403 520.873 92.0409C520.67 92.3242 520.558 92.6602 520.6 93.0172C520.622 93.197 520.643 93.3788 520.664 93.5584C520.374 93.2712 520.076 93.0026 519.823 92.7469C518.98 91.893 518.116 91.0622 517.229 90.2527C515.414 88.598 513.529 87.051 511.543 85.6074C508.089 83.0966 504.35 80.7887 500.232 79.584C500.503 79.362 500.773 79.1401 501.046 78.9203C501.859 78.2586 502.613 77.7135 502.964 76.6927ZM518.133 67.9238C512.938 62.2448 505.744 58.0855 498.169 56.6398C490.935 55.2576 483.445 56.1685 476.611 58.8548C462.31 64.4767 451.026 76.8388 445.742 91.1639C442.662 99.5101 441.652 108.66 442.577 117.494C443.498 126.288 446.145 135.37 450.962 142.852C451.404 143.537 451.888 144.194 452.395 144.83C452.169 147.412 451.307 149.944 449.95 152.147C449.877 152.265 449.8 152.38 449.724 152.496C448.336 153.537 446.895 154.513 445.489 155.521C444.27 156.395 443.063 157.291 441.917 158.258C440.835 159.171 439.579 160.188 438.846 161.421C438.246 162.43 438.001 163.803 438.82 164.766C439.808 165.926 441.481 165.517 442.818 165.517C442.932 165.517 443.047 165.519 443.161 165.521C443.563 165.773 443.976 166.002 444.377 166.214C448.427 168.361 452.492 170.486 456.561 172.599C464.666 176.811 472.736 181.193 481.007 185.071C484.84 186.869 488.942 188.442 493.235 188.436C497.262 188.429 500.902 186.829 504.046 184.397C507.629 181.626 510.625 178.107 513.532 174.658C514.694 173.277 515.832 171.88 516.95 170.464C519.096 169.748 521.226 169.539 523.14 170.921C524.676 172.031 526.7 170.521 526.736 168.856C526.749 168.264 526.723 167.681 526.66 167.106C526.276 163.555 524.539 160.343 522.582 157.363C521.514 155.733 520.388 154.133 519.255 152.548C518.989 152.174 518.727 151.8 518.473 151.419C523.022 144.72 526.63 137.291 528.849 129.528C531.179 121.359 531.971 112.888 531.452 104.424C530.653 91.4513 527.095 77.722 518.133 67.9238Z" fill="black"/>
<path fill-rule="evenodd" clip-rule="evenodd" d="M502.223 138.411C500.803 137.831 499.536 136.864 498.609 135.629C498.287 135.2 498.204 134.747 498.271 134.332C498.347 133.866 498.623 133.443 498.999 133.16C499.376 132.875 499.848 132.735 500.304 132.807C500.701 132.869 501.095 133.086 501.408 133.536L501.473 133.626C502.024 134.372 502.741 134.983 503.559 135.377C504.347 135.757 505.229 135.935 506.141 135.832C507.879 135.635 509.076 134.695 510.349 133.419C510.507 133.258 510.665 133.091 510.823 132.923C510.923 132.769 511.063 132.671 511.217 132.619C511.388 132.562 511.582 132.565 511.76 132.627C511.931 132.687 512.084 132.8 512.187 132.951C512.284 133.095 512.34 133.272 512.322 133.475C512.205 134.798 511.514 135.979 510.532 136.906C509.441 137.935 507.995 138.648 506.634 138.897C505.135 139.173 503.607 138.976 502.223 138.411ZM507.342 118.003C508.937 118.973 511.368 121.235 509.652 123.64C507.631 125.761 504.723 123.329 503.29 122.23C501.961 121.378 500.467 123.569 501.7 124.564C512.057 132.235 516.261 118.257 508.149 116.862C507.255 116.709 506.924 117.703 507.342 118.003ZM488.782 109.08C488.958 106.891 492.29 106.394 492.622 108.56C492.918 110.5 492.569 112.282 491.695 114.029C490.861 115.698 488.763 114.919 488.604 113.4C488.391 111.363 488.672 110.441 488.782 109.08ZM514.147 108.111C514.612 107.502 515.283 107.087 516.086 107.321C518.597 108.055 517.857 111.621 516.975 113.357C516.496 114.3 514.947 114.539 514.247 113.709C513.106 112.355 512.56 109.653 514.01 108.319C514.05 108.25 514.094 108.181 514.147 108.111ZM491.66 99.5023L492.057 99.4329C493.284 99.2206 494.809 99.0166 495.677 100.003C496.138 100.527 496.296 101.499 495.677 102C494.589 102.882 493.385 102.54 492.081 102.615C491.006 102.676 489.973 102.854 488.938 103.15C486.666 103.8 484.815 104.986 482.875 106.287C482.621 106.458 482.361 106.133 482.482 105.894C483.602 103.7 485.772 101.897 487.946 100.798C489.107 100.212 490.376 99.7255 491.66 99.5023ZM511.858 98.5193L512.162 98.5814C515.466 99.2723 519.758 100.652 521.322 103.898C521.382 104.357 521.319 104.456 521.268 104.52L521.251 104.541C521.208 104.596 521.175 104.672 520.976 104.735C520.921 104.721 520.865 104.707 520.809 104.693C520.091 104.505 519.524 104.246 518.975 103.977L518.379 103.683C517.688 103.345 516.991 103.018 516.252 102.777C514.676 102.262 513.054 101.9 511.408 101.706C511.051 101.665 510.707 101.544 510.436 101.338C510.179 101.142 509.982 100.87 509.892 100.509C509.776 100.042 509.81 99.689 510.06 99.2678C510.248 98.9515 510.518 98.7323 510.827 98.6064C511.142 98.478 511.501 98.4478 511.858 98.5193Z" fill="black"/>
<path fill-rule="evenodd" clip-rule="evenodd" d="M526.249 119.29C523.684 121.942 519.403 122.703 515.99 121.281C507.227 117.618 511.516 106.195 518.274 103.127C519.118 102.916 520.246 102.417 521.274 102.304C521.367 102.258 521.569 102.39 521.815 102.265C529.266 103.098 530.963 114.669 526.249 119.29ZM497.986 119.969C495.11 123.786 489.761 124.964 485.391 123.189C476.758 119.788 479.82 109.658 485.727 105.687C498.204 100.997 503.356 112.931 497.986 119.969ZM479.272 111.511C479.264 111.507 479.256 111.505 479.248 111.502C479.293 111.482 479.339 111.461 479.384 111.441C479.37 111.48 479.353 111.518 479.339 111.557C479.317 111.541 479.297 111.523 479.272 111.511ZM532.188 107.385C531.484 107.387 530.466 107.502 529.883 107.991C528.445 103.14 523.138 98.6504 518.522 101.924C514.887 103.094 512.19 105.687 510.657 109.135C507.893 107.49 503.547 108.193 501.15 110.367C499.58 105.179 495.717 103.362 491.119 103.094C486.1 102.271 481.098 107.147 479.537 111.059C478.239 110.911 476.3 110.498 475.079 111.299C467.155 109.22 453.3 108.074 451.69 109.229C450.542 109.67 449.912 112.381 451.515 112.527C452.912 112.328 451.352 110.541 452.76 110.345C460.266 109.88 467.551 111.392 474.977 112.027C475.64 112.919 477.782 113.217 478.925 112.859C477.125 119.494 481.01 124.009 486.831 125.361C495.846 127.432 503.688 119.365 501.331 110.975C504.062 109.616 507.203 109.674 510.177 110.39C505.206 128.691 534.669 127.87 530.068 108.618C533.13 110.142 533.795 107.693 532.188 107.385Z" fill="black"/>
</svg>
